<svg xmlns:xlink="http://www.w3.org/1999/xlink" xmlns="http://www.w3.org/2000/svg" width="564.48pt" height="276.48pt" viewBox="0 0 564.48 276.48" version="1.1">
 <metadata>
  <rdf:RDF xmlns:dc="http://purl.org/dc/elements/1.1/" xmlns:cc="http://creativecommons.org/ns#" xmlns:rdf="http://www.w3.org/1999/02/22-rdf-syntax-ns#">
   <cc:Work>
    <dc:type rdf:resource="http://purl.org/dc/dcmitype/StillImage"/>
    <dc:date>2025-06-17T10:18:57.436285</dc:date>
    <dc:format>image/svg+xml</dc:format>
    <dc:creator>
     <cc:Agent>
      <dc:title>Matplotlib v3.10.3, https://matplotlib.org/</dc:title>
     </cc:Agent>
    </dc:creator>
   </cc:Work>
  </rdf:RDF>
 </metadata>
 <defs>
  <style type="text/css">*{stroke-linejoin: round; stroke-linecap: butt}</style>
 </defs>
 <g id="figure_1">
  <g id="patch_1">
   <path d="M 0 276.48  L 564.48 276.48  L 564.48 0  L 0 0  z " style="fill: #ffffff"/>
  </g>
  <g id="axes_1">
   <g id="patch_2">
    <path d="M 43.784417 237.026449  L 548.500515 237.026449  L 548.500515 7.2  L 43.784417 7.2  z " style="fill: #ffffff"/>
   </g>
   <g id="matplotlib.axis_1">
    <g id="xtick_1">
     <g id="line2d_1">
      <defs>
       <path id="m6ba416ce95" d="M 0 0  L 0 3.5  " style="stroke: #000000; stroke-width: 0.8"/>
      </defs>
      <g>
       <use xlink:href="#m6ba416ce95" x="43.784417" y="237.026449" style="stroke: #000000; stroke-width: 0.8"/>
      </g>
     </g>
     <g id="text_1">
      <!-- $\mathdefault{0}$ -->
      <g transform="translate(40.857922 252.328629) scale(0.12 -0.12)">
       <defs>
        <path id="CMR17-30" d="M 2688 2025  C 2688 2416 2682 3080 2413 3591  C 2176 4039 1798 4198 1466 4198  C 1158 4198 768 4058 525 3597  C 269 3118 243 2524 243 2025  C 243 1661 250 1106 448 619  C 723 -39 1216 -128 1466 -128  C 1760 -128 2208 -7 2470 600  C 2662 1042 2688 1559 2688 2025  z M 1466 -26  C 1056 -26 813 325 723 812  C 653 1188 653 1738 653 2096  C 653 2588 653 2997 736 3387  C 858 3929 1216 4096 1466 4096  C 1728 4096 2067 3923 2189 3400  C 2272 3036 2278 2607 2278 2096  C 2278 1680 2278 1169 2202 792  C 2067 95 1690 -26 1466 -26  z " transform="scale(0.015625)"/>
       </defs>
       <use xlink:href="#CMR17-30" transform="scale(0.996264)"/>
      </g>
     </g>
    </g>
    <g id="xtick_2">
     <g id="line2d_2">
      <g>
       <use xlink:href="#m6ba416ce95" x="106.873929" y="237.026449" style="stroke: #000000; stroke-width: 0.8"/>
      </g>
     </g>
     <g id="text_2">
      <!-- $\mathdefault{25}$ -->
      <g transform="translate(101.020939 252.328629) scale(0.12 -0.12)">
       <defs>
        <path id="CMR17-32" d="M 2669 989  L 2554 989  C 2490 536 2438 459 2413 420  C 2381 369 1920 369 1830 369  L 602 369  C 832 619 1280 1072 1824 1597  C 2214 1967 2669 2402 2669 3035  C 2669 3790 2067 4224 1395 4224  C 691 4224 262 3604 262 3030  C 262 2780 448 2748 525 2748  C 589 2748 781 2787 781 3010  C 781 3207 614 3264 525 3264  C 486 3264 448 3258 422 3245  C 544 3790 915 4058 1306 4058  C 1862 4058 2227 3617 2227 3035  C 2227 2479 1901 2000 1536 1584  L 262 146  L 262 0  L 2515 0  L 2669 989  z " transform="scale(0.015625)"/>
        <path id="CMR17-35" d="M 730 3692  C 794 3666 1056 3584 1325 3584  C 1920 3584 2246 3911 2432 4100  C 2432 4157 2432 4192 2394 4192  C 2387 4192 2374 4192 2323 4163  C 2099 4058 1837 3973 1517 3973  C 1325 3973 1037 3999 723 4139  C 653 4171 640 4171 634 4171  C 602 4171 595 4164 595 4037  L 595 2203  C 595 2089 595 2057 659 2057  C 691 2057 704 2070 736 2114  C 941 2401 1222 2522 1542 2522  C 1766 2522 2246 2382 2246 1289  C 2246 1085 2246 715 2054 421  C 1894 159 1645 25 1370 25  C 947 25 518 320 403 814  C 429 807 480 795 506 795  C 589 795 749 840 749 1038  C 749 1210 627 1280 506 1280  C 358 1280 262 1190 262 1011  C 262 454 704 -128 1382 -128  C 2042 -128 2669 440 2669 1264  C 2669 2030 2170 2624 1549 2624  C 1222 2624 947 2503 730 2274  L 730 3692  z " transform="scale(0.015625)"/>
       </defs>
       <use xlink:href="#CMR17-32" transform="scale(0.996264)"/>
       <use xlink:href="#CMR17-35" transform="translate(45.690477 0) scale(0.996264)"/>
      </g>
     </g>
    </g>
    <g id="xtick_3">
     <g id="line2d_3">
      <g>
       <use xlink:href="#m6ba416ce95" x="169.963442" y="237.026449" style="stroke: #000000; stroke-width: 0.8"/>
      </g>
     </g>
     <g id="text_3">
      <!-- $\mathdefault{50}$ -->
      <g transform="translate(164.110451 252.328629) scale(0.12 -0.12)">
       <use xlink:href="#CMR17-35" transform="scale(0.996264)"/>
       <use xlink:href="#CMR17-30" transform="translate(45.690477 0) scale(0.996264)"/>
      </g>
     </g>
    </g>
    <g id="xtick_4">
     <g id="line2d_4">
      <g>
       <use xlink:href="#m6ba416ce95" x="233.052954" y="237.026449" style="stroke: #000000; stroke-width: 0.8"/>
      </g>
     </g>
     <g id="text_4">
      <!-- $\mathdefault{75}$ -->
      <g transform="translate(227.199964 252.328629) scale(0.12 -0.12)">
       <defs>
        <path id="CMR17-37" d="M 2886 3941  L 2886 4081  L 1382 4081  C 634 4081 621 4165 595 4288  L 480 4288  L 294 3094  L 410 3094  C 429 3215 474 3540 550 3661  C 589 3712 1062 3712 1171 3712  L 2579 3712  L 1869 2661  C 1395 1954 1069 999 1069 165  C 1069 89 1069 -128 1299 -128  C 1530 -128 1530 89 1530 171  L 1530 465  C 1530 1508 1709 2196 2003 2636  L 2886 3941  z " transform="scale(0.015625)"/>
       </defs>
       <use xlink:href="#CMR17-37" transform="scale(0.996264)"/>
       <use xlink:href="#CMR17-35" transform="translate(45.690477 0) scale(0.996264)"/>
      </g>
     </g>
    </g>
    <g id="xtick_5">
     <g id="line2d_5">
      <g>
       <use xlink:href="#m6ba416ce95" x="296.142466" y="237.026449" style="stroke: #000000; stroke-width: 0.8"/>
      </g>
     </g>
     <g id="text_5">
      <!-- $\mathdefault{100}$ -->
      <g transform="translate(287.362981 252.328629) scale(0.12 -0.12)">
       <defs>
        <path id="CMR17-31" d="M 1702 4058  C 1702 4192 1696 4192 1606 4192  C 1357 3916 979 3827 621 3827  C 602 3827 570 3827 563 3808  C 557 3795 557 3782 557 3648  C 755 3648 1088 3686 1344 3839  L 1344 461  C 1344 236 1331 160 781 160  L 589 160  L 589 0  C 896 0 1216 0 1523 0  C 1830 0 2150 0 2458 0  L 2458 160  L 2266 160  C 1715 160 1702 230 1702 458  L 1702 4058  z " transform="scale(0.015625)"/>
       </defs>
       <use xlink:href="#CMR17-31" transform="scale(0.996264)"/>
       <use xlink:href="#CMR17-30" transform="translate(45.690477 0) scale(0.996264)"/>
       <use xlink:href="#CMR17-30" transform="translate(91.380954 0) scale(0.996264)"/>
      </g>
     </g>
    </g>
    <g id="xtick_6">
     <g id="line2d_6">
      <g>
       <use xlink:href="#m6ba416ce95" x="359.231978" y="237.026449" style="stroke: #000000; stroke-width: 0.8"/>
      </g>
     </g>
     <g id="text_6">
      <!-- $\mathdefault{125}$ -->
      <g transform="translate(350.452493 252.328629) scale(0.12 -0.12)">
       <use xlink:href="#CMR17-31" transform="scale(0.996264)"/>
       <use xlink:href="#CMR17-32" transform="translate(45.690477 0) scale(0.996264)"/>
       <use xlink:href="#CMR17-35" transform="translate(91.380954 0) scale(0.996264)"/>
      </g>
     </g>
    </g>
    <g id="xtick_7">
     <g id="line2d_7">
      <g>
       <use xlink:href="#m6ba416ce95" x="422.32149" y="237.026449" style="stroke: #000000; stroke-width: 0.8"/>
      </g>
     </g>
     <g id="text_7">
      <!-- $\mathdefault{150}$ -->
      <g transform="translate(413.542005 252.328629) scale(0.12 -0.12)">
       <use xlink:href="#CMR17-31" transform="scale(0.996264)"/>
       <use xlink:href="#CMR17-35" transform="translate(45.690477 0) scale(0.996264)"/>
       <use xlink:href="#CMR17-30" transform="translate(91.380954 0) scale(0.996264)"/>
      </g>
     </g>
    </g>
    <g id="xtick_8">
     <g id="line2d_8">
      <g>
       <use xlink:href="#m6ba416ce95" x="485.411002" y="237.026449" style="stroke: #000000; stroke-width: 0.8"/>
      </g>
     </g>
     <g id="text_8">
      <!-- $\mathdefault{175}$ -->
      <g transform="translate(476.631517 252.328629) scale(0.12 -0.12)">
       <use xlink:href="#CMR17-31" transform="scale(0.996264)"/>
       <use xlink:href="#CMR17-37" transform="translate(45.690477 0) scale(0.996264)"/>
       <use xlink:href="#CMR17-35" transform="translate(91.380954 0) scale(0.996264)"/>
      </g>
     </g>
    </g>
    <g id="xtick_9">
     <g id="line2d_9">
      <g>
       <use xlink:href="#m6ba416ce95" x="548.500515" y="237.026449" style="stroke: #000000; stroke-width: 0.8"/>
      </g>
     </g>
     <g id="text_9">
      <!-- $\mathdefault{200}$ -->
      <g transform="translate(539.721029 252.328629) scale(0.12 -0.12)">
       <use xlink:href="#CMR17-32" transform="scale(0.996264)"/>
       <use xlink:href="#CMR17-30" transform="translate(45.690477 0) scale(0.996264)"/>
       <use xlink:href="#CMR17-30" transform="translate(91.380954 0) scale(0.996264)"/>
      </g>
     </g>
    </g>
    <g id="text_10">
     <!-- Time -->
     <g transform="translate(283.544034 266.955404) scale(0.12 -0.12)">
      <defs>
       <path id="CMSS17-54" d="M 2317 3968  L 2848 3968  C 2925 3968 3002 3968 3078 3968  L 3878 3968  L 3878 4376  L 218 4376  L 218 3968  L 1018 3968  C 1094 3968 1171 3968 1248 3968  L 1779 3968  L 1779 -32  L 2317 -32  L 2317 3968  z " transform="scale(0.015625)"/>
       <path id="CMSS17-69" d="M 979 4183  L 442 4183  L 442 3648  L 979 3648  L 979 4183  z M 947 2739  L 474 2739  L 474 0  L 947 0  L 947 2739  z " transform="scale(0.015625)"/>
       <path id="CMSS17-6d" d="M 4288 1877  C 4288 2308 4179 2816 3462 2816  C 2982 2816 2694 2516 2566 2331  C 2451 2670 2182 2816 1798 2816  C 1363 2816 1088 2568 941 2389  L 941 2758  L 474 2758  L 474 0  L 960 0  L 960 1559  C 960 1939 1101 2428 1555 2428  C 2138 2428 2138 2016 2138 1829  L 2138 0  L 2624 0  L 2624 1559  C 2624 1939 2765 2428 3219 2428  C 3802 2428 3802 2016 3802 1829  L 3802 0  L 4288 0  L 4288 1877  z " transform="scale(0.015625)"/>
       <path id="CMSS17-65" d="M 2502 1377  C 2502 1590 2490 2003 2285 2345  C 2061 2713 1696 2816 1421 2816  C 755 2816 192 2188 192 1375  C 192 582 774 -64 1510 -64  C 1798 -64 2150 19 2470 248  C 2470 274 2458 414 2451 420  C 2451 433 2432 630 2432 656  C 2125 407 1773 325 1517 325  C 1107 325 666 667 646 1377  L 2502 1377  z M 698 1728  C 781 2084 1062 2421 1421 2421  C 1517 2421 1965 2421 2080 1728  L 698 1728  z " transform="scale(0.015625)"/>
      </defs>
      <use xlink:href="#CMSS17-54" transform="scale(0.996264)"/>
      <use xlink:href="#CMSS17-69" transform="translate(63.819454 0) scale(0.996264)"/>
      <use xlink:href="#CMSS17-6d" transform="translate(86.000177 0) scale(0.996264)"/>
      <use xlink:href="#CMSS17-65" transform="translate(160.229431 0) scale(0.996264)"/>
     </g>
    </g>
   </g>
   <g id="matplotlib.axis_2">
    <g id="ytick_1">
     <g id="line2d_10">
      <defs>
       <path id="md02e28908f" d="M 0 0  L -3.5 0  " style="stroke: #000000; stroke-width: 0.8"/>
      </defs>
      <g>
       <use xlink:href="#md02e28908f" x="43.784417" y="226.584248" style="stroke: #000000; stroke-width: 0.8"/>
      </g>
     </g>
     <g id="text_11">
      <!-- $\mathdefault{0.0}$ -->
      <g transform="translate(21.826776 230.735338) scale(0.12 -0.12)">
       <defs>
        <path id="CMMI12-3a" d="M 1178 307  C 1178 492 1024 619 870 619  C 685 619 557 466 557 313  C 557 128 710 0 864 0  C 1050 0 1178 153 1178 307  z " transform="scale(0.015625)"/>
       </defs>
       <use xlink:href="#CMR17-30" transform="scale(0.996264)"/>
       <use xlink:href="#CMMI12-3a" transform="translate(45.690477 0) scale(0.996264)"/>
       <use xlink:href="#CMR17-30" transform="translate(72.787654 0) scale(0.996264)"/>
      </g>
     </g>
    </g>
    <g id="ytick_2">
     <g id="line2d_11">
      <g>
       <use xlink:href="#md02e28908f" x="43.784417" y="184.79673" style="stroke: #000000; stroke-width: 0.8"/>
      </g>
     </g>
     <g id="text_12">
      <!-- $\mathdefault{0.2}$ -->
      <g transform="translate(21.826776 188.94782) scale(0.12 -0.12)">
       <use xlink:href="#CMR17-30" transform="scale(0.996264)"/>
       <use xlink:href="#CMMI12-3a" transform="translate(45.690477 0) scale(0.996264)"/>
       <use xlink:href="#CMR17-32" transform="translate(72.787654 0) scale(0.996264)"/>
      </g>
     </g>
    </g>
    <g id="ytick_3">
     <g id="line2d_12">
      <g>
       <use xlink:href="#md02e28908f" x="43.784417" y="143.009212" style="stroke: #000000; stroke-width: 0.8"/>
      </g>
     </g>
     <g id="text_13">
      <!-- $\mathdefault{0.4}$ -->
      <g transform="translate(21.826776 147.160302) scale(0.12 -0.12)">
       <defs>
        <path id="CMR17-34" d="M 2150 4122  C 2150 4256 2144 4256 2029 4256  L 128 1254  L 128 1088  L 1779 1088  L 1779 457  C 1779 224 1766 160 1318 160  L 1197 160  L 1197 0  C 1402 0 1747 0 1965 0  C 2182 0 2528 0 2733 0  L 2733 160  L 2611 160  C 2163 160 2150 224 2150 457  L 2150 1088  L 2803 1088  L 2803 1254  L 2150 1254  L 2150 4122  z M 1798 3703  L 1798 1254  L 256 1254  L 1798 3703  z " transform="scale(0.015625)"/>
       </defs>
       <use xlink:href="#CMR17-30" transform="scale(0.996264)"/>
       <use xlink:href="#CMMI12-3a" transform="translate(45.690477 0) scale(0.996264)"/>
       <use xlink:href="#CMR17-34" transform="translate(72.787654 0) scale(0.996264)"/>
      </g>
     </g>
    </g>
    <g id="ytick_4">
     <g id="line2d_13">
      <g>
       <use xlink:href="#md02e28908f" x="43.784417" y="101.221693" style="stroke: #000000; stroke-width: 0.8"/>
      </g>
     </g>
     <g id="text_14">
      <!-- $\mathdefault{0.6}$ -->
      <g transform="translate(21.826776 105.372783) scale(0.12 -0.12)">
       <defs>
        <path id="CMR17-36" d="M 678 2176  C 678 3690 1395 4032 1811 4032  C 1946 4032 2272 4009 2400 3776  C 2298 3776 2106 3776 2106 3553  C 2106 3381 2246 3323 2336 3323  C 2394 3323 2566 3348 2566 3560  C 2566 3954 2246 4179 1805 4179  C 1043 4179 243 3390 243 1984  C 243 253 966 -128 1478 -128  C 2099 -128 2688 427 2688 1283  C 2688 2081 2170 2662 1517 2662  C 1126 2662 838 2407 678 1960  L 678 2176  z M 1478 25  C 691 25 691 1200 691 1436  C 691 1896 909 2560 1504 2560  C 1613 2560 1926 2560 2138 2120  C 2253 1870 2253 1609 2253 1289  C 2253 944 2253 690 2118 434  C 1978 171 1773 25 1478 25  z " transform="scale(0.015625)"/>
       </defs>
       <use xlink:href="#CMR17-30" transform="scale(0.996264)"/>
       <use xlink:href="#CMMI12-3a" transform="translate(45.690477 0) scale(0.996264)"/>
       <use xlink:href="#CMR17-36" transform="translate(72.787654 0) scale(0.996264)"/>
      </g>
     </g>
    </g>
    <g id="ytick_5">
     <g id="line2d_14">
      <g>
       <use xlink:href="#md02e28908f" x="43.784417" y="59.434175" style="stroke: #000000; stroke-width: 0.8"/>
      </g>
     </g>
     <g id="text_15">
      <!-- $\mathdefault{0.8}$ -->
      <g transform="translate(21.826776 63.585265) scale(0.12 -0.12)">
       <defs>
        <path id="CMR17-38" d="M 1741 2264  C 2144 2467 2554 2773 2554 3263  C 2554 3841 1990 4179 1472 4179  C 890 4179 378 3759 378 3180  C 378 3021 416 2747 666 2505  C 730 2442 998 2251 1171 2130  C 883 1983 211 1634 211 934  C 211 279 838 -128 1459 -128  C 2144 -128 2720 362 2720 1010  C 2720 1590 2330 1857 2074 2029  L 1741 2264  z M 902 2822  C 851 2854 595 3051 595 3351  C 595 3739 998 4032 1459 4032  C 1965 4032 2336 3676 2336 3262  C 2336 2669 1670 2331 1638 2331  C 1632 2331 1626 2331 1574 2370  L 902 2822  z M 2080 1519  C 2176 1449 2483 1240 2483 851  C 2483 381 2010 25 1472 25  C 890 25 448 438 448 940  C 448 1443 838 1862 1280 2060  L 2080 1519  z " transform="scale(0.015625)"/>
       </defs>
       <use xlink:href="#CMR17-30" transform="scale(0.996264)"/>
       <use xlink:href="#CMMI12-3a" transform="translate(45.690477 0) scale(0.996264)"/>
       <use xlink:href="#CMR17-38" transform="translate(72.787654 0) scale(0.996264)"/>
      </g>
     </g>
    </g>
    <g id="ytick_6">
     <g id="line2d_15">
      <g>
       <use xlink:href="#md02e28908f" x="43.784417" y="17.646657" style="stroke: #000000; stroke-width: 0.8"/>
      </g>
     </g>
     <g id="text_16">
      <!-- $\mathdefault{1.0}$ -->
      <g transform="translate(21.826776 21.797747) scale(0.12 -0.12)">
       <use xlink:href="#CMR17-31" transform="scale(0.996264)"/>
       <use xlink:href="#CMMI12-3a" transform="translate(45.690477 0) scale(0.996264)"/>
       <use xlink:href="#CMR17-30" transform="translate(72.787654 0) scale(0.996264)"/>
      </g>
     </g>
    </g>
    <g id="text_17">
     <!-- $P_{e}$ -->
     <g transform="translate(15.50218 127.85005) rotate(-90) scale(0.12 -0.12)">
      <defs>
       <path id="CMMI12-50" d="M 1894 2023  L 2970 2023  C 3853 2023 4736 2673 4736 3401  C 4736 3898 4314 4352 3507 4352  L 1530 4352  C 1408 4352 1350 4352 1350 4231  C 1350 4167 1408 4167 1504 4167  C 1894 4167 1894 4116 1894 4046  C 1894 4034 1894 3995 1869 3899  L 1005 472  C 947 249 934 185 486 185  C 365 185 301 185 301 70  C 301 0 358 0 397 0  C 518 0 646 0 768 0  L 1517 0  C 1638 0 1773 0 1894 0  C 1946 0 2016 0 2016 121  C 2016 185 1958 185 1862 185  C 1478 185 1472 230 1472 293  C 1472 325 1478 369 1485 401  L 1894 2023  z M 2355 3930  C 2413 4167 2438 4167 2688 4167  L 3322 4167  C 3802 4167 4198 4013 4198 3535  C 4198 3369 4115 2827 3821 2534  C 3712 2419 3405 2176 2822 2176  L 1920 2176  L 2355 3930  z " transform="scale(0.015625)"/>
       <path id="CMMI12-65" d="M 1146 1479  C 1318 1479 1754 1479 2061 1595  C 2547 1783 2592 2158 2592 2274  C 2592 2558 2349 2816 1926 2816  C 1254 2816 288 2210 288 1073  C 288 402 672 -64 1254 -64  C 2125 -64 2675 609 2675 692  C 2675 730 2637 762 2611 762  C 2592 762 2586 756 2528 699  C 2118 159 1510 64 1267 64  C 902 64 710 350 710 822  C 710 911 710 1071 806 1479  L 1146 1479  z M 838 1600  C 1114 2592 1722 2689 1926 2689  C 2208 2689 2400 2522 2400 2277  C 2400 1600 1376 1600 1107 1600  L 838 1600  z " transform="scale(0.015625)"/>
      </defs>
      <use xlink:href="#CMMI12-50" transform="scale(0.996264)"/>
      <use xlink:href="#CMMI12-65" transform="translate(62.877232 -14.943915) scale(0.697382)"/>
     </g>
    </g>
   </g>
   <g id="line2d_16">
    <path d="M 43.784417 17.646657  L 44.795872 17.981886  L 45.807328 18.984542  L 46.818783 20.646884  L 47.830238 22.956942  L 48.841693 25.898644  L 49.853148 29.451942  L 50.864603 33.592941  L 51.876058 38.294066  L 53.898968 49.249329  L 55.921879 62.031597  L 57.944789 76.310082  L 60.979154 99.724808  L 69.070795 164.277079  L 71.093705 178.713506  L 73.116615 191.729565  L 75.139526 203.013894  L 77.162436 212.302047  L 78.173891 216.129652  L 79.185346 219.383462  L 80.196801 222.045995  L 81.208256 224.103825  L 82.219711 225.547644  L 83.231166 226.37196  L 84.242622 226.575085  L 85.254077 226.159437  L 86.265532 225.131426  L 87.276987 223.501309  L 88.288442 221.283174  L 89.299897 218.494821  L 90.311352 215.157624  L 91.322807 211.2964  L 93.345717 202.117189  L 95.368628 191.217164  L 97.391538 178.898084  L 100.425903 158.500883  L 108.517544 101.701257  L 110.540454 88.975735  L 112.563364 77.528012  L 114.586275 67.651848  L 115.59773 63.382149  L 116.609185 59.59451  L 117.62064 56.312681  L 118.632095 53.557083  L 119.64355 51.344343  L 120.655005 49.687471  L 121.66646 48.59585  L 122.677915 48.075528  L 123.689371 48.128819  L 124.700826 48.754174  L 125.712281 49.946362  L 126.723736 51.696645  L 127.735191 53.992765  L 128.746646 56.818942  L 129.758101 60.156049  L 130.769556 63.981787  L 132.792467 72.994956  L 134.815377 83.622529  L 136.838287 95.588999  L 139.872652 115.370753  L 148.975748 177.105066  L 150.998658 189.112175  L 153.021569 199.822579  L 155.044479 208.981919  L 156.055934 212.91147  L 157.067389 216.376779  L 158.078844 219.358651  L 159.090299 221.841182  L 160.101754 223.811408  L 161.113209 225.259686  L 162.124665 226.17983  L 163.13612 226.56919  L 164.147575 226.428634  L 165.15903 225.762147  L 166.170485 224.577129  L 167.18194 222.884311  L 168.193395 220.697629  L 169.20485 218.034126  L 170.216305 214.91382  L 171.227761 211.359583  L 173.250671 203.054095  L 175.273581 193.351068  L 177.296491 182.517769  L 180.330856 164.797578  L 187.411042 122.180204  L 189.433952 111.11611  L 191.456863 101.089754  L 193.479773 92.358064  L 195.502683 85.140919  L 196.514138 82.158334  L 197.525593 79.618694  L 198.537048 77.537488  L 199.548503 75.927148  L 200.559959 74.797002  L 201.571414 74.153402  L 202.582869 73.999555  L 203.594324 74.335515  L 204.605779 75.158117  L 205.617234 76.461082  L 206.628689 78.23509  L 207.640144 80.467886  L 208.651599 83.144322  L 209.663055 86.246449  L 211.685965 93.642791  L 213.708875 102.462652  L 215.731785 112.476766  L 218.76615 129.167972  L 228.880702 187.442505  L 230.903612 197.399308  L 232.926522 206.180519  L 234.949432 213.578072  L 235.960887 216.703105  L 236.972342 219.421488  L 237.983797 221.718326  L 238.995253 223.581446  L 240.006708 225.001497  L 241.018163 225.972079  L 242.029618 226.489718  L 243.041073 226.553865  L 244.052528 226.166791  L 245.063983 225.333655  L 246.075438 224.062462  L 247.086893 222.364036  L 248.098348 220.251895  L 249.109804 217.742128  L 250.121259 214.853278  L 252.144169 208.024117  L 254.167079 199.957518  L 256.189989 190.876693  L 259.224355 175.898981  L 267.315995 134.481572  L 269.338906 125.265086  L 271.361816 117.003364  L 273.384726 109.906578  L 274.396181 106.852447  L 275.407636 104.153965  L 276.419091 101.827769  L 277.430547 99.888137  L 278.442002 98.34684  L 279.453457 97.213045  L 280.464912 96.493224  L 281.476367 96.191152  L 282.487822 96.307904  L 283.499277 96.841914  L 284.510732 97.788935  L 285.522187 99.142084  L 286.533642 100.89189  L 287.545098 103.026377  L 288.556553 105.531151  L 289.568008 108.389499  L 291.590918 115.08923  L 293.613828 122.950483  L 295.636738 131.769652  L 298.671104 146.293697  L 306.762745 186.650704  L 308.785655 195.743894  L 310.808565 203.975575  L 312.831475 211.146515  L 314.854385 217.088626  L 315.865841 219.555115  L 316.877296 221.666295  L 317.888751 223.410775  L 318.900206 224.77963  L 319.911661 225.76634  L 320.923116 226.366885  L 321.934571 226.579792  L 322.946026 226.405959  L 323.957481 225.848864  L 324.968936 224.914365  L 325.980392 223.610716  L 326.991847 221.94856  L 328.003302 219.940699  L 329.014757 217.602191  L 331.037667 212.003411  L 333.060577 205.311307  L 335.083488 197.711509  L 338.117853 185.068152  L 347.220949 145.469552  L 349.243859 137.814557  L 351.266769 131.031176  L 353.289679 125.292346  L 354.301134 122.860596  L 355.31259 120.741372  L 356.324045 118.947824  L 357.3355 117.490902  L 358.346955 116.379328  L 359.35841 115.619513  L 360.369865 115.215647  L 361.38132 115.169608  L 362.392775 115.480917  L 363.40423 116.146932  L 364.415686 117.162664  L 365.427141 118.520937  L 366.438596 120.212383  L 367.450051 122.225484  L 368.461506 124.546815  L 370.484416 130.050651  L 372.507326 136.579566  L 374.530237 143.964234  L 377.564602 156.226052  L 386.667698 194.827416  L 388.690608 202.399801  L 390.713518 209.182347  L 392.736428 215.012858  L 394.759339 219.755391  L 395.770794 221.684262  L 396.782249 223.303448  L 397.793704 224.60443  L 398.805159 225.580811  L 399.816614 226.22836  L 400.828069 226.544894  L 401.839524 226.530365  L 402.85098 226.186898  L 403.862435 225.51861  L 404.87389 224.531762  L 405.885345 223.234593  L 406.8968 221.637312  L 407.908255 219.752058  L 409.931165 215.174757  L 411.954075 209.633539  L 413.976986 203.282827  L 417.011351 192.623218  L 427.125902 155.254653  L 429.148812 148.917588  L 431.171722 143.37154  L 433.194633 138.756849  L 434.206088 136.835872  L 435.217543 135.188857  L 436.228998 133.825897  L 437.240453 132.755232  L 438.251908 131.983156  L 439.263363 131.514069  L 440.274818 131.350338  L 441.286274 131.492417  L 442.297729 131.938797  L 443.309184 132.685978  L 444.320639 133.728617  L 445.332094 135.05942  L 446.343549 136.669327  L 447.355004 138.547519  L 449.377914 143.057075  L 451.400825 148.469545  L 453.423735 154.644294  L 456.4581 164.983704  L 461.515376 183.599144  L 465.561196 198.059537  L 467.584106 204.649144  L 469.607016 210.594013  L 471.629927 215.751976  L 473.652837 220.002358  L 474.664292 221.755884  L 475.675747 223.24821  L 476.687202 224.471392  L 477.698657 225.419209  L 478.710112 226.087278  L 479.721567 226.473057  L 480.733023 226.575764  L 481.744478 226.3964  L 482.755933 225.937795  L 483.767388 225.204566  L 484.778843 224.203074  L 485.790298 222.941377  L 486.801753 221.429155  L 487.813208 219.677654  L 489.836119 215.509205  L 491.859029 210.554272  L 493.881939 204.950089  L 496.916304 195.663752  L 506.0194 166.801561  L 508.04231 161.265038  L 510.065221 156.377646  L 512.088131 152.263319  L 513.099586 150.529181  L 514.111041 149.025147  L 515.122496 147.760527  L 516.133951 146.743029  L 517.145406 145.978702  L 518.156861 145.471928  L 519.168317 145.225467  L 520.179772 145.240384  L 521.191227 145.516025  L 522.202682 146.050108  L 523.214137 146.838719  L 524.225592 147.876325  L 525.237047 149.155804  L 526.248502 150.668502  L 528.271413 154.351702  L 530.294323 158.828823  L 532.317233 163.983252  L 534.340143 169.681915  L 537.374508 178.928507  L 544.454694 201.002431  L 546.477604 206.729352  L 548.500515 211.932357  L 548.500515 211.932357  " clip-path="url(#pe89b465061)" style="fill: none; stroke: #1f77b4; stroke-width: 1.5; stroke-linecap: square"/>
   </g>
   <g id="patch_3">
    <path d="M 43.784417 237.026449  L 43.784417 7.2  " style="fill: none; stroke: #000000; stroke-width: 0.8; stroke-linejoin: miter; stroke-linecap: square"/>
   </g>
   <g id="patch_4">
    <path d="M 548.500515 237.026449  L 548.500515 7.2  " style="fill: none; stroke: #000000; stroke-width: 0.8; stroke-linejoin: miter; stroke-linecap: square"/>
   </g>
   <g id="patch_5">
    <path d="M 43.784417 237.026449  L 548.500515 237.026449  " style="fill: none; stroke: #000000; stroke-width: 0.8; stroke-linejoin: miter; stroke-linecap: square"/>
   </g>
   <g id="patch_6">
    <path d="M 43.784417 7.2  L 548.500515 7.2  " style="fill: none; stroke: #000000; stroke-width: 0.8; stroke-linejoin: miter; stroke-linecap: square"/>
   </g>
  </g>
 </g>
 <defs>
  <clipPath id="pe89b465061">
   <rect x="43.784417" y="7.2" width="504.716097" height="229.826449"/>
  </clipPath>
 </defs>
</svg>