<svg xmlns:xlink="http://www.w3.org/1999/xlink" xmlns="http://www.w3.org/2000/svg" width="564.48pt" height="276.48pt" viewBox="0 0 564.48 276.48" version="1.1">
 <metadata>
  <rdf:RDF xmlns:dc="http://purl.org/dc/elements/1.1/" xmlns:cc="http://creativecommons.org/ns#" xmlns:rdf="http://www.w3.org/1999/02/22-rdf-syntax-ns#">
   <cc:Work>
    <dc:type rdf:resource="http://purl.org/dc/dcmitype/StillImage"/>
    <dc:date>2025-06-11T15:28:04.084724</dc:date>
    <dc:format>image/svg+xml</dc:format>
    <dc:creator>
     <cc:Agent>
      <dc:title>Matplotlib v3.10.3, https://matplotlib.org/</dc:title>
     </cc:Agent>
    </dc:creator>
   </cc:Work>
  </rdf:RDF>
 </metadata>
 <defs>
  <style type="text/css">*{stroke-linejoin: round; stroke-linecap: butt}</style>
 </defs>
 <g id="figure_1">
  <g id="patch_1">
   <path d="M 0 276.48  L 564.48 276.48  L 564.48 0  L 0 0  z " style="fill: #ffffff"/>
  </g>
  <g id="axes_1">
   <g id="patch_2">
    <path d="M 45.11281 237.026449  L 545.574019 237.026449  L 545.574019 7.2  L 45.11281 7.2  z " style="fill: #ffffff"/>
   </g>
   <g id="matplotlib.axis_1">
    <g id="xtick_1">
     <g id="line2d_1">
      <defs>
       <path id="m6962868f22" d="M 0 0  L 0 3.5  " style="stroke: #000000; stroke-width: 0.8"/>
      </defs>
      <g>
       <use xlink:href="#m6962868f22" x="45.11281" y="237.026449" style="stroke: #000000; stroke-width: 0.8"/>
      </g>
     </g>
     <g id="text_1">
      <!-- $\mathdefault{0}$ -->
      <g transform="translate(42.186315 252.328629) scale(0.12 -0.12)">
       <defs>
        <path id="CMR17-30" d="M 2688 2025  C 2688 2416 2682 3080 2413 3591  C 2176 4039 1798 4198 1466 4198  C 1158 4198 768 4058 525 3597  C 269 3118 243 2524 243 2025  C 243 1661 250 1106 448 619  C 723 -39 1216 -128 1466 -128  C 1760 -128 2208 -7 2470 600  C 2662 1042 2688 1559 2688 2025  z M 1466 -26  C 1056 -26 813 325 723 812  C 653 1188 653 1738 653 2096  C 653 2588 653 2997 736 3387  C 858 3929 1216 4096 1466 4096  C 1728 4096 2067 3923 2189 3400  C 2272 3036 2278 2607 2278 2096  C 2278 1680 2278 1169 2202 792  C 2067 95 1690 -26 1466 -26  z " transform="scale(0.015625)"/>
       </defs>
       <use xlink:href="#CMR17-30" transform="scale(0.996264)"/>
      </g>
     </g>
    </g>
    <g id="xtick_2">
     <g id="line2d_2">
      <g>
       <use xlink:href="#m6962868f22" x="145.205052" y="237.026449" style="stroke: #000000; stroke-width: 0.8"/>
      </g>
     </g>
     <g id="text_2">
      <!-- $\mathdefault{200}$ -->
      <g transform="translate(136.425566 252.328629) scale(0.12 -0.12)">
       <defs>
        <path id="CMR17-32" d="M 2669 989  L 2554 989  C 2490 536 2438 459 2413 420  C 2381 369 1920 369 1830 369  L 602 369  C 832 619 1280 1072 1824 1597  C 2214 1967 2669 2402 2669 3035  C 2669 3790 2067 4224 1395 4224  C 691 4224 262 3604 262 3030  C 262 2780 448 2748 525 2748  C 589 2748 781 2787 781 3010  C 781 3207 614 3264 525 3264  C 486 3264 448 3258 422 3245  C 544 3790 915 4058 1306 4058  C 1862 4058 2227 3617 2227 3035  C 2227 2479 1901 2000 1536 1584  L 262 146  L 262 0  L 2515 0  L 2669 989  z " transform="scale(0.015625)"/>
       </defs>
       <use xlink:href="#CMR17-32" transform="scale(0.996264)"/>
       <use xlink:href="#CMR17-30" transform="translate(45.690477 0) scale(0.996264)"/>
       <use xlink:href="#CMR17-30" transform="translate(91.380954 0) scale(0.996264)"/>
      </g>
     </g>
    </g>
    <g id="xtick_3">
     <g id="line2d_3">
      <g>
       <use xlink:href="#m6962868f22" x="245.297294" y="237.026449" style="stroke: #000000; stroke-width: 0.8"/>
      </g>
     </g>
     <g id="text_3">
      <!-- $\mathdefault{400}$ -->
      <g transform="translate(236.517808 252.328629) scale(0.12 -0.12)">
       <defs>
        <path id="CMR17-34" d="M 2150 4122  C 2150 4256 2144 4256 2029 4256  L 128 1254  L 128 1088  L 1779 1088  L 1779 457  C 1779 224 1766 160 1318 160  L 1197 160  L 1197 0  C 1402 0 1747 0 1965 0  C 2182 0 2528 0 2733 0  L 2733 160  L 2611 160  C 2163 160 2150 224 2150 457  L 2150 1088  L 2803 1088  L 2803 1254  L 2150 1254  L 2150 4122  z M 1798 3703  L 1798 1254  L 256 1254  L 1798 3703  z " transform="scale(0.015625)"/>
       </defs>
       <use xlink:href="#CMR17-34" transform="scale(0.996264)"/>
       <use xlink:href="#CMR17-30" transform="translate(45.690477 0) scale(0.996264)"/>
       <use xlink:href="#CMR17-30" transform="translate(91.380954 0) scale(0.996264)"/>
      </g>
     </g>
    </g>
    <g id="xtick_4">
     <g id="line2d_4">
      <g>
       <use xlink:href="#m6962868f22" x="345.389536" y="237.026449" style="stroke: #000000; stroke-width: 0.8"/>
      </g>
     </g>
     <g id="text_4">
      <!-- $\mathdefault{600}$ -->
      <g transform="translate(336.61005 252.328629) scale(0.12 -0.12)">
       <defs>
        <path id="CMR17-36" d="M 678 2176  C 678 3690 1395 4032 1811 4032  C 1946 4032 2272 4009 2400 3776  C 2298 3776 2106 3776 2106 3553  C 2106 3381 2246 3323 2336 3323  C 2394 3323 2566 3348 2566 3560  C 2566 3954 2246 4179 1805 4179  C 1043 4179 243 3390 243 1984  C 243 253 966 -128 1478 -128  C 2099 -128 2688 427 2688 1283  C 2688 2081 2170 2662 1517 2662  C 1126 2662 838 2407 678 1960  L 678 2176  z M 1478 25  C 691 25 691 1200 691 1436  C 691 1896 909 2560 1504 2560  C 1613 2560 1926 2560 2138 2120  C 2253 1870 2253 1609 2253 1289  C 2253 944 2253 690 2118 434  C 1978 171 1773 25 1478 25  z " transform="scale(0.015625)"/>
       </defs>
       <use xlink:href="#CMR17-36" transform="scale(0.996264)"/>
       <use xlink:href="#CMR17-30" transform="translate(45.690477 0) scale(0.996264)"/>
       <use xlink:href="#CMR17-30" transform="translate(91.380954 0) scale(0.996264)"/>
      </g>
     </g>
    </g>
    <g id="xtick_5">
     <g id="line2d_5">
      <g>
       <use xlink:href="#m6962868f22" x="445.481778" y="237.026449" style="stroke: #000000; stroke-width: 0.8"/>
      </g>
     </g>
     <g id="text_5">
      <!-- $\mathdefault{800}$ -->
      <g transform="translate(436.702292 252.328629) scale(0.12 -0.12)">
       <defs>
        <path id="CMR17-38" d="M 1741 2264  C 2144 2467 2554 2773 2554 3263  C 2554 3841 1990 4179 1472 4179  C 890 4179 378 3759 378 3180  C 378 3021 416 2747 666 2505  C 730 2442 998 2251 1171 2130  C 883 1983 211 1634 211 934  C 211 279 838 -128 1459 -128  C 2144 -128 2720 362 2720 1010  C 2720 1590 2330 1857 2074 2029  L 1741 2264  z M 902 2822  C 851 2854 595 3051 595 3351  C 595 3739 998 4032 1459 4032  C 1965 4032 2336 3676 2336 3262  C 2336 2669 1670 2331 1638 2331  C 1632 2331 1626 2331 1574 2370  L 902 2822  z M 2080 1519  C 2176 1449 2483 1240 2483 851  C 2483 381 2010 25 1472 25  C 890 25 448 438 448 940  C 448 1443 838 1862 1280 2060  L 2080 1519  z " transform="scale(0.015625)"/>
       </defs>
       <use xlink:href="#CMR17-38" transform="scale(0.996264)"/>
       <use xlink:href="#CMR17-30" transform="translate(45.690477 0) scale(0.996264)"/>
       <use xlink:href="#CMR17-30" transform="translate(91.380954 0) scale(0.996264)"/>
      </g>
     </g>
    </g>
    <g id="xtick_6">
     <g id="line2d_6">
      <g>
       <use xlink:href="#m6962868f22" x="545.574019" y="237.026449" style="stroke: #000000; stroke-width: 0.8"/>
      </g>
     </g>
     <g id="text_6">
      <!-- $\mathdefault{1000}$ -->
      <g transform="translate(533.868039 252.328629) scale(0.12 -0.12)">
       <defs>
        <path id="CMR17-31" d="M 1702 4058  C 1702 4192 1696 4192 1606 4192  C 1357 3916 979 3827 621 3827  C 602 3827 570 3827 563 3808  C 557 3795 557 3782 557 3648  C 755 3648 1088 3686 1344 3839  L 1344 461  C 1344 236 1331 160 781 160  L 589 160  L 589 0  C 896 0 1216 0 1523 0  C 1830 0 2150 0 2458 0  L 2458 160  L 2266 160  C 1715 160 1702 230 1702 458  L 1702 4058  z " transform="scale(0.015625)"/>
       </defs>
       <use xlink:href="#CMR17-31" transform="scale(0.996264)"/>
       <use xlink:href="#CMR17-30" transform="translate(45.690477 0) scale(0.996264)"/>
       <use xlink:href="#CMR17-30" transform="translate(91.380954 0) scale(0.996264)"/>
       <use xlink:href="#CMR17-30" transform="translate(137.071431 0) scale(0.996264)"/>
      </g>
     </g>
    </g>
    <g id="text_7">
     <!-- Time -->
     <g transform="translate(282.744983 266.955404) scale(0.12 -0.12)">
      <defs>
       <path id="CMSS17-54" d="M 2317 3968  L 2848 3968  C 2925 3968 3002 3968 3078 3968  L 3878 3968  L 3878 4376  L 218 4376  L 218 3968  L 1018 3968  C 1094 3968 1171 3968 1248 3968  L 1779 3968  L 1779 -32  L 2317 -32  L 2317 3968  z " transform="scale(0.015625)"/>
       <path id="CMSS17-69" d="M 979 4183  L 442 4183  L 442 3648  L 979 3648  L 979 4183  z M 947 2739  L 474 2739  L 474 0  L 947 0  L 947 2739  z " transform="scale(0.015625)"/>
       <path id="CMSS17-6d" d="M 4288 1877  C 4288 2308 4179 2816 3462 2816  C 2982 2816 2694 2516 2566 2331  C 2451 2670 2182 2816 1798 2816  C 1363 2816 1088 2568 941 2389  L 941 2758  L 474 2758  L 474 0  L 960 0  L 960 1559  C 960 1939 1101 2428 1555 2428  C 2138 2428 2138 2016 2138 1829  L 2138 0  L 2624 0  L 2624 1559  C 2624 1939 2765 2428 3219 2428  C 3802 2428 3802 2016 3802 1829  L 3802 0  L 4288 0  L 4288 1877  z " transform="scale(0.015625)"/>
       <path id="CMSS17-65" d="M 2502 1377  C 2502 1590 2490 2003 2285 2345  C 2061 2713 1696 2816 1421 2816  C 755 2816 192 2188 192 1375  C 192 582 774 -64 1510 -64  C 1798 -64 2150 19 2470 248  C 2470 274 2458 414 2451 420  C 2451 433 2432 630 2432 656  C 2125 407 1773 325 1517 325  C 1107 325 666 667 646 1377  L 2502 1377  z M 698 1728  C 781 2084 1062 2421 1421 2421  C 1517 2421 1965 2421 2080 1728  L 698 1728  z " transform="scale(0.015625)"/>
      </defs>
      <use xlink:href="#CMSS17-54" transform="scale(0.996264)"/>
      <use xlink:href="#CMSS17-69" transform="translate(63.819454 0) scale(0.996264)"/>
      <use xlink:href="#CMSS17-6d" transform="translate(86.000177 0) scale(0.996264)"/>
      <use xlink:href="#CMSS17-65" transform="translate(160.229431 0) scale(0.996264)"/>
     </g>
    </g>
   </g>
   <g id="matplotlib.axis_2">
    <g id="ytick_1">
     <g id="line2d_7">
      <defs>
       <path id="md8de09d8d3" d="M 0 0  L -3.5 0  " style="stroke: #000000; stroke-width: 0.8"/>
      </defs>
      <g>
       <use xlink:href="#md8de09d8d3" x="45.11281" y="226.579792" style="stroke: #000000; stroke-width: 0.8"/>
      </g>
     </g>
     <g id="text_8">
      <!-- $\mathdefault{0.0}$ -->
      <g transform="translate(23.155168 230.730882) scale(0.12 -0.12)">
       <defs>
        <path id="CMMI12-3a" d="M 1178 307  C 1178 492 1024 619 870 619  C 685 619 557 466 557 313  C 557 128 710 0 864 0  C 1050 0 1178 153 1178 307  z " transform="scale(0.015625)"/>
       </defs>
       <use xlink:href="#CMR17-30" transform="scale(0.996264)"/>
       <use xlink:href="#CMMI12-3a" transform="translate(45.690477 0) scale(0.996264)"/>
       <use xlink:href="#CMR17-30" transform="translate(72.787654 0) scale(0.996264)"/>
      </g>
     </g>
    </g>
    <g id="ytick_2">
     <g id="line2d_8">
      <g>
       <use xlink:href="#md8de09d8d3" x="45.11281" y="177.191951" style="stroke: #000000; stroke-width: 0.8"/>
      </g>
     </g>
     <g id="text_9">
      <!-- $\mathdefault{0.2}$ -->
      <g transform="translate(23.155168 181.343041) scale(0.12 -0.12)">
       <use xlink:href="#CMR17-30" transform="scale(0.996264)"/>
       <use xlink:href="#CMMI12-3a" transform="translate(45.690477 0) scale(0.996264)"/>
       <use xlink:href="#CMR17-32" transform="translate(72.787654 0) scale(0.996264)"/>
      </g>
     </g>
    </g>
    <g id="ytick_3">
     <g id="line2d_9">
      <g>
       <use xlink:href="#md8de09d8d3" x="45.11281" y="127.80411" style="stroke: #000000; stroke-width: 0.8"/>
      </g>
     </g>
     <g id="text_10">
      <!-- $\mathdefault{0.4}$ -->
      <g transform="translate(23.155168 131.9552) scale(0.12 -0.12)">
       <use xlink:href="#CMR17-30" transform="scale(0.996264)"/>
       <use xlink:href="#CMMI12-3a" transform="translate(45.690477 0) scale(0.996264)"/>
       <use xlink:href="#CMR17-34" transform="translate(72.787654 0) scale(0.996264)"/>
      </g>
     </g>
    </g>
    <g id="ytick_4">
     <g id="line2d_10">
      <g>
       <use xlink:href="#md8de09d8d3" x="45.11281" y="78.416268" style="stroke: #000000; stroke-width: 0.8"/>
      </g>
     </g>
     <g id="text_11">
      <!-- $\mathdefault{0.6}$ -->
      <g transform="translate(23.155168 82.567358) scale(0.12 -0.12)">
       <use xlink:href="#CMR17-30" transform="scale(0.996264)"/>
       <use xlink:href="#CMMI12-3a" transform="translate(45.690477 0) scale(0.996264)"/>
       <use xlink:href="#CMR17-36" transform="translate(72.787654 0) scale(0.996264)"/>
      </g>
     </g>
    </g>
    <g id="ytick_5">
     <g id="line2d_11">
      <g>
       <use xlink:href="#md8de09d8d3" x="45.11281" y="29.028427" style="stroke: #000000; stroke-width: 0.8"/>
      </g>
     </g>
     <g id="text_12">
      <!-- $\mathdefault{0.8}$ -->
      <g transform="translate(23.155168 33.179517) scale(0.12 -0.12)">
       <use xlink:href="#CMR17-30" transform="scale(0.996264)"/>
       <use xlink:href="#CMMI12-3a" transform="translate(45.690477 0) scale(0.996264)"/>
       <use xlink:href="#CMR17-38" transform="translate(72.787654 0) scale(0.996264)"/>
      </g>
     </g>
    </g>
    <g id="text_13">
     <!-- $\langle\hat\sigma_+ \hat\sigma_-\rangle$ -->
     <g transform="translate(16.166376 140.500556) rotate(-90) scale(0.12 -0.12)">
      <defs>
       <path id="CMSY10-68" d="M 2099 4557  C 2131 4627 2131 4640 2131 4672  C 2131 4742 2074 4800 2003 4800  C 1946 4800 1901 4768 1856 4653  L 736 1715  C 723 1677 704 1638 704 1600  C 704 1581 704 1568 736 1491  L 1856 -1446  C 1882 -1517 1914 -1600 2003 -1600  C 2074 -1600 2131 -1542 2131 -1472  C 2131 -1453 2131 -1440 2099 -1370  L 966 1600  L 2099 4557  z " transform="scale(0.015625)"/>
       <path id="CMR17-5e" d="M 1466 4421  L 678 3555  L 755 3478  L 1466 4166  L 2176 3478  L 2253 3555  L 1466 4421  z " transform="scale(0.015625)"/>
       <path id="CMMI12-1b" d="M 3251 2408  C 3334 2408 3546 2408 3546 2612  C 3546 2752 3424 2752 3309 2752  L 1894 2752  C 934 2752 243 1686 243 932  C 243 390 595 -64 1171 -64  C 1926 -64 2752 747 2752 1705  C 2752 1954 2694 2196 2541 2408  L 3251 2408  z M 1178 64  C 851 64 614 313 614 754  C 614 1137 845 2408 1786 2408  C 2061 2408 2368 2274 2368 1781  C 2368 1558 2266 1021 2042 652  C 1811 275 1466 64 1178 64  z " transform="scale(0.015625)"/>
       <path id="CMR17-2b" d="M 2413 1472  L 4109 1472  C 4198 1472 4307 1472 4307 1580  C 4307 1695 4205 1695 4109 1695  L 2413 1695  L 2413 3386  C 2413 3475 2413 3584 2304 3584  C 2189 3584 2189 3482 2189 3386  L 2189 1695  L 493 1695  C 403 1695 294 1695 294 1587  C 294 1472 397 1472 493 1472  L 2189 1472  L 2189 -218  C 2189 -307 2189 -416 2298 -416  C 2413 -416 2413 -314 2413 -218  L 2413 1472  z " transform="scale(0.015625)"/>
       <path id="CMSY10-0" d="M 4218 1472  C 4326 1472 4442 1472 4442 1600  C 4442 1728 4326 1728 4218 1728  L 755 1728  C 646 1728 531 1728 531 1600  C 531 1472 646 1472 755 1472  L 4218 1472  z " transform="scale(0.015625)"/>
       <path id="CMSY10-69" d="M 1747 1491  C 1779 1568 1779 1581 1779 1600  C 1779 1619 1779 1632 1747 1709  L 627 4653  C 589 4762 550 4800 480 4800  C 410 4800 352 4742 352 4672  C 352 4653 352 4640 384 4570  L 1517 1600  L 384 -1357  C 352 -1427 352 -1440 352 -1472  C 352 -1542 410 -1600 480 -1600  C 563 -1600 589 -1536 614 -1472  L 1747 1491  z " transform="scale(0.015625)"/>
      </defs>
      <use xlink:href="#CMSY10-68" transform="scale(0.996264)"/>
      <use xlink:href="#CMR17-5e" transform="translate(45.40853 0.006461) scale(0.996264)"/>
      <use xlink:href="#CMMI12-1b" transform="translate(38.743734 0) scale(0.996264)"/>
      <use xlink:href="#CMR17-2b" transform="translate(94.189195 -14.943915) scale(0.697382)"/>
      <use xlink:href="#CMR17-5e" transform="translate(151.552254 0.006461) scale(0.996264)"/>
      <use xlink:href="#CMMI12-1b" transform="translate(144.887458 0) scale(0.996264)"/>
      <use xlink:href="#CMSY10-0" transform="translate(200.332919 -14.943915) scale(0.697382)"/>
      <use xlink:href="#CMSY10-69" transform="translate(255.072044 0) scale(0.996264)"/>
     </g>
    </g>
   </g>
   <g id="line2d_12">
    <path d="M 45.11281 226.579792  L 46.115738 189.83506  L 47.118666 107.366197  L 48.121595 36.41947  L 49.124523 17.646657  L 50.127451 49.686227  L 51.13038 99.797191  L 52.133308 134.097989  L 53.136236 139.765783  L 54.139164 125.710316  L 55.142093 108.636648  L 56.145021 99.571012  L 57.147949 99.753067  L 59.153806 109.117562  L 60.156734 111.344068  L 61.159662 111.536498  L 63.165519 110.010441  L 65.171375 108.412452  L 66.174304 107.367482  L 68.18016 104.986719  L 69.183088 104.138734  L 70.186017 103.916058  L 71.188945 104.568676  L 72.191873 106.230366  L 73.194802 108.855054  L 76.203586 118.699837  L 77.206515 120.525064  L 78.209443 120.574223  L 79.212371 118.600406  L 80.2153 114.835772  L 82.221156 105.34394  L 83.224084 102.072024  L 84.227013 101.288685  L 85.229941 103.482557  L 86.232869 108.331263  L 88.238726 120.99772  L 89.241654 125.530953  L 90.244582 127.187128  L 91.247511 125.756592  L 92.250439 122.02376  L 93.253367 117.478105  L 94.256295 113.75612  L 95.259224 112.031888  L 96.262152 112.606981  L 97.26508 114.872094  L 98.268008 117.651202  L 99.270937 119.76665  L 100.273865 120.563801  L 101.276793 120.157885  L 102.279722 119.303858  L 103.28265 118.973481  L 104.285578 119.859619  L 105.288506 122.048586  L 107.294363 127.825646  L 108.297291 129.674299  L 109.30022 130.08336  L 110.303148 129.099014  L 111.306076 127.183749  L 112.309004 124.988829  L 113.311933 123.123043  L 114.314861 122.012279  L 115.317789 121.870001  L 116.320717 122.735849  L 117.323646 124.521601  L 118.326574 127.029798  L 120.332431 132.883256  L 121.335359 135.372235  L 122.338287 137.02179  L 123.341215 137.594436  L 124.344144 137.088268  L 125.347072 135.747601  L 127.352928 132.354269  L 128.355857 131.252894  L 129.358785 130.988188  L 130.361713 131.637528  L 131.364642 133.070662  L 135.376355 140.667597  L 136.379283 141.84742  L 137.382211 142.640864  L 138.38514 143.150131  L 139.388068 143.480149  L 141.393924 143.791177  L 142.396853 143.744902  L 143.399781 143.531865  L 145.405637 142.826418  L 146.408566 142.637232  L 147.411494 142.828992  L 148.414422 143.566062  L 149.417351 144.90326  L 150.420279 146.750061  L 152.426135 150.972452  L 153.429064 152.709379  L 154.431992 153.839814  L 155.43492 154.250319  L 156.437848 153.986944  L 157.440777 153.23731  L 159.446633 151.415422  L 160.449562 150.90497  L 161.45249 150.919665  L 162.455418 151.519368  L 163.458346 152.654526  L 164.461275 154.1879  L 167.47006 159.218422  L 168.472988 160.439003  L 169.475916 161.253681  L 170.478844 161.656898  L 171.481773 161.70647  L 172.484701 161.506745  L 174.490557 160.874429  L 175.493486 160.684171  L 176.496414 160.699563  L 177.499342 160.972279  L 178.502271 161.522445  L 179.505199 162.341476  L 180.508127 163.394312  L 184.51984 168.402887  L 185.522768 169.333168  L 186.525697 169.943056  L 187.528625 170.196712  L 188.531553 170.118039  L 190.53741 169.359035  L 191.540338 168.97969  L 192.543266 168.814161  L 193.546195 168.983989  L 194.549123 169.547691  L 195.552051 170.488506  L 197.557908 173.096462  L 199.563764 175.652151  L 200.566693 176.558792  L 201.569621 177.119647  L 202.572549 177.338423  L 203.575477 177.275822  L 207.587191 176.421324  L 208.590119 176.576154  L 209.593047 176.9893  L 210.595975 177.65042  L 212.601832 179.513916  L 214.607688 181.56875  L 215.610617 182.454202  L 216.613545 183.153373  L 217.616473 183.627445  L 218.619402 183.86857  L 219.62233 183.901602  L 221.628186 183.586836  L 223.634043 183.335794  L 224.636971 183.444412  L 225.6399 183.781274  L 226.642828 184.356986  L 227.645756 185.142526  L 231.657469 188.793056  L 232.660397 189.379665  L 233.663326 189.721423  L 234.666254 189.826098  L 236.672111 189.545269  L 238.677967 189.1958  L 239.680895 189.212456  L 240.683824 189.429894  L 241.686752 189.860352  L 242.68968 190.48069  L 247.704322 194.173868  L 248.70725 194.576775  L 249.710178 194.796462  L 250.713106 194.853191  L 252.718963 194.665284  L 254.72482 194.493954  L 255.727748 194.563438  L 256.730676 194.78753  L 257.733604 195.176174  L 259.739461 196.362209  L 262.748246 198.373081  L 263.751174 198.86239  L 264.754102 199.191764  L 265.757031 199.354096  L 267.762887 199.279307  L 269.768744 199.030065  L 270.771672 198.997138  L 271.7746 199.092068  L 272.777528 199.339118  L 273.780457 199.736845  L 275.786313 200.859142  L 277.79217 202.060072  L 278.795098 202.54878  L 279.798026 202.909471  L 280.800955 203.127113  L 282.806811 203.184432  L 285.815596 202.934752  L 286.818524 202.956935  L 287.821453 203.091294  L 288.824381 203.348786  L 290.830237 204.182244  L 293.839022 205.679107  L 295.844879 206.348877  L 297.850735 206.562581  L 302.865377 206.363596  L 304.871233 206.7537  L 306.87709 207.520704  L 309.885875 208.806337  L 311.891731 209.319764  L 313.897588 209.432634  L 317.909301 209.232825  L 319.915157 209.455986  L 321.921014 210.025353  L 325.932727 211.452237  L 327.938584 211.834161  L 329.94444 211.892656  L 333.956153 211.75211  L 335.96201 211.986294  L 337.967866 212.506374  L 341.97958 213.7097  L 343.985436 213.993945  L 345.991293 214.006889  L 350.003006 213.905565  L 352.008862 214.151821  L 355.017647 214.913018  L 358.026432 215.62759  L 360.032288 215.827058  L 363.041073 215.767694  L 366.049858 215.761735  L 368.055715 216.007645  L 375.076213 217.351483  L 377.082069 217.392827  L 382.096711 217.349029  L 384.102567 217.589295  L 390.120137 218.639689  L 392.125993 218.72914  L 398.143563 218.710693  L 401.152348 219.10322  L 405.164061 219.728893  L 407.169917 219.858561  L 411.181631 219.80124  L 414.190415 219.87531  L 417.1992 220.235321  L 421.210913 220.750932  L 424.219698 220.840424  L 429.23434 220.811895  L 432.243124 221.072086  L 437.257766 221.617347  L 440.266551 221.670199  L 445.281192 221.663371  L 448.289977 221.905633  L 453.304618 222.352918  L 457.316331 222.362513  L 461.328044 222.391277  L 465.339757 222.708591  L 469.351471 222.977388  L 474.366112 222.959897  L 478.377825 223.068324  L 486.401251 223.518314  L 494.424677 223.596423  L 501.445175 223.95876  L 511.474458 224.101823  L 516.489099 224.330219  L 529.527167 224.575029  L 534.541808 224.667052  L 541.562306 224.716023  L 545.574019 224.878092  L 545.574019 224.878092  " clip-path="url(#p95c7ff6f00)" style="fill: none; stroke: #1f77b4; stroke-width: 1.5; stroke-linecap: square"/>
   </g>
   <g id="patch_3">
    <path d="M 45.11281 237.026449  L 45.11281 7.2  " style="fill: none; stroke: #000000; stroke-width: 0.8; stroke-linejoin: miter; stroke-linecap: square"/>
   </g>
   <g id="patch_4">
    <path d="M 545.574019 237.026449  L 545.574019 7.2  " style="fill: none; stroke: #000000; stroke-width: 0.8; stroke-linejoin: miter; stroke-linecap: square"/>
   </g>
   <g id="patch_5">
    <path d="M 45.11281 237.026449  L 545.574019 237.026449  " style="fill: none; stroke: #000000; stroke-width: 0.8; stroke-linejoin: miter; stroke-linecap: square"/>
   </g>
   <g id="patch_6">
    <path d="M 45.11281 7.2  L 545.574019 7.2  " style="fill: none; stroke: #000000; stroke-width: 0.8; stroke-linejoin: miter; stroke-linecap: square"/>
   </g>
  </g>
 </g>
 <defs>
  <clipPath id="p95c7ff6f00">
   <rect x="45.11281" y="7.2" width="500.46121" height="229.826449"/>
  </clipPath>
 </defs>
</svg>