<svg xmlns:xlink="http://www.w3.org/1999/xlink" xmlns="http://www.w3.org/2000/svg" width="564.48pt" height="276.48pt" viewBox="0 0 564.48 276.48" version="1.1">
 <metadata>
  <rdf:RDF xmlns:dc="http://purl.org/dc/elements/1.1/" xmlns:cc="http://creativecommons.org/ns#" xmlns:rdf="http://www.w3.org/1999/02/22-rdf-syntax-ns#">
   <cc:Work>
    <dc:type rdf:resource="http://purl.org/dc/dcmitype/StillImage"/>
    <dc:date>2025-06-07T14:16:14.236390</dc:date>
    <dc:format>image/svg+xml</dc:format>
    <dc:creator>
     <cc:Agent>
      <dc:title>Matplotlib v3.10.3, https://matplotlib.org/</dc:title>
     </cc:Agent>
    </dc:creator>
   </cc:Work>
  </rdf:RDF>
 </metadata>
 <defs>
  <style type="text/css">*{stroke-linejoin: round; stroke-linecap: butt}</style>
 </defs>
 <g id="figure_1">
  <g id="patch_1">
   <path d="M 0 276.48  L 564.48 276.48  L 564.48 0  L 0 0  z " style="fill: #ffffff"/>
  </g>
  <g id="axes_1">
   <g id="patch_2">
    <path d="M 45.300187 237.026449  L 549.309918 237.026449  L 549.309918 7.2  L 45.300187 7.2  z " style="fill: #ffffff"/>
   </g>
   <g id="matplotlib.axis_1">
    <g id="xtick_1">
     <g id="line2d_1">
      <defs>
       <path id="macc8b88c75" d="M 0 0  L 0 3.5  " style="stroke: #000000; stroke-width: 0.8"/>
      </defs>
      <g>
       <use xlink:href="#macc8b88c75" x="45.300187" y="237.026449" style="stroke: #000000; stroke-width: 0.8"/>
      </g>
     </g>
     <g id="text_1">
      <!-- $\mathdefault{10^{-1}}$ -->
      <g transform="translate(34.036852 252.328629) scale(0.12 -0.12)">
       <defs>
        <path id="CMR17-31" d="M 1702 4058  C 1702 4192 1696 4192 1606 4192  C 1357 3916 979 3827 621 3827  C 602 3827 570 3827 563 3808  C 557 3795 557 3782 557 3648  C 755 3648 1088 3686 1344 3839  L 1344 461  C 1344 236 1331 160 781 160  L 589 160  L 589 0  C 896 0 1216 0 1523 0  C 1830 0 2150 0 2458 0  L 2458 160  L 2266 160  C 1715 160 1702 230 1702 458  L 1702 4058  z " transform="scale(0.015625)"/>
        <path id="CMR17-30" d="M 2688 2025  C 2688 2416 2682 3080 2413 3591  C 2176 4039 1798 4198 1466 4198  C 1158 4198 768 4058 525 3597  C 269 3118 243 2524 243 2025  C 243 1661 250 1106 448 619  C 723 -39 1216 -128 1466 -128  C 1760 -128 2208 -7 2470 600  C 2662 1042 2688 1559 2688 2025  z M 1466 -26  C 1056 -26 813 325 723 812  C 653 1188 653 1738 653 2096  C 653 2588 653 2997 736 3387  C 858 3929 1216 4096 1466 4096  C 1728 4096 2067 3923 2189 3400  C 2272 3036 2278 2607 2278 2096  C 2278 1680 2278 1169 2202 792  C 2067 95 1690 -26 1466 -26  z " transform="scale(0.015625)"/>
        <path id="CMSY10-0" d="M 4218 1472  C 4326 1472 4442 1472 4442 1600  C 4442 1728 4326 1728 4218 1728  L 755 1728  C 646 1728 531 1728 531 1600  C 531 1472 646 1472 755 1472  L 4218 1472  z " transform="scale(0.015625)"/>
       </defs>
       <use xlink:href="#CMR17-31" transform="scale(0.996264)"/>
       <use xlink:href="#CMR17-30" transform="translate(45.690477 0) scale(0.996264)"/>
       <use xlink:href="#CMSY10-0" transform="translate(91.380954 36.153639) scale(0.697382)"/>
       <use xlink:href="#CMR17-31" transform="translate(145.621947 36.153639) scale(0.697382)"/>
      </g>
     </g>
    </g>
    <g id="xtick_2">
     <g id="line2d_2">
      <g>
       <use xlink:href="#macc8b88c75" x="297.305053" y="237.026449" style="stroke: #000000; stroke-width: 0.8"/>
      </g>
     </g>
     <g id="text_2">
      <!-- $\mathdefault{10^{0}}$ -->
      <g transform="translate(289.334971 252.328629) scale(0.12 -0.12)">
       <use xlink:href="#CMR17-31" transform="scale(0.996264)"/>
       <use xlink:href="#CMR17-30" transform="translate(45.690477 0) scale(0.996264)"/>
       <use xlink:href="#CMR17-30" transform="translate(91.380954 36.153639) scale(0.697382)"/>
      </g>
     </g>
    </g>
    <g id="xtick_3">
     <g id="line2d_3">
      <g>
       <use xlink:href="#macc8b88c75" x="549.309918" y="237.026449" style="stroke: #000000; stroke-width: 0.8"/>
      </g>
     </g>
     <g id="text_3">
      <!-- $\mathdefault{10^{1}}$ -->
      <g transform="translate(541.339837 252.328629) scale(0.12 -0.12)">
       <use xlink:href="#CMR17-31" transform="scale(0.996264)"/>
       <use xlink:href="#CMR17-30" transform="translate(45.690477 0) scale(0.996264)"/>
       <use xlink:href="#CMR17-31" transform="translate(91.380954 36.153639) scale(0.697382)"/>
      </g>
     </g>
    </g>
    <g id="xtick_4">
     <g id="line2d_4">
      <defs>
       <path id="m0a35d8c587" d="M 0 0  L 0 2  " style="stroke: #000000; stroke-width: 0.6"/>
      </defs>
      <g>
       <use xlink:href="#m0a35d8c587" x="121.161211" y="237.026449" style="stroke: #000000; stroke-width: 0.6"/>
      </g>
     </g>
    </g>
    <g id="xtick_5">
     <g id="line2d_5">
      <g>
       <use xlink:href="#m0a35d8c587" x="165.537065" y="237.026449" style="stroke: #000000; stroke-width: 0.6"/>
      </g>
     </g>
    </g>
    <g id="xtick_6">
     <g id="line2d_6">
      <g>
       <use xlink:href="#m0a35d8c587" x="197.022234" y="237.026449" style="stroke: #000000; stroke-width: 0.6"/>
      </g>
     </g>
    </g>
    <g id="xtick_7">
     <g id="line2d_7">
      <g>
       <use xlink:href="#m0a35d8c587" x="221.444029" y="237.026449" style="stroke: #000000; stroke-width: 0.6"/>
      </g>
     </g>
    </g>
    <g id="xtick_8">
     <g id="line2d_8">
      <g>
       <use xlink:href="#m0a35d8c587" x="241.398088" y="237.026449" style="stroke: #000000; stroke-width: 0.6"/>
      </g>
     </g>
    </g>
    <g id="xtick_9">
     <g id="line2d_9">
      <g>
       <use xlink:href="#m0a35d8c587" x="258.269005" y="237.026449" style="stroke: #000000; stroke-width: 0.6"/>
      </g>
     </g>
    </g>
    <g id="xtick_10">
     <g id="line2d_10">
      <g>
       <use xlink:href="#m0a35d8c587" x="272.883258" y="237.026449" style="stroke: #000000; stroke-width: 0.6"/>
      </g>
     </g>
    </g>
    <g id="xtick_11">
     <g id="line2d_11">
      <g>
       <use xlink:href="#m0a35d8c587" x="285.773942" y="237.026449" style="stroke: #000000; stroke-width: 0.6"/>
      </g>
     </g>
    </g>
    <g id="xtick_12">
     <g id="line2d_12">
      <g>
       <use xlink:href="#m0a35d8c587" x="373.166076" y="237.026449" style="stroke: #000000; stroke-width: 0.6"/>
      </g>
     </g>
    </g>
    <g id="xtick_13">
     <g id="line2d_13">
      <g>
       <use xlink:href="#m0a35d8c587" x="417.54193" y="237.026449" style="stroke: #000000; stroke-width: 0.6"/>
      </g>
     </g>
    </g>
    <g id="xtick_14">
     <g id="line2d_14">
      <g>
       <use xlink:href="#m0a35d8c587" x="449.0271" y="237.026449" style="stroke: #000000; stroke-width: 0.6"/>
      </g>
     </g>
    </g>
    <g id="xtick_15">
     <g id="line2d_15">
      <g>
       <use xlink:href="#m0a35d8c587" x="473.448895" y="237.026449" style="stroke: #000000; stroke-width: 0.6"/>
      </g>
     </g>
    </g>
    <g id="xtick_16">
     <g id="line2d_16">
      <g>
       <use xlink:href="#m0a35d8c587" x="493.402954" y="237.026449" style="stroke: #000000; stroke-width: 0.6"/>
      </g>
     </g>
    </g>
    <g id="xtick_17">
     <g id="line2d_17">
      <g>
       <use xlink:href="#m0a35d8c587" x="510.273871" y="237.026449" style="stroke: #000000; stroke-width: 0.6"/>
      </g>
     </g>
    </g>
    <g id="xtick_18">
     <g id="line2d_18">
      <g>
       <use xlink:href="#m0a35d8c587" x="524.888124" y="237.026449" style="stroke: #000000; stroke-width: 0.6"/>
      </g>
     </g>
    </g>
    <g id="xtick_19">
     <g id="line2d_19">
      <g>
       <use xlink:href="#m0a35d8c587" x="537.778808" y="237.026449" style="stroke: #000000; stroke-width: 0.6"/>
      </g>
     </g>
    </g>
    <g id="text_4">
     <!-- Temperature $T$ -->
     <g transform="translate(260.925576 266.955404) scale(0.12 -0.12)">
      <defs>
       <path id="CMSS17-54" d="M 2317 3968  L 2848 3968  C 2925 3968 3002 3968 3078 3968  L 3878 3968  L 3878 4376  L 218 4376  L 218 3968  L 1018 3968  C 1094 3968 1171 3968 1248 3968  L 1779 3968  L 1779 -32  L 2317 -32  L 2317 3968  z " transform="scale(0.015625)"/>
       <path id="CMSS17-65" d="M 2502 1377  C 2502 1590 2490 2003 2285 2345  C 2061 2713 1696 2816 1421 2816  C 755 2816 192 2188 192 1375  C 192 582 774 -64 1510 -64  C 1798 -64 2150 19 2470 248  C 2470 274 2458 414 2451 420  C 2451 433 2432 630 2432 656  C 2125 407 1773 325 1517 325  C 1107 325 666 667 646 1377  L 2502 1377  z M 698 1728  C 781 2084 1062 2421 1421 2421  C 1517 2421 1965 2421 2080 1728  L 698 1728  z " transform="scale(0.015625)"/>
       <path id="CMSS17-6d" d="M 4288 1877  C 4288 2308 4179 2816 3462 2816  C 2982 2816 2694 2516 2566 2331  C 2451 2670 2182 2816 1798 2816  C 1363 2816 1088 2568 941 2389  L 941 2758  L 474 2758  L 474 0  L 960 0  L 960 1559  C 960 1939 1101 2428 1555 2428  C 2138 2428 2138 2016 2138 1829  L 2138 0  L 2624 0  L 2624 1559  C 2624 1939 2765 2428 3219 2428  C 3802 2428 3802 2016 3802 1829  L 3802 0  L 4288 0  L 4288 1877  z " transform="scale(0.015625)"/>
       <path id="CMSS17-70" d="M 966 333  C 1178 129 1466 -5 1773 -5  C 2368 -5 2880 603 2880 1412  C 2880 2159 2496 2816 1946 2816  C 1626 2816 1242 2702 954 2472  L 954 2765  L 480 2765  L 480 -1216  L 966 -1216  L 966 333  z M 966 2100  C 1018 2176 1235 2415 1587 2415  C 2035 2415 2394 1960 2394 1412  C 2394 787 1958 384 1530 384  C 1402 384 1267 415 1139 523  C 966 674 966 768 966 857  L 966 2100  z " transform="scale(0.015625)"/>
       <path id="CMSS17-72" d="M 954 1363  C 954 1965 1395 2368 1958 2368  L 1958 2789  C 1549 2789 1165 2585 934 2253  L 934 2758  L 480 2758  L 480 0  L 954 0  L 954 1363  z " transform="scale(0.015625)"/>
       <path id="CMSS17-61" d="M 2406 1791  C 2406 2392 1978 2808 1402 2808  C 1120 2808 813 2757 461 2553  L 499 2135  C 659 2248 934 2432 1395 2432  C 1722 2432 1920 2180 1920 1782  L 1920 1536  C 896 1536 256 1238 256 726  C 256 461 416 -64 947 -64  C 1043 -64 1562 -64 1933 217  L 1933 -19  L 2406 -19  L 2406 1791  z M 1920 816  C 1920 701 1920 548 1728 434  C 1562 325 1350 325 1261 325  C 941 325 723 511 723 744  C 723 1211 1722 1211 1920 1211  L 1920 816  z " transform="scale(0.015625)"/>
       <path id="CMSS17-74" d="M 1069 2368  L 1901 2368  L 1901 2737  L 1069 2737  L 1069 3520  L 614 3520  L 614 2737  L 109 2737  L 109 2368  L 602 2368  L 602 749  C 602 384 685 -64 1107 -64  C 1427 -64 1722 25 2003 172  L 1901 548  C 1747 414 1562 337 1363 337  C 1082 337 1069 696 1069 856  L 1069 2368  z " transform="scale(0.015625)"/>
       <path id="CMSS17-75" d="M 2618 2739  L 2131 2739  L 2131 972  C 2131 498 1786 306 1421 306  C 998 306 960 447 960 709  L 960 2739  L 474 2739  L 474 678  C 474 179 646 -64 1088 -64  C 1306 -64 1798 -13 2144 306  L 2144 0  L 2618 0  L 2618 2739  z " transform="scale(0.015625)"/>
       <path id="CMMI12-54" d="M 2669 3910  C 2707 4064 2720 4121 2816 4147  C 2867 4160 3078 4160 3213 4160  C 3853 4160 4154 4134 4154 3634  C 4154 3537 4128 3295 4090 3057  L 4083 2980  C 4083 2954 4109 2916 4147 2916  C 4211 2916 4211 2948 4230 3050  L 4416 4184  C 4429 4243 4429 4256 4429 4275  C 4429 4345 4390 4345 4262 4345  L 762 4345  C 614 4345 608 4339 570 4224  L 179 3070  C 173 3056 154 2986 154 2980  C 154 2948 179 2916 218 2916  C 269 2916 282 2941 307 3024  C 576 3801 710 4160 1562 4160  L 1990 4160  C 2144 4160 2208 4160 2208 4089  C 2208 4069 2208 4057 2176 3941  L 1318 499  C 1254 249 1242 185 563 185  C 403 185 358 185 358 64  C 358 0 429 0 461 0  C 621 0 787 0 947 0  L 1946 0  C 2106 0 2278 0 2438 0  C 2509 0 2573 0 2573 121  C 2573 185 2528 185 2362 185  C 1786 185 1786 243 1786 339  C 1786 346 1786 391 1811 494  L 2669 3910  z " transform="scale(0.015625)"/>
      </defs>
      <use xlink:href="#CMSS17-54" transform="scale(0.996264)"/>
      <use xlink:href="#CMSS17-65" transform="translate(56.012199 0) scale(0.996264)"/>
      <use xlink:href="#CMSS17-6d" transform="translate(97.651021 0) scale(0.996264)"/>
      <use xlink:href="#CMSS17-70" transform="translate(171.880275 0) scale(0.996264)"/>
      <use xlink:href="#CMSS17-65" transform="translate(222.687657 0) scale(0.996264)"/>
      <use xlink:href="#CMSS17-72" transform="translate(264.326479 0) scale(0.996264)"/>
      <use xlink:href="#CMSS17-61" transform="translate(296.236252 0) scale(0.996264)"/>
      <use xlink:href="#CMSS17-74" transform="translate(341.158172 0) scale(0.996264)"/>
      <use xlink:href="#CMSS17-75" transform="translate(374.989739 0) scale(0.996264)"/>
      <use xlink:href="#CMSS17-72" transform="translate(423.194682 0) scale(0.996264)"/>
      <use xlink:href="#CMSS17-65" transform="translate(455.104454 0) scale(0.996264)"/>
      <use xlink:href="#CMMI12-54" transform="translate(527.972389 0) scale(0.996264)"/>
     </g>
    </g>
   </g>
   <g id="matplotlib.axis_2">
    <g id="ytick_1">
     <g id="line2d_20">
      <defs>
       <path id="m6f525da6b6" d="M 0 0  L -3.5 0  " style="stroke: #000000; stroke-width: 0.8"/>
      </defs>
      <g>
       <use xlink:href="#m6f525da6b6" x="45.300187" y="229.785671" style="stroke: #000000; stroke-width: 0.8"/>
      </g>
     </g>
     <g id="text_5">
      <!-- $\mathdefault{0.5}$ -->
      <g transform="translate(23.342545 233.936761) scale(0.12 -0.12)">
       <defs>
        <path id="CMMI12-3a" d="M 1178 307  C 1178 492 1024 619 870 619  C 685 619 557 466 557 313  C 557 128 710 0 864 0  C 1050 0 1178 153 1178 307  z " transform="scale(0.015625)"/>
        <path id="CMR17-35" d="M 730 3692  C 794 3666 1056 3584 1325 3584  C 1920 3584 2246 3911 2432 4100  C 2432 4157 2432 4192 2394 4192  C 2387 4192 2374 4192 2323 4163  C 2099 4058 1837 3973 1517 3973  C 1325 3973 1037 3999 723 4139  C 653 4171 640 4171 634 4171  C 602 4171 595 4164 595 4037  L 595 2203  C 595 2089 595 2057 659 2057  C 691 2057 704 2070 736 2114  C 941 2401 1222 2522 1542 2522  C 1766 2522 2246 2382 2246 1289  C 2246 1085 2246 715 2054 421  C 1894 159 1645 25 1370 25  C 947 25 518 320 403 814  C 429 807 480 795 506 795  C 589 795 749 840 749 1038  C 749 1210 627 1280 506 1280  C 358 1280 262 1190 262 1011  C 262 454 704 -128 1382 -128  C 2042 -128 2669 440 2669 1264  C 2669 2030 2170 2624 1549 2624  C 1222 2624 947 2503 730 2274  L 730 3692  z " transform="scale(0.015625)"/>
       </defs>
       <use xlink:href="#CMR17-30" transform="scale(0.996264)"/>
       <use xlink:href="#CMMI12-3a" transform="translate(45.690477 0) scale(0.996264)"/>
       <use xlink:href="#CMR17-35" transform="translate(72.787654 0) scale(0.996264)"/>
      </g>
     </g>
    </g>
    <g id="ytick_2">
     <g id="line2d_21">
      <g>
       <use xlink:href="#m6f525da6b6" x="45.300187" y="182.794746" style="stroke: #000000; stroke-width: 0.8"/>
      </g>
     </g>
     <g id="text_6">
      <!-- $\mathdefault{0.6}$ -->
      <g transform="translate(23.342545 186.945836) scale(0.12 -0.12)">
       <defs>
        <path id="CMR17-36" d="M 678 2176  C 678 3690 1395 4032 1811 4032  C 1946 4032 2272 4009 2400 3776  C 2298 3776 2106 3776 2106 3553  C 2106 3381 2246 3323 2336 3323  C 2394 3323 2566 3348 2566 3560  C 2566 3954 2246 4179 1805 4179  C 1043 4179 243 3390 243 1984  C 243 253 966 -128 1478 -128  C 2099 -128 2688 427 2688 1283  C 2688 2081 2170 2662 1517 2662  C 1126 2662 838 2407 678 1960  L 678 2176  z M 1478 25  C 691 25 691 1200 691 1436  C 691 1896 909 2560 1504 2560  C 1613 2560 1926 2560 2138 2120  C 2253 1870 2253 1609 2253 1289  C 2253 944 2253 690 2118 434  C 1978 171 1773 25 1478 25  z " transform="scale(0.015625)"/>
       </defs>
       <use xlink:href="#CMR17-30" transform="scale(0.996264)"/>
       <use xlink:href="#CMMI12-3a" transform="translate(45.690477 0) scale(0.996264)"/>
       <use xlink:href="#CMR17-36" transform="translate(72.787654 0) scale(0.996264)"/>
      </g>
     </g>
    </g>
    <g id="ytick_3">
     <g id="line2d_22">
      <g>
       <use xlink:href="#m6f525da6b6" x="45.300187" y="135.803822" style="stroke: #000000; stroke-width: 0.8"/>
      </g>
     </g>
     <g id="text_7">
      <!-- $\mathdefault{0.7}$ -->
      <g transform="translate(23.342545 139.954911) scale(0.12 -0.12)">
       <defs>
        <path id="CMR17-37" d="M 2886 3941  L 2886 4081  L 1382 4081  C 634 4081 621 4165 595 4288  L 480 4288  L 294 3094  L 410 3094  C 429 3215 474 3540 550 3661  C 589 3712 1062 3712 1171 3712  L 2579 3712  L 1869 2661  C 1395 1954 1069 999 1069 165  C 1069 89 1069 -128 1299 -128  C 1530 -128 1530 89 1530 171  L 1530 465  C 1530 1508 1709 2196 2003 2636  L 2886 3941  z " transform="scale(0.015625)"/>
       </defs>
       <use xlink:href="#CMR17-30" transform="scale(0.996264)"/>
       <use xlink:href="#CMMI12-3a" transform="translate(45.690477 0) scale(0.996264)"/>
       <use xlink:href="#CMR17-37" transform="translate(72.787654 0) scale(0.996264)"/>
      </g>
     </g>
    </g>
    <g id="ytick_4">
     <g id="line2d_23">
      <g>
       <use xlink:href="#m6f525da6b6" x="45.300187" y="88.812897" style="stroke: #000000; stroke-width: 0.8"/>
      </g>
     </g>
     <g id="text_8">
      <!-- $\mathdefault{0.8}$ -->
      <g transform="translate(23.342545 92.963987) scale(0.12 -0.12)">
       <defs>
        <path id="CMR17-38" d="M 1741 2264  C 2144 2467 2554 2773 2554 3263  C 2554 3841 1990 4179 1472 4179  C 890 4179 378 3759 378 3180  C 378 3021 416 2747 666 2505  C 730 2442 998 2251 1171 2130  C 883 1983 211 1634 211 934  C 211 279 838 -128 1459 -128  C 2144 -128 2720 362 2720 1010  C 2720 1590 2330 1857 2074 2029  L 1741 2264  z M 902 2822  C 851 2854 595 3051 595 3351  C 595 3739 998 4032 1459 4032  C 1965 4032 2336 3676 2336 3262  C 2336 2669 1670 2331 1638 2331  C 1632 2331 1626 2331 1574 2370  L 902 2822  z M 2080 1519  C 2176 1449 2483 1240 2483 851  C 2483 381 2010 25 1472 25  C 890 25 448 438 448 940  C 448 1443 838 1862 1280 2060  L 2080 1519  z " transform="scale(0.015625)"/>
       </defs>
       <use xlink:href="#CMR17-30" transform="scale(0.996264)"/>
       <use xlink:href="#CMMI12-3a" transform="translate(45.690477 0) scale(0.996264)"/>
       <use xlink:href="#CMR17-38" transform="translate(72.787654 0) scale(0.996264)"/>
      </g>
     </g>
    </g>
    <g id="ytick_5">
     <g id="line2d_24">
      <g>
       <use xlink:href="#m6f525da6b6" x="45.300187" y="41.821972" style="stroke: #000000; stroke-width: 0.8"/>
      </g>
     </g>
     <g id="text_9">
      <!-- $\mathdefault{0.9}$ -->
      <g transform="translate(23.342545 45.973062) scale(0.12 -0.12)">
       <defs>
        <path id="CMR17-39" d="M 2253 1864  C 2253 464 1670 31 1190 31  C 1043 31 685 31 538 294  C 704 268 826 357 826 518  C 826 692 685 749 595 749  C 538 749 365 723 365 506  C 365 71 742 -128 1203 -128  C 1939 -128 2688 674 2688 2073  C 2688 3817 1971 4179 1485 4179  C 851 4179 243 3628 243 2778  C 243 1991 762 1408 1414 1408  C 1952 1408 2189 1903 2253 2112  L 2253 1864  z M 1427 1510  C 1254 1510 1011 1542 813 1922  C 678 2169 678 2461 678 2771  C 678 3146 678 3405 858 3684  C 947 3817 1114 4032 1485 4032  C 2240 4032 2240 2885 2240 2632  C 2240 2182 2035 1510 1427 1510  z " transform="scale(0.015625)"/>
       </defs>
       <use xlink:href="#CMR17-30" transform="scale(0.996264)"/>
       <use xlink:href="#CMMI12-3a" transform="translate(45.690477 0) scale(0.996264)"/>
       <use xlink:href="#CMR17-39" transform="translate(72.787654 0) scale(0.996264)"/>
      </g>
     </g>
    </g>
    <g id="text_10">
     <!-- Fidelity with $|\Phi^+\rangle$ -->
     <g transform="translate(16.353753 165.927665) rotate(-90) scale(0.12 -0.12)">
      <defs>
       <path id="CMSS17-46" d="M 2918 1984  L 2918 2373  L 1101 2373  L 1101 3968  L 1882 3968  C 1958 3968 2035 3968 2112 3968  L 3168 3968  L 3168 4375  L 563 4375  L 563 -32  L 1101 -32  L 1101 1984  L 2918 1984  z " transform="scale(0.015625)"/>
       <path id="CMSS17-69" d="M 979 4183  L 442 4183  L 442 3648  L 979 3648  L 979 4183  z M 947 2739  L 474 2739  L 474 0  L 947 0  L 947 2739  z " transform="scale(0.015625)"/>
       <path id="CMSS17-64" d="M 2611 4416  L 2138 4416  L 2138 2438  C 1939 2603 1613 2756 1254 2756  C 672 2756 211 2131 211 1347  C 211 562 666 -64 1235 -64  C 1677 -64 1971 172 2125 306  L 2125 -13  L 2611 -13  L 2611 4416  z M 2125 836  C 2125 747 2125 653 1926 482  C 1798 375 1645 325 1498 325  C 1152 325 698 576 698 1340  C 698 2134 1210 2368 1562 2368  C 1798 2368 1990 2254 2125 2065  L 2125 836  z " transform="scale(0.015625)"/>
       <path id="CMSS17-6c" d="M 947 4416  L 474 4416  L 474 0  L 947 0  L 947 4416  z " transform="scale(0.015625)"/>
       <path id="CMSS17-79" d="M 2675 2752  L 2176 2752  C 1632 1294 1446 702 1434 383  L 1427 383  C 1408 696 1126 1460 902 2007  L 602 2752  L 83 2752  L 1216 13  C 1146 -178 1043 -465 1011 -529  C 870 -885 774 -885 672 -885  C 646 -885 442 -885 211 -809  L 250 -1229  C 410 -1261 570 -1280 685 -1280  C 845 -1280 1165 -1280 1459 -497  L 2675 2752  z " transform="scale(0.015625)"/>
       <path id="CMSS17-77" d="M 4013 2752  L 3526 2752  L 3187 1601  C 3117 1358 2918 685 2893 371  L 2886 371  C 2874 564 2765 1024 2586 1633  L 2259 2752  L 1818 2752  L 1498 1658  C 1338 1101 1216 627 1203 371  L 1197 371  C 1171 749 909 1633 870 1773  L 582 2752  L 83 2752  L 915 0  L 1402 0  C 1734 1096 1990 1943 2010 2370  C 2022 2160 2131 1707 2195 1484  L 2618 0  L 3181 0  L 4013 2752  z " transform="scale(0.015625)"/>
       <path id="CMSS17-68" d="M 2618 1891  C 2618 2292 2522 2820 1798 2820  C 1395 2820 1133 2623 947 2407  L 947 4448  L 474 4448  L 474 32  L 960 32  L 960 1573  C 960 1973 1114 2432 1549 2432  C 2112 2432 2131 2056 2131 1839  L 2131 32  L 2618 32  L 2618 1891  z " transform="scale(0.015625)"/>
       <path id="CMSY10-6a" d="M 1018 4570  C 1018 4685 1018 4800 890 4800  C 762 4800 762 4685 762 4570  L 762 -1370  C 762 -1485 762 -1600 890 -1600  C 1018 -1600 1018 -1485 1018 -1370  L 1018 4570  z " transform="scale(0.015625)"/>
       <path id="CMR17-8" d="M 2330 818  C 3366 907 3974 1553 3974 2172  C 3974 2818 3341 3444 2330 3534  L 2330 3897  C 2330 4128 2342 4192 2829 4192  L 2970 4192  L 2970 4352  C 2707 4352 2400 4352 2131 4352  C 1862 4352 1549 4352 1286 4352  L 1286 4192  L 1427 4192  C 1914 4192 1926 4128 1926 3897  L 1926 3534  C 922 3444 294 2811 294 2179  C 294 1521 947 907 1926 818  L 1926 454  C 1926 224 1914 160 1427 160  L 1286 160  L 1286 0  C 1549 0 1862 0 2131 0  C 2400 0 2707 0 2970 0  L 2970 160  L 2829 160  C 2342 160 2330 224 2330 454  L 2330 818  z M 1926 927  C 1350 991 768 1323 768 2173  C 768 3048 1370 3367 1926 3425  L 1926 927  z M 2330 3425  C 2835 3380 3501 3093 3501 2179  C 3501 1240 2810 972 2330 927  L 2330 3425  z " transform="scale(0.015625)"/>
       <path id="CMR17-2b" d="M 2413 1472  L 4109 1472  C 4198 1472 4307 1472 4307 1580  C 4307 1695 4205 1695 4109 1695  L 2413 1695  L 2413 3386  C 2413 3475 2413 3584 2304 3584  C 2189 3584 2189 3482 2189 3386  L 2189 1695  L 493 1695  C 403 1695 294 1695 294 1587  C 294 1472 397 1472 493 1472  L 2189 1472  L 2189 -218  C 2189 -307 2189 -416 2298 -416  C 2413 -416 2413 -314 2413 -218  L 2413 1472  z " transform="scale(0.015625)"/>
       <path id="CMSY10-69" d="M 1747 1491  C 1779 1568 1779 1581 1779 1600  C 1779 1619 1779 1632 1747 1709  L 627 4653  C 589 4762 550 4800 480 4800  C 410 4800 352 4742 352 4672  C 352 4653 352 4640 384 4570  L 1517 1600  L 384 -1357  C 352 -1427 352 -1440 352 -1472  C 352 -1542 410 -1600 480 -1600  C 563 -1600 589 -1536 614 -1472  L 1747 1491  z " transform="scale(0.015625)"/>
      </defs>
      <use xlink:href="#CMSS17-46" transform="scale(0.996264)"/>
      <use xlink:href="#CMSS17-69" transform="translate(53.289559 0) scale(0.996264)"/>
      <use xlink:href="#CMSS17-64" transform="translate(75.470282 0) scale(0.996264)"/>
      <use xlink:href="#CMSS17-65" transform="translate(123.675225 0) scale(0.996264)"/>
      <use xlink:href="#CMSS17-6c" transform="translate(165.314048 0) scale(0.996264)"/>
      <use xlink:href="#CMSS17-69" transform="translate(187.494771 0) scale(0.996264)"/>
      <use xlink:href="#CMSS17-74" transform="translate(209.675494 0) scale(0.996264)"/>
      <use xlink:href="#CMSS17-79" transform="translate(240.904606 0) scale(0.996264)"/>
      <use xlink:href="#CMSS17-77" transform="translate(315.133861 0) scale(0.996264)"/>
      <use xlink:href="#CMSS17-69" transform="translate(378.953406 0) scale(0.996264)"/>
      <use xlink:href="#CMSS17-74" transform="translate(401.134129 0) scale(0.996264)"/>
      <use xlink:href="#CMSS17-68" transform="translate(434.965696 0) scale(0.996264)"/>
      <use xlink:href="#CMSY10-6a" transform="translate(514.399752 0) scale(0.996264)"/>
      <use xlink:href="#CMR17-8" transform="translate(542.073836 0) scale(0.996264)"/>
      <use xlink:href="#CMR17-2b" transform="translate(608.583717 36.153639) scale(0.697382)"/>
      <use xlink:href="#CMSY10-69" transform="translate(659.28198 0) scale(0.996264)"/>
     </g>
    </g>
   </g>
   <g id="line2d_25">
    <path d="M 45.300187 17.646657  L 50.391194 17.649349  L 55.482202 17.653375  L 60.573209 17.659193  L 65.664217 17.667546  L 70.755224 17.679277  L 75.846231 17.696843  L 80.937239 17.719747  L 86.028246 17.750499  L 91.119254 17.790613  L 96.210261 17.843124  L 101.301268 17.909834  L 106.392276 17.994291  L 111.483283 18.099668  L 116.57429 18.229355  L 121.665298 18.387609  L 126.756305 18.578456  L 131.847313 18.806326  L 136.93832 19.075669  L 142.029327 19.391425  L 147.120335 19.758507  L 152.211342 20.181529  L 157.30235 20.665586  L 162.393357 21.21569  L 167.484364 21.836683  L 172.575372 22.5329  L 177.666379 23.308942  L 182.757386 24.169509  L 187.848394 25.11886  L 192.939401 26.160266  L 198.030409 27.298195  L 203.121416 28.53576  L 208.212423 29.876484  L 213.303431 31.323312  L 218.394438 32.878965  L 223.485446 34.546109  L 228.576453 36.326986  L 233.66746 38.223052  L 238.758468 40.236761  L 243.849475 42.369196  L 248.940483 44.62153  L 254.03149 46.994546  L 259.122497 49.488719  L 264.213505 52.104645  L 269.304512 54.841931  L 274.395519 57.700203  L 279.486527 60.678816  L 284.577534 63.775852  L 289.668542 66.990682  L 294.759549 70.320465  L 299.850556 73.76317  L 304.941564 77.315981  L 310.032571 80.974953  L 315.123579 84.735844  L 320.214586 88.594658  L 325.305593 92.54627  L 330.396601 96.584693  L 335.487608 100.703638  L 340.578615 104.896828  L 345.669623 109.15541  L 350.76063 113.472604  L 355.851638 117.838479  L 360.942645 122.244416  L 366.033652 126.679981  L 371.12466 131.135294  L 376.215667 135.597724  L 381.306675 140.057574  L 386.397682 144.502081  L 391.488689 148.919105  L 396.579697 153.29653  L 401.670704 157.621687  L 406.761711 161.881884  L 411.852719 166.065202  L 416.943726 170.158535  L 422.034734 174.151578  L 427.125741 178.031187  L 432.216748 181.788559  L 437.307756 185.413143  L 442.398763 188.896661  L 447.489771 192.23078  L 452.580778 195.409446  L 457.671785 198.42741  L 462.762793 201.280872  L 467.8538 203.966627  L 472.944808 206.483592  L 478.035815 208.8321  L 483.126822 211.014045  L 488.21783 213.031317  L 493.308837 214.888175  L 498.399844 216.589346  L 503.490852 218.140663  L 508.581859 219.549164  L 513.672867 220.820135  L 518.763874 221.963413  L 523.854881 222.98626  L 528.945889 223.895893  L 534.036896 224.702147  L 539.127904 225.412718  L 544.218911 226.037833  L 549.309918 226.579792  " clip-path="url(#p0cc55cbfc0)" style="fill: none; stroke: #1f77b4; stroke-width: 1.5; stroke-linecap: square"/>
   </g>
   <g id="patch_3">
    <path d="M 45.300187 237.026449  L 45.300187 7.2  " style="fill: none; stroke: #000000; stroke-width: 0.8; stroke-linejoin: miter; stroke-linecap: square"/>
   </g>
   <g id="patch_4">
    <path d="M 549.309918 237.026449  L 549.309918 7.2  " style="fill: none; stroke: #000000; stroke-width: 0.8; stroke-linejoin: miter; stroke-linecap: square"/>
   </g>
   <g id="patch_5">
    <path d="M 45.300187 237.026449  L 549.309918 237.026449  " style="fill: none; stroke: #000000; stroke-width: 0.8; stroke-linejoin: miter; stroke-linecap: square"/>
   </g>
   <g id="patch_6">
    <path d="M 45.300187 7.2  L 549.309918 7.2  " style="fill: none; stroke: #000000; stroke-width: 0.8; stroke-linejoin: miter; stroke-linecap: square"/>
   </g>
  </g>
 </g>
 <defs>
  <clipPath id="p0cc55cbfc0">
   <rect x="45.300187" y="7.2" width="504.009731" height="229.826449"/>
  </clipPath>
 </defs>
</svg>