<svg xmlns:xlink="http://www.w3.org/1999/xlink" xmlns="http://www.w3.org/2000/svg" width="980.68383pt" height="421.919994pt" viewBox="0 0 980.68383 421.919994" version="1.1">
 <metadata>
  <rdf:RDF xmlns:dc="http://purl.org/dc/elements/1.1/" xmlns:cc="http://creativecommons.org/ns#" xmlns:rdf="http://www.w3.org/1999/02/22-rdf-syntax-ns#">
   <cc:Work>
    <dc:type rdf:resource="http://purl.org/dc/dcmitype/StillImage"/>
    <dc:date>2025-06-07T14:16:04.798133</dc:date>
    <dc:format>image/svg+xml</dc:format>
    <dc:creator>
     <cc:Agent>
      <dc:title>Matplotlib v3.10.3, https://matplotlib.org/</dc:title>
     </cc:Agent>
    </dc:creator>
   </cc:Work>
  </rdf:RDF>
 </metadata>
 <defs>
  <style type="text/css">*{stroke-linejoin: round; stroke-linecap: butt}</style>
 </defs>
 <g id="figure_1">
  <g id="patch_1">
   <path d="M 0 421.919994  L 980.68383 421.919994  L 980.68383 0  L 0 0  z " style="fill: #ffffff"/>
  </g>
  <g id="axes_1">
   <g id="line2d_1">
    <path d="M 324.074813 143.039998  L 680.654807 143.039998  " clip-path="url(#p1b0c6b1787)" style="fill: none; stroke: #000000; stroke-width: 6; stroke-linecap: square"/>
   </g>
   <g id="line2d_2">
    <path d="M 324.074813 312.839996  L 680.654807 312.839996  " clip-path="url(#p1b0c6b1787)" style="fill: none; stroke: #000000; stroke-width: 6; stroke-linecap: square"/>
   </g>
   <g id="patch_2">
    <path d="M 307.094813 58.139999  L -3937.905127 58.139999  L -3937.905127 567.539992  L 307.094813 567.539992  z " clip-path="url(#p1b0c6b1787)" style="fill: #ffffff; stroke: #ffffff; stroke-width: 4.5; stroke-linejoin: miter"/>
   </g>
   <g id="line2d_3">
    <path d="M 585.566809 312.839996  L 585.566809 143.039998  " clip-path="url(#p1b0c6b1787)" style="fill: none; stroke: #002d9c; stroke-width: 6; stroke-linecap: square"/>
   </g>
   <g id="patch_3">
    <path d="M 360.581812 198.224997  L 470.95181 198.224997  L 470.95181 87.854999  L 360.581812 87.854999  z " clip-path="url(#p1b0c6b1787)" style="fill: #fa4d56; stroke: #fa4d56; stroke-width: 4.5; stroke-linejoin: miter"/>
   </g>
   <g id="patch_4">
    <path d="M 585.566809 159.595498  C 589.957379 159.595498 594.168713 157.851106 597.273315 154.746504  C 600.377917 151.641903 602.122309 147.430568 602.122309 143.039998  C 602.122309 138.649428 600.377917 134.438094 597.273315 131.333492  C 594.168713 128.22889 589.957379 126.484498 585.566809 126.484498  C 581.176239 126.484498 576.964904 128.22889 573.860303 131.333492  C 570.755701 134.438094 569.011309 138.649428 569.011309 143.039998  C 569.011309 147.430568 570.755701 151.641903 573.860303 154.746504  C 576.964904 157.851106 581.176239 159.595498 585.566809 159.595498  z " clip-path="url(#p1b0c6b1787)" style="fill: #002d9c; stroke: #002d9c; stroke-width: 4.5; stroke-linejoin: miter"/>
   </g>
   <g id="patch_5">
    <path d="M 585.566809 351.469495  C 595.811472 351.469495 605.637919 347.399247 612.88199 340.155177  C 620.126061 332.911106 624.196308 323.084659 624.196308 312.839996  C 624.196308 302.595333 620.126061 292.768885 612.88199 285.524815  C 605.637919 278.280744 595.811472 274.210496 585.566809 274.210496  C 575.322146 274.210496 565.495698 278.280744 558.251628 285.524815  C 551.007557 292.768885 546.937309 302.595333 546.937309 312.839996  C 546.937309 323.084659 551.007557 332.911106 558.251628 340.155177  C 565.495698 347.399247 575.322146 351.469495 585.566809 351.469495  z " clip-path="url(#p1b0c6b1787)" style="fill: #002d9c; stroke: #002d9c; stroke-width: 6; stroke-linejoin: miter"/>
   </g>
   <g id="line2d_4">
    <path d="M 585.566809 334.913995  L 585.566809 290.765996  " clip-path="url(#p1b0c6b1787)" style="fill: none; stroke: #ffffff; stroke-width: 6; stroke-linecap: square"/>
   </g>
   <g id="line2d_5">
    <path d="M 563.492809 312.839996  L 607.640809 312.839996  " clip-path="url(#p1b0c6b1787)" style="fill: none; stroke: #ffffff; stroke-width: 6; stroke-linecap: square"/>
   </g>
   <g id="text_1">
    <!-- ${q}_{0}$ $|0\rangle$ -->
    <g transform="translate(215.848557 151.445976) scale(0.3375 -0.3375)">
     <defs>
      <path id="CMMI12-71" d="M 2822 2759  C 2822 2790 2797 2816 2765 2816  C 2714 2816 2464 2585 2342 2362  C 2227 2646 2029 2816 1754 2816  C 1030 2816 250 1884 250 939  C 250 307 621 -64 1056 -64  C 1395 -64 1677 193 1811 339  L 1818 333  L 1574 -615  L 1517 -842  C 1459 -1031 1363 -1031 1062 -1031  C 992 -1031 928 -1031 928 -1152  C 928 -1197 966 -1216 1011 -1216  C 1101 -1216 1216 -1216 1306 -1216  L 1958 -1216  C 2054 -1216 2163 -1216 2259 -1216  C 2298 -1216 2374 -1216 2374 -1095  C 2374 -1031 2323 -1031 2227 -1031  C 1926 -1031 1907 -986 1907 -935  C 1907 -904 1914 -898 1933 -815  L 2822 2759  z M 1920 762  C 1888 652 1888 640 1798 518  C 1658 339 1376 64 1075 64  C 813 64 666 301 666 678  C 666 1030 864 1747 986 2016  C 1203 2464 1504 2695 1754 2695  C 2176 2695 2259 2170 2259 2119  C 2259 2113 2240 2028 2234 2016  L 1920 762  z " transform="scale(0.015625)"/>
      <path id="CMR17-30" d="M 2688 2025  C 2688 2416 2682 3080 2413 3591  C 2176 4039 1798 4198 1466 4198  C 1158 4198 768 4058 525 3597  C 269 3118 243 2524 243 2025  C 243 1661 250 1106 448 619  C 723 -39 1216 -128 1466 -128  C 1760 -128 2208 -7 2470 600  C 2662 1042 2688 1559 2688 2025  z M 1466 -26  C 1056 -26 813 325 723 812  C 653 1188 653 1738 653 2096  C 653 2588 653 2997 736 3387  C 858 3929 1216 4096 1466 4096  C 1728 4096 2067 3923 2189 3400  C 2272 3036 2278 2607 2278 2096  C 2278 1680 2278 1169 2202 792  C 2067 95 1690 -26 1466 -26  z " transform="scale(0.015625)"/>
      <path id="CMSY10-6a" d="M 1018 4570  C 1018 4685 1018 4800 890 4800  C 762 4800 762 4685 762 4570  L 762 -1370  C 762 -1485 762 -1600 890 -1600  C 1018 -1600 1018 -1485 1018 -1370  L 1018 4570  z " transform="scale(0.015625)"/>
      <path id="CMSY10-69" d="M 1747 1491  C 1779 1568 1779 1581 1779 1600  C 1779 1619 1779 1632 1747 1709  L 627 4653  C 589 4762 550 4800 480 4800  C 410 4800 352 4742 352 4672  C 352 4653 352 4640 384 4570  L 1517 1600  L 384 -1357  C 352 -1427 352 -1440 352 -1472  C 352 -1542 410 -1600 480 -1600  C 563 -1600 589 -1536 614 -1472  L 1747 1491  z " transform="scale(0.015625)"/>
     </defs>
     <use xlink:href="#CMMI12-71" transform="scale(0.996264)"/>
     <use xlink:href="#CMR17-30" transform="translate(43.251731 -14.943915) scale(0.697382)"/>
     <use xlink:href="#CMSY10-6a" transform="translate(106.962158 0) scale(0.996264)"/>
     <use xlink:href="#CMR17-30" transform="translate(134.636243 0) scale(0.996264)"/>
     <use xlink:href="#CMSY10-69" transform="translate(180.32672 0) scale(0.996264)"/>
    </g>
   </g>
   <g id="text_2">
    <!-- ${q}_{1}$ $|0\rangle$ -->
    <g transform="translate(215.848557 321.245973) scale(0.3375 -0.3375)">
     <defs>
      <path id="CMR17-31" d="M 1702 4058  C 1702 4192 1696 4192 1606 4192  C 1357 3916 979 3827 621 3827  C 602 3827 570 3827 563 3808  C 557 3795 557 3782 557 3648  C 755 3648 1088 3686 1344 3839  L 1344 461  C 1344 236 1331 160 781 160  L 589 160  L 589 0  C 896 0 1216 0 1523 0  C 1830 0 2150 0 2458 0  L 2458 160  L 2266 160  C 1715 160 1702 230 1702 458  L 1702 4058  z " transform="scale(0.015625)"/>
     </defs>
     <use xlink:href="#CMMI12-71" transform="scale(0.996264)"/>
     <use xlink:href="#CMR17-31" transform="translate(43.251731 -14.943915) scale(0.697382)"/>
     <use xlink:href="#CMSY10-6a" transform="translate(106.962158 0) scale(0.996264)"/>
     <use xlink:href="#CMR17-30" transform="translate(134.636243 0) scale(0.996264)"/>
     <use xlink:href="#CMSY10-69" transform="translate(180.32672 0) scale(0.996264)"/>
    </g>
   </g>
   <g id="text_3">
    <!-- H -->
    <g transform="translate(406.848511 149.763921) scale(0.27 -0.27)">
     <defs>
      <path id="CMSS17-48" d="M 3674 4416  L 3136 4416  L 3136 2501  L 1101 2501  L 1101 4416  L 563 4416  L 563 0  L 1101 0  L 1101 2112  L 3136 2112  L 3136 0  L 3674 0  L 3674 4416  z " transform="scale(0.015625)"/>
     </defs>
     <use xlink:href="#CMSS17-48" transform="scale(0.996264)"/>
    </g>
   </g>
  </g>
  <g id="text_4">
   <!-- $|\Phi^+\rangle = \frac{1}{\sqrt{2}}(|00\rangle + |11\rangle)$ -->
   <g transform="translate(726.935592 228.091727) scale(0.27 -0.27)">
    <defs>
     <path id="CMR17-8" d="M 2330 818  C 3366 907 3974 1553 3974 2172  C 3974 2818 3341 3444 2330 3534  L 2330 3897  C 2330 4128 2342 4192 2829 4192  L 2970 4192  L 2970 4352  C 2707 4352 2400 4352 2131 4352  C 1862 4352 1549 4352 1286 4352  L 1286 4192  L 1427 4192  C 1914 4192 1926 4128 1926 3897  L 1926 3534  C 922 3444 294 2811 294 2179  C 294 1521 947 907 1926 818  L 1926 454  C 1926 224 1914 160 1427 160  L 1286 160  L 1286 0  C 1549 0 1862 0 2131 0  C 2400 0 2707 0 2970 0  L 2970 160  L 2829 160  C 2342 160 2330 224 2330 454  L 2330 818  z M 1926 927  C 1350 991 768 1323 768 2173  C 768 3048 1370 3367 1926 3425  L 1926 927  z M 2330 3425  C 2835 3380 3501 3093 3501 2179  C 3501 1240 2810 972 2330 927  L 2330 3425  z " transform="scale(0.015625)"/>
     <path id="CMR17-2b" d="M 2413 1472  L 4109 1472  C 4198 1472 4307 1472 4307 1580  C 4307 1695 4205 1695 4109 1695  L 2413 1695  L 2413 3386  C 2413 3475 2413 3584 2304 3584  C 2189 3584 2189 3482 2189 3386  L 2189 1695  L 493 1695  C 403 1695 294 1695 294 1587  C 294 1472 397 1472 493 1472  L 2189 1472  L 2189 -218  C 2189 -307 2189 -416 2298 -416  C 2413 -416 2413 -314 2413 -218  L 2413 1472  z " transform="scale(0.015625)"/>
     <path id="CMR17-3d" d="M 4115 2017  C 4211 2017 4307 2017 4307 2125  C 4307 2240 4198 2240 4090 2240  L 512 2240  C 403 2240 294 2240 294 2125  C 294 2017 390 2017 486 2017  L 4115 2017  z M 4090 896  C 4198 896 4307 896 4307 1011  C 4307 1119 4211 1119 4115 1119  L 486 1119  C 390 1119 294 1119 294 1011  C 294 896 403 896 512 896  L 4090 896  z " transform="scale(0.015625)"/>
     <path id="CMSY10-70" d="M 2490 -5472  L 1363 -2982  C 1318 -2880 1286 -2880 1267 -2880  C 1261 -2880 1229 -2880 1158 -2931  L 550 -3392  C 467 -3456 467 -3475 467 -3494  C 467 -3526 486 -3565 531 -3565  C 570 -3565 678 -3475 749 -3424  C 787 -3393 883 -3323 954 -3271  L 2214 -6042  C 2259 -6144 2291 -6144 2349 -6144  C 2445 -6144 2464 -6106 2509 -6016  L 5414 0  C 5459 90 5459 115 5459 128  C 5459 192 5408 256 5331 256  C 5280 256 5235 224 5184 122  L 2490 -5472  z " transform="scale(0.015625)"/>
     <path id="CMR17-32" d="M 2669 989  L 2554 989  C 2490 536 2438 459 2413 420  C 2381 369 1920 369 1830 369  L 602 369  C 832 619 1280 1072 1824 1597  C 2214 1967 2669 2402 2669 3035  C 2669 3790 2067 4224 1395 4224  C 691 4224 262 3604 262 3030  C 262 2780 448 2748 525 2748  C 589 2748 781 2787 781 3010  C 781 3207 614 3264 525 3264  C 486 3264 448 3258 422 3245  C 544 3790 915 4058 1306 4058  C 1862 4058 2227 3617 2227 3035  C 2227 2479 1901 2000 1536 1584  L 262 146  L 262 0  L 2515 0  L 2669 989  z " transform="scale(0.015625)"/>
     <path id="CMR17-28" d="M 1958 -1561  C 1958 -1555 1958 -1542 1939 -1523  C 1645 -1224 858 -407 858 1581  C 858 3569 1632 4379 1946 4697  C 1946 4704 1958 4717 1958 4736  C 1958 4755 1939 4768 1914 4768  C 1843 4768 1299 4296 986 3594  C 666 2887 576 2199 576 1588  C 576 1128 621 351 1005 -471  C 1312 -1135 1837 -1600 1914 -1600  C 1946 -1600 1958 -1587 1958 -1561  z " transform="scale(0.015625)"/>
     <path id="CMR17-29" d="M 1683 1581  C 1683 2040 1638 2817 1254 3639  C 947 4303 422 4768 346 4768  C 326 4768 301 4761 301 4729  C 301 4717 307 4710 314 4697  C 621 4378 1402 3568 1402 1584  C 1402 -407 627 -1217 314 -1537  C 307 -1549 301 -1556 301 -1568  C 301 -1600 326 -1600 346 -1600  C 416 -1600 960 -1128 1274 -426  C 1594 281 1683 969 1683 1581  z " transform="scale(0.015625)"/>
    </defs>
    <use xlink:href="#CMSY10-6a" transform="scale(0.996264)"/>
    <use xlink:href="#CMR17-8" transform="translate(27.674085 0) scale(0.996264)"/>
    <use xlink:href="#CMR17-2b" transform="translate(94.183965 36.153639) scale(0.697382)"/>
    <use xlink:href="#CMSY10-69" transform="translate(144.882229 0) scale(0.996264)"/>
    <use xlink:href="#CMR17-3d" transform="translate(211.299971 0) scale(0.996264)"/>
    <use xlink:href="#CMR17-31" transform="translate(340.941942 39.226102) scale(0.697382)"/>
    <use xlink:href="#CMSY10-70" transform="translate(311.884282 13.350281) scale(0.697382)"/>
    <use xlink:href="#CMR17-32" transform="translate(369.999602 -44.344481) scale(0.697382)"/>
    <use xlink:href="#CMR17-28" transform="translate(403.178297 0) scale(0.996264)"/>
    <use xlink:href="#CMSY10-6a" transform="translate(438.459065 0) scale(0.996264)"/>
    <use xlink:href="#CMR17-30" transform="translate(466.13315 0) scale(0.996264)"/>
    <use xlink:href="#CMR17-30" transform="translate(511.823627 0) scale(0.996264)"/>
    <use xlink:href="#CMSY10-69" transform="translate(557.514104 0) scale(0.996264)"/>
    <use xlink:href="#CMR17-2b" transform="translate(618.397045 0) scale(0.996264)"/>
    <use xlink:href="#CMSY10-6a" transform="translate(712.25104 0) scale(0.996264)"/>
    <use xlink:href="#CMR17-31" transform="translate(739.925125 0) scale(0.996264)"/>
    <use xlink:href="#CMR17-31" transform="translate(785.615602 0) scale(0.996264)"/>
    <use xlink:href="#CMSY10-69" transform="translate(831.306079 0) scale(0.996264)"/>
    <use xlink:href="#CMR17-29" transform="translate(870.049813 0) scale(0.996264)"/>
    <path d="M 311.884282 22.914133  L 401.982784 22.914133  L 401.982784 26.899083  L 311.884282 26.899083  L 311.884282 22.914133  z "/>
    <path d="M 369.999602 13.350281  L 401.982784 13.350281  L 401.982784 16.139732  L 369.999602 16.139732  L 369.999602 13.350281  z "/>
   </g>
  </g>
 </g>
 <defs>
  <clipPath id="p1b0c6b1787">
   <rect x="7.2" y="7.2" width="690.434807" height="407.519994"/>
  </clipPath>
 </defs>
</svg>