<svg xmlns:xlink="http://www.w3.org/1999/xlink" xmlns="http://www.w3.org/2000/svg" width="564.48pt" height="276.48pt" viewBox="0 0 564.48 276.48" version="1.1">
 <metadata>
  <rdf:RDF xmlns:dc="http://purl.org/dc/elements/1.1/" xmlns:cc="http://creativecommons.org/ns#" xmlns:rdf="http://www.w3.org/1999/02/22-rdf-syntax-ns#">
   <cc:Work>
    <dc:type rdf:resource="http://purl.org/dc/dcmitype/StillImage"/>
    <dc:date>2025-06-17T10:18:42.563296</dc:date>
    <dc:format>image/svg+xml</dc:format>
    <dc:creator>
     <cc:Agent>
      <dc:title>Matplotlib v3.10.3, https://matplotlib.org/</dc:title>
     </cc:Agent>
    </dc:creator>
   </cc:Work>
  </rdf:RDF>
 </metadata>
 <defs>
  <style type="text/css">*{stroke-linejoin: round; stroke-linecap: butt}</style>
 </defs>
 <g id="figure_1">
  <g id="patch_1">
   <path d="M 0 276.48  L 564.48 276.48  L 564.48 0  L 0 0  z " style="fill: #ffffff"/>
  </g>
  <g id="axes_1">
   <g id="patch_2">
    <path d="M 45.11281 237.026449  L 557.28 237.026449  L 557.28 11.35109  L 45.11281 11.35109  z " style="fill: #ffffff"/>
   </g>
   <g id="matplotlib.axis_1">
    <g id="xtick_1">
     <g id="line2d_1">
      <defs>
       <path id="m16c5e06ac4" d="M 0 0  L 0 3.5  " style="stroke: #000000; stroke-width: 0.8"/>
      </defs>
      <g>
       <use xlink:href="#m16c5e06ac4" x="45.11281" y="237.026449" style="stroke: #000000; stroke-width: 0.8"/>
      </g>
     </g>
     <g id="text_1">
      <!-- $\mathdefault{0.0}$ -->
      <g transform="translate(37.633989 252.328629) scale(0.12 -0.12)">
       <defs>
        <path id="CMR17-30" d="M 2688 2025  C 2688 2416 2682 3080 2413 3591  C 2176 4039 1798 4198 1466 4198  C 1158 4198 768 4058 525 3597  C 269 3118 243 2524 243 2025  C 243 1661 250 1106 448 619  C 723 -39 1216 -128 1466 -128  C 1760 -128 2208 -7 2470 600  C 2662 1042 2688 1559 2688 2025  z M 1466 -26  C 1056 -26 813 325 723 812  C 653 1188 653 1738 653 2096  C 653 2588 653 2997 736 3387  C 858 3929 1216 4096 1466 4096  C 1728 4096 2067 3923 2189 3400  C 2272 3036 2278 2607 2278 2096  C 2278 1680 2278 1169 2202 792  C 2067 95 1690 -26 1466 -26  z " transform="scale(0.015625)"/>
        <path id="CMMI12-3a" d="M 1178 307  C 1178 492 1024 619 870 619  C 685 619 557 466 557 313  C 557 128 710 0 864 0  C 1050 0 1178 153 1178 307  z " transform="scale(0.015625)"/>
       </defs>
       <use xlink:href="#CMR17-30" transform="scale(0.996264)"/>
       <use xlink:href="#CMMI12-3a" transform="translate(45.690477 0) scale(0.996264)"/>
       <use xlink:href="#CMR17-30" transform="translate(72.787654 0) scale(0.996264)"/>
      </g>
     </g>
    </g>
    <g id="xtick_2">
     <g id="line2d_2">
      <g>
       <use xlink:href="#m16c5e06ac4" x="126.62675" y="237.026449" style="stroke: #000000; stroke-width: 0.8"/>
      </g>
     </g>
     <g id="text_2">
      <!-- $\mathdefault{0.5}$ -->
      <g transform="translate(119.147929 252.328629) scale(0.12 -0.12)">
       <defs>
        <path id="CMR17-35" d="M 730 3692  C 794 3666 1056 3584 1325 3584  C 1920 3584 2246 3911 2432 4100  C 2432 4157 2432 4192 2394 4192  C 2387 4192 2374 4192 2323 4163  C 2099 4058 1837 3973 1517 3973  C 1325 3973 1037 3999 723 4139  C 653 4171 640 4171 634 4171  C 602 4171 595 4164 595 4037  L 595 2203  C 595 2089 595 2057 659 2057  C 691 2057 704 2070 736 2114  C 941 2401 1222 2522 1542 2522  C 1766 2522 2246 2382 2246 1289  C 2246 1085 2246 715 2054 421  C 1894 159 1645 25 1370 25  C 947 25 518 320 403 814  C 429 807 480 795 506 795  C 589 795 749 840 749 1038  C 749 1210 627 1280 506 1280  C 358 1280 262 1190 262 1011  C 262 454 704 -128 1382 -128  C 2042 -128 2669 440 2669 1264  C 2669 2030 2170 2624 1549 2624  C 1222 2624 947 2503 730 2274  L 730 3692  z " transform="scale(0.015625)"/>
       </defs>
       <use xlink:href="#CMR17-30" transform="scale(0.996264)"/>
       <use xlink:href="#CMMI12-3a" transform="translate(45.690477 0) scale(0.996264)"/>
       <use xlink:href="#CMR17-35" transform="translate(72.787654 0) scale(0.996264)"/>
      </g>
     </g>
    </g>
    <g id="xtick_3">
     <g id="line2d_3">
      <g>
       <use xlink:href="#m16c5e06ac4" x="208.14069" y="237.026449" style="stroke: #000000; stroke-width: 0.8"/>
      </g>
     </g>
     <g id="text_3">
      <!-- $\mathdefault{1.0}$ -->
      <g transform="translate(200.661869 252.328629) scale(0.12 -0.12)">
       <defs>
        <path id="CMR17-31" d="M 1702 4058  C 1702 4192 1696 4192 1606 4192  C 1357 3916 979 3827 621 3827  C 602 3827 570 3827 563 3808  C 557 3795 557 3782 557 3648  C 755 3648 1088 3686 1344 3839  L 1344 461  C 1344 236 1331 160 781 160  L 589 160  L 589 0  C 896 0 1216 0 1523 0  C 1830 0 2150 0 2458 0  L 2458 160  L 2266 160  C 1715 160 1702 230 1702 458  L 1702 4058  z " transform="scale(0.015625)"/>
       </defs>
       <use xlink:href="#CMR17-31" transform="scale(0.996264)"/>
       <use xlink:href="#CMMI12-3a" transform="translate(45.690477 0) scale(0.996264)"/>
       <use xlink:href="#CMR17-30" transform="translate(72.787654 0) scale(0.996264)"/>
      </g>
     </g>
    </g>
    <g id="xtick_4">
     <g id="line2d_4">
      <g>
       <use xlink:href="#m16c5e06ac4" x="289.65463" y="237.026449" style="stroke: #000000; stroke-width: 0.8"/>
      </g>
     </g>
     <g id="text_4">
      <!-- $\mathdefault{1.5}$ -->
      <g transform="translate(282.175809 252.328629) scale(0.12 -0.12)">
       <use xlink:href="#CMR17-31" transform="scale(0.996264)"/>
       <use xlink:href="#CMMI12-3a" transform="translate(45.690477 0) scale(0.996264)"/>
       <use xlink:href="#CMR17-35" transform="translate(72.787654 0) scale(0.996264)"/>
      </g>
     </g>
    </g>
    <g id="xtick_5">
     <g id="line2d_5">
      <g>
       <use xlink:href="#m16c5e06ac4" x="371.16857" y="237.026449" style="stroke: #000000; stroke-width: 0.8"/>
      </g>
     </g>
     <g id="text_5">
      <!-- $\mathdefault{2.0}$ -->
      <g transform="translate(363.689749 252.328629) scale(0.12 -0.12)">
       <defs>
        <path id="CMR17-32" d="M 2669 989  L 2554 989  C 2490 536 2438 459 2413 420  C 2381 369 1920 369 1830 369  L 602 369  C 832 619 1280 1072 1824 1597  C 2214 1967 2669 2402 2669 3035  C 2669 3790 2067 4224 1395 4224  C 691 4224 262 3604 262 3030  C 262 2780 448 2748 525 2748  C 589 2748 781 2787 781 3010  C 781 3207 614 3264 525 3264  C 486 3264 448 3258 422 3245  C 544 3790 915 4058 1306 4058  C 1862 4058 2227 3617 2227 3035  C 2227 2479 1901 2000 1536 1584  L 262 146  L 262 0  L 2515 0  L 2669 989  z " transform="scale(0.015625)"/>
       </defs>
       <use xlink:href="#CMR17-32" transform="scale(0.996264)"/>
       <use xlink:href="#CMMI12-3a" transform="translate(45.690477 0) scale(0.996264)"/>
       <use xlink:href="#CMR17-30" transform="translate(72.787654 0) scale(0.996264)"/>
      </g>
     </g>
    </g>
    <g id="xtick_6">
     <g id="line2d_6">
      <g>
       <use xlink:href="#m16c5e06ac4" x="452.68251" y="237.026449" style="stroke: #000000; stroke-width: 0.8"/>
      </g>
     </g>
     <g id="text_6">
      <!-- $\mathdefault{2.5}$ -->
      <g transform="translate(445.203689 252.328629) scale(0.12 -0.12)">
       <use xlink:href="#CMR17-32" transform="scale(0.996264)"/>
       <use xlink:href="#CMMI12-3a" transform="translate(45.690477 0) scale(0.996264)"/>
       <use xlink:href="#CMR17-35" transform="translate(72.787654 0) scale(0.996264)"/>
      </g>
     </g>
    </g>
    <g id="xtick_7">
     <g id="line2d_7">
      <g>
       <use xlink:href="#m16c5e06ac4" x="534.19645" y="237.026449" style="stroke: #000000; stroke-width: 0.8"/>
      </g>
     </g>
     <g id="text_7">
      <!-- $\mathdefault{3.0}$ -->
      <g transform="translate(526.717629 252.328629) scale(0.12 -0.12)">
       <defs>
        <path id="CMR17-33" d="M 1414 2157  C 1984 2157 2234 1662 2234 1090  C 2234 320 1824 25 1453 25  C 1114 25 563 194 390 693  C 422 680 454 680 486 680  C 640 680 755 782 755 948  C 755 1133 614 1216 486 1216  C 378 1216 211 1165 211 926  C 211 335 787 -128 1466 -128  C 2176 -128 2720 430 2720 1085  C 2720 1707 2208 2157 1600 2227  C 2086 2328 2554 2756 2554 3329  C 2554 3820 2048 4179 1472 4179  C 890 4179 378 3829 378 3329  C 378 3110 544 3072 627 3072  C 762 3072 877 3155 877 3321  C 877 3486 762 3569 627 3569  C 602 3569 570 3569 544 3557  C 730 3959 1235 4032 1459 4032  C 1683 4032 2106 3925 2106 3320  C 2106 3143 2080 2828 1862 2550  C 1670 2304 1453 2304 1242 2284  C 1210 2284 1062 2269 1037 2269  C 992 2263 966 2257 966 2208  C 966 2163 973 2157 1101 2157  L 1414 2157  z " transform="scale(0.015625)"/>
       </defs>
       <use xlink:href="#CMR17-33" transform="scale(0.996264)"/>
       <use xlink:href="#CMMI12-3a" transform="translate(45.690477 0) scale(0.996264)"/>
       <use xlink:href="#CMR17-30" transform="translate(72.787654 0) scale(0.996264)"/>
      </g>
     </g>
    </g>
    <g id="text_8">
     <!-- Time $t$ -->
     <g transform="translate(284.533397 266.955404) scale(0.12 -0.12)">
      <defs>
       <path id="CMSS17-54" d="M 2317 3968  L 2848 3968  C 2925 3968 3002 3968 3078 3968  L 3878 3968  L 3878 4376  L 218 4376  L 218 3968  L 1018 3968  C 1094 3968 1171 3968 1248 3968  L 1779 3968  L 1779 -32  L 2317 -32  L 2317 3968  z " transform="scale(0.015625)"/>
       <path id="CMSS17-69" d="M 979 4183  L 442 4183  L 442 3648  L 979 3648  L 979 4183  z M 947 2739  L 474 2739  L 474 0  L 947 0  L 947 2739  z " transform="scale(0.015625)"/>
       <path id="CMSS17-6d" d="M 4288 1877  C 4288 2308 4179 2816 3462 2816  C 2982 2816 2694 2516 2566 2331  C 2451 2670 2182 2816 1798 2816  C 1363 2816 1088 2568 941 2389  L 941 2758  L 474 2758  L 474 0  L 960 0  L 960 1559  C 960 1939 1101 2428 1555 2428  C 2138 2428 2138 2016 2138 1829  L 2138 0  L 2624 0  L 2624 1559  C 2624 1939 2765 2428 3219 2428  C 3802 2428 3802 2016 3802 1829  L 3802 0  L 4288 0  L 4288 1877  z " transform="scale(0.015625)"/>
       <path id="CMSS17-65" d="M 2502 1377  C 2502 1590 2490 2003 2285 2345  C 2061 2713 1696 2816 1421 2816  C 755 2816 192 2188 192 1375  C 192 582 774 -64 1510 -64  C 1798 -64 2150 19 2470 248  C 2470 274 2458 414 2451 420  C 2451 433 2432 630 2432 656  C 2125 407 1773 325 1517 325  C 1107 325 666 667 646 1377  L 2502 1377  z M 698 1728  C 781 2084 1062 2421 1421 2421  C 1517 2421 1965 2421 2080 1728  L 698 1728  z " transform="scale(0.015625)"/>
       <path id="CMMI12-74" d="M 1286 2566  L 1875 2566  C 1997 2566 2061 2566 2061 2681  C 2061 2752 2022 2752 1894 2752  L 1331 2752  L 1568 3692  C 1594 3781 1594 3794 1594 3840  C 1594 3943 1510 4000 1427 4000  C 1376 4000 1229 3981 1178 3775  L 928 2752  L 326 2752  C 198 2752 141 2752 141 2630  C 141 2566 186 2566 307 2566  L 877 2566  L 454 881  C 403 658 384 594 384 511  C 384 211 595 -64 954 -64  C 1600 -64 1946 868 1946 912  C 1946 951 1920 970 1882 970  C 1869 970 1843 970 1830 944  C 1824 938 1818 931 1773 829  C 1638 511 1344 64 973 64  C 781 64 768 224 768 364  C 768 370 768 492 787 568  L 1286 2566  z " transform="scale(0.015625)"/>
      </defs>
      <use xlink:href="#CMSS17-54" transform="scale(0.996264)"/>
      <use xlink:href="#CMSS17-69" transform="translate(63.819454 0) scale(0.996264)"/>
      <use xlink:href="#CMSS17-6d" transform="translate(86.000177 0) scale(0.996264)"/>
      <use xlink:href="#CMSS17-65" transform="translate(160.229431 0) scale(0.996264)"/>
      <use xlink:href="#CMMI12-74" transform="translate(233.097366 0) scale(0.996264)"/>
     </g>
    </g>
   </g>
   <g id="matplotlib.axis_2">
    <g id="ytick_1">
     <g id="line2d_8">
      <defs>
       <path id="mffb4f0a35e" d="M 0 0  L -3.5 0  " style="stroke: #000000; stroke-width: 0.8"/>
      </defs>
      <g>
       <use xlink:href="#mffb4f0a35e" x="45.11281" y="237.026449" style="stroke: #000000; stroke-width: 0.8"/>
      </g>
     </g>
     <g id="text_9">
      <!-- $\mathdefault{0.0}$ -->
      <g transform="translate(23.155168 241.177539) scale(0.12 -0.12)">
       <use xlink:href="#CMR17-30" transform="scale(0.996264)"/>
       <use xlink:href="#CMMI12-3a" transform="translate(45.690477 0) scale(0.996264)"/>
       <use xlink:href="#CMR17-30" transform="translate(72.787654 0) scale(0.996264)"/>
      </g>
     </g>
    </g>
    <g id="ytick_2">
     <g id="line2d_9">
      <g>
       <use xlink:href="#mffb4f0a35e" x="45.11281" y="191.891377" style="stroke: #000000; stroke-width: 0.8"/>
      </g>
     </g>
     <g id="text_10">
      <!-- $\mathdefault{0.2}$ -->
      <g transform="translate(23.155168 196.042467) scale(0.12 -0.12)">
       <use xlink:href="#CMR17-30" transform="scale(0.996264)"/>
       <use xlink:href="#CMMI12-3a" transform="translate(45.690477 0) scale(0.996264)"/>
       <use xlink:href="#CMR17-32" transform="translate(72.787654 0) scale(0.996264)"/>
      </g>
     </g>
    </g>
    <g id="ytick_3">
     <g id="line2d_10">
      <g>
       <use xlink:href="#mffb4f0a35e" x="45.11281" y="146.756305" style="stroke: #000000; stroke-width: 0.8"/>
      </g>
     </g>
     <g id="text_11">
      <!-- $\mathdefault{0.4}$ -->
      <g transform="translate(23.155168 150.907395) scale(0.12 -0.12)">
       <defs>
        <path id="CMR17-34" d="M 2150 4122  C 2150 4256 2144 4256 2029 4256  L 128 1254  L 128 1088  L 1779 1088  L 1779 457  C 1779 224 1766 160 1318 160  L 1197 160  L 1197 0  C 1402 0 1747 0 1965 0  C 2182 0 2528 0 2733 0  L 2733 160  L 2611 160  C 2163 160 2150 224 2150 457  L 2150 1088  L 2803 1088  L 2803 1254  L 2150 1254  L 2150 4122  z M 1798 3703  L 1798 1254  L 256 1254  L 1798 3703  z " transform="scale(0.015625)"/>
       </defs>
       <use xlink:href="#CMR17-30" transform="scale(0.996264)"/>
       <use xlink:href="#CMMI12-3a" transform="translate(45.690477 0) scale(0.996264)"/>
       <use xlink:href="#CMR17-34" transform="translate(72.787654 0) scale(0.996264)"/>
      </g>
     </g>
    </g>
    <g id="ytick_4">
     <g id="line2d_11">
      <g>
       <use xlink:href="#mffb4f0a35e" x="45.11281" y="101.621233" style="stroke: #000000; stroke-width: 0.8"/>
      </g>
     </g>
     <g id="text_12">
      <!-- $\mathdefault{0.6}$ -->
      <g transform="translate(23.155168 105.772323) scale(0.12 -0.12)">
       <defs>
        <path id="CMR17-36" d="M 678 2176  C 678 3690 1395 4032 1811 4032  C 1946 4032 2272 4009 2400 3776  C 2298 3776 2106 3776 2106 3553  C 2106 3381 2246 3323 2336 3323  C 2394 3323 2566 3348 2566 3560  C 2566 3954 2246 4179 1805 4179  C 1043 4179 243 3390 243 1984  C 243 253 966 -128 1478 -128  C 2099 -128 2688 427 2688 1283  C 2688 2081 2170 2662 1517 2662  C 1126 2662 838 2407 678 1960  L 678 2176  z M 1478 25  C 691 25 691 1200 691 1436  C 691 1896 909 2560 1504 2560  C 1613 2560 1926 2560 2138 2120  C 2253 1870 2253 1609 2253 1289  C 2253 944 2253 690 2118 434  C 1978 171 1773 25 1478 25  z " transform="scale(0.015625)"/>
       </defs>
       <use xlink:href="#CMR17-30" transform="scale(0.996264)"/>
       <use xlink:href="#CMMI12-3a" transform="translate(45.690477 0) scale(0.996264)"/>
       <use xlink:href="#CMR17-36" transform="translate(72.787654 0) scale(0.996264)"/>
      </g>
     </g>
    </g>
    <g id="ytick_5">
     <g id="line2d_12">
      <g>
       <use xlink:href="#mffb4f0a35e" x="45.11281" y="56.486162" style="stroke: #000000; stroke-width: 0.8"/>
      </g>
     </g>
     <g id="text_13">
      <!-- $\mathdefault{0.8}$ -->
      <g transform="translate(23.155168 60.637252) scale(0.12 -0.12)">
       <defs>
        <path id="CMR17-38" d="M 1741 2264  C 2144 2467 2554 2773 2554 3263  C 2554 3841 1990 4179 1472 4179  C 890 4179 378 3759 378 3180  C 378 3021 416 2747 666 2505  C 730 2442 998 2251 1171 2130  C 883 1983 211 1634 211 934  C 211 279 838 -128 1459 -128  C 2144 -128 2720 362 2720 1010  C 2720 1590 2330 1857 2074 2029  L 1741 2264  z M 902 2822  C 851 2854 595 3051 595 3351  C 595 3739 998 4032 1459 4032  C 1965 4032 2336 3676 2336 3262  C 2336 2669 1670 2331 1638 2331  C 1632 2331 1626 2331 1574 2370  L 902 2822  z M 2080 1519  C 2176 1449 2483 1240 2483 851  C 2483 381 2010 25 1472 25  C 890 25 448 438 448 940  C 448 1443 838 1862 1280 2060  L 2080 1519  z " transform="scale(0.015625)"/>
       </defs>
       <use xlink:href="#CMR17-30" transform="scale(0.996264)"/>
       <use xlink:href="#CMMI12-3a" transform="translate(45.690477 0) scale(0.996264)"/>
       <use xlink:href="#CMR17-38" transform="translate(72.787654 0) scale(0.996264)"/>
      </g>
     </g>
    </g>
    <g id="ytick_6">
     <g id="line2d_13">
      <g>
       <use xlink:href="#mffb4f0a35e" x="45.11281" y="11.35109" style="stroke: #000000; stroke-width: 0.8"/>
      </g>
     </g>
     <g id="text_14">
      <!-- $\mathdefault{1.0}$ -->
      <g transform="translate(23.155168 15.50218) scale(0.12 -0.12)">
       <use xlink:href="#CMR17-31" transform="scale(0.996264)"/>
       <use xlink:href="#CMMI12-3a" transform="translate(45.690477 0) scale(0.996264)"/>
       <use xlink:href="#CMR17-30" transform="translate(72.787654 0) scale(0.996264)"/>
      </g>
     </g>
    </g>
    <g id="text_15">
     <!-- Probability / Fidelity -->
     <g transform="translate(16.166376 174.907624) rotate(-90) scale(0.12 -0.12)">
      <defs>
       <path id="CMSS17-50" d="M 2106 1856  C 2874 1856 3501 2453 3501 3158  C 3501 3850 2899 4453 2067 4453  L 570 4453  L 570 0  L 1107 0  L 1107 1856  L 2106 1856  z M 1926 4096  C 2669 4096 2995 3627 2995 3157  C 2995 2720 2694 2226 1926 2226  L 1094 2226  L 1094 4096  L 1926 4096  z " transform="scale(0.015625)"/>
       <path id="CMSS17-72" d="M 954 1363  C 954 1965 1395 2368 1958 2368  L 1958 2789  C 1549 2789 1165 2585 934 2253  L 934 2758  L 480 2758  L 480 0  L 954 0  L 954 1363  z " transform="scale(0.015625)"/>
       <path id="CMSS17-6f" d="M 2829 1356  C 2829 2176 2221 2816 1504 2816  C 768 2816 173 2157 173 1356  C 173 544 787 -64 1498 -64  C 2227 -64 2829 563 2829 1356  z M 1504 337  C 1050 337 659 709 659 1408  C 659 2151 1114 2427 1498 2427  C 1914 2427 2342 2126 2342 1408  C 2342 683 1926 337 1504 337  z " transform="scale(0.015625)"/>
       <path id="CMSS17-62" d="M 954 4416  L 480 4416  L 480 -13  L 966 -13  L 966 274  C 1210 38 1504 -64 1766 -64  C 2381 -64 2880 549 2880 1352  C 2880 2086 2496 2756 1926 2756  C 1523 2756 1165 2591 954 2419  L 954 4416  z M 966 2046  C 1107 2222 1306 2368 1587 2368  C 1965 2368 2394 2097 2394 1352  C 2394 558 1882 325 1530 325  C 1402 325 1267 356 1139 464  C 966 615 966 709 966 797  L 966 2046  z " transform="scale(0.015625)"/>
       <path id="CMSS17-61" d="M 2406 1791  C 2406 2392 1978 2808 1402 2808  C 1120 2808 813 2757 461 2553  L 499 2135  C 659 2248 934 2432 1395 2432  C 1722 2432 1920 2180 1920 1782  L 1920 1536  C 896 1536 256 1238 256 726  C 256 461 416 -64 947 -64  C 1043 -64 1562 -64 1933 217  L 1933 -19  L 2406 -19  L 2406 1791  z M 1920 816  C 1920 701 1920 548 1728 434  C 1562 325 1350 325 1261 325  C 941 325 723 511 723 744  C 723 1211 1722 1211 1920 1211  L 1920 816  z " transform="scale(0.015625)"/>
       <path id="CMSS17-6c" d="M 947 4416  L 474 4416  L 474 0  L 947 0  L 947 4416  z " transform="scale(0.015625)"/>
       <path id="CMSS17-74" d="M 1069 2368  L 1901 2368  L 1901 2737  L 1069 2737  L 1069 3520  L 614 3520  L 614 2737  L 109 2737  L 109 2368  L 602 2368  L 602 749  C 602 384 685 -64 1107 -64  C 1427 -64 1722 25 2003 172  L 1901 548  C 1747 414 1562 337 1363 337  C 1082 337 1069 696 1069 856  L 1069 2368  z " transform="scale(0.015625)"/>
       <path id="CMSS17-79" d="M 2675 2752  L 2176 2752  C 1632 1294 1446 702 1434 383  L 1427 383  C 1408 696 1126 1460 902 2007  L 602 2752  L 83 2752  L 1216 13  C 1146 -178 1043 -465 1011 -529  C 870 -885 774 -885 672 -885  C 646 -885 442 -885 211 -809  L 250 -1229  C 410 -1261 570 -1280 685 -1280  C 845 -1280 1165 -1280 1459 -497  L 2675 2752  z " transform="scale(0.015625)"/>
       <path id="CMSS17-2f" d="M 2637 4545  C 2669 4627 2669 4640 2669 4653  C 2669 4729 2611 4768 2560 4768  C 2483 4768 2458 4717 2432 4640  L 365 -1377  C 333 -1460 333 -1473 333 -1486  C 333 -1562 390 -1600 442 -1600  C 518 -1600 544 -1549 570 -1473  L 2637 4545  z " transform="scale(0.015625)"/>
       <path id="CMSS17-46" d="M 2918 1984  L 2918 2373  L 1101 2373  L 1101 3968  L 1882 3968  C 1958 3968 2035 3968 2112 3968  L 3168 3968  L 3168 4375  L 563 4375  L 563 -32  L 1101 -32  L 1101 1984  L 2918 1984  z " transform="scale(0.015625)"/>
       <path id="CMSS17-64" d="M 2611 4416  L 2138 4416  L 2138 2438  C 1939 2603 1613 2756 1254 2756  C 672 2756 211 2131 211 1347  C 211 562 666 -64 1235 -64  C 1677 -64 1971 172 2125 306  L 2125 -13  L 2611 -13  L 2611 4416  z M 2125 836  C 2125 747 2125 653 1926 482  C 1798 375 1645 325 1498 325  C 1152 325 698 576 698 1340  C 698 2134 1210 2368 1562 2368  C 1798 2368 1990 2254 2125 2065  L 2125 836  z " transform="scale(0.015625)"/>
      </defs>
      <use xlink:href="#CMSS17-50" transform="scale(0.996264)"/>
      <use xlink:href="#CMSS17-72" transform="translate(59.735586 0) scale(0.996264)"/>
      <use xlink:href="#CMSS17-6f" transform="translate(91.645359 0) scale(0.996264)"/>
      <use xlink:href="#CMSS17-62" transform="translate(138.488982 0) scale(0.996264)"/>
      <use xlink:href="#CMSS17-61" transform="translate(186.693925 0) scale(0.996264)"/>
      <use xlink:href="#CMSS17-62" transform="translate(231.615846 0) scale(0.996264)"/>
      <use xlink:href="#CMSS17-69" transform="translate(279.820789 0) scale(0.996264)"/>
      <use xlink:href="#CMSS17-6c" transform="translate(302.001512 0) scale(0.996264)"/>
      <use xlink:href="#CMSS17-69" transform="translate(324.182235 0) scale(0.996264)"/>
      <use xlink:href="#CMSS17-74" transform="translate(346.362958 0) scale(0.996264)"/>
      <use xlink:href="#CMSS17-79" transform="translate(377.592071 0) scale(0.996264)"/>
      <use xlink:href="#CMSS17-2f" transform="translate(451.821326 0) scale(0.996264)"/>
      <use xlink:href="#CMSS17-46" transform="translate(529.894062 0) scale(0.996264)"/>
      <use xlink:href="#CMSS17-69" transform="translate(583.183621 0) scale(0.996264)"/>
      <use xlink:href="#CMSS17-64" transform="translate(605.364344 0) scale(0.996264)"/>
      <use xlink:href="#CMSS17-65" transform="translate(653.569287 0) scale(0.996264)"/>
      <use xlink:href="#CMSS17-6c" transform="translate(695.208109 0) scale(0.996264)"/>
      <use xlink:href="#CMSS17-69" transform="translate(717.388832 0) scale(0.996264)"/>
      <use xlink:href="#CMSS17-74" transform="translate(739.569555 0) scale(0.996264)"/>
      <use xlink:href="#CMSS17-79" transform="translate(770.798668 0) scale(0.996264)"/>
     </g>
    </g>
   </g>
   <g id="line2d_14">
    <path d="M 45.11281 237.026449  L 50.244746 236.914818  L 55.376681 236.581128  L 60.508617 236.027748  L 65.640553 235.257906  L 70.772489 234.275672  L 75.904425 233.085943  L 81.03636 231.694414  L 87.194683 229.767369  L 93.353006 227.57169  L 99.511329 225.121449  L 105.669652 222.432096  L 111.827975 219.52037  L 119.012685 215.866284  L 126.197395 211.96428  L 134.408492 207.24247  L 143.645977 201.656103  L 154.936235 194.539105  L 173.411204 182.5571  L 189.833399 171.993405  L 200.09727 165.633511  L 209.334755 160.169596  L 217.545852 155.577781  L 224.730562 151.802057  L 231.915272 148.282184  L 238.073595 145.488761  L 244.231918 142.917816  L 250.390241 140.583256  L 256.548564 138.497612  L 262.706887 136.671883  L 268.86521 135.115463  L 273.997145 134.029846  L 279.129081 133.140424  L 284.261017 132.450125  L 289.392953 131.961075  L 294.524888 131.674558  L 299.656824 131.591055  L 302.735986 131.70542  L 378.688635 136.499608  L 455.667672 141.135934  L 534.699483 145.673506  L 557.28 146.930059  L 557.28 146.930059  " clip-path="url(#pe7748fb8cc)" style="fill: none; stroke: #1f77b4; stroke-width: 1.5; stroke-linecap: square"/>
   </g>
   <g id="line2d_15">
    <path d="M 45.11281 237.026449  L 305.815147 236.940367  L 310.947083 236.650334  L 316.079019 236.157258  L 321.210954 235.465329  L 326.34289 234.57948  L 332.501213 233.268491  L 338.659536 231.697496  L 344.817859 229.878905  L 350.976182 227.826379  L 357.134505 225.554742  L 364.319215 222.648812  L 371.503925 219.49316  L 379.715022 215.617392  L 387.926119 211.496985  L 398.189991 206.072841  L 410.506637 199.28507  L 449.509349 177.561238  L 459.77322 172.219783  L 469.010705 167.681478  L 477.221802 163.906376  L 484.406512 160.831287  L 491.591222 157.990976  L 498.775932 155.404098  L 504.934255 153.400956  L 511.092578 151.60501  L 517.250901 150.023928  L 523.409224 148.664057  L 529.567547 147.530391  L 535.72587 146.626562  L 541.884193 145.954842  L 548.042516 145.516164  L 554.200839 145.310121  L 557.28 145.293849  L 557.28 145.293849  " clip-path="url(#pe7748fb8cc)" style="fill: none; stroke: #ff7f0e; stroke-width: 1.5; stroke-linecap: square"/>
   </g>
   <g id="line2d_16">
    <path d="M 45.11281 77.449872  L 53.323907 77.550802  L 61.535004 77.851864  L 70.772489 78.425455  L 80.009973 79.24116  L 89.247458 80.290157  L 98.484942 81.561596  L 107.722426 83.042597  L 117.986298 84.915711  L 128.250169 87.005623  L 139.540428 89.523095  L 152.883461 92.740252  L 169.305656 96.954554  L 214.46669 108.711165  L 226.783336 111.600878  L 237.047208 113.79255  L 246.284692 115.55704  L 255.522177 117.092642  L 263.733274 118.243095  L 271.944371 119.174267  L 280.155468 119.872581  L 288.366566 120.3279  L 296.577663 120.533993  L 301.709599 120.504014  L 305.815147 120.113491  L 309.920696 119.529919  L 314.026244 118.758904  L 319.15818 117.542062  L 324.290116 116.058738  L 329.422052 114.326655  L 334.553987 112.365093  L 340.71231 109.736984  L 346.870633 106.84389  L 353.028956 103.722182  L 360.213666 99.838929  L 368.424764 95.149572  L 378.688635 89.022525  L 396.137217 78.286145  L 413.585798 67.625712  L 424.876057 60.984478  L 434.113541 55.785982  L 443.351026 50.849699  L 451.562123 46.714936  L 459.77322 42.844322  L 466.95793 39.691361  L 474.14264 36.770033  L 481.327351 34.091479  L 488.512061 31.665401  L 495.696771 29.500105  L 501.855094 27.856997  L 508.013417 26.414224  L 514.17174 25.174748  L 520.330062 24.140895  L 526.488385 23.31437  L 532.646708 22.696244  L 538.805031 22.286989  L 544.963354 22.086484  L 551.121677 22.094032  L 557.28 22.308356  L 557.28 22.308356  " clip-path="url(#pe7748fb8cc)" style="fill: none; stroke: #2ca02c; stroke-width: 1.5; stroke-linecap: square"/>
   </g>
   <g id="patch_3">
    <path d="M 45.11281 237.026449  L 45.11281 11.35109  " style="fill: none; stroke: #000000; stroke-width: 0.8; stroke-linejoin: miter; stroke-linecap: square"/>
   </g>
   <g id="patch_4">
    <path d="M 557.28 237.026449  L 557.28 11.35109  " style="fill: none; stroke: #000000; stroke-width: 0.8; stroke-linejoin: miter; stroke-linecap: square"/>
   </g>
   <g id="patch_5">
    <path d="M 45.11281 237.026449  L 557.28 237.026449  " style="fill: none; stroke: #000000; stroke-width: 0.8; stroke-linejoin: miter; stroke-linecap: square"/>
   </g>
   <g id="patch_6">
    <path d="M 45.11281 11.35109  L 557.28 11.35109  " style="fill: none; stroke: #000000; stroke-width: 0.8; stroke-linejoin: miter; stroke-linecap: square"/>
   </g>
   <g id="legend_1">
    <g id="patch_7">
     <path d="M 238.181965 81.131962  L 364.210845 81.131962  Q 366.610845 81.131962 366.610845 78.731962  L 366.610845 19.75109  Q 366.610845 17.35109 364.210845 17.35109  L 238.181965 17.35109  Q 235.781965 17.35109 235.781965 19.75109  L 235.781965 78.731962  Q 235.781965 81.131962 238.181965 81.131962  z " style="fill: #ffffff; opacity: 0.8; stroke: #cccccc; stroke-linejoin: miter"/>
    </g>
    <g id="line2d_17">
     <path d="M 240.581965 30.039076  L 252.581965 30.039076  L 264.581965 30.039076  " style="fill: none; stroke: #1f77b4; stroke-width: 1.5; stroke-linecap: square"/>
    </g>
    <g id="text_16">
     <!-- $P_1^{(1)}$ -->
     <g transform="translate(274.181965 34.239076) scale(0.12 -0.12)">
      <defs>
       <path id="CMMI12-50" d="M 1894 2023  L 2970 2023  C 3853 2023 4736 2673 4736 3401  C 4736 3898 4314 4352 3507 4352  L 1530 4352  C 1408 4352 1350 4352 1350 4231  C 1350 4167 1408 4167 1504 4167  C 1894 4167 1894 4116 1894 4046  C 1894 4034 1894 3995 1869 3899  L 1005 472  C 947 249 934 185 486 185  C 365 185 301 185 301 70  C 301 0 358 0 397 0  C 518 0 646 0 768 0  L 1517 0  C 1638 0 1773 0 1894 0  C 1946 0 2016 0 2016 121  C 2016 185 1958 185 1862 185  C 1478 185 1472 230 1472 293  C 1472 325 1478 369 1485 401  L 1894 2023  z M 2355 3930  C 2413 4167 2438 4167 2688 4167  L 3322 4167  C 3802 4167 4198 4013 4198 3535  C 4198 3369 4115 2827 3821 2534  C 3712 2419 3405 2176 2822 2176  L 1920 2176  L 2355 3930  z " transform="scale(0.015625)"/>
       <path id="CMR17-28" d="M 1958 -1561  C 1958 -1555 1958 -1542 1939 -1523  C 1645 -1224 858 -407 858 1581  C 858 3569 1632 4379 1946 4697  C 1946 4704 1958 4717 1958 4736  C 1958 4755 1939 4768 1914 4768  C 1843 4768 1299 4296 986 3594  C 666 2887 576 2199 576 1588  C 576 1128 621 351 1005 -471  C 1312 -1135 1837 -1600 1914 -1600  C 1946 -1600 1958 -1587 1958 -1561  z " transform="scale(0.015625)"/>
       <path id="CMR17-29" d="M 1683 1581  C 1683 2040 1638 2817 1254 3639  C 947 4303 422 4768 346 4768  C 326 4768 301 4761 301 4729  C 301 4717 307 4710 314 4697  C 621 4378 1402 3568 1402 1584  C 1402 -407 627 -1217 314 -1537  C 307 -1549 301 -1556 301 -1568  C 301 -1600 326 -1600 346 -1600  C 416 -1600 960 -1128 1274 -426  C 1594 281 1683 969 1683 1581  z " transform="scale(0.015625)"/>
      </defs>
      <use xlink:href="#CMMI12-50" transform="scale(0.996264)"/>
      <use xlink:href="#CMR17-28" transform="translate(76.425821 51.691943) scale(0.697382)"/>
      <use xlink:href="#CMR17-31" transform="translate(101.122241 51.691943) scale(0.697382)"/>
      <use xlink:href="#CMR17-29" transform="translate(133.105423 51.691943) scale(0.697382)"/>
      <use xlink:href="#CMR17-31" transform="translate(62.877232 -26.578082) scale(0.697382)"/>
     </g>
    </g>
    <g id="line2d_18">
     <path d="M 240.581965 51.058239  L 252.581965 51.058239  L 264.581965 51.058239  " style="fill: none; stroke: #ff7f0e; stroke-width: 1.5; stroke-linecap: square"/>
    </g>
    <g id="text_17">
     <!-- $P_1^{(2)}$ -->
     <g transform="translate(274.181965 55.258239) scale(0.12 -0.12)">
      <use xlink:href="#CMMI12-50" transform="scale(0.996264)"/>
      <use xlink:href="#CMR17-28" transform="translate(76.425821 51.691943) scale(0.697382)"/>
      <use xlink:href="#CMR17-32" transform="translate(101.122241 51.691943) scale(0.697382)"/>
      <use xlink:href="#CMR17-29" transform="translate(133.105423 51.691943) scale(0.697382)"/>
      <use xlink:href="#CMR17-31" transform="translate(62.877232 -26.578082) scale(0.697382)"/>
     </g>
    </g>
    <g id="line2d_19">
     <path d="M 240.581965 69.14317  L 252.581965 69.14317  L 264.581965 69.14317  " style="fill: none; stroke: #2ca02c; stroke-width: 1.5; stroke-linecap: square"/>
    </g>
    <g id="text_18">
     <!-- Fidelity with $|\Phi^+\rangle$ -->
     <g transform="translate(274.181965 73.34317) scale(0.12 -0.12)">
      <defs>
       <path id="CMSS17-77" d="M 4013 2752  L 3526 2752  L 3187 1601  C 3117 1358 2918 685 2893 371  L 2886 371  C 2874 564 2765 1024 2586 1633  L 2259 2752  L 1818 2752  L 1498 1658  C 1338 1101 1216 627 1203 371  L 1197 371  C 1171 749 909 1633 870 1773  L 582 2752  L 83 2752  L 915 0  L 1402 0  C 1734 1096 1990 1943 2010 2370  C 2022 2160 2131 1707 2195 1484  L 2618 0  L 3181 0  L 4013 2752  z " transform="scale(0.015625)"/>
       <path id="CMSS17-68" d="M 2618 1891  C 2618 2292 2522 2820 1798 2820  C 1395 2820 1133 2623 947 2407  L 947 4448  L 474 4448  L 474 32  L 960 32  L 960 1573  C 960 1973 1114 2432 1549 2432  C 2112 2432 2131 2056 2131 1839  L 2131 32  L 2618 32  L 2618 1891  z " transform="scale(0.015625)"/>
       <path id="CMSY10-6a" d="M 1018 4570  C 1018 4685 1018 4800 890 4800  C 762 4800 762 4685 762 4570  L 762 -1370  C 762 -1485 762 -1600 890 -1600  C 1018 -1600 1018 -1485 1018 -1370  L 1018 4570  z " transform="scale(0.015625)"/>
       <path id="CMR17-8" d="M 2330 818  C 3366 907 3974 1553 3974 2172  C 3974 2818 3341 3444 2330 3534  L 2330 3897  C 2330 4128 2342 4192 2829 4192  L 2970 4192  L 2970 4352  C 2707 4352 2400 4352 2131 4352  C 1862 4352 1549 4352 1286 4352  L 1286 4192  L 1427 4192  C 1914 4192 1926 4128 1926 3897  L 1926 3534  C 922 3444 294 2811 294 2179  C 294 1521 947 907 1926 818  L 1926 454  C 1926 224 1914 160 1427 160  L 1286 160  L 1286 0  C 1549 0 1862 0 2131 0  C 2400 0 2707 0 2970 0  L 2970 160  L 2829 160  C 2342 160 2330 224 2330 454  L 2330 818  z M 1926 927  C 1350 991 768 1323 768 2173  C 768 3048 1370 3367 1926 3425  L 1926 927  z M 2330 3425  C 2835 3380 3501 3093 3501 2179  C 3501 1240 2810 972 2330 927  L 2330 3425  z " transform="scale(0.015625)"/>
       <path id="CMR17-2b" d="M 2413 1472  L 4109 1472  C 4198 1472 4307 1472 4307 1580  C 4307 1695 4205 1695 4109 1695  L 2413 1695  L 2413 3386  C 2413 3475 2413 3584 2304 3584  C 2189 3584 2189 3482 2189 3386  L 2189 1695  L 493 1695  C 403 1695 294 1695 294 1587  C 294 1472 397 1472 493 1472  L 2189 1472  L 2189 -218  C 2189 -307 2189 -416 2298 -416  C 2413 -416 2413 -314 2413 -218  L 2413 1472  z " transform="scale(0.015625)"/>
       <path id="CMSY10-69" d="M 1747 1491  C 1779 1568 1779 1581 1779 1600  C 1779 1619 1779 1632 1747 1709  L 627 4653  C 589 4762 550 4800 480 4800  C 410 4800 352 4742 352 4672  C 352 4653 352 4640 384 4570  L 1517 1600  L 384 -1357  C 352 -1427 352 -1440 352 -1472  C 352 -1542 410 -1600 480 -1600  C 563 -1600 589 -1536 614 -1472  L 1747 1491  z " transform="scale(0.015625)"/>
      </defs>
      <use xlink:href="#CMSS17-46" transform="scale(0.996264)"/>
      <use xlink:href="#CMSS17-69" transform="translate(53.289559 0) scale(0.996264)"/>
      <use xlink:href="#CMSS17-64" transform="translate(75.470282 0) scale(0.996264)"/>
      <use xlink:href="#CMSS17-65" transform="translate(123.675225 0) scale(0.996264)"/>
      <use xlink:href="#CMSS17-6c" transform="translate(165.314048 0) scale(0.996264)"/>
      <use xlink:href="#CMSS17-69" transform="translate(187.494771 0) scale(0.996264)"/>
      <use xlink:href="#CMSS17-74" transform="translate(209.675494 0) scale(0.996264)"/>
      <use xlink:href="#CMSS17-79" transform="translate(240.904606 0) scale(0.996264)"/>
      <use xlink:href="#CMSS17-77" transform="translate(315.133861 0) scale(0.996264)"/>
      <use xlink:href="#CMSS17-69" transform="translate(378.953406 0) scale(0.996264)"/>
      <use xlink:href="#CMSS17-74" transform="translate(401.134129 0) scale(0.996264)"/>
      <use xlink:href="#CMSS17-68" transform="translate(434.965696 0) scale(0.996264)"/>
      <use xlink:href="#CMSY10-6a" transform="translate(514.399752 0) scale(0.996264)"/>
      <use xlink:href="#CMR17-8" transform="translate(542.073836 0) scale(0.996264)"/>
      <use xlink:href="#CMR17-2b" transform="translate(608.583717 36.153639) scale(0.697382)"/>
      <use xlink:href="#CMSY10-69" transform="translate(659.28198 0) scale(0.996264)"/>
     </g>
    </g>
   </g>
  </g>
 </g>
 <defs>
  <clipPath id="pe7748fb8cc">
   <rect x="45.11281" y="11.35109" width="512.16719" height="225.675359"/>
  </clipPath>
 </defs>
</svg>