<svg xmlns:xlink="http://www.w3.org/1999/xlink" xmlns="http://www.w3.org/2000/svg" width="564.48pt" height="276.48pt" viewBox="0 0 564.48 276.48" version="1.1">
 <metadata>
  <rdf:RDF xmlns:dc="http://purl.org/dc/elements/1.1/" xmlns:cc="http://creativecommons.org/ns#" xmlns:rdf="http://www.w3.org/1999/02/22-rdf-syntax-ns#">
   <cc:Work>
    <dc:type rdf:resource="http://purl.org/dc/dcmitype/StillImage"/>
    <dc:date>2025-06-07T14:16:01.111575</dc:date>
    <dc:format>image/svg+xml</dc:format>
    <dc:creator>
     <cc:Agent>
      <dc:title>Matplotlib v3.10.3, https://matplotlib.org/</dc:title>
     </cc:Agent>
    </dc:creator>
   </cc:Work>
  </rdf:RDF>
 </metadata>
 <defs>
  <style type="text/css">*{stroke-linejoin: round; stroke-linecap: butt}</style>
 </defs>
 <g id="figure_1">
  <g id="patch_1">
   <path d="M 0 276.48  L 564.48 276.48  L 564.48 0  L 0 0  z " style="fill: #ffffff"/>
  </g>
  <g id="axes_1">
   <g id="patch_2">
    <path d="M 43.978255 237.026449  L 551.42701 237.026449  L 551.42701 23.162625  L 43.978255 23.162625  z " style="fill: #ffffff"/>
   </g>
   <g id="matplotlib.axis_1">
    <g id="xtick_1">
     <g id="line2d_1">
      <defs>
       <path id="m0f24e2c628" d="M 0 0  L 0 3.5  " style="stroke: #000000; stroke-width: 0.8"/>
      </defs>
      <g>
       <use xlink:href="#m0f24e2c628" x="43.978255" y="237.026449" style="stroke: #000000; stroke-width: 0.8"/>
      </g>
     </g>
     <g id="text_1">
      <!-- $\mathdefault{0}$ -->
      <g transform="translate(41.05176 252.328629) scale(0.12 -0.12)">
       <defs>
        <path id="CMR17-30" d="M 2688 2025  C 2688 2416 2682 3080 2413 3591  C 2176 4039 1798 4198 1466 4198  C 1158 4198 768 4058 525 3597  C 269 3118 243 2524 243 2025  C 243 1661 250 1106 448 619  C 723 -39 1216 -128 1466 -128  C 1760 -128 2208 -7 2470 600  C 2662 1042 2688 1559 2688 2025  z M 1466 -26  C 1056 -26 813 325 723 812  C 653 1188 653 1738 653 2096  C 653 2588 653 2997 736 3387  C 858 3929 1216 4096 1466 4096  C 1728 4096 2067 3923 2189 3400  C 2272 3036 2278 2607 2278 2096  C 2278 1680 2278 1169 2202 792  C 2067 95 1690 -26 1466 -26  z " transform="scale(0.015625)"/>
       </defs>
       <use xlink:href="#CMR17-30" transform="scale(0.996264)"/>
      </g>
     </g>
    </g>
    <g id="xtick_2">
     <g id="line2d_2">
      <g>
       <use xlink:href="#m0f24e2c628" x="145.468006" y="237.026449" style="stroke: #000000; stroke-width: 0.8"/>
      </g>
     </g>
     <g id="text_2">
      <!-- $\mathdefault{10}$ -->
      <g transform="translate(139.615016 252.328629) scale(0.12 -0.12)">
       <defs>
        <path id="CMR17-31" d="M 1702 4058  C 1702 4192 1696 4192 1606 4192  C 1357 3916 979 3827 621 3827  C 602 3827 570 3827 563 3808  C 557 3795 557 3782 557 3648  C 755 3648 1088 3686 1344 3839  L 1344 461  C 1344 236 1331 160 781 160  L 589 160  L 589 0  C 896 0 1216 0 1523 0  C 1830 0 2150 0 2458 0  L 2458 160  L 2266 160  C 1715 160 1702 230 1702 458  L 1702 4058  z " transform="scale(0.015625)"/>
       </defs>
       <use xlink:href="#CMR17-31" transform="scale(0.996264)"/>
       <use xlink:href="#CMR17-30" transform="translate(45.690477 0) scale(0.996264)"/>
      </g>
     </g>
    </g>
    <g id="xtick_3">
     <g id="line2d_3">
      <g>
       <use xlink:href="#m0f24e2c628" x="246.957757" y="237.026449" style="stroke: #000000; stroke-width: 0.8"/>
      </g>
     </g>
     <g id="text_3">
      <!-- $\mathdefault{20}$ -->
      <g transform="translate(241.104767 252.328629) scale(0.12 -0.12)">
       <defs>
        <path id="CMR17-32" d="M 2669 989  L 2554 989  C 2490 536 2438 459 2413 420  C 2381 369 1920 369 1830 369  L 602 369  C 832 619 1280 1072 1824 1597  C 2214 1967 2669 2402 2669 3035  C 2669 3790 2067 4224 1395 4224  C 691 4224 262 3604 262 3030  C 262 2780 448 2748 525 2748  C 589 2748 781 2787 781 3010  C 781 3207 614 3264 525 3264  C 486 3264 448 3258 422 3245  C 544 3790 915 4058 1306 4058  C 1862 4058 2227 3617 2227 3035  C 2227 2479 1901 2000 1536 1584  L 262 146  L 262 0  L 2515 0  L 2669 989  z " transform="scale(0.015625)"/>
       </defs>
       <use xlink:href="#CMR17-32" transform="scale(0.996264)"/>
       <use xlink:href="#CMR17-30" transform="translate(45.690477 0) scale(0.996264)"/>
      </g>
     </g>
    </g>
    <g id="xtick_4">
     <g id="line2d_4">
      <g>
       <use xlink:href="#m0f24e2c628" x="348.447508" y="237.026449" style="stroke: #000000; stroke-width: 0.8"/>
      </g>
     </g>
     <g id="text_4">
      <!-- $\mathdefault{30}$ -->
      <g transform="translate(342.594518 252.328629) scale(0.12 -0.12)">
       <defs>
        <path id="CMR17-33" d="M 1414 2157  C 1984 2157 2234 1662 2234 1090  C 2234 320 1824 25 1453 25  C 1114 25 563 194 390 693  C 422 680 454 680 486 680  C 640 680 755 782 755 948  C 755 1133 614 1216 486 1216  C 378 1216 211 1165 211 926  C 211 335 787 -128 1466 -128  C 2176 -128 2720 430 2720 1085  C 2720 1707 2208 2157 1600 2227  C 2086 2328 2554 2756 2554 3329  C 2554 3820 2048 4179 1472 4179  C 890 4179 378 3829 378 3329  C 378 3110 544 3072 627 3072  C 762 3072 877 3155 877 3321  C 877 3486 762 3569 627 3569  C 602 3569 570 3569 544 3557  C 730 3959 1235 4032 1459 4032  C 1683 4032 2106 3925 2106 3320  C 2106 3143 2080 2828 1862 2550  C 1670 2304 1453 2304 1242 2284  C 1210 2284 1062 2269 1037 2269  C 992 2263 966 2257 966 2208  C 966 2163 973 2157 1101 2157  L 1414 2157  z " transform="scale(0.015625)"/>
       </defs>
       <use xlink:href="#CMR17-33" transform="scale(0.996264)"/>
       <use xlink:href="#CMR17-30" transform="translate(45.690477 0) scale(0.996264)"/>
      </g>
     </g>
    </g>
    <g id="xtick_5">
     <g id="line2d_5">
      <g>
       <use xlink:href="#m0f24e2c628" x="449.937259" y="237.026449" style="stroke: #000000; stroke-width: 0.8"/>
      </g>
     </g>
     <g id="text_5">
      <!-- $\mathdefault{40}$ -->
      <g transform="translate(444.084269 252.328629) scale(0.12 -0.12)">
       <defs>
        <path id="CMR17-34" d="M 2150 4122  C 2150 4256 2144 4256 2029 4256  L 128 1254  L 128 1088  L 1779 1088  L 1779 457  C 1779 224 1766 160 1318 160  L 1197 160  L 1197 0  C 1402 0 1747 0 1965 0  C 2182 0 2528 0 2733 0  L 2733 160  L 2611 160  C 2163 160 2150 224 2150 457  L 2150 1088  L 2803 1088  L 2803 1254  L 2150 1254  L 2150 4122  z M 1798 3703  L 1798 1254  L 256 1254  L 1798 3703  z " transform="scale(0.015625)"/>
       </defs>
       <use xlink:href="#CMR17-34" transform="scale(0.996264)"/>
       <use xlink:href="#CMR17-30" transform="translate(45.690477 0) scale(0.996264)"/>
      </g>
     </g>
    </g>
    <g id="xtick_6">
     <g id="line2d_6">
      <g>
       <use xlink:href="#m0f24e2c628" x="551.42701" y="237.026449" style="stroke: #000000; stroke-width: 0.8"/>
      </g>
     </g>
     <g id="text_6">
      <!-- $\mathdefault{50}$ -->
      <g transform="translate(545.574019 252.328629) scale(0.12 -0.12)">
       <defs>
        <path id="CMR17-35" d="M 730 3692  C 794 3666 1056 3584 1325 3584  C 1920 3584 2246 3911 2432 4100  C 2432 4157 2432 4192 2394 4192  C 2387 4192 2374 4192 2323 4163  C 2099 4058 1837 3973 1517 3973  C 1325 3973 1037 3999 723 4139  C 653 4171 640 4171 634 4171  C 602 4171 595 4164 595 4037  L 595 2203  C 595 2089 595 2057 659 2057  C 691 2057 704 2070 736 2114  C 941 2401 1222 2522 1542 2522  C 1766 2522 2246 2382 2246 1289  C 2246 1085 2246 715 2054 421  C 1894 159 1645 25 1370 25  C 947 25 518 320 403 814  C 429 807 480 795 506 795  C 589 795 749 840 749 1038  C 749 1210 627 1280 506 1280  C 358 1280 262 1190 262 1011  C 262 454 704 -128 1382 -128  C 2042 -128 2669 440 2669 1264  C 2669 2030 2170 2624 1549 2624  C 1222 2624 947 2503 730 2274  L 730 3692  z " transform="scale(0.015625)"/>
       </defs>
       <use xlink:href="#CMR17-35" transform="scale(0.996264)"/>
       <use xlink:href="#CMR17-30" transform="translate(45.690477 0) scale(0.996264)"/>
      </g>
     </g>
    </g>
    <g id="text_7">
     <!-- Time $t$ -->
     <g transform="translate(281.039624 266.955404) scale(0.12 -0.12)">
      <defs>
       <path id="CMSS17-54" d="M 2317 3968  L 2848 3968  C 2925 3968 3002 3968 3078 3968  L 3878 3968  L 3878 4376  L 218 4376  L 218 3968  L 1018 3968  C 1094 3968 1171 3968 1248 3968  L 1779 3968  L 1779 -32  L 2317 -32  L 2317 3968  z " transform="scale(0.015625)"/>
       <path id="CMSS17-69" d="M 979 4183  L 442 4183  L 442 3648  L 979 3648  L 979 4183  z M 947 2739  L 474 2739  L 474 0  L 947 0  L 947 2739  z " transform="scale(0.015625)"/>
       <path id="CMSS17-6d" d="M 4288 1877  C 4288 2308 4179 2816 3462 2816  C 2982 2816 2694 2516 2566 2331  C 2451 2670 2182 2816 1798 2816  C 1363 2816 1088 2568 941 2389  L 941 2758  L 474 2758  L 474 0  L 960 0  L 960 1559  C 960 1939 1101 2428 1555 2428  C 2138 2428 2138 2016 2138 1829  L 2138 0  L 2624 0  L 2624 1559  C 2624 1939 2765 2428 3219 2428  C 3802 2428 3802 2016 3802 1829  L 3802 0  L 4288 0  L 4288 1877  z " transform="scale(0.015625)"/>
       <path id="CMSS17-65" d="M 2502 1377  C 2502 1590 2490 2003 2285 2345  C 2061 2713 1696 2816 1421 2816  C 755 2816 192 2188 192 1375  C 192 582 774 -64 1510 -64  C 1798 -64 2150 19 2470 248  C 2470 274 2458 414 2451 420  C 2451 433 2432 630 2432 656  C 2125 407 1773 325 1517 325  C 1107 325 666 667 646 1377  L 2502 1377  z M 698 1728  C 781 2084 1062 2421 1421 2421  C 1517 2421 1965 2421 2080 1728  L 698 1728  z " transform="scale(0.015625)"/>
       <path id="CMMI12-74" d="M 1286 2566  L 1875 2566  C 1997 2566 2061 2566 2061 2681  C 2061 2752 2022 2752 1894 2752  L 1331 2752  L 1568 3692  C 1594 3781 1594 3794 1594 3840  C 1594 3943 1510 4000 1427 4000  C 1376 4000 1229 3981 1178 3775  L 928 2752  L 326 2752  C 198 2752 141 2752 141 2630  C 141 2566 186 2566 307 2566  L 877 2566  L 454 881  C 403 658 384 594 384 511  C 384 211 595 -64 954 -64  C 1600 -64 1946 868 1946 912  C 1946 951 1920 970 1882 970  C 1869 970 1843 970 1830 944  C 1824 938 1818 931 1773 829  C 1638 511 1344 64 973 64  C 781 64 768 224 768 364  C 768 370 768 492 787 568  L 1286 2566  z " transform="scale(0.015625)"/>
      </defs>
      <use xlink:href="#CMSS17-54" transform="scale(0.996264)"/>
      <use xlink:href="#CMSS17-69" transform="translate(63.819454 0) scale(0.996264)"/>
      <use xlink:href="#CMSS17-6d" transform="translate(86.000177 0) scale(0.996264)"/>
      <use xlink:href="#CMSS17-65" transform="translate(160.229431 0) scale(0.996264)"/>
      <use xlink:href="#CMMI12-74" transform="translate(233.097366 0) scale(0.996264)"/>
     </g>
    </g>
   </g>
   <g id="matplotlib.axis_2">
    <g id="ytick_1">
     <g id="line2d_7">
      <defs>
       <path id="m9297d053ea" d="M 0 0  L -3.5 0  " style="stroke: #000000; stroke-width: 0.8"/>
      </defs>
      <g>
       <use xlink:href="#m9297d053ea" x="43.978255" y="211.710564" style="stroke: #000000; stroke-width: 0.8"/>
      </g>
     </g>
     <g id="text_8">
      <!-- $\mathdefault{−4}$ -->
      <g transform="translate(21.826776 215.861654) scale(0.12 -0.12)">
       <defs>
        <path id="CMSY10-0" d="M 4218 1472  C 4326 1472 4442 1472 4442 1600  C 4442 1728 4326 1728 4218 1728  L 755 1728  C 646 1728 531 1728 531 1600  C 531 1472 646 1472 755 1472  L 4218 1472  z " transform="scale(0.015625)"/>
       </defs>
       <use xlink:href="#CMSY10-0" transform="scale(0.996264)"/>
       <use xlink:href="#CMR17-34" transform="translate(77.487468 0) scale(0.996264)"/>
      </g>
     </g>
    </g>
    <g id="ytick_2">
     <g id="line2d_8">
      <g>
       <use xlink:href="#m9297d053ea" x="43.978255" y="184.19874" style="stroke: #000000; stroke-width: 0.8"/>
      </g>
     </g>
     <g id="text_9">
      <!-- $\mathdefault{−2}$ -->
      <g transform="translate(21.826776 188.34983) scale(0.12 -0.12)">
       <use xlink:href="#CMSY10-0" transform="scale(0.996264)"/>
       <use xlink:href="#CMR17-32" transform="translate(77.487468 0) scale(0.996264)"/>
      </g>
     </g>
    </g>
    <g id="ytick_3">
     <g id="line2d_9">
      <g>
       <use xlink:href="#m9297d053ea" x="43.978255" y="156.686916" style="stroke: #000000; stroke-width: 0.8"/>
      </g>
     </g>
     <g id="text_10">
      <!-- $\mathdefault{0}$ -->
      <g transform="translate(31.125265 160.838006) scale(0.12 -0.12)">
       <use xlink:href="#CMR17-30" transform="scale(0.996264)"/>
      </g>
     </g>
    </g>
    <g id="ytick_4">
     <g id="line2d_10">
      <g>
       <use xlink:href="#m9297d053ea" x="43.978255" y="129.175092" style="stroke: #000000; stroke-width: 0.8"/>
      </g>
     </g>
     <g id="text_11">
      <!-- $\mathdefault{2}$ -->
      <g transform="translate(31.125265 133.326182) scale(0.12 -0.12)">
       <use xlink:href="#CMR17-32" transform="scale(0.996264)"/>
      </g>
     </g>
    </g>
    <g id="ytick_5">
     <g id="line2d_11">
      <g>
       <use xlink:href="#m9297d053ea" x="43.978255" y="101.663268" style="stroke: #000000; stroke-width: 0.8"/>
      </g>
     </g>
     <g id="text_12">
      <!-- $\mathdefault{4}$ -->
      <g transform="translate(31.125265 105.814358) scale(0.12 -0.12)">
       <use xlink:href="#CMR17-34" transform="scale(0.996264)"/>
      </g>
     </g>
    </g>
    <g id="ytick_6">
     <g id="line2d_12">
      <g>
       <use xlink:href="#m9297d053ea" x="43.978255" y="74.151444" style="stroke: #000000; stroke-width: 0.8"/>
      </g>
     </g>
     <g id="text_13">
      <!-- $\mathdefault{6}$ -->
      <g transform="translate(31.125265 78.302533) scale(0.12 -0.12)">
       <defs>
        <path id="CMR17-36" d="M 678 2176  C 678 3690 1395 4032 1811 4032  C 1946 4032 2272 4009 2400 3776  C 2298 3776 2106 3776 2106 3553  C 2106 3381 2246 3323 2336 3323  C 2394 3323 2566 3348 2566 3560  C 2566 3954 2246 4179 1805 4179  C 1043 4179 243 3390 243 1984  C 243 253 966 -128 1478 -128  C 2099 -128 2688 427 2688 1283  C 2688 2081 2170 2662 1517 2662  C 1126 2662 838 2407 678 1960  L 678 2176  z M 1478 25  C 691 25 691 1200 691 1436  C 691 1896 909 2560 1504 2560  C 1613 2560 1926 2560 2138 2120  C 2253 1870 2253 1609 2253 1289  C 2253 944 2253 690 2118 434  C 1978 171 1773 25 1478 25  z " transform="scale(0.015625)"/>
       </defs>
       <use xlink:href="#CMR17-36" transform="scale(0.996264)"/>
      </g>
     </g>
    </g>
    <g id="ytick_7">
     <g id="line2d_13">
      <g>
       <use xlink:href="#m9297d053ea" x="43.978255" y="46.639619" style="stroke: #000000; stroke-width: 0.8"/>
      </g>
     </g>
     <g id="text_14">
      <!-- $\mathdefault{8}$ -->
      <g transform="translate(31.125265 50.790709) scale(0.12 -0.12)">
       <defs>
        <path id="CMR17-38" d="M 1741 2264  C 2144 2467 2554 2773 2554 3263  C 2554 3841 1990 4179 1472 4179  C 890 4179 378 3759 378 3180  C 378 3021 416 2747 666 2505  C 730 2442 998 2251 1171 2130  C 883 1983 211 1634 211 934  C 211 279 838 -128 1459 -128  C 2144 -128 2720 362 2720 1010  C 2720 1590 2330 1857 2074 2029  L 1741 2264  z M 902 2822  C 851 2854 595 3051 595 3351  C 595 3739 998 4032 1459 4032  C 1965 4032 2336 3676 2336 3262  C 2336 2669 1670 2331 1638 2331  C 1632 2331 1626 2331 1574 2370  L 902 2822  z M 2080 1519  C 2176 1449 2483 1240 2483 851  C 2483 381 2010 25 1472 25  C 890 25 448 438 448 940  C 448 1443 838 1862 1280 2060  L 2080 1519  z " transform="scale(0.015625)"/>
       </defs>
       <use xlink:href="#CMR17-38" transform="scale(0.996264)"/>
      </g>
     </g>
    </g>
    <g id="text_15">
     <!-- Expectation values -->
     <g transform="translate(15.50218 175.61632) rotate(-90) scale(0.12 -0.12)">
      <defs>
       <path id="CMSS17-45" d="M 1958 433  C 1446 433 1216 433 1101 433  L 1101 2107  L 3085 2107  L 3085 2496  L 1101 2496  L 1101 4009  L 1926 4009  C 2003 4009 2080 4009 2157 4009  L 3251 4009  L 3251 4416  L 563 4416  L 563 0  L 3334 0  L 3334 433  L 1958 433  z " transform="scale(0.015625)"/>
       <path id="CMSS17-78" d="M 1587 1414  L 2656 2739  L 2099 2739  L 1363 1777  L 602 2739  L 32 2739  L 1139 1414  L 0 0  L 563 0  L 1363 1121  L 2195 0  L 2758 0  L 1587 1414  z " transform="scale(0.015625)"/>
       <path id="CMSS17-70" d="M 966 333  C 1178 129 1466 -5 1773 -5  C 2368 -5 2880 603 2880 1412  C 2880 2159 2496 2816 1946 2816  C 1626 2816 1242 2702 954 2472  L 954 2765  L 480 2765  L 480 -1216  L 966 -1216  L 966 333  z M 966 2100  C 1018 2176 1235 2415 1587 2415  C 2035 2415 2394 1960 2394 1412  C 2394 787 1958 384 1530 384  C 1402 384 1267 415 1139 523  C 966 674 966 768 966 857  L 966 2100  z " transform="scale(0.015625)"/>
       <path id="CMSS17-63" d="M 2464 2541  C 2464 2585 2170 2714 2093 2739  C 1882 2816 1613 2816 1542 2816  C 710 2816 211 2093 211 1363  C 211 595 768 -64 1517 -64  C 1946 -64 2253 76 2502 242  L 2464 664  C 2189 453 1869 337 1523 337  C 1024 337 698 774 698 1369  C 698 1831 909 2414 1549 2414  C 1901 2414 2099 2343 2394 2145  L 2464 2541  z " transform="scale(0.015625)"/>
       <path id="CMSS17-74" d="M 1069 2368  L 1901 2368  L 1901 2737  L 1069 2737  L 1069 3520  L 614 3520  L 614 2737  L 109 2737  L 109 2368  L 602 2368  L 602 749  C 602 384 685 -64 1107 -64  C 1427 -64 1722 25 2003 172  L 1901 548  C 1747 414 1562 337 1363 337  C 1082 337 1069 696 1069 856  L 1069 2368  z " transform="scale(0.015625)"/>
       <path id="CMSS17-61" d="M 2406 1791  C 2406 2392 1978 2808 1402 2808  C 1120 2808 813 2757 461 2553  L 499 2135  C 659 2248 934 2432 1395 2432  C 1722 2432 1920 2180 1920 1782  L 1920 1536  C 896 1536 256 1238 256 726  C 256 461 416 -64 947 -64  C 1043 -64 1562 -64 1933 217  L 1933 -19  L 2406 -19  L 2406 1791  z M 1920 816  C 1920 701 1920 548 1728 434  C 1562 325 1350 325 1261 325  C 941 325 723 511 723 744  C 723 1211 1722 1211 1920 1211  L 1920 816  z " transform="scale(0.015625)"/>
       <path id="CMSS17-6f" d="M 2829 1356  C 2829 2176 2221 2816 1504 2816  C 768 2816 173 2157 173 1356  C 173 544 787 -64 1498 -64  C 2227 -64 2829 563 2829 1356  z M 1504 337  C 1050 337 659 709 659 1408  C 659 2151 1114 2427 1498 2427  C 1914 2427 2342 2126 2342 1408  C 2342 683 1926 337 1504 337  z " transform="scale(0.015625)"/>
       <path id="CMSS17-6e" d="M 2618 1877  C 2618 2283 2522 2816 1798 2816  C 1389 2816 1120 2606 941 2389  L 941 2758  L 474 2758  L 474 0  L 960 0  L 960 1559  C 960 1964 1114 2428 1549 2428  C 2112 2428 2131 2048 2131 1829  L 2131 0  L 2618 0  L 2618 1877  z " transform="scale(0.015625)"/>
       <path id="CMSS17-76" d="M 2675 2752  L 2176 2752  L 1747 1556  C 1613 1165 1421 627 1389 352  L 1382 352  C 1370 468 1318 634 1286 749  C 1248 890 1197 1056 1158 1172  L 595 2752  L 83 2752  L 1094 0  L 1664 0  L 2675 2752  z " transform="scale(0.015625)"/>
       <path id="CMSS17-6c" d="M 947 4416  L 474 4416  L 474 0  L 947 0  L 947 4416  z " transform="scale(0.015625)"/>
       <path id="CMSS17-75" d="M 2618 2739  L 2131 2739  L 2131 972  C 2131 498 1786 306 1421 306  C 998 306 960 447 960 709  L 960 2739  L 474 2739  L 474 678  C 474 179 646 -64 1088 -64  C 1306 -64 1798 -13 2144 306  L 2144 0  L 2618 0  L 2618 2739  z " transform="scale(0.015625)"/>
       <path id="CMSS17-73" d="M 2061 2627  C 1683 2807 1389 2807 1197 2807  C 742 2807 198 2648 198 2003  C 198 1359 902 1218 1094 1179  C 1389 1122 1715 1058 1715 740  C 1715 337 1254 337 1171 337  C 915 337 563 407 243 638  L 166 210  C 531 0 883 -64 1178 -64  C 1965 -64 2163 416 2163 781  C 2163 1094 1984 1305 1862 1401  C 1651 1568 1574 1587 1050 1696  C 960 1709 646 1779 646 2066  C 646 2432 1050 2432 1139 2432  C 1555 2432 1811 2303 1984 2208  L 2061 2627  z " transform="scale(0.015625)"/>
      </defs>
      <use xlink:href="#CMSS17-45" transform="scale(0.996264)"/>
      <use xlink:href="#CMSS17-78" transform="translate(55.892013 0) scale(0.996264)"/>
      <use xlink:href="#CMSS17-70" transform="translate(98.892155 0) scale(0.996264)"/>
      <use xlink:href="#CMSS17-65" transform="translate(149.699537 0) scale(0.996264)"/>
      <use xlink:href="#CMSS17-63" transform="translate(191.338359 0) scale(0.996264)"/>
      <use xlink:href="#CMSS17-74" transform="translate(232.977181 0) scale(0.996264)"/>
      <use xlink:href="#CMSS17-61" transform="translate(266.808748 0) scale(0.996264)"/>
      <use xlink:href="#CMSS17-74" transform="translate(311.730668 0) scale(0.996264)"/>
      <use xlink:href="#CMSS17-69" transform="translate(345.562235 0) scale(0.996264)"/>
      <use xlink:href="#CMSS17-6f" transform="translate(367.742958 0) scale(0.996264)"/>
      <use xlink:href="#CMSS17-6e" transform="translate(414.586581 0) scale(0.996264)"/>
      <use xlink:href="#CMSS17-76" transform="translate(494.020637 0) scale(0.996264)"/>
      <use xlink:href="#CMSS17-61" transform="translate(537.020779 0) scale(0.996264)"/>
      <use xlink:href="#CMSS17-6c" transform="translate(581.9427 0) scale(0.996264)"/>
      <use xlink:href="#CMSS17-75" transform="translate(604.123423 0) scale(0.996264)"/>
      <use xlink:href="#CMSS17-65" transform="translate(652.328366 0) scale(0.996264)"/>
      <use xlink:href="#CMSS17-73" transform="translate(693.967188 0) scale(0.996264)"/>
     </g>
    </g>
   </g>
   <g id="line2d_14">
    <path d="M 43.978255 32.883708  L 49.062912 38.933461  L 54.147569 44.687588  L 60.249157 51.222603  L 66.350745 57.376308  L 72.452334 63.170953  L 78.553922 68.627487  L 84.65551 73.76564  L 90.757098 78.603989  L 96.858687 83.160026  L 102.960275 87.450224  L 109.061863 91.490095  L 115.163451 95.294245  L 122.281971 99.452798  L 129.40049 103.329664  L 136.51901 106.943922  L 143.63753 110.313362  L 150.756049 113.454566  L 158.8915 116.784824  L 167.026951 119.858548  L 175.162402 122.695497  L 183.297853 125.313912  L 192.450236 128.01932  L 201.602618 130.491431  L 211.771932 132.989011  L 221.941245 135.248461  L 232.110559 137.292487  L 243.296804 139.316554  L 255.499981 141.284491  L 267.703157 143.029475  L 280.923265 144.697504  L 295.160304 146.266746  L 310.414275 147.720888  L 326.685177 149.04902  L 344.989941 150.30951  L 364.311637 151.415069  L 385.667196 152.415438  L 410.073549 153.328468  L 437.530696 154.124533  L 469.055569 154.808711  L 506.682029 155.390537  L 551.42701 155.852736  L 551.42701 155.852736  " clip-path="url(#pbaf429d040)" style="fill: none; stroke: #1f77b4; stroke-width: 1.5; stroke-linecap: square"/>
   </g>
   <g id="line2d_15">
    <path d="M 43.978255 74.15145  L 44.995187 74.975839  L 46.012118 76.609655  L 47.029049 79.02848  L 48.045981 82.200283  L 49.062912 86.085819  L 50.079843 90.63909  L 52.113706 101.534321  L 54.147569 114.404409  L 56.181432 128.698886  L 64.316883 188.030893  L 66.350745 200.453043  L 68.384608 210.890051  L 69.40154 215.243036  L 70.418471 218.966676  L 71.435402 222.029985  L 72.452334 224.408893  L 73.469265 226.08642  L 74.486196 227.05277  L 75.503128 227.305366  L 76.520059 226.848795  L 77.536991 225.694697  L 78.553922 223.861575  L 79.570853 221.374541  L 80.587785 218.265002  L 81.604716 214.57028  L 82.621647 210.333181  L 84.65551 200.427548  L 86.689373 188.980784  L 89.740167 169.99206  L 94.824824 137.846232  L 96.858687 126.302518  L 98.892549 116.194907  L 99.909481 111.799179  L 100.926412 107.896447  L 101.943343 104.520851  L 102.960275 101.700913  L 103.977206 99.459311  L 104.994138 97.812709  L 106.011069 96.771652  L 107.028 96.34052  L 108.044932 96.517547  L 109.061863 97.294898  L 110.078794 98.658808  L 111.095726 100.589783  L 112.112657 103.062845  L 113.129589 106.047843  L 114.14652 109.509804  L 116.180383 117.703038  L 118.214245 127.282409  L 121.26504 143.348948  L 126.349696 170.947132  L 128.383559 180.991938  L 130.417422 189.871893  L 132.451285 197.257338  L 133.468216 200.304352  L 134.485147 202.884527  L 135.502079 204.976698  L 136.51901 206.564795  L 137.535941 207.637953  L 138.552873 208.190566  L 139.569804 208.222295  L 140.586736 207.738016  L 141.603667 206.747719  L 142.620598 205.266358  L 143.63753 203.313654  L 144.654461 200.913844  L 145.671392 198.095401  L 147.705255 191.335664  L 149.739118 183.333567  L 151.772981 174.431656  L 159.908432 137.367013  L 161.942294 129.580188  L 163.976157 123.024717  L 164.993088 120.284868  L 166.01002 117.936595  L 167.026951 115.999491  L 168.043883 114.488842  L 169.060814 113.415512  L 170.077745 112.785881  L 171.094677 112.601826  L 172.111608 112.860746  L 173.128539 113.555634  L 174.145471 114.67519  L 175.162402 116.203977  L 176.179334 118.122617  L 177.196265 120.408025  L 178.213196 123.033674  L 180.247059 129.184221  L 182.280922 136.305325  L 185.331716 148.139835  L 190.416373 168.223268  L 192.450236 175.451754  L 194.484098 181.791359  L 196.517961 187.007868  L 197.534892 189.135051  L 198.551824 190.91633  L 199.568755 192.337332  L 200.585686 193.387428  L 201.602618 194.059809  L 202.619549 194.351512  L 203.636481 194.263413  L 204.653412 193.800181  L 205.670343 192.970191  L 206.687275 191.785406  L 207.704206 190.261217  L 208.721137 188.416261  L 209.738069 186.272198  L 211.771932 181.187  L 213.805794 175.229391  L 216.856588 165.218444  L 221.941245 147.979842  L 223.975108 141.691544  L 226.008971 136.123724  L 228.042834 131.483279  L 229.059765 129.564452  L 230.076696 127.936158  L 231.093628 126.611795  L 232.110559 125.601584  L 233.12749 124.912502  L 234.144422 124.548243  L 235.161353 124.509214  L 236.178285 124.792562  L 237.195216 125.392237  L 238.212147 126.299087  L 239.229079 127.500972  L 240.24601 128.982926  L 241.262941 130.727327  L 243.296804 134.920955  L 245.330667 139.896066  L 248.381461 148.352473  L 254.483049 165.92191  L 256.516912 171.118188  L 258.550775 175.638064  L 260.584637 179.315398  L 261.601569 180.796115  L 262.6185 182.020819  L 263.635432 182.979808  L 264.652363 183.666134  L 265.669294 184.075647  L 266.686226 184.207011  L 267.703157 184.061684  L 268.720088 183.643878  L 269.73702 182.960491  L 270.753951 182.021009  L 271.770883 180.837387  L 272.787814 179.423902  L 274.821677 175.97506  L 276.855539 171.828392  L 278.889402 167.162478  L 282.957128 157.064534  L 286.007922 149.626098  L 288.041784 145.099933  L 290.075647 141.123882  L 292.10951 137.844984  L 293.126441 136.504667  L 294.143373 135.379667  L 295.160304 134.479097  L 296.177235 133.809729  L 297.194167 133.375956  L 298.211098 133.179771  L 299.22803 133.220768  L 300.244961 133.496171  L 301.261892 134.000889  L 302.278824 134.727583  L 303.295755 135.66677  L 304.312686 136.806932  L 306.346549 139.63479  L 308.380412 143.083964  L 310.414275 147.005104  L 314.482 155.593815  L 317.532794 162.000405  L 319.566657 165.936872  L 321.60052 169.427767  L 323.634382 172.34325  L 324.651314 173.551484  L 325.668245 174.578916  L 326.685177 175.417066  L 327.702108 176.059436  L 328.719039 176.501549  L 329.735971 176.740977  L 330.752902 176.777347  L 331.769833 176.612317  L 332.786765 176.249548  L 333.803696 175.694641  L 334.820628 174.955065  L 335.837559 174.04006  L 337.871422 171.728926  L 339.905284 168.866078  L 341.939147 165.576194  L 344.989941 160.147644  L 350.074598 151.023535  L 352.108461 147.769146  L 354.142324 144.933599  L 356.176186 142.62123  L 357.193118 141.687677  L 358.210049 140.913522  L 359.22698 140.304922  L 360.243912 139.866319  L 361.260843 139.600404  L 362.277775 139.508118  L 363.294706 139.588652  L 364.311637 139.839479  L 365.328569 140.25639  L 366.3455 140.833557  L 367.362431 141.563608  L 369.396294 143.445687  L 371.430157 145.816454  L 373.46402 148.57203  L 376.514814 153.168331  L 381.599471 161.006566  L 383.633333 163.840533  L 385.667196 166.334083  L 387.701059 168.39491  L 389.734922 169.949731  L 390.751853 170.520331  L 391.768784 170.946816  L 392.785716 171.226358  L 393.802647 171.357622  L 394.819579 171.340774  L 395.83651 171.177459  L 396.853441 170.870773  L 397.870373 170.425212  L 399.904235 169.142113  L 401.938098 167.38967  L 403.971961 165.246812  L 406.005824 162.806414  L 410.073549 157.4501  L 414.141275 152.185356  L 416.175137 149.847934  L 418.209 147.828577  L 420.242863 146.201197  L 422.276726 145.022667  L 423.293657 144.614346  L 424.310588 144.3309  L 425.32752 144.173922  L 426.344451 144.143722  L 427.361382 144.239336  L 428.378314 144.458555  L 430.412177 145.252933  L 432.446039 146.485783  L 434.479902 148.099429  L 436.513765 150.022211  L 439.564559 153.303389  L 445.666147 160.158722  L 447.70001 162.19683  L 449.733873 163.975611  L 451.767735 165.429545  L 453.801598 166.507317  L 455.835461 167.173574  L 457.869324 167.410013  L 459.903186 167.215769  L 461.937049 166.607103  L 463.970912 165.616418  L 466.004775 164.290651  L 468.038637 162.689117  L 471.089431 159.922854  L 478.207951 153.135995  L 480.241814 151.45905  L 482.275676 150.023062  L 484.309539 148.880296  L 486.343402 148.070335  L 488.377265 147.618751  L 490.411127 147.536373  L 492.44499 147.819151  L 494.478853 148.448603  L 496.512716 149.392848  L 498.546578 150.608126  L 501.597373 152.81972  L 506.682029 157.008529  L 509.732824 159.451187  L 512.783618 161.576687  L 514.81748 162.727269  L 516.851343 163.615061  L 518.885206 164.210007  L 520.919069 164.494281  L 522.952931 164.462756  L 524.986794 164.122949  L 527.020657 163.494475  L 529.05452 162.608029  L 531.088382 161.503945  L 534.139176 159.546782  L 543.291559 153.283076  L 545.325422 152.167284  L 547.359284 151.253179  L 549.393147 150.573074  L 551.42701 150.149345  L 551.42701 150.149345  " clip-path="url(#pbaf429d040)" style="fill: none; stroke: #ff7f0e; stroke-width: 1.5; stroke-linecap: square"/>
   </g>
   <g id="patch_3">
    <path d="M 43.978255 237.026449  L 43.978255 23.162625  " style="fill: none; stroke: #000000; stroke-width: 0.8; stroke-linejoin: miter; stroke-linecap: square"/>
   </g>
   <g id="patch_4">
    <path d="M 551.42701 237.026449  L 551.42701 23.162625  " style="fill: none; stroke: #000000; stroke-width: 0.8; stroke-linejoin: miter; stroke-linecap: square"/>
   </g>
   <g id="patch_5">
    <path d="M 43.978255 237.026449  L 551.42701 237.026449  " style="fill: none; stroke: #000000; stroke-width: 0.8; stroke-linejoin: miter; stroke-linecap: square"/>
   </g>
   <g id="patch_6">
    <path d="M 43.978255 23.162625  L 551.42701 23.162625  " style="fill: none; stroke: #000000; stroke-width: 0.8; stroke-linejoin: miter; stroke-linecap: square"/>
   </g>
   <g id="text_16">
    <!-- Damped Harmonic Oscillator Dynamics -->
    <g transform="translate(182.464594 17.162625) scale(0.144 -0.144)">
     <defs>
      <path id="CMSS17-44" d="M 570 4416  L 570 0  L 2144 0  C 3194 0 4000 980 4000 2170  C 4000 3398 3194 4416 2144 4416  L 570 4416  z M 1094 357  L 1094 4059  L 2003 4059  C 2861 4059 3475 3277 3475 2170  C 3475 1107 2867 357 2003 357  L 1094 357  z " transform="scale(0.015625)"/>
      <path id="CMSS17-64" d="M 2611 4416  L 2138 4416  L 2138 2438  C 1939 2603 1613 2756 1254 2756  C 672 2756 211 2131 211 1347  C 211 562 666 -64 1235 -64  C 1677 -64 1971 172 2125 306  L 2125 -13  L 2611 -13  L 2611 4416  z M 2125 836  C 2125 747 2125 653 1926 482  C 1798 375 1645 325 1498 325  C 1152 325 698 576 698 1340  C 698 2134 1210 2368 1562 2368  C 1798 2368 1990 2254 2125 2065  L 2125 836  z " transform="scale(0.015625)"/>
      <path id="CMSS17-48" d="M 3674 4416  L 3136 4416  L 3136 2501  L 1101 2501  L 1101 4416  L 563 4416  L 563 0  L 1101 0  L 1101 2112  L 3136 2112  L 3136 0  L 3674 0  L 3674 4416  z " transform="scale(0.015625)"/>
      <path id="CMSS17-72" d="M 954 1363  C 954 1965 1395 2368 1958 2368  L 1958 2789  C 1549 2789 1165 2585 934 2253  L 934 2758  L 480 2758  L 480 0  L 954 0  L 954 1363  z " transform="scale(0.015625)"/>
      <path id="CMSS17-4f" d="M 4096 2178  C 4096 3503 3219 4497 2214 4497  C 1210 4497 333 3497 333 2178  C 333 847 1222 -128 2214 -128  C 3206 -128 4096 847 4096 2178  z M 2214 273  C 1510 273 870 1057 870 2261  C 870 3433 1549 4096 2214 4096  C 2880 4096 3558 3433 3558 2261  C 3558 1051 2912 273 2214 273  z " transform="scale(0.015625)"/>
      <path id="CMSS17-79" d="M 2675 2752  L 2176 2752  C 1632 1294 1446 702 1434 383  L 1427 383  C 1408 696 1126 1460 902 2007  L 602 2752  L 83 2752  L 1216 13  C 1146 -178 1043 -465 1011 -529  C 870 -885 774 -885 672 -885  C 646 -885 442 -885 211 -809  L 250 -1229  C 410 -1261 570 -1280 685 -1280  C 845 -1280 1165 -1280 1459 -497  L 2675 2752  z " transform="scale(0.015625)"/>
     </defs>
     <use xlink:href="#CMSS17-44" transform="scale(0.996264)"/>
     <use xlink:href="#CMSS17-61" transform="translate(67.542842 0) scale(0.996264)"/>
     <use xlink:href="#CMSS17-6d" transform="translate(112.464762 0) scale(0.996264)"/>
     <use xlink:href="#CMSS17-70" transform="translate(186.694017 0) scale(0.996264)"/>
     <use xlink:href="#CMSS17-65" transform="translate(237.501399 0) scale(0.996264)"/>
     <use xlink:href="#CMSS17-64" transform="translate(279.140221 0) scale(0.996264)"/>
     <use xlink:href="#CMSS17-48" transform="translate(358.574277 0) scale(0.996264)"/>
     <use xlink:href="#CMSS17-61" transform="translate(424.635796 0) scale(0.996264)"/>
     <use xlink:href="#CMSS17-72" transform="translate(466.955262 0) scale(0.996264)"/>
     <use xlink:href="#CMSS17-6d" transform="translate(498.865035 0) scale(0.996264)"/>
     <use xlink:href="#CMSS17-6f" transform="translate(573.094289 0) scale(0.996264)"/>
     <use xlink:href="#CMSS17-6e" transform="translate(619.937913 0) scale(0.996264)"/>
     <use xlink:href="#CMSS17-69" transform="translate(668.142856 0) scale(0.996264)"/>
     <use xlink:href="#CMSS17-63" transform="translate(690.323579 0) scale(0.996264)"/>
     <use xlink:href="#CMSS17-4f" transform="translate(763.191514 0) scale(0.996264)"/>
     <use xlink:href="#CMSS17-73" transform="translate(832.215769 0) scale(0.996264)"/>
     <use xlink:href="#CMSS17-63" transform="translate(868.129311 0) scale(0.996264)"/>
     <use xlink:href="#CMSS17-69" transform="translate(909.768133 0) scale(0.996264)"/>
     <use xlink:href="#CMSS17-6c" transform="translate(931.948856 0) scale(0.996264)"/>
     <use xlink:href="#CMSS17-6c" transform="translate(954.129579 0) scale(0.996264)"/>
     <use xlink:href="#CMSS17-61" transform="translate(976.310302 0) scale(0.996264)"/>
     <use xlink:href="#CMSS17-74" transform="translate(1021.232223 0) scale(0.996264)"/>
     <use xlink:href="#CMSS17-6f" transform="translate(1055.06379 0) scale(0.996264)"/>
     <use xlink:href="#CMSS17-72" transform="translate(1099.304959 0) scale(0.996264)"/>
     <use xlink:href="#CMSS17-44" transform="translate(1162.443845 0) scale(0.996264)"/>
     <use xlink:href="#CMSS17-79" transform="translate(1229.986686 0) scale(0.996264)"/>
     <use xlink:href="#CMSS17-6e" transform="translate(1272.986828 0) scale(0.996264)"/>
     <use xlink:href="#CMSS17-61" transform="translate(1321.191771 0) scale(0.996264)"/>
     <use xlink:href="#CMSS17-6d" transform="translate(1366.113692 0) scale(0.996264)"/>
     <use xlink:href="#CMSS17-69" transform="translate(1440.342946 0) scale(0.996264)"/>
     <use xlink:href="#CMSS17-63" transform="translate(1462.523669 0) scale(0.996264)"/>
     <use xlink:href="#CMSS17-73" transform="translate(1504.162491 0) scale(0.996264)"/>
    </g>
   </g>
   <g id="legend_1">
    <g id="patch_7">
     <path d="M 445.722779 71.030758  L 543.02701 71.030758  Q 545.42701 71.030758 545.42701 68.630758  L 545.42701 31.562625  Q 545.42701 29.162625 543.02701 29.162625  L 445.722779 29.162625  Q 443.322779 29.162625 443.322779 31.562625  L 443.322779 68.630758  Q 443.322779 71.030758 445.722779 71.030758  z " style="fill: #ffffff; opacity: 0.8; stroke: #cccccc; stroke-linejoin: miter"/>
    </g>
    <g id="line2d_16">
     <path d="M 448.122779 41.086797  L 460.122779 41.086797  L 472.122779 41.086797  " style="fill: none; stroke: #1f77b4; stroke-width: 1.5; stroke-linecap: square"/>
    </g>
    <g id="text_17">
     <!-- Energy $\langle \hat{H} \rangle$ -->
     <g transform="translate(481.722779 45.286797) scale(0.12 -0.12)">
      <defs>
       <path id="CMSS17-67" d="M 2848 2808  C 2483 2808 2170 2738 1914 2617  C 1702 2777 1485 2808 1338 2808  C 781 2808 358 2349 358 1814  C 358 1468 550 1207 563 1195  C 448 1035 384 863 384 672  C 384 448 474 289 544 200  C 211 -3 166 -314 166 -435  C 166 -898 749 -1280 1498 -1280  C 2253 -1280 2835 -898 2835 -428  C 2835 448 1856 448 1587 448  L 1069 448  C 973 448 717 448 717 791  C 717 921 774 1004 781 1010  C 877 940 1075 832 1338 832  C 1869 832 2310 1278 2310 1827  C 2310 2132 2170 2355 2112 2432  L 2131 2432  C 2150 2432 2419 2432 2515 2432  C 2720 2432 2739 2429 2918 2419  L 2848 2808  z M 1338 1182  C 1120 1182 813 1315 813 1823  C 813 2375 1165 2464 1331 2464  C 1549 2464 1856 2331 1856 1823  C 1856 1271 1504 1182 1338 1182  z M 1581 -10  C 1734 -10 2381 -10 2381 -442  C 2381 -714 1984 -929 1504 -929  C 1018 -929 621 -720 621 -435  C 621 -403 621 -10 1062 -10  L 1581 -10  z " transform="scale(0.015625)"/>
       <path id="CMSY10-68" d="M 2099 4557  C 2131 4627 2131 4640 2131 4672  C 2131 4742 2074 4800 2003 4800  C 1946 4800 1901 4768 1856 4653  L 736 1715  C 723 1677 704 1638 704 1600  C 704 1581 704 1568 736 1491  L 1856 -1446  C 1882 -1517 1914 -1600 2003 -1600  C 2074 -1600 2131 -1542 2131 -1472  C 2131 -1453 2131 -1440 2099 -1370  L 966 1600  L 2099 4557  z " transform="scale(0.015625)"/>
       <path id="CMR17-5e" d="M 1466 4421  L 678 3555  L 755 3478  L 1466 4166  L 2176 3478  L 2253 3555  L 1466 4421  z " transform="scale(0.015625)"/>
       <path id="CMMI12-48" d="M 4787 3887  C 4845 4103 4858 4167 5312 4167  C 5427 4167 5491 4167 5491 4282  C 5491 4352 5434 4352 5395 4352  C 5280 4352 5146 4352 5024 4352  L 4269 4352  C 4147 4352 4013 4352 3891 4352  C 3846 4352 3770 4352 3770 4231  C 3770 4167 3814 4167 3936 4167  C 4320 4167 4320 4116 4320 4046  C 4320 4034 4320 3995 4294 3900  L 3904 2361  L 1971 2361  L 2355 3887  C 2413 4103 2426 4167 2880 4167  C 2995 4167 3059 4167 3059 4282  C 3059 4352 3002 4352 2963 4352  C 2848 4352 2714 4352 2592 4352  L 1837 4352  C 1715 4352 1581 4352 1459 4352  C 1414 4352 1338 4352 1338 4231  C 1338 4167 1382 4167 1504 4167  C 1888 4167 1888 4116 1888 4046  C 1888 4034 1888 3995 1862 3899  L 998 472  C 941 249 928 185 486 185  C 339 185 294 185 294 64  C 294 0 365 0 384 0  C 499 0 634 0 755 0  L 1510 0  C 1632 0 1766 0 1888 0  C 1939 0 2010 0 2010 121  C 2010 185 1952 185 1856 185  C 1466 185 1466 236 1466 300  C 1466 307 1466 351 1478 402  L 1920 2176  L 3859 2176  C 3750 1753 3424 416 3411 376  C 3341 185 3238 185 2861 185  C 2784 185 2726 185 2726 64  C 2726 0 2797 0 2816 0  C 2931 0 3066 0 3187 0  L 3942 0  C 4064 0 4198 0 4320 0  C 4371 0 4442 0 4442 121  C 4442 185 4384 185 4288 185  C 3898 185 3898 236 3898 300  C 3898 307 3898 351 3910 402  L 4787 3887  z " transform="scale(0.015625)"/>
       <path id="CMSY10-69" d="M 1747 1491  C 1779 1568 1779 1581 1779 1600  C 1779 1619 1779 1632 1747 1709  L 627 4653  C 589 4762 550 4800 480 4800  C 410 4800 352 4742 352 4672  C 352 4653 352 4640 384 4570  L 1517 1600  L 384 -1357  C 352 -1427 352 -1440 352 -1472  C 352 -1542 410 -1600 480 -1600  C 563 -1600 589 -1536 614 -1472  L 1747 1491  z " transform="scale(0.015625)"/>
      </defs>
      <use xlink:href="#CMSS17-45" transform="scale(0.996264)"/>
      <use xlink:href="#CMSS17-6e" transform="translate(55.892013 0) scale(0.996264)"/>
      <use xlink:href="#CMSS17-65" transform="translate(104.096956 0) scale(0.996264)"/>
      <use xlink:href="#CMSS17-72" transform="translate(145.735778 0) scale(0.996264)"/>
      <use xlink:href="#CMSS17-67" transform="translate(177.645551 0) scale(0.996264)"/>
      <use xlink:href="#CMSS17-79" transform="translate(224.489175 0) scale(0.996264)"/>
      <use xlink:href="#CMSY10-68" transform="translate(298.718429 0) scale(0.996264)"/>
      <use xlink:href="#CMR17-5e" transform="translate(364.297246 25.189733) scale(0.996264)"/>
      <use xlink:href="#CMMI12-48" transform="translate(337.462163 0) scale(0.996264)"/>
      <use xlink:href="#CMSY10-69" transform="translate(425.983935 0) scale(0.996264)"/>
     </g>
    </g>
    <g id="line2d_17">
     <path d="M 448.122779 59.041966  L 460.122779 59.041966  L 472.122779 59.041966  " style="fill: none; stroke: #ff7f0e; stroke-width: 1.5; stroke-linecap: square"/>
    </g>
    <g id="text_18">
     <!-- Position $\langle \hat{x} \rangle$ -->
     <g transform="translate(481.722779 63.241966) scale(0.12 -0.12)">
      <defs>
       <path id="CMSS17-50" d="M 2106 1856  C 2874 1856 3501 2453 3501 3158  C 3501 3850 2899 4453 2067 4453  L 570 4453  L 570 0  L 1107 0  L 1107 1856  L 2106 1856  z M 1926 4096  C 2669 4096 2995 3627 2995 3157  C 2995 2720 2694 2226 1926 2226  L 1094 2226  L 1094 4096  L 1926 4096  z " transform="scale(0.015625)"/>
       <path id="CMMI12-78" d="M 3034 2606  C 2829 2567 2752 2414 2752 2293  C 2752 2139 2874 2088 2963 2088  C 3155 2088 3290 2254 3290 2427  C 3290 2695 2982 2816 2714 2816  C 2323 2816 2106 2433 2048 2312  C 1901 2816 1504 2816 1389 2816  C 736 2816 390 1980 390 1839  C 390 1814 416 1782 461 1782  C 512 1782 525 1820 538 1846  C 755 2555 1184 2689 1370 2689  C 1658 2689 1715 2420 1715 2267  C 1715 2127 1677 1980 1600 1673  L 1382 798  C 1286 415 1101 64 762 64  C 730 64 570 64 435 147  C 666 192 717 383 717 460  C 717 588 621 664 499 664  C 346 664 179 530 179 326  C 179 57 480 -64 755 -64  C 1062 -64 1280 179 1414 441  C 1517 64 1837 -64 2074 -64  C 2726 -64 3072 773 3072 913  C 3072 945 3046 971 3008 971  C 2950 971 2944 939 2925 888  C 2752 326 2381 64 2093 64  C 1869 64 1747 230 1747 492  C 1747 632 1773 734 1875 1156  L 2099 2024  C 2195 2408 2413 2689 2707 2689  C 2720 2689 2899 2689 3034 2606  z " transform="scale(0.015625)"/>
      </defs>
      <use xlink:href="#CMSS17-50" transform="scale(0.996264)"/>
      <use xlink:href="#CMSS17-6f" transform="translate(57.133132 0) scale(0.996264)"/>
      <use xlink:href="#CMSS17-73" transform="translate(103.976756 0) scale(0.996264)"/>
      <use xlink:href="#CMSS17-69" transform="translate(139.890298 0) scale(0.996264)"/>
      <use xlink:href="#CMSS17-74" transform="translate(162.071021 0) scale(0.996264)"/>
      <use xlink:href="#CMSS17-69" transform="translate(195.902588 0) scale(0.996264)"/>
      <use xlink:href="#CMSS17-6f" transform="translate(218.083311 0) scale(0.996264)"/>
      <use xlink:href="#CMSS17-6e" transform="translate(264.926934 0) scale(0.996264)"/>
      <use xlink:href="#CMSY10-68" transform="translate(344.36099 0) scale(0.996264)"/>
      <use xlink:href="#CMR17-5e" transform="translate(390.686233 0.006461) scale(0.996264)"/>
      <use xlink:href="#CMMI12-78" transform="translate(383.104724 0) scale(0.996264)"/>
      <use xlink:href="#CMSY10-69" transform="translate(438.538783 0) scale(0.996264)"/>
     </g>
    </g>
   </g>
  </g>
 </g>
 <defs>
  <clipPath id="pbaf429d040">
   <rect x="43.978255" y="23.162625" width="507.448754" height="213.863824"/>
  </clipPath>
 </defs>
</svg>