<svg xmlns:xlink="http://www.w3.org/1999/xlink" xmlns="http://www.w3.org/2000/svg" width="576pt" height="288pt" viewBox="0 0 576 288" version="1.1">
 <metadata>
  <rdf:RDF xmlns:dc="http://purl.org/dc/elements/1.1/" xmlns:cc="http://creativecommons.org/ns#" xmlns:rdf="http://www.w3.org/1999/02/22-rdf-syntax-ns#">
   <cc:Work>
    <dc:type rdf:resource="http://purl.org/dc/dcmitype/StillImage"/>
    <dc:date>2025-06-04T16:27:38.739810</dc:date>
    <dc:format>image/svg+xml</dc:format>
    <dc:creator>
     <cc:Agent>
      <dc:title>Matplotlib v3.10.3, https://matplotlib.org/</dc:title>
     </cc:Agent>
    </dc:creator>
   </cc:Work>
  </rdf:RDF>
 </metadata>
 <defs>
  <style type="text/css">*{stroke-linejoin: round; stroke-linecap: butt}</style>
 </defs>
 <g id="figure_1">
  <g id="patch_1">
   <path d="M 0 288  L 576 288  L 576 0  L 0 0  z " style="fill: #ffffff"/>
  </g>
  <g id="axes_1">
   <g id="patch_2">
    <path d="M 72 256.32  L 518.4 256.32  L 518.4 34.56  L 72 34.56  z " style="fill: #ffffff"/>
   </g>
   <g id="matplotlib.axis_1">
    <g id="xtick_1">
     <g id="line2d_1">
      <defs>
       <path id="ma317fd8696" d="M 0 0  L 0 3.5  " style="stroke: #000000; stroke-width: 0.8"/>
      </defs>
      <g>
       <use xlink:href="#ma317fd8696" x="72" y="256.32" style="stroke: #000000; stroke-width: 0.8"/>
      </g>
     </g>
     <g id="text_1">
      <!-- $\mathdefault{0.00}$ -->
      <g transform="translate(61.594684 271.62218) scale(0.12 -0.12)">
       <defs>
        <path id="CMR17-30" d="M 2688 2025  C 2688 2416 2682 3080 2413 3591  C 2176 4039 1798 4198 1466 4198  C 1158 4198 768 4058 525 3597  C 269 3118 243 2524 243 2025  C 243 1661 250 1106 448 619  C 723 -39 1216 -128 1466 -128  C 1760 -128 2208 -7 2470 600  C 2662 1042 2688 1559 2688 2025  z M 1466 -26  C 1056 -26 813 325 723 812  C 653 1188 653 1738 653 2096  C 653 2588 653 2997 736 3387  C 858 3929 1216 4096 1466 4096  C 1728 4096 2067 3923 2189 3400  C 2272 3036 2278 2607 2278 2096  C 2278 1680 2278 1169 2202 792  C 2067 95 1690 -26 1466 -26  z " transform="scale(0.015625)"/>
        <path id="CMMI12-3a" d="M 1178 307  C 1178 492 1024 619 870 619  C 685 619 557 466 557 313  C 557 128 710 0 864 0  C 1050 0 1178 153 1178 307  z " transform="scale(0.015625)"/>
       </defs>
       <use xlink:href="#CMR17-30" transform="scale(0.996264)"/>
       <use xlink:href="#CMMI12-3a" transform="translate(45.690477 0) scale(0.996264)"/>
       <use xlink:href="#CMR17-30" transform="translate(72.787654 0) scale(0.996264)"/>
       <use xlink:href="#CMR17-30" transform="translate(118.478131 0) scale(0.996264)"/>
      </g>
     </g>
    </g>
    <g id="xtick_2">
     <g id="line2d_2">
      <g>
       <use xlink:href="#ma317fd8696" x="127.8" y="256.32" style="stroke: #000000; stroke-width: 0.8"/>
      </g>
     </g>
     <g id="text_2">
      <!-- $\mathdefault{0.25}$ -->
      <g transform="translate(117.394684 271.62218) scale(0.12 -0.12)">
       <defs>
        <path id="CMR17-32" d="M 2669 989  L 2554 989  C 2490 536 2438 459 2413 420  C 2381 369 1920 369 1830 369  L 602 369  C 832 619 1280 1072 1824 1597  C 2214 1967 2669 2402 2669 3035  C 2669 3790 2067 4224 1395 4224  C 691 4224 262 3604 262 3030  C 262 2780 448 2748 525 2748  C 589 2748 781 2787 781 3010  C 781 3207 614 3264 525 3264  C 486 3264 448 3258 422 3245  C 544 3790 915 4058 1306 4058  C 1862 4058 2227 3617 2227 3035  C 2227 2479 1901 2000 1536 1584  L 262 146  L 262 0  L 2515 0  L 2669 989  z " transform="scale(0.015625)"/>
        <path id="CMR17-35" d="M 730 3692  C 794 3666 1056 3584 1325 3584  C 1920 3584 2246 3911 2432 4100  C 2432 4157 2432 4192 2394 4192  C 2387 4192 2374 4192 2323 4163  C 2099 4058 1837 3973 1517 3973  C 1325 3973 1037 3999 723 4139  C 653 4171 640 4171 634 4171  C 602 4171 595 4164 595 4037  L 595 2203  C 595 2089 595 2057 659 2057  C 691 2057 704 2070 736 2114  C 941 2401 1222 2522 1542 2522  C 1766 2522 2246 2382 2246 1289  C 2246 1085 2246 715 2054 421  C 1894 159 1645 25 1370 25  C 947 25 518 320 403 814  C 429 807 480 795 506 795  C 589 795 749 840 749 1038  C 749 1210 627 1280 506 1280  C 358 1280 262 1190 262 1011  C 262 454 704 -128 1382 -128  C 2042 -128 2669 440 2669 1264  C 2669 2030 2170 2624 1549 2624  C 1222 2624 947 2503 730 2274  L 730 3692  z " transform="scale(0.015625)"/>
       </defs>
       <use xlink:href="#CMR17-30" transform="scale(0.996264)"/>
       <use xlink:href="#CMMI12-3a" transform="translate(45.690477 0) scale(0.996264)"/>
       <use xlink:href="#CMR17-32" transform="translate(72.787654 0) scale(0.996264)"/>
       <use xlink:href="#CMR17-35" transform="translate(118.478131 0) scale(0.996264)"/>
      </g>
     </g>
    </g>
    <g id="xtick_3">
     <g id="line2d_3">
      <g>
       <use xlink:href="#ma317fd8696" x="183.6" y="256.32" style="stroke: #000000; stroke-width: 0.8"/>
      </g>
     </g>
     <g id="text_3">
      <!-- $\mathdefault{0.50}$ -->
      <g transform="translate(173.194684 271.62218) scale(0.12 -0.12)">
       <use xlink:href="#CMR17-30" transform="scale(0.996264)"/>
       <use xlink:href="#CMMI12-3a" transform="translate(45.690477 0) scale(0.996264)"/>
       <use xlink:href="#CMR17-35" transform="translate(72.787654 0) scale(0.996264)"/>
       <use xlink:href="#CMR17-30" transform="translate(118.478131 0) scale(0.996264)"/>
      </g>
     </g>
    </g>
    <g id="xtick_4">
     <g id="line2d_4">
      <g>
       <use xlink:href="#ma317fd8696" x="239.4" y="256.32" style="stroke: #000000; stroke-width: 0.8"/>
      </g>
     </g>
     <g id="text_4">
      <!-- $\mathdefault{0.75}$ -->
      <g transform="translate(228.994684 271.62218) scale(0.12 -0.12)">
       <defs>
        <path id="CMR17-37" d="M 2886 3941  L 2886 4081  L 1382 4081  C 634 4081 621 4165 595 4288  L 480 4288  L 294 3094  L 410 3094  C 429 3215 474 3540 550 3661  C 589 3712 1062 3712 1171 3712  L 2579 3712  L 1869 2661  C 1395 1954 1069 999 1069 165  C 1069 89 1069 -128 1299 -128  C 1530 -128 1530 89 1530 171  L 1530 465  C 1530 1508 1709 2196 2003 2636  L 2886 3941  z " transform="scale(0.015625)"/>
       </defs>
       <use xlink:href="#CMR17-30" transform="scale(0.996264)"/>
       <use xlink:href="#CMMI12-3a" transform="translate(45.690477 0) scale(0.996264)"/>
       <use xlink:href="#CMR17-37" transform="translate(72.787654 0) scale(0.996264)"/>
       <use xlink:href="#CMR17-35" transform="translate(118.478131 0) scale(0.996264)"/>
      </g>
     </g>
    </g>
    <g id="xtick_5">
     <g id="line2d_5">
      <g>
       <use xlink:href="#ma317fd8696" x="295.2" y="256.32" style="stroke: #000000; stroke-width: 0.8"/>
      </g>
     </g>
     <g id="text_5">
      <!-- $\mathdefault{1.00}$ -->
      <g transform="translate(284.794684 271.62218) scale(0.12 -0.12)">
       <defs>
        <path id="CMR17-31" d="M 1702 4058  C 1702 4192 1696 4192 1606 4192  C 1357 3916 979 3827 621 3827  C 602 3827 570 3827 563 3808  C 557 3795 557 3782 557 3648  C 755 3648 1088 3686 1344 3839  L 1344 461  C 1344 236 1331 160 781 160  L 589 160  L 589 0  C 896 0 1216 0 1523 0  C 1830 0 2150 0 2458 0  L 2458 160  L 2266 160  C 1715 160 1702 230 1702 458  L 1702 4058  z " transform="scale(0.015625)"/>
       </defs>
       <use xlink:href="#CMR17-31" transform="scale(0.996264)"/>
       <use xlink:href="#CMMI12-3a" transform="translate(45.690477 0) scale(0.996264)"/>
       <use xlink:href="#CMR17-30" transform="translate(72.787654 0) scale(0.996264)"/>
       <use xlink:href="#CMR17-30" transform="translate(118.478131 0) scale(0.996264)"/>
      </g>
     </g>
    </g>
    <g id="xtick_6">
     <g id="line2d_6">
      <g>
       <use xlink:href="#ma317fd8696" x="351" y="256.32" style="stroke: #000000; stroke-width: 0.8"/>
      </g>
     </g>
     <g id="text_6">
      <!-- $\mathdefault{1.25}$ -->
      <g transform="translate(340.594684 271.62218) scale(0.12 -0.12)">
       <use xlink:href="#CMR17-31" transform="scale(0.996264)"/>
       <use xlink:href="#CMMI12-3a" transform="translate(45.690477 0) scale(0.996264)"/>
       <use xlink:href="#CMR17-32" transform="translate(72.787654 0) scale(0.996264)"/>
       <use xlink:href="#CMR17-35" transform="translate(118.478131 0) scale(0.996264)"/>
      </g>
     </g>
    </g>
    <g id="xtick_7">
     <g id="line2d_7">
      <g>
       <use xlink:href="#ma317fd8696" x="406.8" y="256.32" style="stroke: #000000; stroke-width: 0.8"/>
      </g>
     </g>
     <g id="text_7">
      <!-- $\mathdefault{1.50}$ -->
      <g transform="translate(396.394684 271.62218) scale(0.12 -0.12)">
       <use xlink:href="#CMR17-31" transform="scale(0.996264)"/>
       <use xlink:href="#CMMI12-3a" transform="translate(45.690477 0) scale(0.996264)"/>
       <use xlink:href="#CMR17-35" transform="translate(72.787654 0) scale(0.996264)"/>
       <use xlink:href="#CMR17-30" transform="translate(118.478131 0) scale(0.996264)"/>
      </g>
     </g>
    </g>
    <g id="xtick_8">
     <g id="line2d_8">
      <g>
       <use xlink:href="#ma317fd8696" x="462.6" y="256.32" style="stroke: #000000; stroke-width: 0.8"/>
      </g>
     </g>
     <g id="text_8">
      <!-- $\mathdefault{1.75}$ -->
      <g transform="translate(452.194684 271.62218) scale(0.12 -0.12)">
       <use xlink:href="#CMR17-31" transform="scale(0.996264)"/>
       <use xlink:href="#CMMI12-3a" transform="translate(45.690477 0) scale(0.996264)"/>
       <use xlink:href="#CMR17-37" transform="translate(72.787654 0) scale(0.996264)"/>
       <use xlink:href="#CMR17-35" transform="translate(118.478131 0) scale(0.996264)"/>
      </g>
     </g>
    </g>
    <g id="xtick_9">
     <g id="line2d_9">
      <g>
       <use xlink:href="#ma317fd8696" x="518.4" y="256.32" style="stroke: #000000; stroke-width: 0.8"/>
      </g>
     </g>
     <g id="text_9">
      <!-- $\mathdefault{2.00}$ -->
      <g transform="translate(507.994684 271.62218) scale(0.12 -0.12)">
       <use xlink:href="#CMR17-32" transform="scale(0.996264)"/>
       <use xlink:href="#CMMI12-3a" transform="translate(45.690477 0) scale(0.996264)"/>
       <use xlink:href="#CMR17-30" transform="translate(72.787654 0) scale(0.996264)"/>
       <use xlink:href="#CMR17-30" transform="translate(118.478131 0) scale(0.996264)"/>
      </g>
     </g>
    </g>
    <g id="text_10">
     <!-- Time -->
     <g transform="translate(282.601568 286.248955) scale(0.12 -0.12)">
      <defs>
       <path id="CMSS17-54" d="M 2317 3968  L 2848 3968  C 2925 3968 3002 3968 3078 3968  L 3878 3968  L 3878 4376  L 218 4376  L 218 3968  L 1018 3968  C 1094 3968 1171 3968 1248 3968  L 1779 3968  L 1779 -32  L 2317 -32  L 2317 3968  z " transform="scale(0.015625)"/>
       <path id="CMSS17-69" d="M 979 4183  L 442 4183  L 442 3648  L 979 3648  L 979 4183  z M 947 2739  L 474 2739  L 474 0  L 947 0  L 947 2739  z " transform="scale(0.015625)"/>
       <path id="CMSS17-6d" d="M 4288 1877  C 4288 2308 4179 2816 3462 2816  C 2982 2816 2694 2516 2566 2331  C 2451 2670 2182 2816 1798 2816  C 1363 2816 1088 2568 941 2389  L 941 2758  L 474 2758  L 474 0  L 960 0  L 960 1559  C 960 1939 1101 2428 1555 2428  C 2138 2428 2138 2016 2138 1829  L 2138 0  L 2624 0  L 2624 1559  C 2624 1939 2765 2428 3219 2428  C 3802 2428 3802 2016 3802 1829  L 3802 0  L 4288 0  L 4288 1877  z " transform="scale(0.015625)"/>
       <path id="CMSS17-65" d="M 2502 1377  C 2502 1590 2490 2003 2285 2345  C 2061 2713 1696 2816 1421 2816  C 755 2816 192 2188 192 1375  C 192 582 774 -64 1510 -64  C 1798 -64 2150 19 2470 248  C 2470 274 2458 414 2451 420  C 2451 433 2432 630 2432 656  C 2125 407 1773 325 1517 325  C 1107 325 666 667 646 1377  L 2502 1377  z M 698 1728  C 781 2084 1062 2421 1421 2421  C 1517 2421 1965 2421 2080 1728  L 698 1728  z " transform="scale(0.015625)"/>
      </defs>
      <use xlink:href="#CMSS17-54" transform="scale(0.996264)"/>
      <use xlink:href="#CMSS17-69" transform="translate(63.819454 0) scale(0.996264)"/>
      <use xlink:href="#CMSS17-6d" transform="translate(86.000177 0) scale(0.996264)"/>
      <use xlink:href="#CMSS17-65" transform="translate(160.229431 0) scale(0.996264)"/>
     </g>
    </g>
   </g>
   <g id="matplotlib.axis_2">
    <g id="ytick_1">
     <g id="line2d_10">
      <defs>
       <path id="m337cdd4b66" d="M 0 0  L -3.5 0  " style="stroke: #000000; stroke-width: 0.8"/>
      </defs>
      <g>
       <use xlink:href="#m337cdd4b66" x="72" y="240.164502" style="stroke: #000000; stroke-width: 0.8"/>
      </g>
     </g>
     <g id="text_11">
      <!-- $\mathdefault{−2.0}$ -->
      <g transform="translate(40.743869 244.315592) scale(0.12 -0.12)">
       <defs>
        <path id="CMSY10-0" d="M 4218 1472  C 4326 1472 4442 1472 4442 1600  C 4442 1728 4326 1728 4218 1728  L 755 1728  C 646 1728 531 1728 531 1600  C 531 1472 646 1472 755 1472  L 4218 1472  z " transform="scale(0.015625)"/>
       </defs>
       <use xlink:href="#CMSY10-0" transform="scale(0.996264)"/>
       <use xlink:href="#CMR17-32" transform="translate(77.487468 0) scale(0.996264)"/>
       <use xlink:href="#CMMI12-3a" transform="translate(123.177945 0) scale(0.996264)"/>
       <use xlink:href="#CMR17-30" transform="translate(150.275122 0) scale(0.996264)"/>
      </g>
     </g>
    </g>
    <g id="ytick_2">
     <g id="line2d_11">
      <g>
       <use xlink:href="#m337cdd4b66" x="72" y="209.601279" style="stroke: #000000; stroke-width: 0.8"/>
      </g>
     </g>
     <g id="text_12">
      <!-- $\mathdefault{−1.5}$ -->
      <g transform="translate(40.743869 213.752368) scale(0.12 -0.12)">
       <use xlink:href="#CMSY10-0" transform="scale(0.996264)"/>
       <use xlink:href="#CMR17-31" transform="translate(77.487468 0) scale(0.996264)"/>
       <use xlink:href="#CMMI12-3a" transform="translate(123.177945 0) scale(0.996264)"/>
       <use xlink:href="#CMR17-35" transform="translate(150.275122 0) scale(0.996264)"/>
      </g>
     </g>
    </g>
    <g id="ytick_3">
     <g id="line2d_12">
      <g>
       <use xlink:href="#m337cdd4b66" x="72" y="179.038055" style="stroke: #000000; stroke-width: 0.8"/>
      </g>
     </g>
     <g id="text_13">
      <!-- $\mathdefault{−1.0}$ -->
      <g transform="translate(40.743869 183.189145) scale(0.12 -0.12)">
       <use xlink:href="#CMSY10-0" transform="scale(0.996264)"/>
       <use xlink:href="#CMR17-31" transform="translate(77.487468 0) scale(0.996264)"/>
       <use xlink:href="#CMMI12-3a" transform="translate(123.177945 0) scale(0.996264)"/>
       <use xlink:href="#CMR17-30" transform="translate(150.275122 0) scale(0.996264)"/>
      </g>
     </g>
    </g>
    <g id="ytick_4">
     <g id="line2d_13">
      <g>
       <use xlink:href="#m337cdd4b66" x="72" y="148.474832" style="stroke: #000000; stroke-width: 0.8"/>
      </g>
     </g>
     <g id="text_14">
      <!-- $\mathdefault{−0.5}$ -->
      <g transform="translate(40.743869 152.625922) scale(0.12 -0.12)">
       <use xlink:href="#CMSY10-0" transform="scale(0.996264)"/>
       <use xlink:href="#CMR17-30" transform="translate(77.487468 0) scale(0.996264)"/>
       <use xlink:href="#CMMI12-3a" transform="translate(123.177945 0) scale(0.996264)"/>
       <use xlink:href="#CMR17-35" transform="translate(150.275122 0) scale(0.996264)"/>
      </g>
     </g>
    </g>
    <g id="ytick_5">
     <g id="line2d_14">
      <g>
       <use xlink:href="#m337cdd4b66" x="72" y="117.911609" style="stroke: #000000; stroke-width: 0.8"/>
      </g>
     </g>
     <g id="text_15">
      <!-- $\mathdefault{0.0}$ -->
      <g transform="translate(50.042358 122.062699) scale(0.12 -0.12)">
       <use xlink:href="#CMR17-30" transform="scale(0.996264)"/>
       <use xlink:href="#CMMI12-3a" transform="translate(45.690477 0) scale(0.996264)"/>
       <use xlink:href="#CMR17-30" transform="translate(72.787654 0) scale(0.996264)"/>
      </g>
     </g>
    </g>
    <g id="ytick_6">
     <g id="line2d_15">
      <g>
       <use xlink:href="#m337cdd4b66" x="72" y="87.348385" style="stroke: #000000; stroke-width: 0.8"/>
      </g>
     </g>
     <g id="text_16">
      <!-- $\mathdefault{0.5}$ -->
      <g transform="translate(50.042358 91.499475) scale(0.12 -0.12)">
       <use xlink:href="#CMR17-30" transform="scale(0.996264)"/>
       <use xlink:href="#CMMI12-3a" transform="translate(45.690477 0) scale(0.996264)"/>
       <use xlink:href="#CMR17-35" transform="translate(72.787654 0) scale(0.996264)"/>
      </g>
     </g>
    </g>
    <g id="ytick_7">
     <g id="line2d_16">
      <g>
       <use xlink:href="#m337cdd4b66" x="72" y="56.785162" style="stroke: #000000; stroke-width: 0.8"/>
      </g>
     </g>
     <g id="text_17">
      <!-- $\mathdefault{1.0}$ -->
      <g transform="translate(50.042358 60.936252) scale(0.12 -0.12)">
       <use xlink:href="#CMR17-31" transform="scale(0.996264)"/>
       <use xlink:href="#CMMI12-3a" transform="translate(45.690477 0) scale(0.996264)"/>
       <use xlink:href="#CMR17-30" transform="translate(72.787654 0) scale(0.996264)"/>
      </g>
     </g>
    </g>
    <g id="text_18">
     <!-- $y(t)$ -->
     <g transform="translate(33.755077 155.174226) rotate(-90) scale(0.12 -0.12)">
      <defs>
       <path id="CMMI12-79" d="M 1683 -700  C 1510 -939 1261 -1152 947 -1152  C 870 -1152 563 -1152 467 -889  C 486 -895 518 -895 531 -895  C 723 -895 851 -729 851 -582  C 851 -435 730 -384 634 -384  C 531 -384 307 -458 307 -759  C 307 -1071 582 -1286 947 -1286  C 1587 -1286 2234 -700 2413 6  L 3040 2485  C 3046 2517 3059 2556 3059 2594  C 3059 2689 2982 2753 2886 2753  C 2829 2753 2694 2727 2643 2535  L 2170 658  C 2138 543 2138 530 2086 460  C 1958 281 1747 64 1440 64  C 1082 64 1050 415 1050 588  C 1050 952 1222 1443 1395 1903  C 1466 2088 1504 2178 1504 2305  C 1504 2574 1312 2816 998 2816  C 410 2816 173 1890 173 1839  C 173 1814 198 1782 243 1782  C 301 1782 307 1807 333 1897  C 486 2433 730 2689 979 2689  C 1037 2689 1146 2689 1146 2478  C 1146 2312 1075 2127 979 1884  C 666 1047 666 837 666 683  C 666 77 1101 -64 1421 -64  C 1606 -64 1837 -6 2061 230  L 2067 224  C 1971 -147 1907 -392 1683 -700  z " transform="scale(0.015625)"/>
       <path id="CMR17-28" d="M 1958 -1561  C 1958 -1555 1958 -1542 1939 -1523  C 1645 -1224 858 -407 858 1581  C 858 3569 1632 4379 1946 4697  C 1946 4704 1958 4717 1958 4736  C 1958 4755 1939 4768 1914 4768  C 1843 4768 1299 4296 986 3594  C 666 2887 576 2199 576 1588  C 576 1128 621 351 1005 -471  C 1312 -1135 1837 -1600 1914 -1600  C 1946 -1600 1958 -1587 1958 -1561  z " transform="scale(0.015625)"/>
       <path id="CMMI12-74" d="M 1286 2566  L 1875 2566  C 1997 2566 2061 2566 2061 2681  C 2061 2752 2022 2752 1894 2752  L 1331 2752  L 1568 3692  C 1594 3781 1594 3794 1594 3840  C 1594 3943 1510 4000 1427 4000  C 1376 4000 1229 3981 1178 3775  L 928 2752  L 326 2752  C 198 2752 141 2752 141 2630  C 141 2566 186 2566 307 2566  L 877 2566  L 454 881  C 403 658 384 594 384 511  C 384 211 595 -64 954 -64  C 1600 -64 1946 868 1946 912  C 1946 951 1920 970 1882 970  C 1869 970 1843 970 1830 944  C 1824 938 1818 931 1773 829  C 1638 511 1344 64 973 64  C 781 64 768 224 768 364  C 768 370 768 492 787 568  L 1286 2566  z " transform="scale(0.015625)"/>
       <path id="CMR17-29" d="M 1683 1581  C 1683 2040 1638 2817 1254 3639  C 947 4303 422 4768 346 4768  C 326 4768 301 4761 301 4729  C 301 4717 307 4710 314 4697  C 621 4378 1402 3568 1402 1584  C 1402 -407 627 -1217 314 -1537  C 307 -1549 301 -1556 301 -1568  C 301 -1600 326 -1600 346 -1600  C 416 -1600 960 -1128 1274 -426  C 1594 281 1683 969 1683 1581  z " transform="scale(0.015625)"/>
      </defs>
      <use xlink:href="#CMMI12-79" transform="scale(0.996264)"/>
      <use xlink:href="#CMR17-28" transform="translate(51.138781 0) scale(0.996264)"/>
      <use xlink:href="#CMMI12-74" transform="translate(86.419549 0) scale(0.996264)"/>
      <use xlink:href="#CMR17-29" transform="translate(121.645879 0) scale(0.996264)"/>
     </g>
    </g>
   </g>
   <g id="line2d_17">
    <path d="M 72 56.785162  L 78.729648 55.975319  L 85.459296 55.390624  L 92.188945 55.033204  L 98.918593 54.904358  L 105.648241 55.004554  L 112.377889 55.333428  L 119.107538 55.889784  L 125.837186 56.671599  L 132.566834 57.676033  L 139.296482 58.899433  L 146.026131 60.337353  L 152.755779 61.984565  L 159.485427 63.835081  L 166.215075 65.882174  L 172.944724 68.118403  L 181.917588 71.380108  L 190.890452 74.942453  L 199.863317 78.782422  L 208.836181 82.875204  L 217.809045 87.194357  L 229.025126 92.868993  L 240.241206 98.796365  L 253.700503 106.158453  L 273.889447 117.487585  L 298.564824 131.31571  L 312.024121 138.625335  L 323.240201 144.491206  L 334.456281 150.088829  L 343.429146 154.335721  L 352.40201 158.347276  L 361.374874 162.097576  L 370.347739 165.56239  L 377.077387 167.960111  L 383.807035 170.175897  L 390.536683 172.201694  L 397.266332 174.030136  L 403.99598 175.654579  L 410.725628 177.069115  L 417.455276 178.268605  L 424.184925 179.248686  L 430.914573 180.005796  L 437.644221 180.537184  L 444.373869 180.840917  L 451.103518 180.915891  L 457.833166 180.761834  L 464.562814 180.379306  L 471.292462 179.769697  L 478.022111 178.935223  L 484.751759 177.878918  L 491.481407 176.604622  L 498.211055 175.116967  L 504.940704 173.42136  L 511.670352 171.523966  L 518.4 169.431682  L 518.4 169.431682  " clip-path="url(#p5089bbfb4a)" style="fill: none; stroke: #1f77b4; stroke-width: 1.5; stroke-linecap: square"/>
   </g>
   <g id="line2d_18">
    <path d="M 72 56.785162  L 78.729648 55.941739  L 85.459296 55.320425  L 92.188945 54.923724  L 98.918593 54.753333  L 105.648241 54.810137  L 112.377889 55.094205  L 119.107538 55.604788  L 125.837186 56.340317  L 132.566834 57.298416  L 139.296482 58.475901  L 146.026131 59.868797  L 152.755779 61.472347  L 159.485427 63.281031  L 166.215075 65.288582  L 172.944724 67.488012  L 179.674372 69.871631  L 188.647236 73.321762  L 197.620101 77.06282  L 206.592965 81.071326  L 215.565829 85.322051  L 224.538693 89.788175  L 235.754774 95.630591  L 249.21407 102.945766  L 264.916583 111.767128  L 309.780905 137.172778  L 323.240201 144.416341  L 334.456281 150.178745  L 343.429146 154.567344  L 352.40201 158.728349  L 361.374874 162.634762  L 370.347739 166.261172  L 379.320603 169.58392  L 386.050251 171.86354  L 392.779899 173.951644  L 399.509548 175.840484  L 406.239196 177.523019  L 412.968844 178.992945  L 419.698492 180.244713  L 426.428141 181.273555  L 433.157789 182.075499  L 439.887437 182.647384  L 446.617085 182.986876  L 453.346734 183.092474  L 460.076382 182.963515  L 466.80603 182.600184  L 473.535678 182.003507  L 480.265327 181.175352  L 486.994975 180.118423  L 493.724623 178.83625  L 500.454271 177.333181  L 507.18392 175.614361  L 513.913568 173.685719  L 518.4 172.286666  L 518.4 172.286666  " clip-path="url(#p5089bbfb4a)" style="fill: none; stroke-dasharray: 5.55,2.4; stroke-dashoffset: 0; stroke: #ff7f0e; stroke-width: 1.5"/>
   </g>
   <g id="line2d_19">
    <path d="M 72 87.348385  L 85.459296 102.27874  L 130.323618 152.450086  L 141.539698 164.435189  L 150.512563 173.690867  L 159.485427 182.586155  L 166.215075 188.986444  L 172.944724 195.128364  L 179.674372 200.989588  L 186.40402 206.54881  L 193.133668 211.78582  L 199.863317 216.681581  L 206.592965 221.218296  L 213.322613 225.379475  L 217.809045 227.937434  L 222.295477 230.317602  L 226.78191 232.516133  L 231.268342 234.529474  L 235.754774 236.354372  L 240.241206 237.987878  L 244.727638 239.427352  L 249.21407 240.670468  L 253.700503 241.715219  L 258.186935 242.559914  L 262.673367 243.20319  L 267.159799 243.644007  L 271.646231 243.881652  L 276.132663 243.915742  L 280.619095 243.746222  L 285.105528 243.373365  L 289.59196 242.797774  L 294.078392 242.020379  L 298.564824 241.042436  L 303.051256 239.865526  L 307.537688 238.49155  L 312.024121 236.922729  L 316.510553 235.161597  L 320.996985 233.211  L 325.483417 231.074091  L 329.969849 228.754322  L 334.456281 226.255443  L 338.942714 223.58149  L 345.672362 219.251825  L 352.40201 214.553772  L 359.131658 209.504408  L 365.861307 204.122089  L 372.590955 198.42638  L 379.320603 192.437987  L 386.050251 186.178677  L 392.779899 179.671204  L 401.752764 170.64955  L 410.725628 161.287156  L 421.941709 149.197329  L 435.401005 134.283731  L 480.265327 84.090479  L 491.481407 72.081475  L 500.454271 62.801622  L 509.427136 53.877835  L 516.156784 47.453444  L 518.4 45.36777  L 518.4 45.36777  " clip-path="url(#p5089bbfb4a)" style="fill: none; stroke: #2ca02c; stroke-width: 1.5; stroke-linecap: square"/>
   </g>
   <g id="line2d_20">
    <path d="M 72 87.348385  L 85.459296 102.18248  L 107.891457 127.381476  L 125.837186 147.389309  L 137.053266 159.575829  L 146.026131 169.048387  L 154.998995 178.208802  L 163.971859 186.997942  L 170.701508 193.311852  L 177.431156 199.361865  L 184.160804 205.125881  L 190.890452 210.582803  L 197.620101 215.712615  L 204.349749 220.496455  L 211.079397 224.916683  L 217.809045 228.956948  L 222.295477 231.431901  L 226.78191 233.727184  L 231.268342 235.83898  L 235.754774 237.763763  L 240.241206 239.498303  L 244.727638 241.039673  L 249.21407 242.385253  L 253.700503 243.532731  L 258.186935 244.480113  L 262.673367 245.225723  L 267.159799 245.768207  L 271.646231 246.106535  L 276.132663 246.24  L 280.619095 246.168226  L 285.105528 245.891164  L 289.59196 245.409092  L 294.078392 244.722619  L 298.564824 243.832678  L 303.051256 242.740531  L 307.537688 241.447764  L 312.024121 239.956285  L 316.510553 238.268321  L 320.996985 236.386417  L 325.483417 234.313428  L 329.969849 232.052519  L 334.456281 229.607158  L 338.942714 226.981108  L 345.672362 222.7122  L 352.40201 218.060834  L 359.131658 213.0433  L 365.861307 207.677222  L 372.590955 201.981502  L 379.320603 195.976254  L 386.050251 189.682725  L 392.779899 183.123232  L 401.752764 174.003915  L 410.725628 164.510972  L 419.698492 154.704566  L 430.914573 142.100775  L 446.617085 124.03535  L 478.022111 87.749441  L 489.238191 75.167162  L 498.211055 65.385017  L 507.18392 55.923415  L 516.156784 46.84343  L 518.4 44.64  L 518.4 44.64  " clip-path="url(#p5089bbfb4a)" style="fill: none; stroke-dasharray: 5.55,2.4; stroke-dashoffset: 0; stroke: #d62728; stroke-width: 1.5"/>
   </g>
   <g id="patch_3">
    <path d="M 72 256.32  L 72 34.56  " style="fill: none; stroke: #000000; stroke-width: 0.8; stroke-linejoin: miter; stroke-linecap: square"/>
   </g>
   <g id="patch_4">
    <path d="M 518.4 256.32  L 518.4 34.56  " style="fill: none; stroke: #000000; stroke-width: 0.8; stroke-linejoin: miter; stroke-linecap: square"/>
   </g>
   <g id="patch_5">
    <path d="M 72 256.32  L 518.4 256.32  " style="fill: none; stroke: #000000; stroke-width: 0.8; stroke-linejoin: miter; stroke-linecap: square"/>
   </g>
   <g id="patch_6">
    <path d="M 72 34.56  L 518.4 34.56  " style="fill: none; stroke: #000000; stroke-width: 0.8; stroke-linejoin: miter; stroke-linecap: square"/>
   </g>
   <g id="legend_1">
    <g id="patch_7">
     <path d="M 246.709107 115.980672  L 343.690893 115.980672  Q 346.090893 115.980672 346.090893 113.580672  L 346.090893 42.96  Q 346.090893 40.56 343.690893 40.56  L 246.709107 40.56  Q 244.309107 40.56 244.309107 42.96  L 244.309107 113.580672  Q 244.309107 115.980672 246.709107 115.980672  z " style="fill: #ffffff; opacity: 0.8; stroke: #cccccc; stroke-linejoin: miter"/>
    </g>
    <g id="line2d_21">
     <path d="M 249.109107 50.126376  L 261.109107 50.126376  L 273.109107 50.126376  " style="fill: none; stroke: #1f77b4; stroke-width: 1.5; stroke-linecap: square"/>
    </g>
    <g id="text_19">
     <!-- $x(t)$ (exact) -->
     <g transform="translate(282.709107 54.326376) scale(0.12 -0.12)">
      <defs>
       <path id="CMMI12-78" d="M 3034 2606  C 2829 2567 2752 2414 2752 2293  C 2752 2139 2874 2088 2963 2088  C 3155 2088 3290 2254 3290 2427  C 3290 2695 2982 2816 2714 2816  C 2323 2816 2106 2433 2048 2312  C 1901 2816 1504 2816 1389 2816  C 736 2816 390 1980 390 1839  C 390 1814 416 1782 461 1782  C 512 1782 525 1820 538 1846  C 755 2555 1184 2689 1370 2689  C 1658 2689 1715 2420 1715 2267  C 1715 2127 1677 1980 1600 1673  L 1382 798  C 1286 415 1101 64 762 64  C 730 64 570 64 435 147  C 666 192 717 383 717 460  C 717 588 621 664 499 664  C 346 664 179 530 179 326  C 179 57 480 -64 755 -64  C 1062 -64 1280 179 1414 441  C 1517 64 1837 -64 2074 -64  C 2726 -64 3072 773 3072 913  C 3072 945 3046 971 3008 971  C 2950 971 2944 939 2925 888  C 2752 326 2381 64 2093 64  C 1869 64 1747 230 1747 492  C 1747 632 1773 734 1875 1156  L 2099 2024  C 2195 2408 2413 2689 2707 2689  C 2720 2689 2899 2689 3034 2606  z " transform="scale(0.015625)"/>
       <path id="CMSS17-28" d="M 1613 4768  C 1267 4417 474 3601 474 1588  C 474 -433 1267 -1243 1613 -1600  L 2003 -1600  C 1216 -784 960 357 960 1581  C 960 2798 1203 3946 2003 4768  L 1613 4768  z " transform="scale(0.015625)"/>
       <path id="CMSS17-78" d="M 1587 1414  L 2656 2739  L 2099 2739  L 1363 1777  L 602 2739  L 32 2739  L 1139 1414  L 0 0  L 563 0  L 1363 1121  L 2195 0  L 2758 0  L 1587 1414  z " transform="scale(0.015625)"/>
       <path id="CMSS17-61" d="M 2406 1791  C 2406 2392 1978 2808 1402 2808  C 1120 2808 813 2757 461 2553  L 499 2135  C 659 2248 934 2432 1395 2432  C 1722 2432 1920 2180 1920 1782  L 1920 1536  C 896 1536 256 1238 256 726  C 256 461 416 -64 947 -64  C 1043 -64 1562 -64 1933 217  L 1933 -19  L 2406 -19  L 2406 1791  z M 1920 816  C 1920 701 1920 548 1728 434  C 1562 325 1350 325 1261 325  C 941 325 723 511 723 744  C 723 1211 1722 1211 1920 1211  L 1920 816  z " transform="scale(0.015625)"/>
       <path id="CMSS17-63" d="M 2464 2541  C 2464 2585 2170 2714 2093 2739  C 1882 2816 1613 2816 1542 2816  C 710 2816 211 2093 211 1363  C 211 595 768 -64 1517 -64  C 1946 -64 2253 76 2502 242  L 2464 664  C 2189 453 1869 337 1523 337  C 1024 337 698 774 698 1369  C 698 1831 909 2414 1549 2414  C 1901 2414 2099 2343 2394 2145  L 2464 2541  z " transform="scale(0.015625)"/>
       <path id="CMSS17-74" d="M 1069 2368  L 1901 2368  L 1901 2737  L 1069 2737  L 1069 3520  L 614 3520  L 614 2737  L 109 2737  L 109 2368  L 602 2368  L 602 749  C 602 384 685 -64 1107 -64  C 1427 -64 1722 25 2003 172  L 1901 548  C 1747 414 1562 337 1363 337  C 1082 337 1069 696 1069 856  L 1069 2368  z " transform="scale(0.015625)"/>
       <path id="CMSS17-29" d="M 723 -1600  C 1069 -1249 1862 -433 1862 1581  C 1862 3601 1069 4411 723 4768  L 333 4768  C 1120 3952 1376 2811 1376 1588  C 1376 370 1133 -778 333 -1600  L 723 -1600  z " transform="scale(0.015625)"/>
      </defs>
      <use xlink:href="#CMMI12-78" transform="scale(0.996264)"/>
      <use xlink:href="#CMR17-28" transform="translate(55.43406 0) scale(0.996264)"/>
      <use xlink:href="#CMMI12-74" transform="translate(90.714827 0) scale(0.996264)"/>
      <use xlink:href="#CMR17-29" transform="translate(125.941158 0) scale(0.996264)"/>
      <use xlink:href="#CMSS17-28" transform="translate(192.451038 0) scale(0.996264)"/>
      <use xlink:href="#CMSS17-65" transform="translate(228.884952 0) scale(0.996264)"/>
      <use xlink:href="#CMSS17-78" transform="translate(270.523774 0) scale(0.996264)"/>
      <use xlink:href="#CMSS17-61" transform="translate(313.523916 0) scale(0.996264)"/>
      <use xlink:href="#CMSS17-63" transform="translate(358.445837 0) scale(0.996264)"/>
      <use xlink:href="#CMSS17-74" transform="translate(400.084659 0) scale(0.996264)"/>
      <use xlink:href="#CMSS17-29" transform="translate(433.916225 0) scale(0.996264)"/>
     </g>
    </g>
    <g id="line2d_22">
     <path d="M 249.109107 68.081544  L 261.109107 68.081544  L 273.109107 68.081544  " style="fill: none; stroke-dasharray: 5.55,2.4; stroke-dashoffset: 0; stroke: #ff7f0e; stroke-width: 1.5"/>
    </g>
    <g id="text_20">
     <!-- $x(t)$ (Euler) -->
     <g transform="translate(282.709107 72.281544) scale(0.12 -0.12)">
      <defs>
       <path id="CMSS17-45" d="M 1958 433  C 1446 433 1216 433 1101 433  L 1101 2107  L 3085 2107  L 3085 2496  L 1101 2496  L 1101 4009  L 1926 4009  C 2003 4009 2080 4009 2157 4009  L 3251 4009  L 3251 4416  L 563 4416  L 563 0  L 3334 0  L 3334 433  L 1958 433  z " transform="scale(0.015625)"/>
       <path id="CMSS17-75" d="M 2618 2739  L 2131 2739  L 2131 972  C 2131 498 1786 306 1421 306  C 998 306 960 447 960 709  L 960 2739  L 474 2739  L 474 678  C 474 179 646 -64 1088 -64  C 1306 -64 1798 -13 2144 306  L 2144 0  L 2618 0  L 2618 2739  z " transform="scale(0.015625)"/>
       <path id="CMSS17-6c" d="M 947 4416  L 474 4416  L 474 0  L 947 0  L 947 4416  z " transform="scale(0.015625)"/>
       <path id="CMSS17-72" d="M 954 1363  C 954 1965 1395 2368 1958 2368  L 1958 2789  C 1549 2789 1165 2585 934 2253  L 934 2758  L 480 2758  L 480 0  L 954 0  L 954 1363  z " transform="scale(0.015625)"/>
      </defs>
      <use xlink:href="#CMMI12-78" transform="scale(0.996264)"/>
      <use xlink:href="#CMR17-28" transform="translate(55.43406 0) scale(0.996264)"/>
      <use xlink:href="#CMMI12-74" transform="translate(90.714827 0) scale(0.996264)"/>
      <use xlink:href="#CMR17-29" transform="translate(125.941158 0) scale(0.996264)"/>
      <use xlink:href="#CMSS17-28" transform="translate(192.451038 0) scale(0.996264)"/>
      <use xlink:href="#CMSS17-45" transform="translate(228.884952 0) scale(0.996264)"/>
      <use xlink:href="#CMSS17-75" transform="translate(284.776966 0) scale(0.996264)"/>
      <use xlink:href="#CMSS17-6c" transform="translate(332.981909 0) scale(0.996264)"/>
      <use xlink:href="#CMSS17-65" transform="translate(355.162632 0) scale(0.996264)"/>
      <use xlink:href="#CMSS17-72" transform="translate(396.801454 0) scale(0.996264)"/>
      <use xlink:href="#CMSS17-29" transform="translate(428.711226 0) scale(0.996264)"/>
     </g>
    </g>
    <g id="line2d_23">
     <path d="M 249.109107 86.036712  L 261.109107 86.036712  L 273.109107 86.036712  " style="fill: none; stroke: #2ca02c; stroke-width: 1.5; stroke-linecap: square"/>
    </g>
    <g id="text_21">
     <!-- $v(t)$ (exact) -->
     <g transform="translate(282.709107 90.236712) scale(0.12 -0.12)">
      <defs>
       <path id="CMMI12-76" d="M 2925 2389  C 2925 2791 2720 2816 2669 2816  C 2515 2816 2374 2663 2374 2535  C 2374 2459 2419 2414 2445 2389  C 2509 2331 2675 2159 2675 1827  C 2675 1558 2291 64 1523 64  C 1133 64 1056 390 1056 626  C 1056 945 1203 1392 1376 1852  C 1478 2114 1504 2178 1504 2305  C 1504 2574 1312 2816 998 2816  C 410 2816 173 1890 173 1839  C 173 1814 198 1782 243 1782  C 301 1782 307 1807 333 1897  C 486 2446 736 2689 979 2689  C 1037 2689 1146 2689 1146 2478  C 1146 2312 1075 2127 979 1884  C 672 1067 672 869 672 715  C 672 575 691 313 890 134  C 1120 -64 1440 -64 1498 -64  C 2560 -64 2925 2024 2925 2389  z " transform="scale(0.015625)"/>
      </defs>
      <use xlink:href="#CMMI12-76" transform="scale(0.996264)"/>
      <use xlink:href="#CMR17-28" transform="translate(50.735173 0) scale(0.996264)"/>
      <use xlink:href="#CMMI12-74" transform="translate(86.015941 0) scale(0.996264)"/>
      <use xlink:href="#CMR17-29" transform="translate(121.242271 0) scale(0.996264)"/>
      <use xlink:href="#CMSS17-28" transform="translate(187.752152 0) scale(0.996264)"/>
      <use xlink:href="#CMSS17-65" transform="translate(224.186066 0) scale(0.996264)"/>
      <use xlink:href="#CMSS17-78" transform="translate(265.824888 0) scale(0.996264)"/>
      <use xlink:href="#CMSS17-61" transform="translate(308.82503 0) scale(0.996264)"/>
      <use xlink:href="#CMSS17-63" transform="translate(353.746951 0) scale(0.996264)"/>
      <use xlink:href="#CMSS17-74" transform="translate(395.385773 0) scale(0.996264)"/>
      <use xlink:href="#CMSS17-29" transform="translate(429.217339 0) scale(0.996264)"/>
     </g>
    </g>
    <g id="line2d_24">
     <path d="M 249.109107 103.99188  L 261.109107 103.99188  L 273.109107 103.99188  " style="fill: none; stroke-dasharray: 5.55,2.4; stroke-dashoffset: 0; stroke: #d62728; stroke-width: 1.5"/>
    </g>
    <g id="text_22">
     <!-- $v(t)$ (Euler) -->
     <g transform="translate(282.709107 108.19188) scale(0.12 -0.12)">
      <use xlink:href="#CMMI12-76" transform="scale(0.996264)"/>
      <use xlink:href="#CMR17-28" transform="translate(50.735173 0) scale(0.996264)"/>
      <use xlink:href="#CMMI12-74" transform="translate(86.015941 0) scale(0.996264)"/>
      <use xlink:href="#CMR17-29" transform="translate(121.242271 0) scale(0.996264)"/>
      <use xlink:href="#CMSS17-28" transform="translate(187.752152 0) scale(0.996264)"/>
      <use xlink:href="#CMSS17-45" transform="translate(224.186066 0) scale(0.996264)"/>
      <use xlink:href="#CMSS17-75" transform="translate(280.078079 0) scale(0.996264)"/>
      <use xlink:href="#CMSS17-6c" transform="translate(328.283023 0) scale(0.996264)"/>
      <use xlink:href="#CMSS17-65" transform="translate(350.463746 0) scale(0.996264)"/>
      <use xlink:href="#CMSS17-72" transform="translate(392.102568 0) scale(0.996264)"/>
      <use xlink:href="#CMSS17-29" transform="translate(424.01234 0) scale(0.996264)"/>
     </g>
    </g>
   </g>
  </g>
 </g>
 <defs>
  <clipPath id="p5089bbfb4a">
   <rect x="72" y="34.56" width="446.4" height="221.76"/>
  </clipPath>
 </defs>
</svg>