<svg xmlns:xlink="http://www.w3.org/1999/xlink" xmlns="http://www.w3.org/2000/svg" width="576pt" height="288pt" viewBox="0 0 576 288" version="1.1">
 <metadata>
  <rdf:RDF xmlns:dc="http://purl.org/dc/elements/1.1/" xmlns:cc="http://creativecommons.org/ns#" xmlns:rdf="http://www.w3.org/1999/02/22-rdf-syntax-ns#">
   <cc:Work>
    <dc:type rdf:resource="http://purl.org/dc/dcmitype/StillImage"/>
    <dc:date>2025-06-02T15:34:32.085495</dc:date>
    <dc:format>image/svg+xml</dc:format>
    <dc:creator>
     <cc:Agent>
      <dc:title>Matplotlib v3.10.3, https://matplotlib.org/</dc:title>
     </cc:Agent>
    </dc:creator>
   </cc:Work>
  </rdf:RDF>
 </metadata>
 <defs>
  <style type="text/css">*{stroke-linejoin: round; stroke-linecap: butt}</style>
 </defs>
 <g id="figure_1">
  <g id="patch_1">
   <path d="M 0 288  L 576 288  L 576 0  L 0 0  z " style="fill: #ffffff"/>
  </g>
  <g id="axes_1">
   <g id="patch_2">
    <path d="M 72 256.32  L 518.4 256.32  L 518.4 34.56  L 72 34.56  z " style="fill: #ffffff"/>
   </g>
   <g id="matplotlib.axis_1">
    <g id="xtick_1">
     <g id="line2d_1">
      <defs>
       <path id="m7b852c6fb9" d="M 0 0  L 0 3.5  " style="stroke: #000000; stroke-width: 0.8"/>
      </defs>
      <g>
       <use xlink:href="#m7b852c6fb9" x="72" y="256.32" style="stroke: #000000; stroke-width: 0.8"/>
      </g>
     </g>
     <g id="text_1">
      <!-- $\mathdefault{0.00}$ -->
      <g transform="translate(61.594684 271.62218) scale(0.12 -0.12)">
       <defs>
        <path id="CMR17-30" d="M 2688 2025  C 2688 2416 2682 3080 2413 3591  C 2176 4039 1798 4198 1466 4198  C 1158 4198 768 4058 525 3597  C 269 3118 243 2524 243 2025  C 243 1661 250 1106 448 619  C 723 -39 1216 -128 1466 -128  C 1760 -128 2208 -7 2470 600  C 2662 1042 2688 1559 2688 2025  z M 1466 -26  C 1056 -26 813 325 723 812  C 653 1188 653 1738 653 2096  C 653 2588 653 2997 736 3387  C 858 3929 1216 4096 1466 4096  C 1728 4096 2067 3923 2189 3400  C 2272 3036 2278 2607 2278 2096  C 2278 1680 2278 1169 2202 792  C 2067 95 1690 -26 1466 -26  z " transform="scale(0.015625)"/>
        <path id="CMMI12-3a" d="M 1178 307  C 1178 492 1024 619 870 619  C 685 619 557 466 557 313  C 557 128 710 0 864 0  C 1050 0 1178 153 1178 307  z " transform="scale(0.015625)"/>
       </defs>
       <use xlink:href="#CMR17-30" transform="scale(0.996264)"/>
       <use xlink:href="#CMMI12-3a" transform="translate(45.690477 0) scale(0.996264)"/>
       <use xlink:href="#CMR17-30" transform="translate(72.787654 0) scale(0.996264)"/>
       <use xlink:href="#CMR17-30" transform="translate(118.478131 0) scale(0.996264)"/>
      </g>
     </g>
    </g>
    <g id="xtick_2">
     <g id="line2d_2">
      <g>
       <use xlink:href="#m7b852c6fb9" x="127.8" y="256.32" style="stroke: #000000; stroke-width: 0.8"/>
      </g>
     </g>
     <g id="text_2">
      <!-- $\mathdefault{0.25}$ -->
      <g transform="translate(117.394684 271.62218) scale(0.12 -0.12)">
       <defs>
        <path id="CMR17-32" d="M 2669 989  L 2554 989  C 2490 536 2438 459 2413 420  C 2381 369 1920 369 1830 369  L 602 369  C 832 619 1280 1072 1824 1597  C 2214 1967 2669 2402 2669 3035  C 2669 3790 2067 4224 1395 4224  C 691 4224 262 3604 262 3030  C 262 2780 448 2748 525 2748  C 589 2748 781 2787 781 3010  C 781 3207 614 3264 525 3264  C 486 3264 448 3258 422 3245  C 544 3790 915 4058 1306 4058  C 1862 4058 2227 3617 2227 3035  C 2227 2479 1901 2000 1536 1584  L 262 146  L 262 0  L 2515 0  L 2669 989  z " transform="scale(0.015625)"/>
        <path id="CMR17-35" d="M 730 3692  C 794 3666 1056 3584 1325 3584  C 1920 3584 2246 3911 2432 4100  C 2432 4157 2432 4192 2394 4192  C 2387 4192 2374 4192 2323 4163  C 2099 4058 1837 3973 1517 3973  C 1325 3973 1037 3999 723 4139  C 653 4171 640 4171 634 4171  C 602 4171 595 4164 595 4037  L 595 2203  C 595 2089 595 2057 659 2057  C 691 2057 704 2070 736 2114  C 941 2401 1222 2522 1542 2522  C 1766 2522 2246 2382 2246 1289  C 2246 1085 2246 715 2054 421  C 1894 159 1645 25 1370 25  C 947 25 518 320 403 814  C 429 807 480 795 506 795  C 589 795 749 840 749 1038  C 749 1210 627 1280 506 1280  C 358 1280 262 1190 262 1011  C 262 454 704 -128 1382 -128  C 2042 -128 2669 440 2669 1264  C 2669 2030 2170 2624 1549 2624  C 1222 2624 947 2503 730 2274  L 730 3692  z " transform="scale(0.015625)"/>
       </defs>
       <use xlink:href="#CMR17-30" transform="scale(0.996264)"/>
       <use xlink:href="#CMMI12-3a" transform="translate(45.690477 0) scale(0.996264)"/>
       <use xlink:href="#CMR17-32" transform="translate(72.787654 0) scale(0.996264)"/>
       <use xlink:href="#CMR17-35" transform="translate(118.478131 0) scale(0.996264)"/>
      </g>
     </g>
    </g>
    <g id="xtick_3">
     <g id="line2d_3">
      <g>
       <use xlink:href="#m7b852c6fb9" x="183.6" y="256.32" style="stroke: #000000; stroke-width: 0.8"/>
      </g>
     </g>
     <g id="text_3">
      <!-- $\mathdefault{0.50}$ -->
      <g transform="translate(173.194684 271.62218) scale(0.12 -0.12)">
       <use xlink:href="#CMR17-30" transform="scale(0.996264)"/>
       <use xlink:href="#CMMI12-3a" transform="translate(45.690477 0) scale(0.996264)"/>
       <use xlink:href="#CMR17-35" transform="translate(72.787654 0) scale(0.996264)"/>
       <use xlink:href="#CMR17-30" transform="translate(118.478131 0) scale(0.996264)"/>
      </g>
     </g>
    </g>
    <g id="xtick_4">
     <g id="line2d_4">
      <g>
       <use xlink:href="#m7b852c6fb9" x="239.4" y="256.32" style="stroke: #000000; stroke-width: 0.8"/>
      </g>
     </g>
     <g id="text_4">
      <!-- $\mathdefault{0.75}$ -->
      <g transform="translate(228.994684 271.62218) scale(0.12 -0.12)">
       <defs>
        <path id="CMR17-37" d="M 2886 3941  L 2886 4081  L 1382 4081  C 634 4081 621 4165 595 4288  L 480 4288  L 294 3094  L 410 3094  C 429 3215 474 3540 550 3661  C 589 3712 1062 3712 1171 3712  L 2579 3712  L 1869 2661  C 1395 1954 1069 999 1069 165  C 1069 89 1069 -128 1299 -128  C 1530 -128 1530 89 1530 171  L 1530 465  C 1530 1508 1709 2196 2003 2636  L 2886 3941  z " transform="scale(0.015625)"/>
       </defs>
       <use xlink:href="#CMR17-30" transform="scale(0.996264)"/>
       <use xlink:href="#CMMI12-3a" transform="translate(45.690477 0) scale(0.996264)"/>
       <use xlink:href="#CMR17-37" transform="translate(72.787654 0) scale(0.996264)"/>
       <use xlink:href="#CMR17-35" transform="translate(118.478131 0) scale(0.996264)"/>
      </g>
     </g>
    </g>
    <g id="xtick_5">
     <g id="line2d_5">
      <g>
       <use xlink:href="#m7b852c6fb9" x="295.2" y="256.32" style="stroke: #000000; stroke-width: 0.8"/>
      </g>
     </g>
     <g id="text_5">
      <!-- $\mathdefault{1.00}$ -->
      <g transform="translate(284.794684 271.62218) scale(0.12 -0.12)">
       <defs>
        <path id="CMR17-31" d="M 1702 4058  C 1702 4192 1696 4192 1606 4192  C 1357 3916 979 3827 621 3827  C 602 3827 570 3827 563 3808  C 557 3795 557 3782 557 3648  C 755 3648 1088 3686 1344 3839  L 1344 461  C 1344 236 1331 160 781 160  L 589 160  L 589 0  C 896 0 1216 0 1523 0  C 1830 0 2150 0 2458 0  L 2458 160  L 2266 160  C 1715 160 1702 230 1702 458  L 1702 4058  z " transform="scale(0.015625)"/>
       </defs>
       <use xlink:href="#CMR17-31" transform="scale(0.996264)"/>
       <use xlink:href="#CMMI12-3a" transform="translate(45.690477 0) scale(0.996264)"/>
       <use xlink:href="#CMR17-30" transform="translate(72.787654 0) scale(0.996264)"/>
       <use xlink:href="#CMR17-30" transform="translate(118.478131 0) scale(0.996264)"/>
      </g>
     </g>
    </g>
    <g id="xtick_6">
     <g id="line2d_6">
      <g>
       <use xlink:href="#m7b852c6fb9" x="351" y="256.32" style="stroke: #000000; stroke-width: 0.8"/>
      </g>
     </g>
     <g id="text_6">
      <!-- $\mathdefault{1.25}$ -->
      <g transform="translate(340.594684 271.62218) scale(0.12 -0.12)">
       <use xlink:href="#CMR17-31" transform="scale(0.996264)"/>
       <use xlink:href="#CMMI12-3a" transform="translate(45.690477 0) scale(0.996264)"/>
       <use xlink:href="#CMR17-32" transform="translate(72.787654 0) scale(0.996264)"/>
       <use xlink:href="#CMR17-35" transform="translate(118.478131 0) scale(0.996264)"/>
      </g>
     </g>
    </g>
    <g id="xtick_7">
     <g id="line2d_7">
      <g>
       <use xlink:href="#m7b852c6fb9" x="406.8" y="256.32" style="stroke: #000000; stroke-width: 0.8"/>
      </g>
     </g>
     <g id="text_7">
      <!-- $\mathdefault{1.50}$ -->
      <g transform="translate(396.394684 271.62218) scale(0.12 -0.12)">
       <use xlink:href="#CMR17-31" transform="scale(0.996264)"/>
       <use xlink:href="#CMMI12-3a" transform="translate(45.690477 0) scale(0.996264)"/>
       <use xlink:href="#CMR17-35" transform="translate(72.787654 0) scale(0.996264)"/>
       <use xlink:href="#CMR17-30" transform="translate(118.478131 0) scale(0.996264)"/>
      </g>
     </g>
    </g>
    <g id="xtick_8">
     <g id="line2d_8">
      <g>
       <use xlink:href="#m7b852c6fb9" x="462.6" y="256.32" style="stroke: #000000; stroke-width: 0.8"/>
      </g>
     </g>
     <g id="text_8">
      <!-- $\mathdefault{1.75}$ -->
      <g transform="translate(452.194684 271.62218) scale(0.12 -0.12)">
       <use xlink:href="#CMR17-31" transform="scale(0.996264)"/>
       <use xlink:href="#CMMI12-3a" transform="translate(45.690477 0) scale(0.996264)"/>
       <use xlink:href="#CMR17-37" transform="translate(72.787654 0) scale(0.996264)"/>
       <use xlink:href="#CMR17-35" transform="translate(118.478131 0) scale(0.996264)"/>
      </g>
     </g>
    </g>
    <g id="xtick_9">
     <g id="line2d_9">
      <g>
       <use xlink:href="#m7b852c6fb9" x="518.4" y="256.32" style="stroke: #000000; stroke-width: 0.8"/>
      </g>
     </g>
     <g id="text_9">
      <!-- $\mathdefault{2.00}$ -->
      <g transform="translate(507.994684 271.62218) scale(0.12 -0.12)">
       <use xlink:href="#CMR17-32" transform="scale(0.996264)"/>
       <use xlink:href="#CMMI12-3a" transform="translate(45.690477 0) scale(0.996264)"/>
       <use xlink:href="#CMR17-30" transform="translate(72.787654 0) scale(0.996264)"/>
       <use xlink:href="#CMR17-30" transform="translate(118.478131 0) scale(0.996264)"/>
      </g>
     </g>
    </g>
    <g id="text_10">
     <!-- Time -->
     <g transform="translate(282.601568 286.248955) scale(0.12 -0.12)">
      <defs>
       <path id="CMSS17-54" d="M 2317 3968  L 2848 3968  C 2925 3968 3002 3968 3078 3968  L 3878 3968  L 3878 4376  L 218 4376  L 218 3968  L 1018 3968  C 1094 3968 1171 3968 1248 3968  L 1779 3968  L 1779 -32  L 2317 -32  L 2317 3968  z " transform="scale(0.015625)"/>
       <path id="CMSS17-69" d="M 979 4183  L 442 4183  L 442 3648  L 979 3648  L 979 4183  z M 947 2739  L 474 2739  L 474 0  L 947 0  L 947 2739  z " transform="scale(0.015625)"/>
       <path id="CMSS17-6d" d="M 4288 1877  C 4288 2308 4179 2816 3462 2816  C 2982 2816 2694 2516 2566 2331  C 2451 2670 2182 2816 1798 2816  C 1363 2816 1088 2568 941 2389  L 941 2758  L 474 2758  L 474 0  L 960 0  L 960 1559  C 960 1939 1101 2428 1555 2428  C 2138 2428 2138 2016 2138 1829  L 2138 0  L 2624 0  L 2624 1559  C 2624 1939 2765 2428 3219 2428  C 3802 2428 3802 2016 3802 1829  L 3802 0  L 4288 0  L 4288 1877  z " transform="scale(0.015625)"/>
       <path id="CMSS17-65" d="M 2502 1377  C 2502 1590 2490 2003 2285 2345  C 2061 2713 1696 2816 1421 2816  C 755 2816 192 2188 192 1375  C 192 582 774 -64 1510 -64  C 1798 -64 2150 19 2470 248  C 2470 274 2458 414 2451 420  C 2451 433 2432 630 2432 656  C 2125 407 1773 325 1517 325  C 1107 325 666 667 646 1377  L 2502 1377  z M 698 1728  C 781 2084 1062 2421 1421 2421  C 1517 2421 1965 2421 2080 1728  L 698 1728  z " transform="scale(0.015625)"/>
      </defs>
      <use xlink:href="#CMSS17-54" transform="scale(0.996264)"/>
      <use xlink:href="#CMSS17-69" transform="translate(63.819454 0) scale(0.996264)"/>
      <use xlink:href="#CMSS17-6d" transform="translate(86.000177 0) scale(0.996264)"/>
      <use xlink:href="#CMSS17-65" transform="translate(160.229431 0) scale(0.996264)"/>
     </g>
    </g>
   </g>
   <g id="matplotlib.axis_2">
    <g id="ytick_1">
     <g id="line2d_10">
      <defs>
       <path id="mb5496d76fe" d="M 0 0  L -3.5 0  " style="stroke: #000000; stroke-width: 0.8"/>
      </defs>
      <g>
       <use xlink:href="#mb5496d76fe" x="72" y="243.27819" style="stroke: #000000; stroke-width: 0.8"/>
      </g>
     </g>
     <g id="text_11">
      <!-- $\mathdefault{−2}$ -->
      <g transform="translate(49.84852 247.42928) scale(0.12 -0.12)">
       <defs>
        <path id="CMSY10-0" d="M 4218 1472  C 4326 1472 4442 1472 4442 1600  C 4442 1728 4326 1728 4218 1728  L 755 1728  C 646 1728 531 1728 531 1600  C 531 1472 646 1472 755 1472  L 4218 1472  z " transform="scale(0.015625)"/>
       </defs>
       <use xlink:href="#CMSY10-0" transform="scale(0.996264)"/>
       <use xlink:href="#CMR17-32" transform="translate(77.487468 0) scale(0.996264)"/>
      </g>
     </g>
    </g>
    <g id="ytick_2">
     <g id="line2d_11">
      <g>
       <use xlink:href="#mb5496d76fe" x="72" y="195.123477" style="stroke: #000000; stroke-width: 0.8"/>
      </g>
     </g>
     <g id="text_12">
      <!-- $\mathdefault{−1}$ -->
      <g transform="translate(49.84852 199.274567) scale(0.12 -0.12)">
       <use xlink:href="#CMSY10-0" transform="scale(0.996264)"/>
       <use xlink:href="#CMR17-31" transform="translate(77.487468 0) scale(0.996264)"/>
      </g>
     </g>
    </g>
    <g id="ytick_3">
     <g id="line2d_12">
      <g>
       <use xlink:href="#mb5496d76fe" x="72" y="146.968765" style="stroke: #000000; stroke-width: 0.8"/>
      </g>
     </g>
     <g id="text_13">
      <!-- $\mathdefault{0}$ -->
      <g transform="translate(59.14701 151.119854) scale(0.12 -0.12)">
       <use xlink:href="#CMR17-30" transform="scale(0.996264)"/>
      </g>
     </g>
    </g>
    <g id="ytick_4">
     <g id="line2d_13">
      <g>
       <use xlink:href="#mb5496d76fe" x="72" y="98.814052" style="stroke: #000000; stroke-width: 0.8"/>
      </g>
     </g>
     <g id="text_14">
      <!-- $\mathdefault{1}$ -->
      <g transform="translate(59.14701 102.965142) scale(0.12 -0.12)">
       <use xlink:href="#CMR17-31" transform="scale(0.996264)"/>
      </g>
     </g>
    </g>
    <g id="ytick_5">
     <g id="line2d_14">
      <g>
       <use xlink:href="#mb5496d76fe" x="72" y="50.659339" style="stroke: #000000; stroke-width: 0.8"/>
      </g>
     </g>
     <g id="text_15">
      <!-- $\mathdefault{2}$ -->
      <g transform="translate(59.14701 54.810429) scale(0.12 -0.12)">
       <use xlink:href="#CMR17-32" transform="scale(0.996264)"/>
      </g>
     </g>
    </g>
    <g id="text_16">
     <!-- $y(t)$ -->
     <g transform="translate(42.859728 155.174226) rotate(-90) scale(0.12 -0.12)">
      <defs>
       <path id="CMMI12-79" d="M 1683 -700  C 1510 -939 1261 -1152 947 -1152  C 870 -1152 563 -1152 467 -889  C 486 -895 518 -895 531 -895  C 723 -895 851 -729 851 -582  C 851 -435 730 -384 634 -384  C 531 -384 307 -458 307 -759  C 307 -1071 582 -1286 947 -1286  C 1587 -1286 2234 -700 2413 6  L 3040 2485  C 3046 2517 3059 2556 3059 2594  C 3059 2689 2982 2753 2886 2753  C 2829 2753 2694 2727 2643 2535  L 2170 658  C 2138 543 2138 530 2086 460  C 1958 281 1747 64 1440 64  C 1082 64 1050 415 1050 588  C 1050 952 1222 1443 1395 1903  C 1466 2088 1504 2178 1504 2305  C 1504 2574 1312 2816 998 2816  C 410 2816 173 1890 173 1839  C 173 1814 198 1782 243 1782  C 301 1782 307 1807 333 1897  C 486 2433 730 2689 979 2689  C 1037 2689 1146 2689 1146 2478  C 1146 2312 1075 2127 979 1884  C 666 1047 666 837 666 683  C 666 77 1101 -64 1421 -64  C 1606 -64 1837 -6 2061 230  L 2067 224  C 1971 -147 1907 -392 1683 -700  z " transform="scale(0.015625)"/>
       <path id="CMR17-28" d="M 1958 -1561  C 1958 -1555 1958 -1542 1939 -1523  C 1645 -1224 858 -407 858 1581  C 858 3569 1632 4379 1946 4697  C 1946 4704 1958 4717 1958 4736  C 1958 4755 1939 4768 1914 4768  C 1843 4768 1299 4296 986 3594  C 666 2887 576 2199 576 1588  C 576 1128 621 351 1005 -471  C 1312 -1135 1837 -1600 1914 -1600  C 1946 -1600 1958 -1587 1958 -1561  z " transform="scale(0.015625)"/>
       <path id="CMMI12-74" d="M 1286 2566  L 1875 2566  C 1997 2566 2061 2566 2061 2681  C 2061 2752 2022 2752 1894 2752  L 1331 2752  L 1568 3692  C 1594 3781 1594 3794 1594 3840  C 1594 3943 1510 4000 1427 4000  C 1376 4000 1229 3981 1178 3775  L 928 2752  L 326 2752  C 198 2752 141 2752 141 2630  C 141 2566 186 2566 307 2566  L 877 2566  L 454 881  C 403 658 384 594 384 511  C 384 211 595 -64 954 -64  C 1600 -64 1946 868 1946 912  C 1946 951 1920 970 1882 970  C 1869 970 1843 970 1830 944  C 1824 938 1818 931 1773 829  C 1638 511 1344 64 973 64  C 781 64 768 224 768 364  C 768 370 768 492 787 568  L 1286 2566  z " transform="scale(0.015625)"/>
       <path id="CMR17-29" d="M 1683 1581  C 1683 2040 1638 2817 1254 3639  C 947 4303 422 4768 346 4768  C 326 4768 301 4761 301 4729  C 301 4717 307 4710 314 4697  C 621 4378 1402 3568 1402 1584  C 1402 -407 627 -1217 314 -1537  C 307 -1549 301 -1556 301 -1568  C 301 -1600 326 -1600 346 -1600  C 416 -1600 960 -1128 1274 -426  C 1594 281 1683 969 1683 1581  z " transform="scale(0.015625)"/>
      </defs>
      <use xlink:href="#CMMI12-79" transform="scale(0.996264)"/>
      <use xlink:href="#CMR17-28" transform="translate(51.138781 0) scale(0.996264)"/>
      <use xlink:href="#CMMI12-74" transform="translate(86.419549 0) scale(0.996264)"/>
      <use xlink:href="#CMR17-29" transform="translate(121.645879 0) scale(0.996264)"/>
     </g>
    </g>
   </g>
   <g id="line2d_15">
    <path d="M 72 98.814052  L 78.729648 98.176067  L 85.459296 97.715451  L 92.188945 97.43388  L 98.918593 97.332376  L 105.648241 97.411309  L 112.377889 97.670392  L 119.107538 98.108683  L 125.837186 98.724588  L 132.566834 99.51587  L 139.296482 100.47965  L 148.269347 102.026879  L 157.242211 103.864478  L 166.215075 105.980573  L 175.18794 108.361494  L 184.160804 110.991856  L 193.133668 113.854664  L 202.106533 116.931423  L 213.322613 121.047834  L 224.538693 125.425845  L 237.99799 130.962401  L 253.700503 137.709764  L 278.375879 148.629858  L 300.80804 158.501048  L 316.510553 165.157643  L 327.726633 169.699667  L 338.942714 174.012286  L 350.158794 178.051974  L 359.131658 181.059714  L 368.104523 183.847193  L 377.077387 186.3964  L 386.050251 188.690865  L 395.023116 190.715764  L 403.99598 192.458013  L 412.968844 193.906356  L 419.698492 194.794035  L 426.428141 195.507861  L 433.157789 196.04524  L 439.887437 196.404216  L 446.617085 196.583487  L 453.346734 196.582399  L 460.076382 196.400958  L 466.80603 196.039822  L 473.535678 195.500305  L 480.265327 194.784367  L 486.994975 193.894611  L 493.724623 192.834272  L 502.697487 191.161884  L 511.670352 189.203964  L 518.4 187.555687  L 518.4 187.555687  " clip-path="url(#pdd37dd2190)" style="fill: none; stroke: #1f77b4; stroke-width: 1.5; stroke-linecap: square"/>
   </g>
   <g id="line2d_16">
    <path d="M 72 122.891408  L 85.459296 134.65337  L 130.323618 174.177781  L 141.539698 183.619507  L 150.512563 190.911024  L 159.485427 197.91863  L 168.458291 204.597049  L 175.18794 209.363789  L 181.917588 213.903713  L 188.647236 218.200316  L 195.376884 222.237981  L 202.106533 226.00203  L 208.836181 229.478779  L 215.565829 232.65559  L 222.295477 235.520915  L 229.025126 238.064338  L 235.754774 240.276613  L 242.484422 242.149699  L 246.970854 243.206569  L 251.457286 244.107929  L 255.943719 244.852321  L 260.430151 245.438543  L 264.916583 245.865647  L 269.403015 246.132943  L 273.889447 246.24  L 278.375879 246.186644  L 282.862312 245.972961  L 287.348744 245.599298  L 291.835176 245.066257  L 296.321608 244.3747  L 300.80804 243.525744  L 305.294472 242.520761  L 309.780905 241.361376  L 316.510553 239.336959  L 323.240201 236.976768  L 329.969849 234.289382  L 336.699497 231.284571  L 343.429146 227.973257  L 350.158794 224.367479  L 356.888442 220.480343  L 363.61809 216.32598  L 370.347739 211.919491  L 377.077387 207.276896  L 383.807035 202.41507  L 392.779899 195.622265  L 401.752764 188.515109  L 410.725628 181.139522  L 421.941709 171.615296  L 435.401005 159.866534  L 482.508543 118.408144  L 493.724623 109.012929  L 502.697487 101.768131  L 511.670352 94.815374  L 518.4 89.819561  L 518.4 89.819561  " clip-path="url(#pdd37dd2190)" style="fill: none; stroke: #ff7f0e; stroke-width: 1.5; stroke-linecap: square"/>
   </g>
   <g id="line2d_17">
    <path d="M 72 44.64  L 518.4 44.64  L 518.4 44.64  " clip-path="url(#pdd37dd2190)" style="fill: none; stroke: #2ca02c; stroke-width: 1.5; stroke-linecap: square"/>
   </g>
   <g id="patch_3">
    <path d="M 72 256.32  L 72 34.56  " style="fill: none; stroke: #000000; stroke-width: 0.8; stroke-linejoin: miter; stroke-linecap: square"/>
   </g>
   <g id="patch_4">
    <path d="M 518.4 256.32  L 518.4 34.56  " style="fill: none; stroke: #000000; stroke-width: 0.8; stroke-linejoin: miter; stroke-linecap: square"/>
   </g>
   <g id="patch_5">
    <path d="M 72 256.32  L 518.4 256.32  " style="fill: none; stroke: #000000; stroke-width: 0.8; stroke-linejoin: miter; stroke-linecap: square"/>
   </g>
   <g id="patch_6">
    <path d="M 72 34.56  L 518.4 34.56  " style="fill: none; stroke: #000000; stroke-width: 0.8; stroke-linejoin: miter; stroke-linecap: square"/>
   </g>
   <g id="legend_1">
    <g id="patch_7">
     <path d="M 80.4 250.32  L 141.497994 250.32  Q 143.897994 250.32 143.897994 247.92  L 143.897994 195.254496  Q 143.897994 192.854496 141.497994 192.854496  L 80.4 192.854496  Q 78 192.854496 78 195.254496  L 78 247.92  Q 78 250.32 80.4 250.32  z " style="fill: #ffffff; opacity: 0.8; stroke: #cccccc; stroke-linejoin: miter"/>
    </g>
    <g id="line2d_18">
     <path d="M 82.8 202.420872  L 94.8 202.420872  L 106.8 202.420872  " style="fill: none; stroke: #1f77b4; stroke-width: 1.5; stroke-linecap: square"/>
    </g>
    <g id="text_17">
     <!-- $x(t)$ -->
     <g transform="translate(116.4 206.620872) scale(0.12 -0.12)">
      <defs>
       <path id="CMMI12-78" d="M 3034 2606  C 2829 2567 2752 2414 2752 2293  C 2752 2139 2874 2088 2963 2088  C 3155 2088 3290 2254 3290 2427  C 3290 2695 2982 2816 2714 2816  C 2323 2816 2106 2433 2048 2312  C 1901 2816 1504 2816 1389 2816  C 736 2816 390 1980 390 1839  C 390 1814 416 1782 461 1782  C 512 1782 525 1820 538 1846  C 755 2555 1184 2689 1370 2689  C 1658 2689 1715 2420 1715 2267  C 1715 2127 1677 1980 1600 1673  L 1382 798  C 1286 415 1101 64 762 64  C 730 64 570 64 435 147  C 666 192 717 383 717 460  C 717 588 621 664 499 664  C 346 664 179 530 179 326  C 179 57 480 -64 755 -64  C 1062 -64 1280 179 1414 441  C 1517 64 1837 -64 2074 -64  C 2726 -64 3072 773 3072 913  C 3072 945 3046 971 3008 971  C 2950 971 2944 939 2925 888  C 2752 326 2381 64 2093 64  C 1869 64 1747 230 1747 492  C 1747 632 1773 734 1875 1156  L 2099 2024  C 2195 2408 2413 2689 2707 2689  C 2720 2689 2899 2689 3034 2606  z " transform="scale(0.015625)"/>
      </defs>
      <use xlink:href="#CMMI12-78" transform="scale(0.996264)"/>
      <use xlink:href="#CMR17-28" transform="translate(55.43406 0) scale(0.996264)"/>
      <use xlink:href="#CMMI12-74" transform="translate(90.714827 0) scale(0.996264)"/>
      <use xlink:href="#CMR17-29" transform="translate(125.941158 0) scale(0.996264)"/>
     </g>
    </g>
    <g id="line2d_19">
     <path d="M 82.8 220.37604  L 94.8 220.37604  L 106.8 220.37604  " style="fill: none; stroke: #ff7f0e; stroke-width: 1.5; stroke-linecap: square"/>
    </g>
    <g id="text_18">
     <!-- $v(t)$ -->
     <g transform="translate(116.4 224.57604) scale(0.12 -0.12)">
      <defs>
       <path id="CMMI12-76" d="M 2925 2389  C 2925 2791 2720 2816 2669 2816  C 2515 2816 2374 2663 2374 2535  C 2374 2459 2419 2414 2445 2389  C 2509 2331 2675 2159 2675 1827  C 2675 1558 2291 64 1523 64  C 1133 64 1056 390 1056 626  C 1056 945 1203 1392 1376 1852  C 1478 2114 1504 2178 1504 2305  C 1504 2574 1312 2816 998 2816  C 410 2816 173 1890 173 1839  C 173 1814 198 1782 243 1782  C 301 1782 307 1807 333 1897  C 486 2446 736 2689 979 2689  C 1037 2689 1146 2689 1146 2478  C 1146 2312 1075 2127 979 1884  C 672 1067 672 869 672 715  C 672 575 691 313 890 134  C 1120 -64 1440 -64 1498 -64  C 2560 -64 2925 2024 2925 2389  z " transform="scale(0.015625)"/>
      </defs>
      <use xlink:href="#CMMI12-76" transform="scale(0.996264)"/>
      <use xlink:href="#CMR17-28" transform="translate(50.735173 0) scale(0.996264)"/>
      <use xlink:href="#CMMI12-74" transform="translate(86.015941 0) scale(0.996264)"/>
      <use xlink:href="#CMR17-29" transform="translate(121.242271 0) scale(0.996264)"/>
     </g>
    </g>
    <g id="line2d_20">
     <path d="M 82.8 238.331208  L 94.8 238.331208  L 106.8 238.331208  " style="fill: none; stroke: #2ca02c; stroke-width: 1.5; stroke-linecap: square"/>
    </g>
    <g id="text_19">
     <!-- $E(t)$ -->
     <g transform="translate(116.4 242.531208) scale(0.12 -0.12)">
      <defs>
       <path id="CMMI12-45" d="M 4448 1489  C 4454 1508 4474 1554 4474 1579  C 4474 1611 4448 1643 4410 1643  C 4384 1643 4371 1637 4352 1617  C 4339 1611 4339 1598 4282 1469  C 3904 570 3629 185 2605 185  L 1670 185  C 1581 185 1568 185 1530 192  C 1459 198 1453 211 1453 262  C 1453 307 1466 345 1478 403  L 1920 2176  L 2554 2176  C 3053 2176 3091 2066 3091 1874  C 3091 1810 3091 1752 3046 1560  C 3034 1534 3027 1508 3027 1489  C 3027 1444 3059 1425 3098 1425  C 3155 1425 3162 1469 3187 1559  L 3552 3042  C 3552 3073 3526 3105 3488 3105  C 3430 3105 3424 3080 3398 2990  C 3270 2501 3142 2361 2573 2361  L 1965 2361  L 2362 3930  C 2419 4154 2432 4154 2694 4154  L 3610 4154  C 4397 4154 4557 3943 4557 3458  C 4557 3451 4557 3273 4531 3062  C 4525 3036 4518 2998 4518 2985  C 4518 2934 4550 2915 4589 2915  C 4634 2915 4659 2941 4672 3055  L 4806 4174  C 4806 4195 4819 4263 4819 4277  C 4819 4352 4762 4352 4646 4352  L 1523 4352  C 1402 4352 1338 4352 1338 4229  C 1338 4154 1382 4154 1491 4154  C 1888 4154 1888 4114 1888 4052  C 1888 4020 1882 3994 1862 3924  L 998 473  C 941 249 928 185 480 185  C 358 185 294 185 294 70  C 294 0 333 0 461 0  L 3674 0  C 3814 0 3821 6 3866 110  L 4448 1489  z " transform="scale(0.015625)"/>
      </defs>
      <use xlink:href="#CMMI12-45" transform="scale(0.996264)"/>
      <use xlink:href="#CMR17-28" transform="translate(78.051636 0) scale(0.996264)"/>
      <use xlink:href="#CMMI12-74" transform="translate(113.332404 0) scale(0.996264)"/>
      <use xlink:href="#CMR17-29" transform="translate(148.558734 0) scale(0.996264)"/>
     </g>
    </g>
   </g>
  </g>
 </g>
 <defs>
  <clipPath id="pdd37dd2190">
   <rect x="72" y="34.56" width="446.4" height="221.76"/>
  </clipPath>
 </defs>
</svg>