<svg xmlns:xlink="http://www.w3.org/1999/xlink" xmlns="http://www.w3.org/2000/svg" width="564.48pt" height="276.48pt" viewBox="0 0 564.48 276.48" version="1.1">
 <metadata>
  <rdf:RDF xmlns:dc="http://purl.org/dc/elements/1.1/" xmlns:cc="http://creativecommons.org/ns#" xmlns:rdf="http://www.w3.org/1999/02/22-rdf-syntax-ns#">
   <cc:Work>
    <dc:type rdf:resource="http://purl.org/dc/dcmitype/StillImage"/>
    <dc:date>2025-06-07T14:13:03.895527</dc:date>
    <dc:format>image/svg+xml</dc:format>
    <dc:creator>
     <cc:Agent>
      <dc:title>Matplotlib v3.10.3, https://matplotlib.org/</dc:title>
     </cc:Agent>
    </dc:creator>
   </cc:Work>
  </rdf:RDF>
 </metadata>
 <defs>
  <style type="text/css">*{stroke-linejoin: round; stroke-linecap: butt}</style>
 </defs>
 <g id="figure_1">
  <g id="patch_1">
   <path d="M 0 276.48  L 564.48 276.48  L 564.48 0  L 0 0  z " style="fill: #ffffff"/>
  </g>
  <g id="axes_1">
   <g id="patch_2">
    <path d="M 54.411299 237.026449  L 546.874684 237.026449  L 546.874684 7.2  L 54.411299 7.2  z " style="fill: #ffffff"/>
   </g>
   <g id="matplotlib.axis_1">
    <g id="xtick_1">
     <g id="line2d_1">
      <defs>
       <path id="m458e4274cf" d="M 0 0  L 0 3.5  " style="stroke: #000000; stroke-width: 0.8"/>
      </defs>
      <g>
       <use xlink:href="#m458e4274cf" x="54.411299" y="237.026449" style="stroke: #000000; stroke-width: 0.8"/>
      </g>
     </g>
     <g id="text_1">
      <!-- $\mathdefault{0.00}$ -->
      <g transform="translate(44.005983 252.328629) scale(0.12 -0.12)">
       <defs>
        <path id="CMR17-30" d="M 2688 2025  C 2688 2416 2682 3080 2413 3591  C 2176 4039 1798 4198 1466 4198  C 1158 4198 768 4058 525 3597  C 269 3118 243 2524 243 2025  C 243 1661 250 1106 448 619  C 723 -39 1216 -128 1466 -128  C 1760 -128 2208 -7 2470 600  C 2662 1042 2688 1559 2688 2025  z M 1466 -26  C 1056 -26 813 325 723 812  C 653 1188 653 1738 653 2096  C 653 2588 653 2997 736 3387  C 858 3929 1216 4096 1466 4096  C 1728 4096 2067 3923 2189 3400  C 2272 3036 2278 2607 2278 2096  C 2278 1680 2278 1169 2202 792  C 2067 95 1690 -26 1466 -26  z " transform="scale(0.015625)"/>
        <path id="CMMI12-3a" d="M 1178 307  C 1178 492 1024 619 870 619  C 685 619 557 466 557 313  C 557 128 710 0 864 0  C 1050 0 1178 153 1178 307  z " transform="scale(0.015625)"/>
       </defs>
       <use xlink:href="#CMR17-30" transform="scale(0.996264)"/>
       <use xlink:href="#CMMI12-3a" transform="translate(45.690477 0) scale(0.996264)"/>
       <use xlink:href="#CMR17-30" transform="translate(72.787654 0) scale(0.996264)"/>
       <use xlink:href="#CMR17-30" transform="translate(118.478131 0) scale(0.996264)"/>
      </g>
     </g>
    </g>
    <g id="xtick_2">
     <g id="line2d_2">
      <g>
       <use xlink:href="#m458e4274cf" x="115.969222" y="237.026449" style="stroke: #000000; stroke-width: 0.8"/>
      </g>
     </g>
     <g id="text_2">
      <!-- $\mathdefault{0.25}$ -->
      <g transform="translate(105.563906 252.328629) scale(0.12 -0.12)">
       <defs>
        <path id="CMR17-32" d="M 2669 989  L 2554 989  C 2490 536 2438 459 2413 420  C 2381 369 1920 369 1830 369  L 602 369  C 832 619 1280 1072 1824 1597  C 2214 1967 2669 2402 2669 3035  C 2669 3790 2067 4224 1395 4224  C 691 4224 262 3604 262 3030  C 262 2780 448 2748 525 2748  C 589 2748 781 2787 781 3010  C 781 3207 614 3264 525 3264  C 486 3264 448 3258 422 3245  C 544 3790 915 4058 1306 4058  C 1862 4058 2227 3617 2227 3035  C 2227 2479 1901 2000 1536 1584  L 262 146  L 262 0  L 2515 0  L 2669 989  z " transform="scale(0.015625)"/>
        <path id="CMR17-35" d="M 730 3692  C 794 3666 1056 3584 1325 3584  C 1920 3584 2246 3911 2432 4100  C 2432 4157 2432 4192 2394 4192  C 2387 4192 2374 4192 2323 4163  C 2099 4058 1837 3973 1517 3973  C 1325 3973 1037 3999 723 4139  C 653 4171 640 4171 634 4171  C 602 4171 595 4164 595 4037  L 595 2203  C 595 2089 595 2057 659 2057  C 691 2057 704 2070 736 2114  C 941 2401 1222 2522 1542 2522  C 1766 2522 2246 2382 2246 1289  C 2246 1085 2246 715 2054 421  C 1894 159 1645 25 1370 25  C 947 25 518 320 403 814  C 429 807 480 795 506 795  C 589 795 749 840 749 1038  C 749 1210 627 1280 506 1280  C 358 1280 262 1190 262 1011  C 262 454 704 -128 1382 -128  C 2042 -128 2669 440 2669 1264  C 2669 2030 2170 2624 1549 2624  C 1222 2624 947 2503 730 2274  L 730 3692  z " transform="scale(0.015625)"/>
       </defs>
       <use xlink:href="#CMR17-30" transform="scale(0.996264)"/>
       <use xlink:href="#CMMI12-3a" transform="translate(45.690477 0) scale(0.996264)"/>
       <use xlink:href="#CMR17-32" transform="translate(72.787654 0) scale(0.996264)"/>
       <use xlink:href="#CMR17-35" transform="translate(118.478131 0) scale(0.996264)"/>
      </g>
     </g>
    </g>
    <g id="xtick_3">
     <g id="line2d_3">
      <g>
       <use xlink:href="#m458e4274cf" x="177.527145" y="237.026449" style="stroke: #000000; stroke-width: 0.8"/>
      </g>
     </g>
     <g id="text_3">
      <!-- $\mathdefault{0.50}$ -->
      <g transform="translate(167.121829 252.328629) scale(0.12 -0.12)">
       <use xlink:href="#CMR17-30" transform="scale(0.996264)"/>
       <use xlink:href="#CMMI12-3a" transform="translate(45.690477 0) scale(0.996264)"/>
       <use xlink:href="#CMR17-35" transform="translate(72.787654 0) scale(0.996264)"/>
       <use xlink:href="#CMR17-30" transform="translate(118.478131 0) scale(0.996264)"/>
      </g>
     </g>
    </g>
    <g id="xtick_4">
     <g id="line2d_4">
      <g>
       <use xlink:href="#m458e4274cf" x="239.085069" y="237.026449" style="stroke: #000000; stroke-width: 0.8"/>
      </g>
     </g>
     <g id="text_4">
      <!-- $\mathdefault{0.75}$ -->
      <g transform="translate(228.679753 252.328629) scale(0.12 -0.12)">
       <defs>
        <path id="CMR17-37" d="M 2886 3941  L 2886 4081  L 1382 4081  C 634 4081 621 4165 595 4288  L 480 4288  L 294 3094  L 410 3094  C 429 3215 474 3540 550 3661  C 589 3712 1062 3712 1171 3712  L 2579 3712  L 1869 2661  C 1395 1954 1069 999 1069 165  C 1069 89 1069 -128 1299 -128  C 1530 -128 1530 89 1530 171  L 1530 465  C 1530 1508 1709 2196 2003 2636  L 2886 3941  z " transform="scale(0.015625)"/>
       </defs>
       <use xlink:href="#CMR17-30" transform="scale(0.996264)"/>
       <use xlink:href="#CMMI12-3a" transform="translate(45.690477 0) scale(0.996264)"/>
       <use xlink:href="#CMR17-37" transform="translate(72.787654 0) scale(0.996264)"/>
       <use xlink:href="#CMR17-35" transform="translate(118.478131 0) scale(0.996264)"/>
      </g>
     </g>
    </g>
    <g id="xtick_5">
     <g id="line2d_5">
      <g>
       <use xlink:href="#m458e4274cf" x="300.642992" y="237.026449" style="stroke: #000000; stroke-width: 0.8"/>
      </g>
     </g>
     <g id="text_5">
      <!-- $\mathdefault{1.00}$ -->
      <g transform="translate(290.237676 252.328629) scale(0.12 -0.12)">
       <defs>
        <path id="CMR17-31" d="M 1702 4058  C 1702 4192 1696 4192 1606 4192  C 1357 3916 979 3827 621 3827  C 602 3827 570 3827 563 3808  C 557 3795 557 3782 557 3648  C 755 3648 1088 3686 1344 3839  L 1344 461  C 1344 236 1331 160 781 160  L 589 160  L 589 0  C 896 0 1216 0 1523 0  C 1830 0 2150 0 2458 0  L 2458 160  L 2266 160  C 1715 160 1702 230 1702 458  L 1702 4058  z " transform="scale(0.015625)"/>
       </defs>
       <use xlink:href="#CMR17-31" transform="scale(0.996264)"/>
       <use xlink:href="#CMMI12-3a" transform="translate(45.690477 0) scale(0.996264)"/>
       <use xlink:href="#CMR17-30" transform="translate(72.787654 0) scale(0.996264)"/>
       <use xlink:href="#CMR17-30" transform="translate(118.478131 0) scale(0.996264)"/>
      </g>
     </g>
    </g>
    <g id="xtick_6">
     <g id="line2d_6">
      <g>
       <use xlink:href="#m458e4274cf" x="362.200915" y="237.026449" style="stroke: #000000; stroke-width: 0.8"/>
      </g>
     </g>
     <g id="text_6">
      <!-- $\mathdefault{1.25}$ -->
      <g transform="translate(351.795599 252.328629) scale(0.12 -0.12)">
       <use xlink:href="#CMR17-31" transform="scale(0.996264)"/>
       <use xlink:href="#CMMI12-3a" transform="translate(45.690477 0) scale(0.996264)"/>
       <use xlink:href="#CMR17-32" transform="translate(72.787654 0) scale(0.996264)"/>
       <use xlink:href="#CMR17-35" transform="translate(118.478131 0) scale(0.996264)"/>
      </g>
     </g>
    </g>
    <g id="xtick_7">
     <g id="line2d_7">
      <g>
       <use xlink:href="#m458e4274cf" x="423.758838" y="237.026449" style="stroke: #000000; stroke-width: 0.8"/>
      </g>
     </g>
     <g id="text_7">
      <!-- $\mathdefault{1.50}$ -->
      <g transform="translate(413.353522 252.328629) scale(0.12 -0.12)">
       <use xlink:href="#CMR17-31" transform="scale(0.996264)"/>
       <use xlink:href="#CMMI12-3a" transform="translate(45.690477 0) scale(0.996264)"/>
       <use xlink:href="#CMR17-35" transform="translate(72.787654 0) scale(0.996264)"/>
       <use xlink:href="#CMR17-30" transform="translate(118.478131 0) scale(0.996264)"/>
      </g>
     </g>
    </g>
    <g id="xtick_8">
     <g id="line2d_8">
      <g>
       <use xlink:href="#m458e4274cf" x="485.316761" y="237.026449" style="stroke: #000000; stroke-width: 0.8"/>
      </g>
     </g>
     <g id="text_8">
      <!-- $\mathdefault{1.75}$ -->
      <g transform="translate(474.911445 252.328629) scale(0.12 -0.12)">
       <use xlink:href="#CMR17-31" transform="scale(0.996264)"/>
       <use xlink:href="#CMMI12-3a" transform="translate(45.690477 0) scale(0.996264)"/>
       <use xlink:href="#CMR17-37" transform="translate(72.787654 0) scale(0.996264)"/>
       <use xlink:href="#CMR17-35" transform="translate(118.478131 0) scale(0.996264)"/>
      </g>
     </g>
    </g>
    <g id="xtick_9">
     <g id="line2d_9">
      <g>
       <use xlink:href="#m458e4274cf" x="546.874684" y="237.026449" style="stroke: #000000; stroke-width: 0.8"/>
      </g>
     </g>
     <g id="text_9">
      <!-- $\mathdefault{2.00}$ -->
      <g transform="translate(536.469368 252.328629) scale(0.12 -0.12)">
       <use xlink:href="#CMR17-32" transform="scale(0.996264)"/>
       <use xlink:href="#CMMI12-3a" transform="translate(45.690477 0) scale(0.996264)"/>
       <use xlink:href="#CMR17-30" transform="translate(72.787654 0) scale(0.996264)"/>
       <use xlink:href="#CMR17-30" transform="translate(118.478131 0) scale(0.996264)"/>
      </g>
     </g>
    </g>
    <g id="text_10">
     <!-- Time -->
     <g transform="translate(288.04456 266.955404) scale(0.12 -0.12)">
      <defs>
       <path id="CMSS17-54" d="M 2317 3968  L 2848 3968  C 2925 3968 3002 3968 3078 3968  L 3878 3968  L 3878 4376  L 218 4376  L 218 3968  L 1018 3968  C 1094 3968 1171 3968 1248 3968  L 1779 3968  L 1779 -32  L 2317 -32  L 2317 3968  z " transform="scale(0.015625)"/>
       <path id="CMSS17-69" d="M 979 4183  L 442 4183  L 442 3648  L 979 3648  L 979 4183  z M 947 2739  L 474 2739  L 474 0  L 947 0  L 947 2739  z " transform="scale(0.015625)"/>
       <path id="CMSS17-6d" d="M 4288 1877  C 4288 2308 4179 2816 3462 2816  C 2982 2816 2694 2516 2566 2331  C 2451 2670 2182 2816 1798 2816  C 1363 2816 1088 2568 941 2389  L 941 2758  L 474 2758  L 474 0  L 960 0  L 960 1559  C 960 1939 1101 2428 1555 2428  C 2138 2428 2138 2016 2138 1829  L 2138 0  L 2624 0  L 2624 1559  C 2624 1939 2765 2428 3219 2428  C 3802 2428 3802 2016 3802 1829  L 3802 0  L 4288 0  L 4288 1877  z " transform="scale(0.015625)"/>
       <path id="CMSS17-65" d="M 2502 1377  C 2502 1590 2490 2003 2285 2345  C 2061 2713 1696 2816 1421 2816  C 755 2816 192 2188 192 1375  C 192 582 774 -64 1510 -64  C 1798 -64 2150 19 2470 248  C 2470 274 2458 414 2451 420  C 2451 433 2432 630 2432 656  C 2125 407 1773 325 1517 325  C 1107 325 666 667 646 1377  L 2502 1377  z M 698 1728  C 781 2084 1062 2421 1421 2421  C 1517 2421 1965 2421 2080 1728  L 698 1728  z " transform="scale(0.015625)"/>
      </defs>
      <use xlink:href="#CMSS17-54" transform="scale(0.996264)"/>
      <use xlink:href="#CMSS17-69" transform="translate(63.819454 0) scale(0.996264)"/>
      <use xlink:href="#CMSS17-6d" transform="translate(86.000177 0) scale(0.996264)"/>
      <use xlink:href="#CMSS17-65" transform="translate(160.229431 0) scale(0.996264)"/>
     </g>
    </g>
   </g>
   <g id="matplotlib.axis_2">
    <g id="ytick_1">
     <g id="line2d_10">
      <defs>
       <path id="mf1e7b2dfc1" d="M 0 0  L -3.5 0  " style="stroke: #000000; stroke-width: 0.8"/>
      </defs>
      <g>
       <use xlink:href="#mf1e7b2dfc1" x="54.411299" y="220.2833" style="stroke: #000000; stroke-width: 0.8"/>
      </g>
     </g>
     <g id="text_11">
      <!-- $\mathdefault{−2.0}$ -->
      <g transform="translate(23.155168 224.434389) scale(0.12 -0.12)">
       <defs>
        <path id="CMSY10-0" d="M 4218 1472  C 4326 1472 4442 1472 4442 1600  C 4442 1728 4326 1728 4218 1728  L 755 1728  C 646 1728 531 1728 531 1600  C 531 1472 646 1472 755 1472  L 4218 1472  z " transform="scale(0.015625)"/>
       </defs>
       <use xlink:href="#CMSY10-0" transform="scale(0.996264)"/>
       <use xlink:href="#CMR17-32" transform="translate(77.487468 0) scale(0.996264)"/>
       <use xlink:href="#CMMI12-3a" transform="translate(123.177945 0) scale(0.996264)"/>
       <use xlink:href="#CMR17-30" transform="translate(150.275122 0) scale(0.996264)"/>
      </g>
     </g>
    </g>
    <g id="ytick_2">
     <g id="line2d_11">
      <g>
       <use xlink:href="#mf1e7b2dfc1" x="54.411299" y="188.608349" style="stroke: #000000; stroke-width: 0.8"/>
      </g>
     </g>
     <g id="text_12">
      <!-- $\mathdefault{−1.5}$ -->
      <g transform="translate(23.155168 192.759439) scale(0.12 -0.12)">
       <use xlink:href="#CMSY10-0" transform="scale(0.996264)"/>
       <use xlink:href="#CMR17-31" transform="translate(77.487468 0) scale(0.996264)"/>
       <use xlink:href="#CMMI12-3a" transform="translate(123.177945 0) scale(0.996264)"/>
       <use xlink:href="#CMR17-35" transform="translate(150.275122 0) scale(0.996264)"/>
      </g>
     </g>
    </g>
    <g id="ytick_3">
     <g id="line2d_12">
      <g>
       <use xlink:href="#mf1e7b2dfc1" x="54.411299" y="156.933398" style="stroke: #000000; stroke-width: 0.8"/>
      </g>
     </g>
     <g id="text_13">
      <!-- $\mathdefault{−1.0}$ -->
      <g transform="translate(23.155168 161.084488) scale(0.12 -0.12)">
       <use xlink:href="#CMSY10-0" transform="scale(0.996264)"/>
       <use xlink:href="#CMR17-31" transform="translate(77.487468 0) scale(0.996264)"/>
       <use xlink:href="#CMMI12-3a" transform="translate(123.177945 0) scale(0.996264)"/>
       <use xlink:href="#CMR17-30" transform="translate(150.275122 0) scale(0.996264)"/>
      </g>
     </g>
    </g>
    <g id="ytick_4">
     <g id="line2d_13">
      <g>
       <use xlink:href="#mf1e7b2dfc1" x="54.411299" y="125.258447" style="stroke: #000000; stroke-width: 0.8"/>
      </g>
     </g>
     <g id="text_14">
      <!-- $\mathdefault{−0.5}$ -->
      <g transform="translate(23.155168 129.409537) scale(0.12 -0.12)">
       <use xlink:href="#CMSY10-0" transform="scale(0.996264)"/>
       <use xlink:href="#CMR17-30" transform="translate(77.487468 0) scale(0.996264)"/>
       <use xlink:href="#CMMI12-3a" transform="translate(123.177945 0) scale(0.996264)"/>
       <use xlink:href="#CMR17-35" transform="translate(150.275122 0) scale(0.996264)"/>
      </g>
     </g>
    </g>
    <g id="ytick_5">
     <g id="line2d_14">
      <g>
       <use xlink:href="#mf1e7b2dfc1" x="54.411299" y="93.583497" style="stroke: #000000; stroke-width: 0.8"/>
      </g>
     </g>
     <g id="text_15">
      <!-- $\mathdefault{0.0}$ -->
      <g transform="translate(32.453658 97.734587) scale(0.12 -0.12)">
       <use xlink:href="#CMR17-30" transform="scale(0.996264)"/>
       <use xlink:href="#CMMI12-3a" transform="translate(45.690477 0) scale(0.996264)"/>
       <use xlink:href="#CMR17-30" transform="translate(72.787654 0) scale(0.996264)"/>
      </g>
     </g>
    </g>
    <g id="ytick_6">
     <g id="line2d_15">
      <g>
       <use xlink:href="#mf1e7b2dfc1" x="54.411299" y="61.908546" style="stroke: #000000; stroke-width: 0.8"/>
      </g>
     </g>
     <g id="text_16">
      <!-- $\mathdefault{0.5}$ -->
      <g transform="translate(32.453658 66.059636) scale(0.12 -0.12)">
       <use xlink:href="#CMR17-30" transform="scale(0.996264)"/>
       <use xlink:href="#CMMI12-3a" transform="translate(45.690477 0) scale(0.996264)"/>
       <use xlink:href="#CMR17-35" transform="translate(72.787654 0) scale(0.996264)"/>
      </g>
     </g>
    </g>
    <g id="ytick_7">
     <g id="line2d_16">
      <g>
       <use xlink:href="#mf1e7b2dfc1" x="54.411299" y="30.233595" style="stroke: #000000; stroke-width: 0.8"/>
      </g>
     </g>
     <g id="text_17">
      <!-- $\mathdefault{1.0}$ -->
      <g transform="translate(32.453658 34.384685) scale(0.12 -0.12)">
       <use xlink:href="#CMR17-31" transform="scale(0.996264)"/>
       <use xlink:href="#CMMI12-3a" transform="translate(45.690477 0) scale(0.996264)"/>
       <use xlink:href="#CMR17-30" transform="translate(72.787654 0) scale(0.996264)"/>
      </g>
     </g>
    </g>
    <g id="text_18">
     <!-- $y(t)$ -->
     <g transform="translate(16.166376 131.84745) rotate(-90) scale(0.12 -0.12)">
      <defs>
       <path id="CMMI12-79" d="M 1683 -700  C 1510 -939 1261 -1152 947 -1152  C 870 -1152 563 -1152 467 -889  C 486 -895 518 -895 531 -895  C 723 -895 851 -729 851 -582  C 851 -435 730 -384 634 -384  C 531 -384 307 -458 307 -759  C 307 -1071 582 -1286 947 -1286  C 1587 -1286 2234 -700 2413 6  L 3040 2485  C 3046 2517 3059 2556 3059 2594  C 3059 2689 2982 2753 2886 2753  C 2829 2753 2694 2727 2643 2535  L 2170 658  C 2138 543 2138 530 2086 460  C 1958 281 1747 64 1440 64  C 1082 64 1050 415 1050 588  C 1050 952 1222 1443 1395 1903  C 1466 2088 1504 2178 1504 2305  C 1504 2574 1312 2816 998 2816  C 410 2816 173 1890 173 1839  C 173 1814 198 1782 243 1782  C 301 1782 307 1807 333 1897  C 486 2433 730 2689 979 2689  C 1037 2689 1146 2689 1146 2478  C 1146 2312 1075 2127 979 1884  C 666 1047 666 837 666 683  C 666 77 1101 -64 1421 -64  C 1606 -64 1837 -6 2061 230  L 2067 224  C 1971 -147 1907 -392 1683 -700  z " transform="scale(0.015625)"/>
       <path id="CMR17-28" d="M 1958 -1561  C 1958 -1555 1958 -1542 1939 -1523  C 1645 -1224 858 -407 858 1581  C 858 3569 1632 4379 1946 4697  C 1946 4704 1958 4717 1958 4736  C 1958 4755 1939 4768 1914 4768  C 1843 4768 1299 4296 986 3594  C 666 2887 576 2199 576 1588  C 576 1128 621 351 1005 -471  C 1312 -1135 1837 -1600 1914 -1600  C 1946 -1600 1958 -1587 1958 -1561  z " transform="scale(0.015625)"/>
       <path id="CMMI12-74" d="M 1286 2566  L 1875 2566  C 1997 2566 2061 2566 2061 2681  C 2061 2752 2022 2752 1894 2752  L 1331 2752  L 1568 3692  C 1594 3781 1594 3794 1594 3840  C 1594 3943 1510 4000 1427 4000  C 1376 4000 1229 3981 1178 3775  L 928 2752  L 326 2752  C 198 2752 141 2752 141 2630  C 141 2566 186 2566 307 2566  L 877 2566  L 454 881  C 403 658 384 594 384 511  C 384 211 595 -64 954 -64  C 1600 -64 1946 868 1946 912  C 1946 951 1920 970 1882 970  C 1869 970 1843 970 1830 944  C 1824 938 1818 931 1773 829  C 1638 511 1344 64 973 64  C 781 64 768 224 768 364  C 768 370 768 492 787 568  L 1286 2566  z " transform="scale(0.015625)"/>
       <path id="CMR17-29" d="M 1683 1581  C 1683 2040 1638 2817 1254 3639  C 947 4303 422 4768 346 4768  C 326 4768 301 4761 301 4729  C 301 4717 307 4710 314 4697  C 621 4378 1402 3568 1402 1584  C 1402 -407 627 -1217 314 -1537  C 307 -1549 301 -1556 301 -1568  C 301 -1600 326 -1600 346 -1600  C 416 -1600 960 -1128 1274 -426  C 1594 281 1683 969 1683 1581  z " transform="scale(0.015625)"/>
      </defs>
      <use xlink:href="#CMMI12-79" transform="scale(0.996264)"/>
      <use xlink:href="#CMR17-28" transform="translate(51.138781 0) scale(0.996264)"/>
      <use xlink:href="#CMMI12-74" transform="translate(86.419549 0) scale(0.996264)"/>
      <use xlink:href="#CMR17-29" transform="translate(121.645879 0) scale(0.996264)"/>
     </g>
    </g>
   </g>
   <g id="line2d_17">
    <path d="M 54.411299 30.233595  L 61.83537 29.394294  L 69.259442 28.788332  L 76.683513 28.417911  L 84.107584 28.284378  L 91.531655 28.388218  L 98.955726 28.729054  L 106.379797 29.305648  L 113.803868 30.115902  L 121.227939 31.156871  L 128.652011 32.424772  L 136.076082 33.914996  L 143.500153 35.622124  L 150.924224 37.539952  L 158.348295 39.661508  L 165.772366 41.97908  L 173.196437 44.484242  L 183.095199 48.100432  L 192.99396 52.010488  L 202.892722 56.189148  L 212.791483 60.609413  L 222.690245 65.242723  L 235.063697 71.288235  L 249.911839 78.834326  L 269.709362 89.20966  L 306.829718 108.754785  L 321.67786 116.285857  L 334.051312 122.314324  L 343.950073 126.931154  L 353.848835 131.332524  L 363.747596 135.489998  L 373.646358 139.376714  L 383.545119 142.96756  L 390.96919 145.452498  L 398.393261 147.748882  L 405.817333 149.848366  L 413.241404 151.743318  L 420.665475 153.426849  L 428.089546 154.892839  L 435.513617 156.135959  L 442.937688 157.15169  L 450.361759 157.936341  L 457.78583 158.487057  L 465.209902 158.801838  L 472.633973 158.87954  L 480.058044 158.719879  L 487.482115 158.323436  L 494.906186 157.691653  L 502.330257 156.826826  L 509.754328 155.732098  L 517.178399 154.41145  L 524.602471 152.869681  L 532.026542 151.112398  L 539.450613 149.145987  L 546.874684 146.977597  L 546.874684 146.977597  " clip-path="url(#p6f323c7696)" style="fill: none; stroke: #1f77b4; stroke-width: 1.5; stroke-linecap: square"/>
   </g>
   <g id="line2d_18">
    <path d="M 54.411299 30.233595  L 61.83537 29.359493  L 69.259442 28.715579  L 76.683513 28.304448  L 84.107584 28.127859  L 91.531655 28.18673  L 98.955726 28.481131  L 106.379797 29.010285  L 113.803868 29.772569  L 121.227939 30.765518  L 128.652011 31.985834  L 136.076082 33.429397  L 143.500153 35.091275  L 150.924224 36.965749  L 158.348295 39.046325  L 165.772366 41.325758  L 173.196437 43.79608  L 180.620508 46.448626  L 190.51927 50.252594  L 200.418031 54.339997  L 210.316793 58.685128  L 220.215554 63.260587  L 232.589006 69.259626  L 244.962458 75.513912  L 259.8106 83.268487  L 284.557504 96.50814  L 309.304408 109.684037  L 324.15255 117.339296  L 336.526002 123.476035  L 346.424764 128.181924  L 356.323525 132.673895  L 366.222287 136.922854  L 376.121048 140.901215  L 386.01981 144.583082  L 393.443881 147.135371  L 400.867952 149.497912  L 408.292023 151.66197  L 415.716094 153.619516  L 423.140165 155.363253  L 430.564236 156.886647  L 437.988307 158.183948  L 445.412379 159.250214  L 452.83645 160.081328  L 460.260521 160.674015  L 467.684592 161.025856  L 475.108663 161.135295  L 482.532734 161.001646  L 489.956805 160.625098  L 497.380876 160.006717  L 504.804948 159.148438  L 512.229019 158.053064  L 519.65309 156.724253  L 527.077161 155.166509  L 534.501232 153.385168  L 541.925303 151.386373  L 546.874684 149.936429  L 546.874684 149.936429  " clip-path="url(#p6f323c7696)" style="fill: none; stroke-dasharray: 5.55,2.4; stroke-dashoffset: 0; stroke: #ff7f0e; stroke-width: 1.5"/>
   </g>
   <g id="line2d_19">
    <path d="M 54.411299 61.908546  L 69.259442 77.381987  L 116.278559 126.846655  L 128.652011 139.350126  L 138.550772 149.026253  L 148.449534 158.344164  L 155.873605 165.061205  L 163.297676 171.518412  L 170.721747 177.692312  L 178.145818 183.560462  L 185.569889 189.101531  L 192.99396 194.295375  L 200.418031 199.123115  L 207.842103 203.5672  L 212.791483 206.308745  L 217.740864 208.868137  L 222.690245 211.241241  L 227.639626 213.42422  L 232.589006 215.413549  L 237.538387 217.206012  L 242.487768 218.798713  L 247.437149 220.189079  L 252.386529 221.374862  L 257.33591 222.354147  L 262.285291 223.12535  L 267.234672 223.687227  L 272.184052 224.038868  L 277.133433 224.179707  L 282.082814 224.109514  L 287.032195 223.828404  L 291.981575 223.336831  L 296.930956 222.63559  L 301.880337 221.725812  L 306.829718 220.608969  L 311.779098 219.286865  L 316.728479 217.761636  L 321.67786 216.035748  L 326.627241 214.111989  L 331.576621 211.993467  L 336.526002 209.683607  L 341.475383 207.186139  L 346.424764 204.505101  L 351.374144 201.644825  L 358.798215 197.028525  L 366.222287 192.036185  L 373.646358 186.685953  L 381.070429 180.997278  L 388.4945 174.990839  L 395.918571 168.68847  L 403.342642 162.113082  L 410.766713 155.288577  L 420.665475 145.84472  L 430.564236 136.063203  L 442.937688 123.457927  L 457.78583 107.945038  L 502.330257 61.06784  L 514.703709 48.541081  L 524.602471 38.841047  L 534.501232 29.494704  L 541.925303 22.75348  L 546.874684 18.400899  L 546.874684 18.400899  " clip-path="url(#p6f323c7696)" style="fill: none; stroke: #2ca02c; stroke-width: 1.5; stroke-linecap: square"/>
   </g>
   <g id="line2d_20">
    <path d="M 54.411299 61.908546  L 66.784751 74.695065  L 86.582274 95.545765  L 111.329178 121.569808  L 123.70263 134.265789  L 133.601391 144.153967  L 143.500153 153.734293  L 153.398914 162.944952  L 160.822985 169.574437  L 168.247057 175.938276  L 175.671128 182.013239  L 183.095199 187.777104  L 190.51927 193.208747  L 197.943341 198.288212  L 205.367412 202.996787  L 210.316793 205.92114  L 215.266174 208.668074  L 220.215554 211.233053  L 225.164935 213.611826  L 230.114316 215.800438  L 235.063697 217.795234  L 240.013077 219.592868  L 244.962458 221.190305  L 249.911839 222.584829  L 254.86122 223.774047  L 259.8106 224.75589  L 264.759981 225.528621  L 269.709362 226.090838  L 274.658743 226.441472  L 279.608123 226.579792  L 284.557504 226.505408  L 289.506885 226.218267  L 294.456266 225.718661  L 299.405646 225.007217  L 304.355027 224.084904  L 309.304408 222.953031  L 314.253789 221.61324  L 319.203169 220.067509  L 324.15255 218.318146  L 329.101931 216.367788  L 334.051312 214.219395  L 339.000692 211.876246  L 343.950073 209.341935  L 348.899454 206.620365  L 353.848835 203.715739  L 358.798215 200.63256  L 366.222287 195.683561  L 373.646358 190.361011  L 381.070429 184.683627  L 388.4945 178.671422  L 395.918571 172.345643  L 403.342642 165.728688  L 410.766713 158.844033  L 420.665475 149.290488  L 430.564236 139.365089  L 440.462998 129.130768  L 452.83645 116.002651  L 470.159282 97.232293  L 499.855567 64.970736  L 512.229019 51.863017  L 522.12778 41.652135  L 532.026542 31.7573  L 541.925303 22.24235  L 546.874684 17.646657  L 546.874684 17.646657  " clip-path="url(#p6f323c7696)" style="fill: none; stroke-dasharray: 5.55,2.4; stroke-dashoffset: 0; stroke: #d62728; stroke-width: 1.5"/>
   </g>
   <g id="patch_3">
    <path d="M 54.411299 237.026449  L 54.411299 7.2  " style="fill: none; stroke: #000000; stroke-width: 0.8; stroke-linejoin: miter; stroke-linecap: square"/>
   </g>
   <g id="patch_4">
    <path d="M 546.874684 237.026449  L 546.874684 7.2  " style="fill: none; stroke: #000000; stroke-width: 0.8; stroke-linejoin: miter; stroke-linecap: square"/>
   </g>
   <g id="patch_5">
    <path d="M 54.411299 237.026449  L 546.874684 237.026449  " style="fill: none; stroke: #000000; stroke-width: 0.8; stroke-linejoin: miter; stroke-linecap: square"/>
   </g>
   <g id="patch_6">
    <path d="M 54.411299 7.2  L 546.874684 7.2  " style="fill: none; stroke: #000000; stroke-width: 0.8; stroke-linejoin: miter; stroke-linecap: square"/>
   </g>
   <g id="legend_1">
    <g id="patch_7">
     <path d="M 62.811299 231.026449  L 159.793085 231.026449  Q 162.193085 231.026449 162.193085 228.626449  L 162.193085 158.005776  Q 162.193085 155.605776 159.793085 155.605776  L 62.811299 155.605776  Q 60.411299 155.605776 60.411299 158.005776  L 60.411299 228.626449  Q 60.411299 231.026449 62.811299 231.026449  z " style="fill: #ffffff; opacity: 0.8; stroke: #cccccc; stroke-linejoin: miter"/>
    </g>
    <g id="line2d_21">
     <path d="M 65.211299 165.172152  L 77.211299 165.172152  L 89.211299 165.172152  " style="fill: none; stroke: #1f77b4; stroke-width: 1.5; stroke-linecap: square"/>
    </g>
    <g id="text_19">
     <!-- $x(t)$ (exact) -->
     <g transform="translate(98.811299 169.372152) scale(0.12 -0.12)">
      <defs>
       <path id="CMMI12-78" d="M 3034 2606  C 2829 2567 2752 2414 2752 2293  C 2752 2139 2874 2088 2963 2088  C 3155 2088 3290 2254 3290 2427  C 3290 2695 2982 2816 2714 2816  C 2323 2816 2106 2433 2048 2312  C 1901 2816 1504 2816 1389 2816  C 736 2816 390 1980 390 1839  C 390 1814 416 1782 461 1782  C 512 1782 525 1820 538 1846  C 755 2555 1184 2689 1370 2689  C 1658 2689 1715 2420 1715 2267  C 1715 2127 1677 1980 1600 1673  L 1382 798  C 1286 415 1101 64 762 64  C 730 64 570 64 435 147  C 666 192 717 383 717 460  C 717 588 621 664 499 664  C 346 664 179 530 179 326  C 179 57 480 -64 755 -64  C 1062 -64 1280 179 1414 441  C 1517 64 1837 -64 2074 -64  C 2726 -64 3072 773 3072 913  C 3072 945 3046 971 3008 971  C 2950 971 2944 939 2925 888  C 2752 326 2381 64 2093 64  C 1869 64 1747 230 1747 492  C 1747 632 1773 734 1875 1156  L 2099 2024  C 2195 2408 2413 2689 2707 2689  C 2720 2689 2899 2689 3034 2606  z " transform="scale(0.015625)"/>
       <path id="CMSS17-28" d="M 1613 4768  C 1267 4417 474 3601 474 1588  C 474 -433 1267 -1243 1613 -1600  L 2003 -1600  C 1216 -784 960 357 960 1581  C 960 2798 1203 3946 2003 4768  L 1613 4768  z " transform="scale(0.015625)"/>
       <path id="CMSS17-78" d="M 1587 1414  L 2656 2739  L 2099 2739  L 1363 1777  L 602 2739  L 32 2739  L 1139 1414  L 0 0  L 563 0  L 1363 1121  L 2195 0  L 2758 0  L 1587 1414  z " transform="scale(0.015625)"/>
       <path id="CMSS17-61" d="M 2406 1791  C 2406 2392 1978 2808 1402 2808  C 1120 2808 813 2757 461 2553  L 499 2135  C 659 2248 934 2432 1395 2432  C 1722 2432 1920 2180 1920 1782  L 1920 1536  C 896 1536 256 1238 256 726  C 256 461 416 -64 947 -64  C 1043 -64 1562 -64 1933 217  L 1933 -19  L 2406 -19  L 2406 1791  z M 1920 816  C 1920 701 1920 548 1728 434  C 1562 325 1350 325 1261 325  C 941 325 723 511 723 744  C 723 1211 1722 1211 1920 1211  L 1920 816  z " transform="scale(0.015625)"/>
       <path id="CMSS17-63" d="M 2464 2541  C 2464 2585 2170 2714 2093 2739  C 1882 2816 1613 2816 1542 2816  C 710 2816 211 2093 211 1363  C 211 595 768 -64 1517 -64  C 1946 -64 2253 76 2502 242  L 2464 664  C 2189 453 1869 337 1523 337  C 1024 337 698 774 698 1369  C 698 1831 909 2414 1549 2414  C 1901 2414 2099 2343 2394 2145  L 2464 2541  z " transform="scale(0.015625)"/>
       <path id="CMSS17-74" d="M 1069 2368  L 1901 2368  L 1901 2737  L 1069 2737  L 1069 3520  L 614 3520  L 614 2737  L 109 2737  L 109 2368  L 602 2368  L 602 749  C 602 384 685 -64 1107 -64  C 1427 -64 1722 25 2003 172  L 1901 548  C 1747 414 1562 337 1363 337  C 1082 337 1069 696 1069 856  L 1069 2368  z " transform="scale(0.015625)"/>
       <path id="CMSS17-29" d="M 723 -1600  C 1069 -1249 1862 -433 1862 1581  C 1862 3601 1069 4411 723 4768  L 333 4768  C 1120 3952 1376 2811 1376 1588  C 1376 370 1133 -778 333 -1600  L 723 -1600  z " transform="scale(0.015625)"/>
      </defs>
      <use xlink:href="#CMMI12-78" transform="scale(0.996264)"/>
      <use xlink:href="#CMR17-28" transform="translate(55.43406 0) scale(0.996264)"/>
      <use xlink:href="#CMMI12-74" transform="translate(90.714827 0) scale(0.996264)"/>
      <use xlink:href="#CMR17-29" transform="translate(125.941158 0) scale(0.996264)"/>
      <use xlink:href="#CMSS17-28" transform="translate(192.451038 0) scale(0.996264)"/>
      <use xlink:href="#CMSS17-65" transform="translate(228.884952 0) scale(0.996264)"/>
      <use xlink:href="#CMSS17-78" transform="translate(270.523774 0) scale(0.996264)"/>
      <use xlink:href="#CMSS17-61" transform="translate(313.523916 0) scale(0.996264)"/>
      <use xlink:href="#CMSS17-63" transform="translate(358.445837 0) scale(0.996264)"/>
      <use xlink:href="#CMSS17-74" transform="translate(400.084659 0) scale(0.996264)"/>
      <use xlink:href="#CMSS17-29" transform="translate(433.916225 0) scale(0.996264)"/>
     </g>
    </g>
    <g id="line2d_22">
     <path d="M 65.211299 183.127321  L 77.211299 183.127321  L 89.211299 183.127321  " style="fill: none; stroke-dasharray: 5.55,2.4; stroke-dashoffset: 0; stroke: #ff7f0e; stroke-width: 1.5"/>
    </g>
    <g id="text_20">
     <!-- $x(t)$ (Euler) -->
     <g transform="translate(98.811299 187.327321) scale(0.12 -0.12)">
      <defs>
       <path id="CMSS17-45" d="M 1958 433  C 1446 433 1216 433 1101 433  L 1101 2107  L 3085 2107  L 3085 2496  L 1101 2496  L 1101 4009  L 1926 4009  C 2003 4009 2080 4009 2157 4009  L 3251 4009  L 3251 4416  L 563 4416  L 563 0  L 3334 0  L 3334 433  L 1958 433  z " transform="scale(0.015625)"/>
       <path id="CMSS17-75" d="M 2618 2739  L 2131 2739  L 2131 972  C 2131 498 1786 306 1421 306  C 998 306 960 447 960 709  L 960 2739  L 474 2739  L 474 678  C 474 179 646 -64 1088 -64  C 1306 -64 1798 -13 2144 306  L 2144 0  L 2618 0  L 2618 2739  z " transform="scale(0.015625)"/>
       <path id="CMSS17-6c" d="M 947 4416  L 474 4416  L 474 0  L 947 0  L 947 4416  z " transform="scale(0.015625)"/>
       <path id="CMSS17-72" d="M 954 1363  C 954 1965 1395 2368 1958 2368  L 1958 2789  C 1549 2789 1165 2585 934 2253  L 934 2758  L 480 2758  L 480 0  L 954 0  L 954 1363  z " transform="scale(0.015625)"/>
      </defs>
      <use xlink:href="#CMMI12-78" transform="scale(0.996264)"/>
      <use xlink:href="#CMR17-28" transform="translate(55.43406 0) scale(0.996264)"/>
      <use xlink:href="#CMMI12-74" transform="translate(90.714827 0) scale(0.996264)"/>
      <use xlink:href="#CMR17-29" transform="translate(125.941158 0) scale(0.996264)"/>
      <use xlink:href="#CMSS17-28" transform="translate(192.451038 0) scale(0.996264)"/>
      <use xlink:href="#CMSS17-45" transform="translate(228.884952 0) scale(0.996264)"/>
      <use xlink:href="#CMSS17-75" transform="translate(284.776966 0) scale(0.996264)"/>
      <use xlink:href="#CMSS17-6c" transform="translate(332.981909 0) scale(0.996264)"/>
      <use xlink:href="#CMSS17-65" transform="translate(355.162632 0) scale(0.996264)"/>
      <use xlink:href="#CMSS17-72" transform="translate(396.801454 0) scale(0.996264)"/>
      <use xlink:href="#CMSS17-29" transform="translate(428.711226 0) scale(0.996264)"/>
     </g>
    </g>
    <g id="line2d_23">
     <path d="M 65.211299 201.082489  L 77.211299 201.082489  L 89.211299 201.082489  " style="fill: none; stroke: #2ca02c; stroke-width: 1.5; stroke-linecap: square"/>
    </g>
    <g id="text_21">
     <!-- $v(t)$ (exact) -->
     <g transform="translate(98.811299 205.282489) scale(0.12 -0.12)">
      <defs>
       <path id="CMMI12-76" d="M 2925 2389  C 2925 2791 2720 2816 2669 2816  C 2515 2816 2374 2663 2374 2535  C 2374 2459 2419 2414 2445 2389  C 2509 2331 2675 2159 2675 1827  C 2675 1558 2291 64 1523 64  C 1133 64 1056 390 1056 626  C 1056 945 1203 1392 1376 1852  C 1478 2114 1504 2178 1504 2305  C 1504 2574 1312 2816 998 2816  C 410 2816 173 1890 173 1839  C 173 1814 198 1782 243 1782  C 301 1782 307 1807 333 1897  C 486 2446 736 2689 979 2689  C 1037 2689 1146 2689 1146 2478  C 1146 2312 1075 2127 979 1884  C 672 1067 672 869 672 715  C 672 575 691 313 890 134  C 1120 -64 1440 -64 1498 -64  C 2560 -64 2925 2024 2925 2389  z " transform="scale(0.015625)"/>
      </defs>
      <use xlink:href="#CMMI12-76" transform="scale(0.996264)"/>
      <use xlink:href="#CMR17-28" transform="translate(50.735173 0) scale(0.996264)"/>
      <use xlink:href="#CMMI12-74" transform="translate(86.015941 0) scale(0.996264)"/>
      <use xlink:href="#CMR17-29" transform="translate(121.242271 0) scale(0.996264)"/>
      <use xlink:href="#CMSS17-28" transform="translate(187.752152 0) scale(0.996264)"/>
      <use xlink:href="#CMSS17-65" transform="translate(224.186066 0) scale(0.996264)"/>
      <use xlink:href="#CMSS17-78" transform="translate(265.824888 0) scale(0.996264)"/>
      <use xlink:href="#CMSS17-61" transform="translate(308.82503 0) scale(0.996264)"/>
      <use xlink:href="#CMSS17-63" transform="translate(353.746951 0) scale(0.996264)"/>
      <use xlink:href="#CMSS17-74" transform="translate(395.385773 0) scale(0.996264)"/>
      <use xlink:href="#CMSS17-29" transform="translate(429.217339 0) scale(0.996264)"/>
     </g>
    </g>
    <g id="line2d_24">
     <path d="M 65.211299 219.037657  L 77.211299 219.037657  L 89.211299 219.037657  " style="fill: none; stroke-dasharray: 5.55,2.4; stroke-dashoffset: 0; stroke: #d62728; stroke-width: 1.5"/>
    </g>
    <g id="text_22">
     <!-- $v(t)$ (Euler) -->
     <g transform="translate(98.811299 223.237657) scale(0.12 -0.12)">
      <use xlink:href="#CMMI12-76" transform="scale(0.996264)"/>
      <use xlink:href="#CMR17-28" transform="translate(50.735173 0) scale(0.996264)"/>
      <use xlink:href="#CMMI12-74" transform="translate(86.015941 0) scale(0.996264)"/>
      <use xlink:href="#CMR17-29" transform="translate(121.242271 0) scale(0.996264)"/>
      <use xlink:href="#CMSS17-28" transform="translate(187.752152 0) scale(0.996264)"/>
      <use xlink:href="#CMSS17-45" transform="translate(224.186066 0) scale(0.996264)"/>
      <use xlink:href="#CMSS17-75" transform="translate(280.078079 0) scale(0.996264)"/>
      <use xlink:href="#CMSS17-6c" transform="translate(328.283023 0) scale(0.996264)"/>
      <use xlink:href="#CMSS17-65" transform="translate(350.463746 0) scale(0.996264)"/>
      <use xlink:href="#CMSS17-72" transform="translate(392.102568 0) scale(0.996264)"/>
      <use xlink:href="#CMSS17-29" transform="translate(424.01234 0) scale(0.996264)"/>
     </g>
    </g>
   </g>
  </g>
 </g>
 <defs>
  <clipPath id="p6f323c7696">
   <rect x="54.411299" y="7.2" width="492.463385" height="229.826449"/>
  </clipPath>
 </defs>
</svg>