<svg xmlns:xlink="http://www.w3.org/1999/xlink" xmlns="http://www.w3.org/2000/svg" width="570.33299pt" height="276.48pt" viewBox="0 0 570.33299 276.48" version="1.1">
 <metadata>
  <rdf:RDF xmlns:dc="http://purl.org/dc/elements/1.1/" xmlns:cc="http://creativecommons.org/ns#" xmlns:rdf="http://www.w3.org/1999/02/22-rdf-syntax-ns#">
   <cc:Work>
    <dc:type rdf:resource="http://purl.org/dc/dcmitype/StillImage"/>
    <dc:date>2025-06-17T10:19:44.275212</dc:date>
    <dc:format>image/svg+xml</dc:format>
    <dc:creator>
     <cc:Agent>
      <dc:title>Matplotlib v3.10.3, https://matplotlib.org/</dc:title>
     </cc:Agent>
    </dc:creator>
   </cc:Work>
  </rdf:RDF>
 </metadata>
 <defs>
  <style type="text/css">*{stroke-linejoin: round; stroke-linecap: butt}</style>
 </defs>
 <g id="figure_1">
  <g id="patch_1">
   <path d="M 0 276.48  L 570.33299 276.48  L 570.33299 0  L 0 0  z " style="fill: #ffffff"/>
  </g>
  <g id="axes_1">
   <g id="patch_2">
    <path d="M 52.315445 237.026449  L 557.28 237.026449  L 557.28 23.162625  L 52.315445 23.162625  z " style="fill: #ffffff"/>
   </g>
   <g id="matplotlib.axis_1">
    <g id="xtick_1">
     <g id="line2d_1">
      <defs>
       <path id="mc4b03e2f87" d="M 0 0  L 0 3.5  " style="stroke: #000000; stroke-width: 0.8"/>
      </defs>
      <g>
       <use xlink:href="#mc4b03e2f87" x="52.315445" y="237.026449" style="stroke: #000000; stroke-width: 0.8"/>
      </g>
     </g>
     <g id="text_1">
      <!-- $\mathdefault{0}$ -->
      <g transform="translate(49.38895 252.328629) scale(0.12 -0.12)">
       <defs>
        <path id="CMR17-30" d="M 2688 2025  C 2688 2416 2682 3080 2413 3591  C 2176 4039 1798 4198 1466 4198  C 1158 4198 768 4058 525 3597  C 269 3118 243 2524 243 2025  C 243 1661 250 1106 448 619  C 723 -39 1216 -128 1466 -128  C 1760 -128 2208 -7 2470 600  C 2662 1042 2688 1559 2688 2025  z M 1466 -26  C 1056 -26 813 325 723 812  C 653 1188 653 1738 653 2096  C 653 2588 653 2997 736 3387  C 858 3929 1216 4096 1466 4096  C 1728 4096 2067 3923 2189 3400  C 2272 3036 2278 2607 2278 2096  C 2278 1680 2278 1169 2202 792  C 2067 95 1690 -26 1466 -26  z " transform="scale(0.015625)"/>
       </defs>
       <use xlink:href="#CMR17-30" transform="scale(0.996264)"/>
      </g>
     </g>
    </g>
    <g id="xtick_2">
     <g id="line2d_2">
      <g>
       <use xlink:href="#mc4b03e2f87" x="153.308356" y="237.026449" style="stroke: #000000; stroke-width: 0.8"/>
      </g>
     </g>
     <g id="text_2">
      <!-- $\mathdefault{2}$ -->
      <g transform="translate(150.381861 252.328629) scale(0.12 -0.12)">
       <defs>
        <path id="CMR17-32" d="M 2669 989  L 2554 989  C 2490 536 2438 459 2413 420  C 2381 369 1920 369 1830 369  L 602 369  C 832 619 1280 1072 1824 1597  C 2214 1967 2669 2402 2669 3035  C 2669 3790 2067 4224 1395 4224  C 691 4224 262 3604 262 3030  C 262 2780 448 2748 525 2748  C 589 2748 781 2787 781 3010  C 781 3207 614 3264 525 3264  C 486 3264 448 3258 422 3245  C 544 3790 915 4058 1306 4058  C 1862 4058 2227 3617 2227 3035  C 2227 2479 1901 2000 1536 1584  L 262 146  L 262 0  L 2515 0  L 2669 989  z " transform="scale(0.015625)"/>
       </defs>
       <use xlink:href="#CMR17-32" transform="scale(0.996264)"/>
      </g>
     </g>
    </g>
    <g id="xtick_3">
     <g id="line2d_3">
      <g>
       <use xlink:href="#mc4b03e2f87" x="254.301267" y="237.026449" style="stroke: #000000; stroke-width: 0.8"/>
      </g>
     </g>
     <g id="text_3">
      <!-- $\mathdefault{4}$ -->
      <g transform="translate(251.374772 252.328629) scale(0.12 -0.12)">
       <defs>
        <path id="CMR17-34" d="M 2150 4122  C 2150 4256 2144 4256 2029 4256  L 128 1254  L 128 1088  L 1779 1088  L 1779 457  C 1779 224 1766 160 1318 160  L 1197 160  L 1197 0  C 1402 0 1747 0 1965 0  C 2182 0 2528 0 2733 0  L 2733 160  L 2611 160  C 2163 160 2150 224 2150 457  L 2150 1088  L 2803 1088  L 2803 1254  L 2150 1254  L 2150 4122  z M 1798 3703  L 1798 1254  L 256 1254  L 1798 3703  z " transform="scale(0.015625)"/>
       </defs>
       <use xlink:href="#CMR17-34" transform="scale(0.996264)"/>
      </g>
     </g>
    </g>
    <g id="xtick_4">
     <g id="line2d_4">
      <g>
       <use xlink:href="#mc4b03e2f87" x="355.294178" y="237.026449" style="stroke: #000000; stroke-width: 0.8"/>
      </g>
     </g>
     <g id="text_4">
      <!-- $\mathdefault{6}$ -->
      <g transform="translate(352.367683 252.328629) scale(0.12 -0.12)">
       <defs>
        <path id="CMR17-36" d="M 678 2176  C 678 3690 1395 4032 1811 4032  C 1946 4032 2272 4009 2400 3776  C 2298 3776 2106 3776 2106 3553  C 2106 3381 2246 3323 2336 3323  C 2394 3323 2566 3348 2566 3560  C 2566 3954 2246 4179 1805 4179  C 1043 4179 243 3390 243 1984  C 243 253 966 -128 1478 -128  C 2099 -128 2688 427 2688 1283  C 2688 2081 2170 2662 1517 2662  C 1126 2662 838 2407 678 1960  L 678 2176  z M 1478 25  C 691 25 691 1200 691 1436  C 691 1896 909 2560 1504 2560  C 1613 2560 1926 2560 2138 2120  C 2253 1870 2253 1609 2253 1289  C 2253 944 2253 690 2118 434  C 1978 171 1773 25 1478 25  z " transform="scale(0.015625)"/>
       </defs>
       <use xlink:href="#CMR17-36" transform="scale(0.996264)"/>
      </g>
     </g>
    </g>
    <g id="xtick_5">
     <g id="line2d_5">
      <g>
       <use xlink:href="#mc4b03e2f87" x="456.287089" y="237.026449" style="stroke: #000000; stroke-width: 0.8"/>
      </g>
     </g>
     <g id="text_5">
      <!-- $\mathdefault{8}$ -->
      <g transform="translate(453.360594 252.328629) scale(0.12 -0.12)">
       <defs>
        <path id="CMR17-38" d="M 1741 2264  C 2144 2467 2554 2773 2554 3263  C 2554 3841 1990 4179 1472 4179  C 890 4179 378 3759 378 3180  C 378 3021 416 2747 666 2505  C 730 2442 998 2251 1171 2130  C 883 1983 211 1634 211 934  C 211 279 838 -128 1459 -128  C 2144 -128 2720 362 2720 1010  C 2720 1590 2330 1857 2074 2029  L 1741 2264  z M 902 2822  C 851 2854 595 3051 595 3351  C 595 3739 998 4032 1459 4032  C 1965 4032 2336 3676 2336 3262  C 2336 2669 1670 2331 1638 2331  C 1632 2331 1626 2331 1574 2370  L 902 2822  z M 2080 1519  C 2176 1449 2483 1240 2483 851  C 2483 381 2010 25 1472 25  C 890 25 448 438 448 940  C 448 1443 838 1862 1280 2060  L 2080 1519  z " transform="scale(0.015625)"/>
       </defs>
       <use xlink:href="#CMR17-38" transform="scale(0.996264)"/>
      </g>
     </g>
    </g>
    <g id="xtick_6">
     <g id="line2d_6">
      <g>
       <use xlink:href="#mc4b03e2f87" x="557.28" y="237.026449" style="stroke: #000000; stroke-width: 0.8"/>
      </g>
     </g>
     <g id="text_6">
      <!-- $\mathdefault{10}$ -->
      <g transform="translate(551.42701 252.328629) scale(0.12 -0.12)">
       <defs>
        <path id="CMR17-31" d="M 1702 4058  C 1702 4192 1696 4192 1606 4192  C 1357 3916 979 3827 621 3827  C 602 3827 570 3827 563 3808  C 557 3795 557 3782 557 3648  C 755 3648 1088 3686 1344 3839  L 1344 461  C 1344 236 1331 160 781 160  L 589 160  L 589 0  C 896 0 1216 0 1523 0  C 1830 0 2150 0 2458 0  L 2458 160  L 2266 160  C 1715 160 1702 230 1702 458  L 1702 4058  z " transform="scale(0.015625)"/>
       </defs>
       <use xlink:href="#CMR17-31" transform="scale(0.996264)"/>
       <use xlink:href="#CMR17-30" transform="translate(45.690477 0) scale(0.996264)"/>
      </g>
     </g>
    </g>
    <g id="text_7">
     <!-- $\tau$ -->
     <g transform="translate(302.255893 266.955404) scale(0.12 -0.12)">
      <defs>
       <path id="CMMI12-1c" d="M 1837 2408  L 2899 2408  C 2982 2408 3194 2408 3194 2612  C 3194 2752 3072 2752 2957 2752  L 1197 2752  C 1050 2752 832 2752 538 2440  C 371 2255 166 1917 166 1879  C 166 1841 198 1828 237 1828  C 282 1828 288 1847 320 1885  C 653 2408 986 2408 1146 2408  L 1677 2408  L 1011 223  C 979 127 979 114 979 95  C 979 25 1024 -64 1152 -64  C 1350 -64 1382 108 1402 203  L 1837 2408  z " transform="scale(0.015625)"/>
      </defs>
      <use xlink:href="#CMMI12-1c" transform="scale(0.996264)"/>
     </g>
    </g>
   </g>
   <g id="matplotlib.axis_2">
    <g id="ytick_1">
     <g id="line2d_7">
      <defs>
       <path id="maad93e52b4" d="M 0 0  L -3.5 0  " style="stroke: #000000; stroke-width: 0.8"/>
      </defs>
      <g>
       <use xlink:href="#maad93e52b4" x="52.315445" y="237.026449" style="stroke: #000000; stroke-width: 0.8"/>
      </g>
     </g>
     <g id="text_8">
      <!-- $\mathdefault{0.00}$ -->
      <g transform="translate(24.504813 241.177539) scale(0.12 -0.12)">
       <defs>
        <path id="CMMI12-3a" d="M 1178 307  C 1178 492 1024 619 870 619  C 685 619 557 466 557 313  C 557 128 710 0 864 0  C 1050 0 1178 153 1178 307  z " transform="scale(0.015625)"/>
       </defs>
       <use xlink:href="#CMR17-30" transform="scale(0.996264)"/>
       <use xlink:href="#CMMI12-3a" transform="translate(45.690477 0) scale(0.996264)"/>
       <use xlink:href="#CMR17-30" transform="translate(72.787654 0) scale(0.996264)"/>
       <use xlink:href="#CMR17-30" transform="translate(118.478131 0) scale(0.996264)"/>
      </g>
     </g>
    </g>
    <g id="ytick_2">
     <g id="line2d_8">
      <g>
       <use xlink:href="#maad93e52b4" x="52.315445" y="205.66811" style="stroke: #000000; stroke-width: 0.8"/>
      </g>
     </g>
     <g id="text_9">
      <!-- $\mathdefault{0.25}$ -->
      <g transform="translate(24.504813 209.8192) scale(0.12 -0.12)">
       <defs>
        <path id="CMR17-35" d="M 730 3692  C 794 3666 1056 3584 1325 3584  C 1920 3584 2246 3911 2432 4100  C 2432 4157 2432 4192 2394 4192  C 2387 4192 2374 4192 2323 4163  C 2099 4058 1837 3973 1517 3973  C 1325 3973 1037 3999 723 4139  C 653 4171 640 4171 634 4171  C 602 4171 595 4164 595 4037  L 595 2203  C 595 2089 595 2057 659 2057  C 691 2057 704 2070 736 2114  C 941 2401 1222 2522 1542 2522  C 1766 2522 2246 2382 2246 1289  C 2246 1085 2246 715 2054 421  C 1894 159 1645 25 1370 25  C 947 25 518 320 403 814  C 429 807 480 795 506 795  C 589 795 749 840 749 1038  C 749 1210 627 1280 506 1280  C 358 1280 262 1190 262 1011  C 262 454 704 -128 1382 -128  C 2042 -128 2669 440 2669 1264  C 2669 2030 2170 2624 1549 2624  C 1222 2624 947 2503 730 2274  L 730 3692  z " transform="scale(0.015625)"/>
       </defs>
       <use xlink:href="#CMR17-30" transform="scale(0.996264)"/>
       <use xlink:href="#CMMI12-3a" transform="translate(45.690477 0) scale(0.996264)"/>
       <use xlink:href="#CMR17-32" transform="translate(72.787654 0) scale(0.996264)"/>
       <use xlink:href="#CMR17-35" transform="translate(118.478131 0) scale(0.996264)"/>
      </g>
     </g>
    </g>
    <g id="ytick_3">
     <g id="line2d_9">
      <g>
       <use xlink:href="#maad93e52b4" x="52.315445" y="174.309771" style="stroke: #000000; stroke-width: 0.8"/>
      </g>
     </g>
     <g id="text_10">
      <!-- $\mathdefault{0.50}$ -->
      <g transform="translate(24.504813 178.460861) scale(0.12 -0.12)">
       <use xlink:href="#CMR17-30" transform="scale(0.996264)"/>
       <use xlink:href="#CMMI12-3a" transform="translate(45.690477 0) scale(0.996264)"/>
       <use xlink:href="#CMR17-35" transform="translate(72.787654 0) scale(0.996264)"/>
       <use xlink:href="#CMR17-30" transform="translate(118.478131 0) scale(0.996264)"/>
      </g>
     </g>
    </g>
    <g id="ytick_4">
     <g id="line2d_10">
      <g>
       <use xlink:href="#maad93e52b4" x="52.315445" y="142.951432" style="stroke: #000000; stroke-width: 0.8"/>
      </g>
     </g>
     <g id="text_11">
      <!-- $\mathdefault{0.75}$ -->
      <g transform="translate(24.504813 147.102521) scale(0.12 -0.12)">
       <defs>
        <path id="CMR17-37" d="M 2886 3941  L 2886 4081  L 1382 4081  C 634 4081 621 4165 595 4288  L 480 4288  L 294 3094  L 410 3094  C 429 3215 474 3540 550 3661  C 589 3712 1062 3712 1171 3712  L 2579 3712  L 1869 2661  C 1395 1954 1069 999 1069 165  C 1069 89 1069 -128 1299 -128  C 1530 -128 1530 89 1530 171  L 1530 465  C 1530 1508 1709 2196 2003 2636  L 2886 3941  z " transform="scale(0.015625)"/>
       </defs>
       <use xlink:href="#CMR17-30" transform="scale(0.996264)"/>
       <use xlink:href="#CMMI12-3a" transform="translate(45.690477 0) scale(0.996264)"/>
       <use xlink:href="#CMR17-37" transform="translate(72.787654 0) scale(0.996264)"/>
       <use xlink:href="#CMR17-35" transform="translate(118.478131 0) scale(0.996264)"/>
      </g>
     </g>
    </g>
    <g id="ytick_5">
     <g id="line2d_11">
      <g>
       <use xlink:href="#maad93e52b4" x="52.315445" y="111.593092" style="stroke: #000000; stroke-width: 0.8"/>
      </g>
     </g>
     <g id="text_12">
      <!-- $\mathdefault{1.00}$ -->
      <g transform="translate(24.504813 115.744182) scale(0.12 -0.12)">
       <use xlink:href="#CMR17-31" transform="scale(0.996264)"/>
       <use xlink:href="#CMMI12-3a" transform="translate(45.690477 0) scale(0.996264)"/>
       <use xlink:href="#CMR17-30" transform="translate(72.787654 0) scale(0.996264)"/>
       <use xlink:href="#CMR17-30" transform="translate(118.478131 0) scale(0.996264)"/>
      </g>
     </g>
    </g>
    <g id="ytick_6">
     <g id="line2d_12">
      <g>
       <use xlink:href="#maad93e52b4" x="52.315445" y="80.234753" style="stroke: #000000; stroke-width: 0.8"/>
      </g>
     </g>
     <g id="text_13">
      <!-- $\mathdefault{1.25}$ -->
      <g transform="translate(24.504813 84.385843) scale(0.12 -0.12)">
       <use xlink:href="#CMR17-31" transform="scale(0.996264)"/>
       <use xlink:href="#CMMI12-3a" transform="translate(45.690477 0) scale(0.996264)"/>
       <use xlink:href="#CMR17-32" transform="translate(72.787654 0) scale(0.996264)"/>
       <use xlink:href="#CMR17-35" transform="translate(118.478131 0) scale(0.996264)"/>
      </g>
     </g>
    </g>
    <g id="ytick_7">
     <g id="line2d_13">
      <g>
       <use xlink:href="#maad93e52b4" x="52.315445" y="48.876414" style="stroke: #000000; stroke-width: 0.8"/>
      </g>
     </g>
     <g id="text_14">
      <!-- $\mathdefault{1.50}$ -->
      <g transform="translate(24.504813 53.027504) scale(0.12 -0.12)">
       <use xlink:href="#CMR17-31" transform="scale(0.996264)"/>
       <use xlink:href="#CMMI12-3a" transform="translate(45.690477 0) scale(0.996264)"/>
       <use xlink:href="#CMR17-35" transform="translate(72.787654 0) scale(0.996264)"/>
       <use xlink:href="#CMR17-30" transform="translate(118.478131 0) scale(0.996264)"/>
      </g>
     </g>
    </g>
    <g id="text_15">
     <!-- $g^{(2)}(\tau)$ -->
     <g transform="translate(17.516021 146.53287) rotate(-90) scale(0.12 -0.12)">
      <defs>
       <path id="CMMI12-67" d="M 2163 811  C 2138 709 2125 683 2042 588  C 1779 249 1510 128 1312 128  C 1101 128 902 294 902 734  C 902 1073 1094 1788 1235 2076  C 1421 2433 1709 2689 1978 2689  C 2400 2689 2483 2165 2483 2127  L 2464 2037  L 2163 811  z M 2560 2395  C 2477 2580 2298 2816 1978 2816  C 1280 2816 486 1941 486 990  C 486 326 890 0 1299 0  C 1638 0 1939 268 2054 396  L 1914 -171  C 1824 -516 1786 -674 1555 -894  C 1293 -1152 1050 -1152 909 -1152  C 717 -1152 557 -1139 397 -1089  C 602 -1033 653 -858 653 -789  C 653 -689 576 -588 435 -588  C 282 -588 115 -714 115 -922  C 115 -1180 378 -1280 922 -1280  C 1747 -1280 2176 -753 2259 -410  L 2970 2435  C 2989 2511 2989 2524 2989 2536  C 2989 2625 2918 2695 2822 2695  C 2669 2695 2579 2567 2560 2395  z " transform="scale(0.015625)"/>
       <path id="CMR17-28" d="M 1958 -1561  C 1958 -1555 1958 -1542 1939 -1523  C 1645 -1224 858 -407 858 1581  C 858 3569 1632 4379 1946 4697  C 1946 4704 1958 4717 1958 4736  C 1958 4755 1939 4768 1914 4768  C 1843 4768 1299 4296 986 3594  C 666 2887 576 2199 576 1588  C 576 1128 621 351 1005 -471  C 1312 -1135 1837 -1600 1914 -1600  C 1946 -1600 1958 -1587 1958 -1561  z " transform="scale(0.015625)"/>
       <path id="CMR17-29" d="M 1683 1581  C 1683 2040 1638 2817 1254 3639  C 947 4303 422 4768 346 4768  C 326 4768 301 4761 301 4729  C 301 4717 307 4710 314 4697  C 621 4378 1402 3568 1402 1584  C 1402 -407 627 -1217 314 -1537  C 307 -1549 301 -1556 301 -1568  C 301 -1600 326 -1600 346 -1600  C 416 -1600 960 -1128 1274 -426  C 1594 281 1683 969 1683 1581  z " transform="scale(0.015625)"/>
      </defs>
      <use xlink:href="#CMMI12-67" transform="scale(0.996264)"/>
      <use xlink:href="#CMR17-28" transform="translate(50.285489 36.153639) scale(0.697382)"/>
      <use xlink:href="#CMR17-32" transform="translate(74.98191 36.153639) scale(0.697382)"/>
      <use xlink:href="#CMR17-29" transform="translate(106.965092 36.153639) scale(0.697382)"/>
      <use xlink:href="#CMR17-28" transform="translate(132.159644 0) scale(0.996264)"/>
      <use xlink:href="#CMMI12-1c" transform="translate(167.440412 0) scale(0.996264)"/>
      <use xlink:href="#CMR17-29" transform="translate(220.931577 0) scale(0.996264)"/>
     </g>
    </g>
   </g>
   <g id="line2d_14">
    <path d="M 52.315445 237.026449  L 53.58102 236.035679  L 54.846595 233.127815  L 56.112171 228.419246  L 57.377746 222.050328  L 58.643321 214.182308  L 59.908897 204.99402  L 61.174472 194.678427  L 63.705623 171.486477  L 72.56465 85.407063  L 73.830225 75.049463  L 75.095801 65.647675  L 76.361376 57.314092  L 77.626951 50.140139  L 78.892527 44.195583  L 80.158102 39.528486  L 81.423677 36.164947  L 82.689253 34.109643  L 83.954828 33.346617  L 85.220403 33.840139  L 86.485979 35.536104  L 87.751554 38.363529  L 89.017129 42.236281  L 90.282705 47.054983  L 91.54828 52.709086  L 92.813855 59.07901  L 95.345006 73.456049  L 104.204033 127.244666  L 105.469608 133.762394  L 106.735184 139.691609  L 108.000759 144.960929  L 109.266334 149.51199  L 110.53191 153.299839  L 111.797485 156.293168  L 113.06306 158.474302  L 114.328636 159.838968  L 115.594211 160.395862  L 116.859786 160.166046  L 118.125362 159.182154  L 119.390937 157.487447  L 120.656512 155.134769  L 121.922088 152.185337  L 123.187663 148.707454  L 124.453238 144.775228  L 126.984389 135.864765  L 130.781115 121.122477  L 134.577841 106.66895  L 137.108992 98.158587  L 138.374567 94.420226  L 139.640142 91.089389  L 140.905718 88.203354  L 142.171293 85.791025  L 143.436868 83.872719  L 144.702444 82.460393  L 145.968019 81.55756  L 147.233594 81.159543  L 148.49917 81.254007  L 149.764745 81.821282  L 151.03032 82.835013  L 152.295896 84.262826  L 153.561471 86.06703  L 154.827046 88.205395  L 157.358197 93.298195  L 159.889348 99.145276  L 166.217224 114.377012  L 168.748375 119.724944  L 170.01395 122.081417  L 171.279525 124.18629  L 172.545101 126.015799  L 173.810676 127.551383  L 175.076251 128.779778  L 176.341827 129.693036  L 177.607402 130.288444  L 178.872977 130.568384  L 180.138553 130.5401  L 181.404128 130.215408  L 182.669703 129.61034  L 183.935279 128.744743  L 185.200854 127.641819  L 186.466429 126.327642  L 188.99758 123.181031  L 191.528731 119.5509  L 197.856607 110.036931  L 200.387758 106.676857  L 202.918909 103.861948  L 204.184484 102.702554  L 205.450059 101.72551  L 206.715635 100.939447  L 207.98121 100.349632  L 209.246785 99.95809  L 210.512361 99.763645  L 211.777936 99.762076  L 213.043511 99.946325  L 214.309087 100.306626  L 215.574662 100.830819  L 216.840237 101.50463  L 219.371388 103.235226  L 221.902539 105.353603  L 226.96484 110.118429  L 230.761566 113.541526  L 233.292716 115.497194  L 235.823867 117.07153  L 238.355018 118.195509  L 239.620593 118.575955  L 240.886168 118.832739  L 242.151744 118.966395  L 243.417319 118.979363  L 245.94847 118.661908  L 248.47962 117.933478  L 251.010771 116.868562  L 253.541922 115.556903  L 264.9321 109.213974  L 267.46325 108.218557  L 269.994401 107.502394  L 272.525552 107.089254  L 275.056702 106.982519  L 277.587853 107.166586  L 280.119004 107.609053  L 282.650154 108.264078  L 286.44688 109.521815  L 295.305907 112.670488  L 299.102633 113.670913  L 301.633784 114.126972  L 304.164935 114.394459  L 306.696085 114.470574  L 309.227236 114.364534  L 313.023962 113.909396  L 316.820688 113.190793  L 329.476441 110.500546  L 333.273167 110.023931  L 337.069893 109.809511  L 340.866619 109.8582  L 344.663345 110.13538  L 349.725646 110.751183  L 361.115824 112.262002  L 366.178126 112.629731  L 371.240427 112.704684  L 376.302728 112.510278  L 382.630605 112.018236  L 392.755208 111.183769  L 399.083084 110.919748  L 404.145386 110.913562  L 410.473262 111.123318  L 430.722467 112.011621  L 438.315919 111.982298  L 448.440522 111.678778  L 461.096275 111.345732  L 469.955302 111.348836  L 486.407782 111.665439  L 497.79796 111.762299  L 511.719288 111.62998  L 529.437343 111.487413  L 549.686548 111.619471  L 557.28 111.655424  L 557.28 111.655424  " clip-path="url(#p1e8afaee73)" style="fill: none; stroke: #1f77b4; stroke-width: 1.5; stroke-linecap: square"/>
   </g>
   <g id="patch_3">
    <path d="M 52.315445 237.026449  L 52.315445 23.162625  " style="fill: none; stroke: #000000; stroke-width: 0.8; stroke-linejoin: miter; stroke-linecap: square"/>
   </g>
   <g id="patch_4">
    <path d="M 557.28 237.026449  L 557.28 23.162625  " style="fill: none; stroke: #000000; stroke-width: 0.8; stroke-linejoin: miter; stroke-linecap: square"/>
   </g>
   <g id="patch_5">
    <path d="M 52.315445 237.026449  L 557.28 237.026449  " style="fill: none; stroke: #000000; stroke-width: 0.8; stroke-linejoin: miter; stroke-linecap: square"/>
   </g>
   <g id="patch_6">
    <path d="M 52.315445 23.162625  L 557.28 23.162625  " style="fill: none; stroke: #000000; stroke-width: 0.8; stroke-linejoin: miter; stroke-linecap: square"/>
   </g>
   <g id="text_16">
    <!-- Photon antibunching and Rabi oscillations -->
    <g transform="translate(181.398782 17.162625) scale(0.144 -0.144)">
     <defs>
      <path id="CMSS17-50" d="M 2106 1856  C 2874 1856 3501 2453 3501 3158  C 3501 3850 2899 4453 2067 4453  L 570 4453  L 570 0  L 1107 0  L 1107 1856  L 2106 1856  z M 1926 4096  C 2669 4096 2995 3627 2995 3157  C 2995 2720 2694 2226 1926 2226  L 1094 2226  L 1094 4096  L 1926 4096  z " transform="scale(0.015625)"/>
      <path id="CMSS17-68" d="M 2618 1891  C 2618 2292 2522 2820 1798 2820  C 1395 2820 1133 2623 947 2407  L 947 4448  L 474 4448  L 474 32  L 960 32  L 960 1573  C 960 1973 1114 2432 1549 2432  C 2112 2432 2131 2056 2131 1839  L 2131 32  L 2618 32  L 2618 1891  z " transform="scale(0.015625)"/>
      <path id="CMSS17-6f" d="M 2829 1356  C 2829 2176 2221 2816 1504 2816  C 768 2816 173 2157 173 1356  C 173 544 787 -64 1498 -64  C 2227 -64 2829 563 2829 1356  z M 1504 337  C 1050 337 659 709 659 1408  C 659 2151 1114 2427 1498 2427  C 1914 2427 2342 2126 2342 1408  C 2342 683 1926 337 1504 337  z " transform="scale(0.015625)"/>
      <path id="CMSS17-74" d="M 1069 2368  L 1901 2368  L 1901 2737  L 1069 2737  L 1069 3520  L 614 3520  L 614 2737  L 109 2737  L 109 2368  L 602 2368  L 602 749  C 602 384 685 -64 1107 -64  C 1427 -64 1722 25 2003 172  L 1901 548  C 1747 414 1562 337 1363 337  C 1082 337 1069 696 1069 856  L 1069 2368  z " transform="scale(0.015625)"/>
      <path id="CMSS17-6e" d="M 2618 1877  C 2618 2283 2522 2816 1798 2816  C 1389 2816 1120 2606 941 2389  L 941 2758  L 474 2758  L 474 0  L 960 0  L 960 1559  C 960 1964 1114 2428 1549 2428  C 2112 2428 2131 2048 2131 1829  L 2131 0  L 2618 0  L 2618 1877  z " transform="scale(0.015625)"/>
      <path id="CMSS17-61" d="M 2406 1791  C 2406 2392 1978 2808 1402 2808  C 1120 2808 813 2757 461 2553  L 499 2135  C 659 2248 934 2432 1395 2432  C 1722 2432 1920 2180 1920 1782  L 1920 1536  C 896 1536 256 1238 256 726  C 256 461 416 -64 947 -64  C 1043 -64 1562 -64 1933 217  L 1933 -19  L 2406 -19  L 2406 1791  z M 1920 816  C 1920 701 1920 548 1728 434  C 1562 325 1350 325 1261 325  C 941 325 723 511 723 744  C 723 1211 1722 1211 1920 1211  L 1920 816  z " transform="scale(0.015625)"/>
      <path id="CMSS17-69" d="M 979 4183  L 442 4183  L 442 3648  L 979 3648  L 979 4183  z M 947 2739  L 474 2739  L 474 0  L 947 0  L 947 2739  z " transform="scale(0.015625)"/>
      <path id="CMSS17-62" d="M 954 4416  L 480 4416  L 480 -13  L 966 -13  L 966 274  C 1210 38 1504 -64 1766 -64  C 2381 -64 2880 549 2880 1352  C 2880 2086 2496 2756 1926 2756  C 1523 2756 1165 2591 954 2419  L 954 4416  z M 966 2046  C 1107 2222 1306 2368 1587 2368  C 1965 2368 2394 2097 2394 1352  C 2394 558 1882 325 1530 325  C 1402 325 1267 356 1139 464  C 966 615 966 709 966 797  L 966 2046  z " transform="scale(0.015625)"/>
      <path id="CMSS17-75" d="M 2618 2739  L 2131 2739  L 2131 972  C 2131 498 1786 306 1421 306  C 998 306 960 447 960 709  L 960 2739  L 474 2739  L 474 678  C 474 179 646 -64 1088 -64  C 1306 -64 1798 -13 2144 306  L 2144 0  L 2618 0  L 2618 2739  z " transform="scale(0.015625)"/>
      <path id="CMSS17-63" d="M 2464 2541  C 2464 2585 2170 2714 2093 2739  C 1882 2816 1613 2816 1542 2816  C 710 2816 211 2093 211 1363  C 211 595 768 -64 1517 -64  C 1946 -64 2253 76 2502 242  L 2464 664  C 2189 453 1869 337 1523 337  C 1024 337 698 774 698 1369  C 698 1831 909 2414 1549 2414  C 1901 2414 2099 2343 2394 2145  L 2464 2541  z " transform="scale(0.015625)"/>
      <path id="CMSS17-67" d="M 2848 2808  C 2483 2808 2170 2738 1914 2617  C 1702 2777 1485 2808 1338 2808  C 781 2808 358 2349 358 1814  C 358 1468 550 1207 563 1195  C 448 1035 384 863 384 672  C 384 448 474 289 544 200  C 211 -3 166 -314 166 -435  C 166 -898 749 -1280 1498 -1280  C 2253 -1280 2835 -898 2835 -428  C 2835 448 1856 448 1587 448  L 1069 448  C 973 448 717 448 717 791  C 717 921 774 1004 781 1010  C 877 940 1075 832 1338 832  C 1869 832 2310 1278 2310 1827  C 2310 2132 2170 2355 2112 2432  L 2131 2432  C 2150 2432 2419 2432 2515 2432  C 2720 2432 2739 2429 2918 2419  L 2848 2808  z M 1338 1182  C 1120 1182 813 1315 813 1823  C 813 2375 1165 2464 1331 2464  C 1549 2464 1856 2331 1856 1823  C 1856 1271 1504 1182 1338 1182  z M 1581 -10  C 1734 -10 2381 -10 2381 -442  C 2381 -714 1984 -929 1504 -929  C 1018 -929 621 -720 621 -435  C 621 -403 621 -10 1062 -10  L 1581 -10  z " transform="scale(0.015625)"/>
      <path id="CMSS17-64" d="M 2611 4416  L 2138 4416  L 2138 2438  C 1939 2603 1613 2756 1254 2756  C 672 2756 211 2131 211 1347  C 211 562 666 -64 1235 -64  C 1677 -64 1971 172 2125 306  L 2125 -13  L 2611 -13  L 2611 4416  z M 2125 836  C 2125 747 2125 653 1926 482  C 1798 375 1645 325 1498 325  C 1152 325 698 576 698 1340  C 698 2134 1210 2368 1562 2368  C 1798 2368 1990 2254 2125 2065  L 2125 836  z " transform="scale(0.015625)"/>
      <path id="CMSS17-52" d="M 2522 2109  L 2534 2115  C 3533 2459 3539 3147 3539 3268  C 3539 3873 2925 4453 2003 4453  L 570 4453  L 570 32  L 1094 32  L 1094 2048  L 2035 2048  L 3168 32  L 3706 32  L 2522 2109  z M 1094 2437  L 1094 4096  L 1933 4096  C 2746 4096 3034 3637 3034 3267  C 3034 2922 2778 2437 1933 2437  L 1094 2437  z " transform="scale(0.015625)"/>
      <path id="CMSS17-73" d="M 2061 2627  C 1683 2807 1389 2807 1197 2807  C 742 2807 198 2648 198 2003  C 198 1359 902 1218 1094 1179  C 1389 1122 1715 1058 1715 740  C 1715 337 1254 337 1171 337  C 915 337 563 407 243 638  L 166 210  C 531 0 883 -64 1178 -64  C 1965 -64 2163 416 2163 781  C 2163 1094 1984 1305 1862 1401  C 1651 1568 1574 1587 1050 1696  C 960 1709 646 1779 646 2066  C 646 2432 1050 2432 1139 2432  C 1555 2432 1811 2303 1984 2208  L 2061 2627  z " transform="scale(0.015625)"/>
      <path id="CMSS17-6c" d="M 947 4416  L 474 4416  L 474 0  L 947 0  L 947 4416  z " transform="scale(0.015625)"/>
     </defs>
     <use xlink:href="#CMSS17-50" transform="scale(0.996264)"/>
     <use xlink:href="#CMSS17-68" transform="translate(59.735586 0) scale(0.996264)"/>
     <use xlink:href="#CMSS17-6f" transform="translate(107.940529 0) scale(0.996264)"/>
     <use xlink:href="#CMSS17-74" transform="translate(154.784153 0) scale(0.996264)"/>
     <use xlink:href="#CMSS17-6f" transform="translate(188.61572 0) scale(0.996264)"/>
     <use xlink:href="#CMSS17-6e" transform="translate(235.459343 0) scale(0.996264)"/>
     <use xlink:href="#CMSS17-61" transform="translate(314.893399 0) scale(0.996264)"/>
     <use xlink:href="#CMSS17-6e" transform="translate(359.81532 0) scale(0.996264)"/>
     <use xlink:href="#CMSS17-74" transform="translate(408.020263 0) scale(0.996264)"/>
     <use xlink:href="#CMSS17-69" transform="translate(441.851829 0) scale(0.996264)"/>
     <use xlink:href="#CMSS17-62" transform="translate(464.032552 0) scale(0.996264)"/>
     <use xlink:href="#CMSS17-75" transform="translate(512.237496 0) scale(0.996264)"/>
     <use xlink:href="#CMSS17-6e" transform="translate(560.442439 0) scale(0.996264)"/>
     <use xlink:href="#CMSS17-63" transform="translate(608.647382 0) scale(0.996264)"/>
     <use xlink:href="#CMSS17-68" transform="translate(650.286204 0) scale(0.996264)"/>
     <use xlink:href="#CMSS17-69" transform="translate(698.491147 0) scale(0.996264)"/>
     <use xlink:href="#CMSS17-6e" transform="translate(720.67187 0) scale(0.996264)"/>
     <use xlink:href="#CMSS17-67" transform="translate(768.876813 0) scale(0.996264)"/>
     <use xlink:href="#CMSS17-61" transform="translate(846.94955 0) scale(0.996264)"/>
     <use xlink:href="#CMSS17-6e" transform="translate(891.87147 0) scale(0.996264)"/>
     <use xlink:href="#CMSS17-64" transform="translate(940.076413 0) scale(0.996264)"/>
     <use xlink:href="#CMSS17-52" transform="translate(1019.510469 0) scale(0.996264)"/>
     <use xlink:href="#CMSS17-61" transform="translate(1079.926624 0) scale(0.996264)"/>
     <use xlink:href="#CMSS17-62" transform="translate(1124.848545 0) scale(0.996264)"/>
     <use xlink:href="#CMSS17-69" transform="translate(1173.053488 0) scale(0.996264)"/>
     <use xlink:href="#CMSS17-6f" transform="translate(1226.463324 0) scale(0.996264)"/>
     <use xlink:href="#CMSS17-73" transform="translate(1273.306947 0) scale(0.996264)"/>
     <use xlink:href="#CMSS17-63" transform="translate(1309.220489 0) scale(0.996264)"/>
     <use xlink:href="#CMSS17-69" transform="translate(1350.859311 0) scale(0.996264)"/>
     <use xlink:href="#CMSS17-6c" transform="translate(1373.040034 0) scale(0.996264)"/>
     <use xlink:href="#CMSS17-6c" transform="translate(1395.220757 0) scale(0.996264)"/>
     <use xlink:href="#CMSS17-61" transform="translate(1417.40148 0) scale(0.996264)"/>
     <use xlink:href="#CMSS17-74" transform="translate(1462.323401 0) scale(0.996264)"/>
     <use xlink:href="#CMSS17-69" transform="translate(1496.154968 0) scale(0.996264)"/>
     <use xlink:href="#CMSS17-6f" transform="translate(1518.335691 0) scale(0.996264)"/>
     <use xlink:href="#CMSS17-6e" transform="translate(1565.179314 0) scale(0.996264)"/>
     <use xlink:href="#CMSS17-73" transform="translate(1613.384257 0) scale(0.996264)"/>
    </g>
   </g>
  </g>
 </g>
 <defs>
  <clipPath id="p1e8afaee73">
   <rect x="52.315445" y="23.162625" width="504.964555" height="213.863824"/>
  </clipPath>
 </defs>
</svg>