<svg xmlns:xlink="http://www.w3.org/1999/xlink" xmlns="http://www.w3.org/2000/svg" width="564.48pt" height="276.48pt" viewBox="0 0 564.48 276.48" version="1.1">
 <metadata>
  <rdf:RDF xmlns:dc="http://purl.org/dc/elements/1.1/" xmlns:cc="http://creativecommons.org/ns#" xmlns:rdf="http://www.w3.org/1999/02/22-rdf-syntax-ns#">
   <cc:Work>
    <dc:type rdf:resource="http://purl.org/dc/dcmitype/StillImage"/>
    <dc:date>2025-06-11T15:28:16.827773</dc:date>
    <dc:format>image/svg+xml</dc:format>
    <dc:creator>
     <cc:Agent>
      <dc:title>Matplotlib v3.10.3, https://matplotlib.org/</dc:title>
     </cc:Agent>
    </dc:creator>
   </cc:Work>
  </rdf:RDF>
 </metadata>
 <defs>
  <style type="text/css">*{stroke-linejoin: round; stroke-linecap: butt}</style>
 </defs>
 <g id="figure_1">
  <g id="patch_1">
   <path d="M 0 276.48  L 564.48 276.48  L 564.48 0  L 0 0  z " style="fill: #ffffff"/>
  </g>
  <g id="axes_1">
   <g id="patch_2">
    <path d="M 45.11281 235.698056  L 546.874684 235.698056  L 546.874684 23.162625  L 45.11281 23.162625  z " style="fill: #ffffff"/>
   </g>
   <g id="matplotlib.axis_1">
    <g id="xtick_1">
     <g id="line2d_1">
      <defs>
       <path id="m14ed5871dd" d="M 0 0  L 0 3.5  " style="stroke: #000000; stroke-width: 0.8"/>
      </defs>
      <g>
       <use xlink:href="#m14ed5871dd" x="45.11281" y="235.698056" style="stroke: #000000; stroke-width: 0.8"/>
      </g>
     </g>
     <g id="text_1">
      <!-- $\mathdefault{−10.0}$ -->
      <g transform="translate(30.058249 251.000236) scale(0.12 -0.12)">
       <defs>
        <path id="CMSY10-0" d="M 4218 1472  C 4326 1472 4442 1472 4442 1600  C 4442 1728 4326 1728 4218 1728  L 755 1728  C 646 1728 531 1728 531 1600  C 531 1472 646 1472 755 1472  L 4218 1472  z " transform="scale(0.015625)"/>
        <path id="CMR17-31" d="M 1702 4058  C 1702 4192 1696 4192 1606 4192  C 1357 3916 979 3827 621 3827  C 602 3827 570 3827 563 3808  C 557 3795 557 3782 557 3648  C 755 3648 1088 3686 1344 3839  L 1344 461  C 1344 236 1331 160 781 160  L 589 160  L 589 0  C 896 0 1216 0 1523 0  C 1830 0 2150 0 2458 0  L 2458 160  L 2266 160  C 1715 160 1702 230 1702 458  L 1702 4058  z " transform="scale(0.015625)"/>
        <path id="CMR17-30" d="M 2688 2025  C 2688 2416 2682 3080 2413 3591  C 2176 4039 1798 4198 1466 4198  C 1158 4198 768 4058 525 3597  C 269 3118 243 2524 243 2025  C 243 1661 250 1106 448 619  C 723 -39 1216 -128 1466 -128  C 1760 -128 2208 -7 2470 600  C 2662 1042 2688 1559 2688 2025  z M 1466 -26  C 1056 -26 813 325 723 812  C 653 1188 653 1738 653 2096  C 653 2588 653 2997 736 3387  C 858 3929 1216 4096 1466 4096  C 1728 4096 2067 3923 2189 3400  C 2272 3036 2278 2607 2278 2096  C 2278 1680 2278 1169 2202 792  C 2067 95 1690 -26 1466 -26  z " transform="scale(0.015625)"/>
        <path id="CMMI12-3a" d="M 1178 307  C 1178 492 1024 619 870 619  C 685 619 557 466 557 313  C 557 128 710 0 864 0  C 1050 0 1178 153 1178 307  z " transform="scale(0.015625)"/>
       </defs>
       <use xlink:href="#CMSY10-0" transform="scale(0.996264)"/>
       <use xlink:href="#CMR17-31" transform="translate(77.487468 0) scale(0.996264)"/>
       <use xlink:href="#CMR17-30" transform="translate(123.177945 0) scale(0.996264)"/>
       <use xlink:href="#CMMI12-3a" transform="translate(168.868422 0) scale(0.996264)"/>
       <use xlink:href="#CMR17-30" transform="translate(195.965599 0) scale(0.996264)"/>
      </g>
     </g>
    </g>
    <g id="xtick_2">
     <g id="line2d_2">
      <g>
       <use xlink:href="#m14ed5871dd" x="107.833044" y="235.698056" style="stroke: #000000; stroke-width: 0.8"/>
      </g>
     </g>
     <g id="text_2">
      <!-- $\mathdefault{−7.5}$ -->
      <g transform="translate(95.704979 251.000236) scale(0.12 -0.12)">
       <defs>
        <path id="CMR17-37" d="M 2886 3941  L 2886 4081  L 1382 4081  C 634 4081 621 4165 595 4288  L 480 4288  L 294 3094  L 410 3094  C 429 3215 474 3540 550 3661  C 589 3712 1062 3712 1171 3712  L 2579 3712  L 1869 2661  C 1395 1954 1069 999 1069 165  C 1069 89 1069 -128 1299 -128  C 1530 -128 1530 89 1530 171  L 1530 465  C 1530 1508 1709 2196 2003 2636  L 2886 3941  z " transform="scale(0.015625)"/>
        <path id="CMR17-35" d="M 730 3692  C 794 3666 1056 3584 1325 3584  C 1920 3584 2246 3911 2432 4100  C 2432 4157 2432 4192 2394 4192  C 2387 4192 2374 4192 2323 4163  C 2099 4058 1837 3973 1517 3973  C 1325 3973 1037 3999 723 4139  C 653 4171 640 4171 634 4171  C 602 4171 595 4164 595 4037  L 595 2203  C 595 2089 595 2057 659 2057  C 691 2057 704 2070 736 2114  C 941 2401 1222 2522 1542 2522  C 1766 2522 2246 2382 2246 1289  C 2246 1085 2246 715 2054 421  C 1894 159 1645 25 1370 25  C 947 25 518 320 403 814  C 429 807 480 795 506 795  C 589 795 749 840 749 1038  C 749 1210 627 1280 506 1280  C 358 1280 262 1190 262 1011  C 262 454 704 -128 1382 -128  C 2042 -128 2669 440 2669 1264  C 2669 2030 2170 2624 1549 2624  C 1222 2624 947 2503 730 2274  L 730 3692  z " transform="scale(0.015625)"/>
       </defs>
       <use xlink:href="#CMSY10-0" transform="scale(0.996264)"/>
       <use xlink:href="#CMR17-37" transform="translate(77.487468 0) scale(0.996264)"/>
       <use xlink:href="#CMMI12-3a" transform="translate(123.177945 0) scale(0.996264)"/>
       <use xlink:href="#CMR17-35" transform="translate(150.275122 0) scale(0.996264)"/>
      </g>
     </g>
    </g>
    <g id="xtick_3">
     <g id="line2d_3">
      <g>
       <use xlink:href="#m14ed5871dd" x="170.553278" y="235.698056" style="stroke: #000000; stroke-width: 0.8"/>
      </g>
     </g>
     <g id="text_3">
      <!-- $\mathdefault{−5.0}$ -->
      <g transform="translate(158.425213 251.000236) scale(0.12 -0.12)">
       <use xlink:href="#CMSY10-0" transform="scale(0.996264)"/>
       <use xlink:href="#CMR17-35" transform="translate(77.487468 0) scale(0.996264)"/>
       <use xlink:href="#CMMI12-3a" transform="translate(123.177945 0) scale(0.996264)"/>
       <use xlink:href="#CMR17-30" transform="translate(150.275122 0) scale(0.996264)"/>
      </g>
     </g>
    </g>
    <g id="xtick_4">
     <g id="line2d_4">
      <g>
       <use xlink:href="#m14ed5871dd" x="233.273513" y="235.698056" style="stroke: #000000; stroke-width: 0.8"/>
      </g>
     </g>
     <g id="text_4">
      <!-- $\mathdefault{−2.5}$ -->
      <g transform="translate(221.145447 251.000236) scale(0.12 -0.12)">
       <defs>
        <path id="CMR17-32" d="M 2669 989  L 2554 989  C 2490 536 2438 459 2413 420  C 2381 369 1920 369 1830 369  L 602 369  C 832 619 1280 1072 1824 1597  C 2214 1967 2669 2402 2669 3035  C 2669 3790 2067 4224 1395 4224  C 691 4224 262 3604 262 3030  C 262 2780 448 2748 525 2748  C 589 2748 781 2787 781 3010  C 781 3207 614 3264 525 3264  C 486 3264 448 3258 422 3245  C 544 3790 915 4058 1306 4058  C 1862 4058 2227 3617 2227 3035  C 2227 2479 1901 2000 1536 1584  L 262 146  L 262 0  L 2515 0  L 2669 989  z " transform="scale(0.015625)"/>
       </defs>
       <use xlink:href="#CMSY10-0" transform="scale(0.996264)"/>
       <use xlink:href="#CMR17-32" transform="translate(77.487468 0) scale(0.996264)"/>
       <use xlink:href="#CMMI12-3a" transform="translate(123.177945 0) scale(0.996264)"/>
       <use xlink:href="#CMR17-35" transform="translate(150.275122 0) scale(0.996264)"/>
      </g>
     </g>
    </g>
    <g id="xtick_5">
     <g id="line2d_5">
      <g>
       <use xlink:href="#m14ed5871dd" x="295.993747" y="235.698056" style="stroke: #000000; stroke-width: 0.8"/>
      </g>
     </g>
     <g id="text_5">
      <!-- $\mathdefault{0.0}$ -->
      <g transform="translate(288.514926 251.000236) scale(0.12 -0.12)">
       <use xlink:href="#CMR17-30" transform="scale(0.996264)"/>
       <use xlink:href="#CMMI12-3a" transform="translate(45.690477 0) scale(0.996264)"/>
       <use xlink:href="#CMR17-30" transform="translate(72.787654 0) scale(0.996264)"/>
      </g>
     </g>
    </g>
    <g id="xtick_6">
     <g id="line2d_6">
      <g>
       <use xlink:href="#m14ed5871dd" x="358.713981" y="235.698056" style="stroke: #000000; stroke-width: 0.8"/>
      </g>
     </g>
     <g id="text_6">
      <!-- $\mathdefault{2.5}$ -->
      <g transform="translate(351.23516 251.000236) scale(0.12 -0.12)">
       <use xlink:href="#CMR17-32" transform="scale(0.996264)"/>
       <use xlink:href="#CMMI12-3a" transform="translate(45.690477 0) scale(0.996264)"/>
       <use xlink:href="#CMR17-35" transform="translate(72.787654 0) scale(0.996264)"/>
      </g>
     </g>
    </g>
    <g id="xtick_7">
     <g id="line2d_7">
      <g>
       <use xlink:href="#m14ed5871dd" x="421.434215" y="235.698056" style="stroke: #000000; stroke-width: 0.8"/>
      </g>
     </g>
     <g id="text_7">
      <!-- $\mathdefault{5.0}$ -->
      <g transform="translate(413.955395 251.000236) scale(0.12 -0.12)">
       <use xlink:href="#CMR17-35" transform="scale(0.996264)"/>
       <use xlink:href="#CMMI12-3a" transform="translate(45.690477 0) scale(0.996264)"/>
       <use xlink:href="#CMR17-30" transform="translate(72.787654 0) scale(0.996264)"/>
      </g>
     </g>
    </g>
    <g id="xtick_8">
     <g id="line2d_8">
      <g>
       <use xlink:href="#m14ed5871dd" x="484.15445" y="235.698056" style="stroke: #000000; stroke-width: 0.8"/>
      </g>
     </g>
     <g id="text_8">
      <!-- $\mathdefault{7.5}$ -->
      <g transform="translate(476.675629 251.000236) scale(0.12 -0.12)">
       <use xlink:href="#CMR17-37" transform="scale(0.996264)"/>
       <use xlink:href="#CMMI12-3a" transform="translate(45.690477 0) scale(0.996264)"/>
       <use xlink:href="#CMR17-35" transform="translate(72.787654 0) scale(0.996264)"/>
      </g>
     </g>
    </g>
    <g id="xtick_9">
     <g id="line2d_9">
      <g>
       <use xlink:href="#m14ed5871dd" x="546.874684" y="235.698056" style="stroke: #000000; stroke-width: 0.8"/>
      </g>
     </g>
     <g id="text_9">
      <!-- $\mathdefault{10.0}$ -->
      <g transform="translate(536.469368 251.000236) scale(0.12 -0.12)">
       <use xlink:href="#CMR17-31" transform="scale(0.996264)"/>
       <use xlink:href="#CMR17-30" transform="translate(45.690477 0) scale(0.996264)"/>
       <use xlink:href="#CMMI12-3a" transform="translate(91.380954 0) scale(0.996264)"/>
       <use xlink:href="#CMR17-30" transform="translate(118.478131 0) scale(0.996264)"/>
      </g>
     </g>
    </g>
    <g id="text_10">
     <!-- $(\omega - \omega_L)/\gamma$ -->
     <g transform="translate(267.540768 266.291208) scale(0.12 -0.12)">
      <defs>
       <path id="CMR17-28" d="M 1958 -1561  C 1958 -1555 1958 -1542 1939 -1523  C 1645 -1224 858 -407 858 1581  C 858 3569 1632 4379 1946 4697  C 1946 4704 1958 4717 1958 4736  C 1958 4755 1939 4768 1914 4768  C 1843 4768 1299 4296 986 3594  C 666 2887 576 2199 576 1588  C 576 1128 621 351 1005 -471  C 1312 -1135 1837 -1600 1914 -1600  C 1946 -1600 1958 -1587 1958 -1561  z " transform="scale(0.015625)"/>
       <path id="CMMI12-21" d="M 3802 2395  C 3802 2580 3750 2816 3526 2816  C 3398 2816 3251 2657 3251 2529  C 3251 2472 3277 2434 3328 2376  C 3424 2268 3546 2096 3546 1797  C 3546 1567 3405 1204 3302 1007  C 3123 656 2829 357 2496 357  C 2093 357 1939 615 1869 975  C 1939 1143 2086 1560 2086 1728  C 2086 1798 2061 1856 1978 1856  C 1933 1856 1882 1831 1850 1779  C 1760 1638 1677 1129 1683 994  C 1562 756 1216 357 806 357  C 378 357 262 733 262 1096  C 262 1758 678 2338 794 2497  C 858 2593 902 2657 902 2669  C 902 2714 877 2784 819 2784  C 717 2784 685 2701 634 2625  C 307 2121 77 1414 77 803  C 77 408 224 -64 704 -64  C 1235 -64 1568 391 1702 634  C 1754 275 1946 -64 2413 -64  C 2899 -64 3206 363 3437 879  C 3603 1249 3802 2045 3802 2395  z " transform="scale(0.015625)"/>
       <path id="CMMI12-4c" d="M 2349 3861  C 2406 4103 2426 4167 2989 4167  C 3162 4167 3206 4167 3206 4288  C 3206 4352 3136 4352 3110 4352  C 2982 4352 2835 4352 2707 4352  L 1850 4352  C 1728 4352 1587 4352 1466 4352  C 1414 4352 1344 4352 1344 4231  C 1344 4167 1402 4167 1498 4167  C 1888 4167 1888 4116 1888 4046  C 1888 4034 1888 3995 1862 3899  L 998 472  C 941 249 928 185 480 185  C 358 185 294 185 294 70  C 294 0 333 0 461 0  L 3328 0  C 3469 0 3475 6 3520 121  L 4013 1478  C 4026 1510 4038 1548 4038 1567  C 4038 1605 4006 1631 3974 1631  C 3968 1631 3936 1631 3923 1605  C 3910 1599 3910 1586 3859 1465  C 3654 905 3366 185 2285 185  L 1670 185  C 1581 185 1568 185 1530 192  C 1459 198 1453 211 1453 262  C 1453 307 1466 345 1478 401  L 2349 3861  z " transform="scale(0.015625)"/>
       <path id="CMR17-29" d="M 1683 1581  C 1683 2040 1638 2817 1254 3639  C 947 4303 422 4768 346 4768  C 326 4768 301 4761 301 4729  C 301 4717 307 4710 314 4697  C 621 4378 1402 3568 1402 1584  C 1402 -407 627 -1217 314 -1537  C 307 -1549 301 -1556 301 -1568  C 301 -1600 326 -1600 346 -1600  C 416 -1600 960 -1128 1274 -426  C 1594 281 1683 969 1683 1581  z " transform="scale(0.015625)"/>
       <path id="CMMI12-3d" d="M 2746 4562  C 2746 4569 2784 4666 2784 4678  C 2784 4755 2720 4800 2669 4800  C 2637 4800 2579 4800 2528 4659  L 384 -1363  C 384 -1370 346 -1465 346 -1478  C 346 -1555 410 -1600 461 -1600  C 499 -1600 557 -1593 602 -1459  L 2746 4562  z " transform="scale(0.015625)"/>
       <path id="CMMI12-d" d="M 2419 760  C 2406 1071 2394 1561 2150 2133  C 2022 2452 1805 2788 1338 2788  C 550 2788 122 1790 122 1625  C 122 1567 166 1567 186 1567  C 243 1567 243 1580 275 1663  C 410 2057 819 2368 1261 2368  C 2150 2368 2278 1383 2278 754  C 2278 352 2234 220 2195 92  C 2074 -302 1862 -1090 1862 -1268  C 1862 -1319 1882 -1376 1933 -1376  C 2029 -1376 2086 -1166 2157 -912  C 2310 -353 2349 -73 2381 181  C 2400 334 2765 1384 3270 2382  C 3315 2483 3405 2655 3405 2674  C 3405 2680 3398 2725 3341 2725  C 3328 2725 3296 2725 3283 2699  C 3270 2687 3046 2254 2854 1822  C 2758 1606 2630 1320 2419 760  z " transform="scale(0.015625)"/>
      </defs>
      <use xlink:href="#CMR17-28" transform="scale(0.996264)"/>
      <use xlink:href="#CMMI12-21" transform="translate(35.280768 0) scale(0.996264)"/>
      <use xlink:href="#CMSY10-0" transform="translate(121.738321 0) scale(0.996264)"/>
      <use xlink:href="#CMMI12-21" transform="translate(221.364995 0) scale(0.996264)"/>
      <use xlink:href="#CMMI12-4c" transform="translate(282.108749 -14.943915) scale(0.697382)"/>
      <use xlink:href="#CMR17-29" transform="translate(329.066294 0) scale(0.996264)"/>
      <use xlink:href="#CMMI12-3d" transform="translate(364.347062 0) scale(0.996264)"/>
      <use xlink:href="#CMMI12-d" transform="translate(413.121981 0) scale(0.996264)"/>
     </g>
    </g>
   </g>
   <g id="matplotlib.axis_2">
    <g id="ytick_1">
     <g id="line2d_10">
      <defs>
       <path id="m1cc38c94a9" d="M 0 0  L -3.5 0  " style="stroke: #000000; stroke-width: 0.8"/>
      </defs>
      <g>
       <use xlink:href="#m1cc38c94a9" x="45.11281" y="226.494584" style="stroke: #000000; stroke-width: 0.8"/>
      </g>
     </g>
     <g id="text_11">
      <!-- $\mathdefault{0.0}$ -->
      <g transform="translate(23.155168 230.645674) scale(0.12 -0.12)">
       <use xlink:href="#CMR17-30" transform="scale(0.996264)"/>
       <use xlink:href="#CMMI12-3a" transform="translate(45.690477 0) scale(0.996264)"/>
       <use xlink:href="#CMR17-30" transform="translate(72.787654 0) scale(0.996264)"/>
      </g>
     </g>
    </g>
    <g id="ytick_2">
     <g id="line2d_11">
      <g>
       <use xlink:href="#m1cc38c94a9" x="45.11281" y="187.760333" style="stroke: #000000; stroke-width: 0.8"/>
      </g>
     </g>
     <g id="text_12">
      <!-- $\mathdefault{0.2}$ -->
      <g transform="translate(23.155168 191.911423) scale(0.12 -0.12)">
       <use xlink:href="#CMR17-30" transform="scale(0.996264)"/>
       <use xlink:href="#CMMI12-3a" transform="translate(45.690477 0) scale(0.996264)"/>
       <use xlink:href="#CMR17-32" transform="translate(72.787654 0) scale(0.996264)"/>
      </g>
     </g>
    </g>
    <g id="ytick_3">
     <g id="line2d_12">
      <g>
       <use xlink:href="#m1cc38c94a9" x="45.11281" y="149.026081" style="stroke: #000000; stroke-width: 0.8"/>
      </g>
     </g>
     <g id="text_13">
      <!-- $\mathdefault{0.4}$ -->
      <g transform="translate(23.155168 153.177171) scale(0.12 -0.12)">
       <defs>
        <path id="CMR17-34" d="M 2150 4122  C 2150 4256 2144 4256 2029 4256  L 128 1254  L 128 1088  L 1779 1088  L 1779 457  C 1779 224 1766 160 1318 160  L 1197 160  L 1197 0  C 1402 0 1747 0 1965 0  C 2182 0 2528 0 2733 0  L 2733 160  L 2611 160  C 2163 160 2150 224 2150 457  L 2150 1088  L 2803 1088  L 2803 1254  L 2150 1254  L 2150 4122  z M 1798 3703  L 1798 1254  L 256 1254  L 1798 3703  z " transform="scale(0.015625)"/>
       </defs>
       <use xlink:href="#CMR17-30" transform="scale(0.996264)"/>
       <use xlink:href="#CMMI12-3a" transform="translate(45.690477 0) scale(0.996264)"/>
       <use xlink:href="#CMR17-34" transform="translate(72.787654 0) scale(0.996264)"/>
      </g>
     </g>
    </g>
    <g id="ytick_4">
     <g id="line2d_13">
      <g>
       <use xlink:href="#m1cc38c94a9" x="45.11281" y="110.29183" style="stroke: #000000; stroke-width: 0.8"/>
      </g>
     </g>
     <g id="text_14">
      <!-- $\mathdefault{0.6}$ -->
      <g transform="translate(23.155168 114.442919) scale(0.12 -0.12)">
       <defs>
        <path id="CMR17-36" d="M 678 2176  C 678 3690 1395 4032 1811 4032  C 1946 4032 2272 4009 2400 3776  C 2298 3776 2106 3776 2106 3553  C 2106 3381 2246 3323 2336 3323  C 2394 3323 2566 3348 2566 3560  C 2566 3954 2246 4179 1805 4179  C 1043 4179 243 3390 243 1984  C 243 253 966 -128 1478 -128  C 2099 -128 2688 427 2688 1283  C 2688 2081 2170 2662 1517 2662  C 1126 2662 838 2407 678 1960  L 678 2176  z M 1478 25  C 691 25 691 1200 691 1436  C 691 1896 909 2560 1504 2560  C 1613 2560 1926 2560 2138 2120  C 2253 1870 2253 1609 2253 1289  C 2253 944 2253 690 2118 434  C 1978 171 1773 25 1478 25  z " transform="scale(0.015625)"/>
       </defs>
       <use xlink:href="#CMR17-30" transform="scale(0.996264)"/>
       <use xlink:href="#CMMI12-3a" transform="translate(45.690477 0) scale(0.996264)"/>
       <use xlink:href="#CMR17-36" transform="translate(72.787654 0) scale(0.996264)"/>
      </g>
     </g>
    </g>
    <g id="ytick_5">
     <g id="line2d_14">
      <g>
       <use xlink:href="#m1cc38c94a9" x="45.11281" y="71.557578" style="stroke: #000000; stroke-width: 0.8"/>
      </g>
     </g>
     <g id="text_15">
      <!-- $\mathdefault{0.8}$ -->
      <g transform="translate(23.155168 75.708668) scale(0.12 -0.12)">
       <defs>
        <path id="CMR17-38" d="M 1741 2264  C 2144 2467 2554 2773 2554 3263  C 2554 3841 1990 4179 1472 4179  C 890 4179 378 3759 378 3180  C 378 3021 416 2747 666 2505  C 730 2442 998 2251 1171 2130  C 883 1983 211 1634 211 934  C 211 279 838 -128 1459 -128  C 2144 -128 2720 362 2720 1010  C 2720 1590 2330 1857 2074 2029  L 1741 2264  z M 902 2822  C 851 2854 595 3051 595 3351  C 595 3739 998 4032 1459 4032  C 1965 4032 2336 3676 2336 3262  C 2336 2669 1670 2331 1638 2331  C 1632 2331 1626 2331 1574 2370  L 902 2822  z M 2080 1519  C 2176 1449 2483 1240 2483 851  C 2483 381 2010 25 1472 25  C 890 25 448 438 448 940  C 448 1443 838 1862 1280 2060  L 2080 1519  z " transform="scale(0.015625)"/>
       </defs>
       <use xlink:href="#CMR17-30" transform="scale(0.996264)"/>
       <use xlink:href="#CMMI12-3a" transform="translate(45.690477 0) scale(0.996264)"/>
       <use xlink:href="#CMR17-38" transform="translate(72.787654 0) scale(0.996264)"/>
      </g>
     </g>
    </g>
    <g id="ytick_6">
     <g id="line2d_15">
      <g>
       <use xlink:href="#m1cc38c94a9" x="45.11281" y="32.823326" style="stroke: #000000; stroke-width: 0.8"/>
      </g>
     </g>
     <g id="text_16">
      <!-- $\mathdefault{1.0}$ -->
      <g transform="translate(23.155168 36.974416) scale(0.12 -0.12)">
       <use xlink:href="#CMR17-31" transform="scale(0.996264)"/>
       <use xlink:href="#CMMI12-3a" transform="translate(45.690477 0) scale(0.996264)"/>
       <use xlink:href="#CMR17-30" transform="translate(72.787654 0) scale(0.996264)"/>
      </g>
     </g>
    </g>
    <g id="text_17">
     <!-- $S(\omega)$ (arb. units) -->
     <g transform="translate(16.166376 171.890074) rotate(-90) scale(0.12 -0.12)">
      <defs>
       <path id="CMMI12-53" d="M 4064 4423  C 4064 4480 4019 4480 4006 4480  C 3981 4480 3974 4474 3898 4378  C 3859 4333 3597 4001 3590 3995  C 3379 4410 2957 4480 2688 4480  C 1875 4480 1139 3743 1139 3025  C 1139 2549 1427 2269 1741 2161  C 1811 2135 2189 2033 2381 1989  C 2707 1900 2790 1875 2925 1735  C 2950 1703 3078 1557 3078 1258  C 3078 667 2528 57 1888 57  C 1363 57 781 280 781 991  C 781 1112 806 1265 826 1328  C 826 1348 832 1378 832 1391  C 832 1417 819 1449 768 1449  C 710 1449 704 1436 678 1328  L 352 24  C 352 18 326 -64 326 -71  C 326 -128 378 -128 390 -128  C 416 -128 422 -122 499 -26  L 794 356  C 947 126 1280 -128 1875 -128  C 2701 -128 3456 666 3456 1460  C 3456 1728 3392 1963 3149 2197  C 3014 2331 2899 2363 2310 2516  C 1882 2630 1824 2649 1709 2751  C 1600 2858 1517 3011 1517 3227  C 1517 3761 2061 4308 2669 4308  C 3296 4308 3590 3926 3590 3323  C 3590 3158 3558 2986 3558 2961  C 3558 2903 3610 2903 3629 2903  C 3686 2903 3693 2922 3718 3024  L 4064 4423  z " transform="scale(0.015625)"/>
       <path id="CMSS17-28" d="M 1613 4768  C 1267 4417 474 3601 474 1588  C 474 -433 1267 -1243 1613 -1600  L 2003 -1600  C 1216 -784 960 357 960 1581  C 960 2798 1203 3946 2003 4768  L 1613 4768  z " transform="scale(0.015625)"/>
       <path id="CMSS17-61" d="M 2406 1791  C 2406 2392 1978 2808 1402 2808  C 1120 2808 813 2757 461 2553  L 499 2135  C 659 2248 934 2432 1395 2432  C 1722 2432 1920 2180 1920 1782  L 1920 1536  C 896 1536 256 1238 256 726  C 256 461 416 -64 947 -64  C 1043 -64 1562 -64 1933 217  L 1933 -19  L 2406 -19  L 2406 1791  z M 1920 816  C 1920 701 1920 548 1728 434  C 1562 325 1350 325 1261 325  C 941 325 723 511 723 744  C 723 1211 1722 1211 1920 1211  L 1920 816  z " transform="scale(0.015625)"/>
       <path id="CMSS17-72" d="M 954 1363  C 954 1965 1395 2368 1958 2368  L 1958 2789  C 1549 2789 1165 2585 934 2253  L 934 2758  L 480 2758  L 480 0  L 954 0  L 954 1363  z " transform="scale(0.015625)"/>
       <path id="CMSS17-62" d="M 954 4416  L 480 4416  L 480 -13  L 966 -13  L 966 274  C 1210 38 1504 -64 1766 -64  C 2381 -64 2880 549 2880 1352  C 2880 2086 2496 2756 1926 2756  C 1523 2756 1165 2591 954 2419  L 954 4416  z M 966 2046  C 1107 2222 1306 2368 1587 2368  C 1965 2368 2394 2097 2394 1352  C 2394 558 1882 325 1530 325  C 1402 325 1267 356 1139 464  C 966 615 966 709 966 797  L 966 2046  z " transform="scale(0.015625)"/>
       <path id="CMSS17-2e" d="M 1088 510  L 576 510  L 576 0  L 1088 0  L 1088 510  z " transform="scale(0.015625)"/>
       <path id="CMSS17-75" d="M 2618 2739  L 2131 2739  L 2131 972  C 2131 498 1786 306 1421 306  C 998 306 960 447 960 709  L 960 2739  L 474 2739  L 474 678  C 474 179 646 -64 1088 -64  C 1306 -64 1798 -13 2144 306  L 2144 0  L 2618 0  L 2618 2739  z " transform="scale(0.015625)"/>
       <path id="CMSS17-6e" d="M 2618 1877  C 2618 2283 2522 2816 1798 2816  C 1389 2816 1120 2606 941 2389  L 941 2758  L 474 2758  L 474 0  L 960 0  L 960 1559  C 960 1964 1114 2428 1549 2428  C 2112 2428 2131 2048 2131 1829  L 2131 0  L 2618 0  L 2618 1877  z " transform="scale(0.015625)"/>
       <path id="CMSS17-69" d="M 979 4183  L 442 4183  L 442 3648  L 979 3648  L 979 4183  z M 947 2739  L 474 2739  L 474 0  L 947 0  L 947 2739  z " transform="scale(0.015625)"/>
       <path id="CMSS17-74" d="M 1069 2368  L 1901 2368  L 1901 2737  L 1069 2737  L 1069 3520  L 614 3520  L 614 2737  L 109 2737  L 109 2368  L 602 2368  L 602 749  C 602 384 685 -64 1107 -64  C 1427 -64 1722 25 2003 172  L 1901 548  C 1747 414 1562 337 1363 337  C 1082 337 1069 696 1069 856  L 1069 2368  z " transform="scale(0.015625)"/>
       <path id="CMSS17-73" d="M 2061 2627  C 1683 2807 1389 2807 1197 2807  C 742 2807 198 2648 198 2003  C 198 1359 902 1218 1094 1179  C 1389 1122 1715 1058 1715 740  C 1715 337 1254 337 1171 337  C 915 337 563 407 243 638  L 166 210  C 531 0 883 -64 1178 -64  C 1965 -64 2163 416 2163 781  C 2163 1094 1984 1305 1862 1401  C 1651 1568 1574 1587 1050 1696  C 960 1709 646 1779 646 2066  C 646 2432 1050 2432 1139 2432  C 1555 2432 1811 2303 1984 2208  L 2061 2627  z " transform="scale(0.015625)"/>
       <path id="CMSS17-29" d="M 723 -1600  C 1069 -1249 1862 -433 1862 1581  C 1862 3601 1069 4411 723 4768  L 333 4768  C 1120 3952 1376 2811 1376 1588  C 1376 370 1133 -778 333 -1600  L 723 -1600  z " transform="scale(0.015625)"/>
      </defs>
      <use xlink:href="#CMMI12-53" transform="scale(0.996264)"/>
      <use xlink:href="#CMR17-28" transform="translate(65.794439 0) scale(0.996264)"/>
      <use xlink:href="#CMMI12-21" transform="translate(101.075207 0) scale(0.996264)"/>
      <use xlink:href="#CMR17-29" transform="translate(165.393553 0) scale(0.996264)"/>
      <use xlink:href="#CMSS17-28" transform="translate(231.903433 0) scale(0.996264)"/>
      <use xlink:href="#CMSS17-61" transform="translate(268.337348 0) scale(0.996264)"/>
      <use xlink:href="#CMSS17-72" transform="translate(310.656814 0) scale(0.996264)"/>
      <use xlink:href="#CMSS17-62" transform="translate(342.566587 0) scale(0.996264)"/>
      <use xlink:href="#CMSS17-2e" transform="translate(390.77153 0) scale(0.996264)"/>
      <use xlink:href="#CMSS17-75" transform="translate(458.434542 0) scale(0.996264)"/>
      <use xlink:href="#CMSS17-6e" transform="translate(506.639485 0) scale(0.996264)"/>
      <use xlink:href="#CMSS17-69" transform="translate(554.844428 0) scale(0.996264)"/>
      <use xlink:href="#CMSS17-74" transform="translate(577.025151 0) scale(0.996264)"/>
      <use xlink:href="#CMSS17-73" transform="translate(610.856718 0) scale(0.996264)"/>
      <use xlink:href="#CMSS17-29" transform="translate(646.77026 0) scale(0.996264)"/>
     </g>
    </g>
   </g>
   <g id="line2d_16">
    <path d="M 45.11281 226.037355  L 68.958422 225.689551  L 84.771827 225.24778  L 96.067117 224.719762  L 104.601336 224.110668  L 111.37851 223.41776  L 116.900652 222.645972  L 121.669774 221.763815  L 125.685877 220.806631  L 129.199967 219.75385  L 132.463051 218.5414  L 135.224122 217.290397  L 137.734186 215.929839  L 140.244251 214.308581  L 142.503309 212.579924  L 144.762367 210.545544  L 146.770418 208.435753  L 148.77847 205.998125  L 150.786521 203.189537  L 152.794573 199.970867  L 154.802624 196.314951  L 156.810676 192.21888  L 159.32074 186.54396  L 166.850933 168.954959  L 168.356972 166.291238  L 169.612004 164.542025  L 170.61603 163.496377  L 171.620056 162.787947  L 172.373075 162.483788  L 173.126094 162.374069  L 173.879114 162.454606  L 174.632133 162.717863  L 175.636159 163.334654  L 176.640185 164.226148  L 177.895217 165.670969  L 179.401255 167.787786  L 181.409307 171.04537  L 189.943526 185.476466  L 192.45359 189.042295  L 194.712648 191.886076  L 196.971706 194.395785  L 199.230764 196.595897  L 201.740829 198.713047  L 204.250893 200.525035  L 206.760957 202.069965  L 209.522028 203.501063  L 212.283099 204.687945  L 215.295176 205.740925  L 218.55826 206.633126  L 221.821344 207.297012  L 225.335434 207.78174  L 228.849524 208.044324  L 232.363614 208.09215  L 235.877704 207.923033  L 239.391795 207.524689  L 242.654878 206.928918  L 245.666956 206.159742  L 248.428027 205.240665  L 251.189097 204.080972  L 253.699162 202.778933  L 255.95822 201.366622  L 258.217278 199.682403  L 260.225329 197.913473  L 262.233381 195.839117  L 263.990426 193.726947  L 265.747471 191.286254  L 267.504516 188.457047  L 269.261561 185.166097  L 271.018606 181.324033  L 272.524645 177.510323  L 274.030683 173.130454  L 275.536722 168.089079  L 277.042761 162.276559  L 278.548799 155.569871  L 280.054838 147.83654  L 281.560877 138.944006  L 283.066915 128.778116  L 284.82396 115.229461  L 286.832012 97.650893  L 292.354154 47.28304  L 293.358179 40.688106  L 294.111199 36.911933  L 294.864218 34.304435  L 295.366231 33.270145  L 295.868244 32.823326  L 296.11925 32.823326  L 296.370257 32.972504  L 296.872269 33.714826  L 297.374282 35.036195  L 298.127302 38.047356  L 298.880321 42.182056  L 299.884347 49.167506  L 301.139379 59.659911  L 303.398437 80.979965  L 306.159508 106.693903  L 307.916553 121.258748  L 309.673598 134.025875  L 311.430643 145.007419  L 312.936682 153.11284  L 314.44272 160.146756  L 315.948759 166.243076  L 317.454798 171.528617  L 318.960836 176.117691  L 320.717881 180.724103  L 322.474926 184.653284  L 324.231971 188.017076  L 325.989017 190.90742  L 327.746062 193.399662  L 329.754113 195.839117  L 331.762165 197.913473  L 333.770216 199.682403  L 336.029274 201.366622  L 338.288332 202.778933  L 340.798397 204.080972  L 343.559467 205.240665  L 346.320538 206.159742  L 349.332615 206.928918  L 352.595699 207.524689  L 355.858783 207.902393  L 359.372873 208.08735  L 362.886963 208.054833  L 366.401053 207.807721  L 369.915144 207.339311  L 373.178227 206.691967  L 376.441311 205.81831  L 379.453388 204.78487  L 382.214459 203.618534  L 384.97553 202.21111  L 387.485594 200.690952  L 389.995659 198.90732  L 392.254717 197.045684  L 394.513775 194.91046  L 396.772833 192.471925  L 399.031891 189.704024  L 401.290949 186.590901  L 403.801013 182.734211  L 406.81309 177.646483  L 412.335232 168.172557  L 414.092277 165.670969  L 415.347309 164.226148  L 416.351335 163.334654  L 417.355361 162.717863  L 418.359387 162.407021  L 419.112406 162.389224  L 419.865425 162.563466  L 420.618445 162.932746  L 421.62247 163.726784  L 422.626496 164.853972  L 423.630522 166.291238  L 424.885554 168.473342  L 426.391593 171.550878  L 428.650651 176.783446  L 434.674805 191.129396  L 436.933863 195.826702  L 438.941915 199.538143  L 440.949966 202.810343  L 442.958018 205.668205  L 444.966069 208.14987  L 446.974121 210.298274  L 449.233179 212.36994  L 451.492237 214.130027  L 454.002301 215.780298  L 456.512365 217.164669  L 459.273436 218.436977  L 462.285514 219.583546  L 465.799604 220.669905  L 469.5647 221.601232  L 474.082816 222.479324  L 479.353952 223.261509  L 485.629113 223.95249  L 493.159306 224.547693  L 502.697551 225.065217  L 514.996866 225.49661  L 531.814298 225.848446  L 546.874684 226.037355  L 546.874684 226.037355  " clip-path="url(#pa858225dbe)" style="fill: none; stroke: #1f77b4; stroke-width: 1.5; stroke-linecap: square"/>
   </g>
   <g id="patch_3">
    <path d="M 45.11281 235.698056  L 45.11281 23.162625  " style="fill: none; stroke: #000000; stroke-width: 0.8; stroke-linejoin: miter; stroke-linecap: square"/>
   </g>
   <g id="patch_4">
    <path d="M 546.874684 235.698056  L 546.874684 23.162625  " style="fill: none; stroke: #000000; stroke-width: 0.8; stroke-linejoin: miter; stroke-linecap: square"/>
   </g>
   <g id="patch_5">
    <path d="M 45.11281 235.698056  L 546.874684 235.698056  " style="fill: none; stroke: #000000; stroke-width: 0.8; stroke-linejoin: miter; stroke-linecap: square"/>
   </g>
   <g id="patch_6">
    <path d="M 45.11281 23.162625  L 546.874684 23.162625  " style="fill: none; stroke: #000000; stroke-width: 0.8; stroke-linejoin: miter; stroke-linecap: square"/>
   </g>
   <g id="text_18">
    <!-- Mollow triplet -->
    <g transform="translate(255.164055 17.162625) scale(0.144 -0.144)">
     <defs>
      <path id="CMSS17-4d" d="M 3194 2371  L 2886 1473  C 2835 1307 2662 791 2624 587  L 2618 587  C 2598 715 2560 849 2458 1174  C 2400 1365 2336 1562 2272 1741  L 1325 4416  L 576 4416  L 576 0  L 1075 0  L 1075 3900  L 1082 3900  C 1082 3894 1139 3613 1530 2499  L 2374 96  L 2848 96  L 3610 2231  C 3661 2378 3821 2843 3891 3066  C 3955 3257 4115 3728 4154 3913  L 4160 3913  L 4160 0  L 4666 0  L 4666 4416  L 3923 4416  L 3194 2371  z " transform="scale(0.015625)"/>
      <path id="CMSS17-6f" d="M 2829 1356  C 2829 2176 2221 2816 1504 2816  C 768 2816 173 2157 173 1356  C 173 544 787 -64 1498 -64  C 2227 -64 2829 563 2829 1356  z M 1504 337  C 1050 337 659 709 659 1408  C 659 2151 1114 2427 1498 2427  C 1914 2427 2342 2126 2342 1408  C 2342 683 1926 337 1504 337  z " transform="scale(0.015625)"/>
      <path id="CMSS17-6c" d="M 947 4416  L 474 4416  L 474 0  L 947 0  L 947 4416  z " transform="scale(0.015625)"/>
      <path id="CMSS17-77" d="M 4013 2752  L 3526 2752  L 3187 1601  C 3117 1358 2918 685 2893 371  L 2886 371  C 2874 564 2765 1024 2586 1633  L 2259 2752  L 1818 2752  L 1498 1658  C 1338 1101 1216 627 1203 371  L 1197 371  C 1171 749 909 1633 870 1773  L 582 2752  L 83 2752  L 915 0  L 1402 0  C 1734 1096 1990 1943 2010 2370  C 2022 2160 2131 1707 2195 1484  L 2618 0  L 3181 0  L 4013 2752  z " transform="scale(0.015625)"/>
      <path id="CMSS17-70" d="M 966 333  C 1178 129 1466 -5 1773 -5  C 2368 -5 2880 603 2880 1412  C 2880 2159 2496 2816 1946 2816  C 1626 2816 1242 2702 954 2472  L 954 2765  L 480 2765  L 480 -1216  L 966 -1216  L 966 333  z M 966 2100  C 1018 2176 1235 2415 1587 2415  C 2035 2415 2394 1960 2394 1412  C 2394 787 1958 384 1530 384  C 1402 384 1267 415 1139 523  C 966 674 966 768 966 857  L 966 2100  z " transform="scale(0.015625)"/>
      <path id="CMSS17-65" d="M 2502 1377  C 2502 1590 2490 2003 2285 2345  C 2061 2713 1696 2816 1421 2816  C 755 2816 192 2188 192 1375  C 192 582 774 -64 1510 -64  C 1798 -64 2150 19 2470 248  C 2470 274 2458 414 2451 420  C 2451 433 2432 630 2432 656  C 2125 407 1773 325 1517 325  C 1107 325 666 667 646 1377  L 2502 1377  z M 698 1728  C 781 2084 1062 2421 1421 2421  C 1517 2421 1965 2421 2080 1728  L 698 1728  z " transform="scale(0.015625)"/>
     </defs>
     <use xlink:href="#CMSS17-4d" transform="scale(0.996264)"/>
     <use xlink:href="#CMSS17-6f" transform="translate(81.67603 0) scale(0.996264)"/>
     <use xlink:href="#CMSS17-6c" transform="translate(128.519653 0) scale(0.996264)"/>
     <use xlink:href="#CMSS17-6c" transform="translate(150.700377 0) scale(0.996264)"/>
     <use xlink:href="#CMSS17-6f" transform="translate(172.8811 0) scale(0.996264)"/>
     <use xlink:href="#CMSS17-77" transform="translate(217.122269 0) scale(0.996264)"/>
     <use xlink:href="#CMSS17-74" transform="translate(312.170927 0) scale(0.996264)"/>
     <use xlink:href="#CMSS17-72" transform="translate(346.002494 0) scale(0.996264)"/>
     <use xlink:href="#CMSS17-69" transform="translate(377.912266 0) scale(0.996264)"/>
     <use xlink:href="#CMSS17-70" transform="translate(400.092989 0) scale(0.996264)"/>
     <use xlink:href="#CMSS17-6c" transform="translate(448.297932 0) scale(0.996264)"/>
     <use xlink:href="#CMSS17-65" transform="translate(470.478655 0) scale(0.996264)"/>
     <use xlink:href="#CMSS17-74" transform="translate(512.117478 0) scale(0.996264)"/>
    </g>
   </g>
  </g>
 </g>
 <defs>
  <clipPath id="pa858225dbe">
   <rect x="45.11281" y="23.162625" width="501.761874" height="212.535431"/>
  </clipPath>
 </defs>
</svg>