<svg xmlns:xlink="http://www.w3.org/1999/xlink" xmlns="http://www.w3.org/2000/svg" width="564.48pt" height="276.48pt" viewBox="0 0 564.48 276.48" version="1.1">
 <metadata>
  <rdf:RDF xmlns:dc="http://purl.org/dc/elements/1.1/" xmlns:cc="http://creativecommons.org/ns#" xmlns:rdf="http://www.w3.org/1999/02/22-rdf-syntax-ns#">
   <cc:Work>
    <dc:type rdf:resource="http://purl.org/dc/dcmitype/StillImage"/>
    <dc:date>2025-06-07T14:14:55.846740</dc:date>
    <dc:format>image/svg+xml</dc:format>
    <dc:creator>
     <cc:Agent>
      <dc:title>Matplotlib v3.10.3, https://matplotlib.org/</dc:title>
     </cc:Agent>
    </dc:creator>
   </cc:Work>
  </rdf:RDF>
 </metadata>
 <defs>
  <style type="text/css">*{stroke-linejoin: round; stroke-linecap: butt}</style>
 </defs>
 <g id="figure_1">
  <g id="patch_1">
   <path d="M 0 276.48  L 564.48 276.48  L 564.48 0  L 0 0  z " style="fill: #ffffff"/>
  </g>
  <g id="axes_1">
   <g id="patch_2">
    <path d="M 20.05299 237.026449  L 557.28 237.026449  L 557.28 11.35109  L 20.05299 11.35109  z " style="fill: #ffffff"/>
   </g>
   <g id="matplotlib.axis_1">
    <g id="xtick_1">
     <g id="line2d_1">
      <defs>
       <path id="m73834a5d7a" d="M 0 0  L 0 3.5  " style="stroke: #000000; stroke-width: 0.8"/>
      </defs>
      <g>
       <use xlink:href="#m73834a5d7a" x="73.775691" y="237.026449" style="stroke: #000000; stroke-width: 0.8"/>
      </g>
     </g>
     <g id="text_1">
      <!-- $\mathdefault{−4}$ -->
      <g transform="translate(66.199951 252.328629) scale(0.12 -0.12)">
       <defs>
        <path id="CMSY10-0" d="M 4218 1472  C 4326 1472 4442 1472 4442 1600  C 4442 1728 4326 1728 4218 1728  L 755 1728  C 646 1728 531 1728 531 1600  C 531 1472 646 1472 755 1472  L 4218 1472  z " transform="scale(0.015625)"/>
        <path id="CMR17-34" d="M 2150 4122  C 2150 4256 2144 4256 2029 4256  L 128 1254  L 128 1088  L 1779 1088  L 1779 457  C 1779 224 1766 160 1318 160  L 1197 160  L 1197 0  C 1402 0 1747 0 1965 0  C 2182 0 2528 0 2733 0  L 2733 160  L 2611 160  C 2163 160 2150 224 2150 457  L 2150 1088  L 2803 1088  L 2803 1254  L 2150 1254  L 2150 4122  z M 1798 3703  L 1798 1254  L 256 1254  L 1798 3703  z " transform="scale(0.015625)"/>
       </defs>
       <use xlink:href="#CMSY10-0" transform="scale(0.996264)"/>
       <use xlink:href="#CMR17-34" transform="translate(77.487468 0) scale(0.996264)"/>
      </g>
     </g>
    </g>
    <g id="xtick_2">
     <g id="line2d_2">
      <g>
       <use xlink:href="#m73834a5d7a" x="181.221093" y="237.026449" style="stroke: #000000; stroke-width: 0.8"/>
      </g>
     </g>
     <g id="text_2">
      <!-- $\mathdefault{−2}$ -->
      <g transform="translate(173.645353 252.328629) scale(0.12 -0.12)">
       <defs>
        <path id="CMR17-32" d="M 2669 989  L 2554 989  C 2490 536 2438 459 2413 420  C 2381 369 1920 369 1830 369  L 602 369  C 832 619 1280 1072 1824 1597  C 2214 1967 2669 2402 2669 3035  C 2669 3790 2067 4224 1395 4224  C 691 4224 262 3604 262 3030  C 262 2780 448 2748 525 2748  C 589 2748 781 2787 781 3010  C 781 3207 614 3264 525 3264  C 486 3264 448 3258 422 3245  C 544 3790 915 4058 1306 4058  C 1862 4058 2227 3617 2227 3035  C 2227 2479 1901 2000 1536 1584  L 262 146  L 262 0  L 2515 0  L 2669 989  z " transform="scale(0.015625)"/>
       </defs>
       <use xlink:href="#CMSY10-0" transform="scale(0.996264)"/>
       <use xlink:href="#CMR17-32" transform="translate(77.487468 0) scale(0.996264)"/>
      </g>
     </g>
    </g>
    <g id="xtick_3">
     <g id="line2d_3">
      <g>
       <use xlink:href="#m73834a5d7a" x="288.666495" y="237.026449" style="stroke: #000000; stroke-width: 0.8"/>
      </g>
     </g>
     <g id="text_3">
      <!-- $\mathdefault{0}$ -->
      <g transform="translate(285.74 252.328629) scale(0.12 -0.12)">
       <defs>
        <path id="CMR17-30" d="M 2688 2025  C 2688 2416 2682 3080 2413 3591  C 2176 4039 1798 4198 1466 4198  C 1158 4198 768 4058 525 3597  C 269 3118 243 2524 243 2025  C 243 1661 250 1106 448 619  C 723 -39 1216 -128 1466 -128  C 1760 -128 2208 -7 2470 600  C 2662 1042 2688 1559 2688 2025  z M 1466 -26  C 1056 -26 813 325 723 812  C 653 1188 653 1738 653 2096  C 653 2588 653 2997 736 3387  C 858 3929 1216 4096 1466 4096  C 1728 4096 2067 3923 2189 3400  C 2272 3036 2278 2607 2278 2096  C 2278 1680 2278 1169 2202 792  C 2067 95 1690 -26 1466 -26  z " transform="scale(0.015625)"/>
       </defs>
       <use xlink:href="#CMR17-30" transform="scale(0.996264)"/>
      </g>
     </g>
    </g>
    <g id="xtick_4">
     <g id="line2d_4">
      <g>
       <use xlink:href="#m73834a5d7a" x="396.111897" y="237.026449" style="stroke: #000000; stroke-width: 0.8"/>
      </g>
     </g>
     <g id="text_4">
      <!-- $\mathdefault{2}$ -->
      <g transform="translate(393.185402 252.328629) scale(0.12 -0.12)">
       <use xlink:href="#CMR17-32" transform="scale(0.996264)"/>
      </g>
     </g>
    </g>
    <g id="xtick_5">
     <g id="line2d_5">
      <g>
       <use xlink:href="#m73834a5d7a" x="503.557299" y="237.026449" style="stroke: #000000; stroke-width: 0.8"/>
      </g>
     </g>
     <g id="text_5">
      <!-- $\mathdefault{4}$ -->
      <g transform="translate(500.630804 252.328629) scale(0.12 -0.12)">
       <use xlink:href="#CMR17-34" transform="scale(0.996264)"/>
      </g>
     </g>
    </g>
    <g id="text_6">
     <!-- $x$ -->
     <g transform="translate(285.340452 266.955404) scale(0.12 -0.12)">
      <defs>
       <path id="CMMI12-78" d="M 3034 2606  C 2829 2567 2752 2414 2752 2293  C 2752 2139 2874 2088 2963 2088  C 3155 2088 3290 2254 3290 2427  C 3290 2695 2982 2816 2714 2816  C 2323 2816 2106 2433 2048 2312  C 1901 2816 1504 2816 1389 2816  C 736 2816 390 1980 390 1839  C 390 1814 416 1782 461 1782  C 512 1782 525 1820 538 1846  C 755 2555 1184 2689 1370 2689  C 1658 2689 1715 2420 1715 2267  C 1715 2127 1677 1980 1600 1673  L 1382 798  C 1286 415 1101 64 762 64  C 730 64 570 64 435 147  C 666 192 717 383 717 460  C 717 588 621 664 499 664  C 346 664 179 530 179 326  C 179 57 480 -64 755 -64  C 1062 -64 1280 179 1414 441  C 1517 64 1837 -64 2074 -64  C 2726 -64 3072 773 3072 913  C 3072 945 3046 971 3008 971  C 2950 971 2944 939 2925 888  C 2752 326 2381 64 2093 64  C 1869 64 1747 230 1747 492  C 1747 632 1773 734 1875 1156  L 2099 2024  C 2195 2408 2413 2689 2707 2689  C 2720 2689 2899 2689 3034 2606  z " transform="scale(0.015625)"/>
      </defs>
      <use xlink:href="#CMMI12-78" transform="scale(0.996264)"/>
     </g>
    </g>
   </g>
   <g id="matplotlib.axis_2">
    <g id="ytick_1">
     <g id="line2d_6">
      <defs>
       <path id="m3614e08817" d="M 0 0  L -3.5 0  " style="stroke: #000000; stroke-width: 0.8"/>
      </defs>
      <g>
       <use xlink:href="#m3614e08817" x="20.05299" y="237.026449" style="stroke: #000000; stroke-width: 0.8"/>
      </g>
     </g>
     <g id="text_7">
      <!-- $\mathdefault{0}$ -->
      <g transform="translate(7.2 241.177539) scale(0.12 -0.12)">
       <use xlink:href="#CMR17-30" transform="scale(0.996264)"/>
      </g>
     </g>
    </g>
    <g id="ytick_2">
     <g id="line2d_7">
      <g>
       <use xlink:href="#m3614e08817" x="20.05299" y="191.891377" style="stroke: #000000; stroke-width: 0.8"/>
      </g>
     </g>
     <g id="text_8">
      <!-- $\mathdefault{1}$ -->
      <g transform="translate(7.2 196.042467) scale(0.12 -0.12)">
       <defs>
        <path id="CMR17-31" d="M 1702 4058  C 1702 4192 1696 4192 1606 4192  C 1357 3916 979 3827 621 3827  C 602 3827 570 3827 563 3808  C 557 3795 557 3782 557 3648  C 755 3648 1088 3686 1344 3839  L 1344 461  C 1344 236 1331 160 781 160  L 589 160  L 589 0  C 896 0 1216 0 1523 0  C 1830 0 2150 0 2458 0  L 2458 160  L 2266 160  C 1715 160 1702 230 1702 458  L 1702 4058  z " transform="scale(0.015625)"/>
       </defs>
       <use xlink:href="#CMR17-31" transform="scale(0.996264)"/>
      </g>
     </g>
    </g>
    <g id="ytick_3">
     <g id="line2d_8">
      <g>
       <use xlink:href="#m3614e08817" x="20.05299" y="146.756305" style="stroke: #000000; stroke-width: 0.8"/>
      </g>
     </g>
     <g id="text_9">
      <!-- $\mathdefault{2}$ -->
      <g transform="translate(7.2 150.907395) scale(0.12 -0.12)">
       <use xlink:href="#CMR17-32" transform="scale(0.996264)"/>
      </g>
     </g>
    </g>
    <g id="ytick_4">
     <g id="line2d_9">
      <g>
       <use xlink:href="#m3614e08817" x="20.05299" y="101.621233" style="stroke: #000000; stroke-width: 0.8"/>
      </g>
     </g>
     <g id="text_10">
      <!-- $\mathdefault{3}$ -->
      <g transform="translate(7.2 105.772323) scale(0.12 -0.12)">
       <defs>
        <path id="CMR17-33" d="M 1414 2157  C 1984 2157 2234 1662 2234 1090  C 2234 320 1824 25 1453 25  C 1114 25 563 194 390 693  C 422 680 454 680 486 680  C 640 680 755 782 755 948  C 755 1133 614 1216 486 1216  C 378 1216 211 1165 211 926  C 211 335 787 -128 1466 -128  C 2176 -128 2720 430 2720 1085  C 2720 1707 2208 2157 1600 2227  C 2086 2328 2554 2756 2554 3329  C 2554 3820 2048 4179 1472 4179  C 890 4179 378 3829 378 3329  C 378 3110 544 3072 627 3072  C 762 3072 877 3155 877 3321  C 877 3486 762 3569 627 3569  C 602 3569 570 3569 544 3557  C 730 3959 1235 4032 1459 4032  C 1683 4032 2106 3925 2106 3320  C 2106 3143 2080 2828 1862 2550  C 1670 2304 1453 2304 1242 2284  C 1210 2284 1062 2269 1037 2269  C 992 2263 966 2257 966 2208  C 966 2163 973 2157 1101 2157  L 1414 2157  z " transform="scale(0.015625)"/>
       </defs>
       <use xlink:href="#CMR17-33" transform="scale(0.996264)"/>
      </g>
     </g>
    </g>
    <g id="ytick_5">
     <g id="line2d_10">
      <g>
       <use xlink:href="#m3614e08817" x="20.05299" y="56.486162" style="stroke: #000000; stroke-width: 0.8"/>
      </g>
     </g>
     <g id="text_11">
      <!-- $\mathdefault{4}$ -->
      <g transform="translate(7.2 60.637252) scale(0.12 -0.12)">
       <use xlink:href="#CMR17-34" transform="scale(0.996264)"/>
      </g>
     </g>
    </g>
    <g id="ytick_6">
     <g id="line2d_11">
      <g>
       <use xlink:href="#m3614e08817" x="20.05299" y="11.35109" style="stroke: #000000; stroke-width: 0.8"/>
      </g>
     </g>
     <g id="text_12">
      <!-- $\mathdefault{5}$ -->
      <g transform="translate(7.2 15.50218) scale(0.12 -0.12)">
       <defs>
        <path id="CMR17-35" d="M 730 3692  C 794 3666 1056 3584 1325 3584  C 1920 3584 2246 3911 2432 4100  C 2432 4157 2432 4192 2394 4192  C 2387 4192 2374 4192 2323 4163  C 2099 4058 1837 3973 1517 3973  C 1325 3973 1037 3999 723 4139  C 653 4171 640 4171 634 4171  C 602 4171 595 4164 595 4037  L 595 2203  C 595 2089 595 2057 659 2057  C 691 2057 704 2070 736 2114  C 941 2401 1222 2522 1542 2522  C 1766 2522 2246 2382 2246 1289  C 2246 1085 2246 715 2054 421  C 1894 159 1645 25 1370 25  C 947 25 518 320 403 814  C 429 807 480 795 506 795  C 589 795 749 840 749 1038  C 749 1210 627 1280 506 1280  C 358 1280 262 1190 262 1011  C 262 454 704 -128 1382 -128  C 2042 -128 2669 440 2669 1264  C 2669 2030 2170 2624 1549 2624  C 1222 2624 947 2503 730 2274  L 730 3692  z " transform="scale(0.015625)"/>
       </defs>
       <use xlink:href="#CMR17-35" transform="scale(0.996264)"/>
      </g>
     </g>
    </g>
   </g>
   <g id="line2d_12">
    <path d="M 114.304531 -1  L 126.719744 31.951344  L 142.227849 69.346986  L 157.710281 102.928947  L 173.169897 132.721035  L 188.609502 158.744189  L 204.031856 181.016553  L 219.439676 199.553556  L 234.835649 214.367963  L 250.222435 225.469932  L 265.602674 232.867046  L 280.97899 236.564345  L 296.354 236.564345  L 311.730316 232.867046  L 327.110555 225.469932  L 342.497341 214.367963  L 357.893315 199.553556  L 373.301135 181.016553  L 388.723488 158.744189  L 404.163093 132.721035  L 419.62271 102.928947  L 435.105141 69.346986  L 450.613246 31.951344  L 463.02846 -1  " clip-path="url(#p30e0bcbe19)" style="fill: none; stroke-dasharray: 7.4,3.2; stroke-dashoffset: 0; stroke: #000000; stroke-width: 2"/>
   </g>
   <g id="line2d_13">
    <path d="M -1 214.458899  L 1.363891 214.458897  L 17.189313 214.458837  L 32.963288 214.458595  L 48.689413 214.45769  L 64.371153 214.454608  L 80.011858 214.445035  L 95.614774 214.417903  L 111.183048 214.347743  L 126.719744 214.182265  L 142.227849 213.826512  L 157.710281 213.130168  L 173.169897 211.891457  L 188.609502 209.894586  L 204.031856 206.99036  L 219.439676 203.20691  L 234.835649 198.846174  L 250.222435 194.502547  L 265.602674 190.956659  L 280.97899 188.954725  L 296.354 188.954725  L 311.730316 190.956659  L 327.110555 194.502547  L 342.497341 198.846174  L 357.893315 203.20691  L 373.301135 206.99036  L 388.723488 209.894586  L 404.163093 211.891457  L 419.62271 213.130168  L 435.105141 213.826512  L 450.613246 214.182265  L 466.149942 214.347743  L 481.718217 214.417903  L 497.321132 214.445035  L 512.961838 214.454608  L 528.643578 214.45769  L 544.369702 214.458595  L 560.143677 214.458837  L 565.48 214.458857  " clip-path="url(#p30e0bcbe19)" style="fill: none; stroke: #1f77b4; stroke-width: 2; stroke-linecap: square"/>
   </g>
   <g id="line2d_14">
    <path d="M -1 169.323427  L 1.363891 169.323373  L 17.189313 169.321914  L 32.963288 169.316642  L 48.689413 169.299443  L 64.371153 169.248808  L 80.011858 169.114495  L 95.614774 168.794269  L 111.183048 168.110482  L 126.719744 166.809896  L 142.227849 164.62503  L 157.710281 161.428366  L 173.169897 157.457256  L 188.609502 153.491105  L 204.031856 150.787796  L 219.439676 150.64014  L 234.835649 153.648181  L 250.222435 159.104468  L 265.602674 164.992161  L 280.97899 168.801605  L 296.354 168.801605  L 311.730316 164.992161  L 327.110555 159.104468  L 342.497341 153.648181  L 357.893315 150.64014  L 373.301135 150.787796  L 388.723488 153.491105  L 404.163093 157.457256  L 419.62271 161.428366  L 435.105141 164.62503  L 450.613246 166.809896  L 466.149942 168.110482  L 481.718217 168.794269  L 497.321132 169.114495  L 512.961838 169.248808  L 528.643578 169.299443  L 544.369702 169.316642  L 560.143677 169.321914  L 565.48 169.322406  " clip-path="url(#p30e0bcbe19)" style="fill: none; stroke: #ff7f0e; stroke-width: 2; stroke-linecap: square"/>
   </g>
   <g id="line2d_15">
    <path d="M -1 124.183234  L 1.363891 124.182536  L 17.189313 124.16605  L 32.963288 124.114264  L 48.689413 123.969139  L 64.371153 123.607691  L 80.011858 122.812203  L 95.614774 121.278616  L 111.183048 118.724997  L 126.719744 115.142065  L 142.227849 111.115018  L 157.710281 107.962206  L 173.169897 107.348405  L 188.609502 110.279048  L 204.031856 115.988427  L 219.439676 121.734533  L 234.835649 124.188643  L 250.222435 121.813361  L 265.602674 116.370138  L 280.97899 111.953564  L 296.354 111.953564  L 311.730316 116.370138  L 327.110555 121.813361  L 342.497341 124.188643  L 357.893315 121.734533  L 373.301135 115.988427  L 388.723488 110.279048  L 404.163093 107.348405  L 419.62271 107.962206  L 435.105141 111.115018  L 450.613246 115.142065  L 466.149942 118.724997  L 481.718217 121.278616  L 497.321132 122.812203  L 512.961838 123.607691  L 528.643578 123.969139  L 544.369702 124.114264  L 560.143677 124.16605  L 565.48 124.171609  " clip-path="url(#p30e0bcbe19)" style="fill: none; stroke: #2ca02c; stroke-width: 2; stroke-linecap: square"/>
   </g>
   <g id="line2d_16">
    <path d="M -1 79.008054  L 1.363891 79.002571  L 17.189313 78.890554  L 32.963288 78.590198  L 48.689413 77.884907  L 64.371153 76.449321  L 80.011858 73.958113  L 95.614774 70.380161  L 111.183048 66.386674  L 126.719744 63.528548  L 142.227849 63.683926  L 157.710281 67.663583  L 173.169897 73.850923  L 188.609502 78.473763  L 204.031856 78.224366  L 219.439676 73.466275  L 234.835649 68.645331  L 250.222435 68.511193  L 265.602674 73.330021  L 280.97899 78.281001  L 296.354 78.281001  L 311.730316 73.330021  L 327.110555 68.511193  L 342.497341 68.645331  L 357.893315 73.466275  L 373.301135 78.224366  L 388.723488 78.473763  L 404.163093 73.850923  L 419.62271 67.663583  L 435.105141 63.683926  L 450.613246 63.528548  L 466.149942 66.386674  L 481.718217 70.380161  L 497.321132 73.958113  L 512.961838 76.449321  L 528.643578 77.884907  L 544.369702 78.590198  L 560.143677 78.890554  L 565.48 78.928326  " clip-path="url(#p30e0bcbe19)" style="fill: none; stroke: #d62728; stroke-width: 2; stroke-linecap: square"/>
   </g>
   <g id="line2d_17">
    <path d="M -1 33.660182  L 1.363891 33.631081  L 17.189313 33.126516  L 32.963288 32.003641  L 48.689413 29.88348  L 64.371153 26.581503  L 80.011858 22.578025  L 95.614774 19.370541  L 111.183048 19.059586  L 126.719744 22.8028  L 142.227849 29.026309  L 157.710281 33.528162  L 173.169897 32.704152  L 188.609502 27.564508  L 204.031856 23.695835  L 219.439676 25.626018  L 234.835649 31.274429  L 250.222435 33.888698  L 265.602674 30.278099  L 280.97899 25.119305  L 296.354 25.119305  L 311.730316 30.278099  L 327.110555 33.888698  L 342.497341 31.274429  L 357.893315 25.626018  L 373.301135 23.695835  L 388.723488 27.564508  L 404.163093 32.704152  L 419.62271 33.528162  L 435.105141 29.026309  L 450.613246 22.8028  L 466.149942 19.059586  L 481.718217 19.370541  L 497.321132 22.578025  L 512.961838 26.581503  L 528.643578 29.88348  L 544.369702 32.003641  L 560.143677 33.126516  L 565.48 33.296655  " clip-path="url(#p30e0bcbe19)" style="fill: none; stroke: #9467bd; stroke-width: 2; stroke-linecap: square"/>
   </g>
   <g id="patch_3">
    <path d="M 20.05299 237.026449  L 20.05299 11.35109  " style="fill: none; stroke: #000000; stroke-width: 0.8; stroke-linejoin: miter; stroke-linecap: square"/>
   </g>
   <g id="patch_4">
    <path d="M 557.28 237.026449  L 557.28 11.35109  " style="fill: none; stroke: #000000; stroke-width: 0.8; stroke-linejoin: miter; stroke-linecap: square"/>
   </g>
   <g id="patch_5">
    <path d="M 20.05299 237.026449  L 557.28 237.026449  " style="fill: none; stroke: #000000; stroke-width: 0.8; stroke-linejoin: miter; stroke-linecap: square"/>
   </g>
   <g id="patch_6">
    <path d="M 20.05299 11.35109  L 557.28 11.35109  " style="fill: none; stroke: #000000; stroke-width: 0.8; stroke-linejoin: miter; stroke-linecap: square"/>
   </g>
  </g>
 </g>
 <defs>
  <clipPath id="p30e0bcbe19">
   <rect x="20.05299" y="11.35109" width="537.22701" height="225.675359"/>
  </clipPath>
 </defs>
</svg>