<svg xmlns:xlink="http://www.w3.org/1999/xlink" xmlns="http://www.w3.org/2000/svg" width="576pt" height="288pt" viewBox="0 0 576 288" version="1.1">
 <metadata>
  <rdf:RDF xmlns:dc="http://purl.org/dc/elements/1.1/" xmlns:cc="http://creativecommons.org/ns#" xmlns:rdf="http://www.w3.org/1999/02/22-rdf-syntax-ns#">
   <cc:Work>
    <dc:type rdf:resource="http://purl.org/dc/dcmitype/StillImage"/>
    <dc:date>2025-06-06T08:51:01.606091</dc:date>
    <dc:format>image/svg+xml</dc:format>
    <dc:creator>
     <cc:Agent>
      <dc:title>Matplotlib v3.10.3, https://matplotlib.org/</dc:title>
     </cc:Agent>
    </dc:creator>
   </cc:Work>
  </rdf:RDF>
 </metadata>
 <defs>
  <style type="text/css">*{stroke-linejoin: round; stroke-linecap: butt}</style>
 </defs>
 <g id="figure_1">
  <g id="patch_1">
   <path d="M 0 288  L 576 288  L 576 0  L 0 0  z " style="fill: #ffffff"/>
  </g>
  <g id="axes_1">
   <g id="patch_2">
    <path d="M 72 256.32  L 518.4 256.32  L 518.4 34.56  L 72 34.56  z " style="fill: #ffffff"/>
   </g>
   <g id="matplotlib.axis_1">
    <g id="xtick_1">
     <g id="line2d_1">
      <defs>
       <path id="m170345882e" d="M 0 0  L 0 3.5  " style="stroke: #000000; stroke-width: 0.8"/>
      </defs>
      <g>
       <use xlink:href="#m170345882e" x="116.64" y="256.32" style="stroke: #000000; stroke-width: 0.8"/>
      </g>
     </g>
     <g id="text_1">
      <!-- $\mathdefault{−4}$ -->
      <g transform="translate(109.06426 271.62218) scale(0.12 -0.12)">
       <defs>
        <path id="CMSY10-0" d="M 4218 1472  C 4326 1472 4442 1472 4442 1600  C 4442 1728 4326 1728 4218 1728  L 755 1728  C 646 1728 531 1728 531 1600  C 531 1472 646 1472 755 1472  L 4218 1472  z " transform="scale(0.015625)"/>
        <path id="CMR17-34" d="M 2150 4122  C 2150 4256 2144 4256 2029 4256  L 128 1254  L 128 1088  L 1779 1088  L 1779 457  C 1779 224 1766 160 1318 160  L 1197 160  L 1197 0  C 1402 0 1747 0 1965 0  C 2182 0 2528 0 2733 0  L 2733 160  L 2611 160  C 2163 160 2150 224 2150 457  L 2150 1088  L 2803 1088  L 2803 1254  L 2150 1254  L 2150 4122  z M 1798 3703  L 1798 1254  L 256 1254  L 1798 3703  z " transform="scale(0.015625)"/>
       </defs>
       <use xlink:href="#CMSY10-0" transform="scale(0.996264)"/>
       <use xlink:href="#CMR17-34" transform="translate(77.487468 0) scale(0.996264)"/>
      </g>
     </g>
    </g>
    <g id="xtick_2">
     <g id="line2d_2">
      <g>
       <use xlink:href="#m170345882e" x="205.92" y="256.32" style="stroke: #000000; stroke-width: 0.8"/>
      </g>
     </g>
     <g id="text_2">
      <!-- $\mathdefault{−2}$ -->
      <g transform="translate(198.34426 271.62218) scale(0.12 -0.12)">
       <defs>
        <path id="CMR17-32" d="M 2669 989  L 2554 989  C 2490 536 2438 459 2413 420  C 2381 369 1920 369 1830 369  L 602 369  C 832 619 1280 1072 1824 1597  C 2214 1967 2669 2402 2669 3035  C 2669 3790 2067 4224 1395 4224  C 691 4224 262 3604 262 3030  C 262 2780 448 2748 525 2748  C 589 2748 781 2787 781 3010  C 781 3207 614 3264 525 3264  C 486 3264 448 3258 422 3245  C 544 3790 915 4058 1306 4058  C 1862 4058 2227 3617 2227 3035  C 2227 2479 1901 2000 1536 1584  L 262 146  L 262 0  L 2515 0  L 2669 989  z " transform="scale(0.015625)"/>
       </defs>
       <use xlink:href="#CMSY10-0" transform="scale(0.996264)"/>
       <use xlink:href="#CMR17-32" transform="translate(77.487468 0) scale(0.996264)"/>
      </g>
     </g>
    </g>
    <g id="xtick_3">
     <g id="line2d_3">
      <g>
       <use xlink:href="#m170345882e" x="295.2" y="256.32" style="stroke: #000000; stroke-width: 0.8"/>
      </g>
     </g>
     <g id="text_3">
      <!-- $\mathdefault{0}$ -->
      <g transform="translate(292.273505 271.62218) scale(0.12 -0.12)">
       <defs>
        <path id="CMR17-30" d="M 2688 2025  C 2688 2416 2682 3080 2413 3591  C 2176 4039 1798 4198 1466 4198  C 1158 4198 768 4058 525 3597  C 269 3118 243 2524 243 2025  C 243 1661 250 1106 448 619  C 723 -39 1216 -128 1466 -128  C 1760 -128 2208 -7 2470 600  C 2662 1042 2688 1559 2688 2025  z M 1466 -26  C 1056 -26 813 325 723 812  C 653 1188 653 1738 653 2096  C 653 2588 653 2997 736 3387  C 858 3929 1216 4096 1466 4096  C 1728 4096 2067 3923 2189 3400  C 2272 3036 2278 2607 2278 2096  C 2278 1680 2278 1169 2202 792  C 2067 95 1690 -26 1466 -26  z " transform="scale(0.015625)"/>
       </defs>
       <use xlink:href="#CMR17-30" transform="scale(0.996264)"/>
      </g>
     </g>
    </g>
    <g id="xtick_4">
     <g id="line2d_4">
      <g>
       <use xlink:href="#m170345882e" x="384.48" y="256.32" style="stroke: #000000; stroke-width: 0.8"/>
      </g>
     </g>
     <g id="text_4">
      <!-- $\mathdefault{2}$ -->
      <g transform="translate(381.553505 271.62218) scale(0.12 -0.12)">
       <use xlink:href="#CMR17-32" transform="scale(0.996264)"/>
      </g>
     </g>
    </g>
    <g id="xtick_5">
     <g id="line2d_5">
      <g>
       <use xlink:href="#m170345882e" x="473.76" y="256.32" style="stroke: #000000; stroke-width: 0.8"/>
      </g>
     </g>
     <g id="text_5">
      <!-- $\mathdefault{4}$ -->
      <g transform="translate(470.833505 271.62218) scale(0.12 -0.12)">
       <use xlink:href="#CMR17-34" transform="scale(0.996264)"/>
      </g>
     </g>
    </g>
    <g id="text_6">
     <!-- $x$ -->
     <g transform="translate(291.873956 286.248955) scale(0.12 -0.12)">
      <defs>
       <path id="CMMI12-78" d="M 3034 2606  C 2829 2567 2752 2414 2752 2293  C 2752 2139 2874 2088 2963 2088  C 3155 2088 3290 2254 3290 2427  C 3290 2695 2982 2816 2714 2816  C 2323 2816 2106 2433 2048 2312  C 1901 2816 1504 2816 1389 2816  C 736 2816 390 1980 390 1839  C 390 1814 416 1782 461 1782  C 512 1782 525 1820 538 1846  C 755 2555 1184 2689 1370 2689  C 1658 2689 1715 2420 1715 2267  C 1715 2127 1677 1980 1600 1673  L 1382 798  C 1286 415 1101 64 762 64  C 730 64 570 64 435 147  C 666 192 717 383 717 460  C 717 588 621 664 499 664  C 346 664 179 530 179 326  C 179 57 480 -64 755 -64  C 1062 -64 1280 179 1414 441  C 1517 64 1837 -64 2074 -64  C 2726 -64 3072 773 3072 913  C 3072 945 3046 971 3008 971  C 2950 971 2944 939 2925 888  C 2752 326 2381 64 2093 64  C 1869 64 1747 230 1747 492  C 1747 632 1773 734 1875 1156  L 2099 2024  C 2195 2408 2413 2689 2707 2689  C 2720 2689 2899 2689 3034 2606  z " transform="scale(0.015625)"/>
      </defs>
      <use xlink:href="#CMMI12-78" transform="scale(0.996264)"/>
     </g>
    </g>
   </g>
   <g id="matplotlib.axis_2">
    <g id="ytick_1">
     <g id="line2d_6">
      <defs>
       <path id="m01261cb0e1" d="M 0 0  L -3.5 0  " style="stroke: #000000; stroke-width: 0.8"/>
      </defs>
      <g>
       <use xlink:href="#m01261cb0e1" x="72" y="256.32" style="stroke: #000000; stroke-width: 0.8"/>
      </g>
     </g>
     <g id="text_7">
      <!-- $\mathdefault{0}$ -->
      <g transform="translate(59.14701 260.47109) scale(0.12 -0.12)">
       <use xlink:href="#CMR17-30" transform="scale(0.996264)"/>
      </g>
     </g>
    </g>
    <g id="ytick_2">
     <g id="line2d_7">
      <g>
       <use xlink:href="#m01261cb0e1" x="72" y="211.968" style="stroke: #000000; stroke-width: 0.8"/>
      </g>
     </g>
     <g id="text_8">
      <!-- $\mathdefault{1}$ -->
      <g transform="translate(59.14701 216.11909) scale(0.12 -0.12)">
       <defs>
        <path id="CMR17-31" d="M 1702 4058  C 1702 4192 1696 4192 1606 4192  C 1357 3916 979 3827 621 3827  C 602 3827 570 3827 563 3808  C 557 3795 557 3782 557 3648  C 755 3648 1088 3686 1344 3839  L 1344 461  C 1344 236 1331 160 781 160  L 589 160  L 589 0  C 896 0 1216 0 1523 0  C 1830 0 2150 0 2458 0  L 2458 160  L 2266 160  C 1715 160 1702 230 1702 458  L 1702 4058  z " transform="scale(0.015625)"/>
       </defs>
       <use xlink:href="#CMR17-31" transform="scale(0.996264)"/>
      </g>
     </g>
    </g>
    <g id="ytick_3">
     <g id="line2d_8">
      <g>
       <use xlink:href="#m01261cb0e1" x="72" y="167.616" style="stroke: #000000; stroke-width: 0.8"/>
      </g>
     </g>
     <g id="text_9">
      <!-- $\mathdefault{2}$ -->
      <g transform="translate(59.14701 171.76709) scale(0.12 -0.12)">
       <use xlink:href="#CMR17-32" transform="scale(0.996264)"/>
      </g>
     </g>
    </g>
    <g id="ytick_4">
     <g id="line2d_9">
      <g>
       <use xlink:href="#m01261cb0e1" x="72" y="123.264" style="stroke: #000000; stroke-width: 0.8"/>
      </g>
     </g>
     <g id="text_10">
      <!-- $\mathdefault{3}$ -->
      <g transform="translate(59.14701 127.41509) scale(0.12 -0.12)">
       <defs>
        <path id="CMR17-33" d="M 1414 2157  C 1984 2157 2234 1662 2234 1090  C 2234 320 1824 25 1453 25  C 1114 25 563 194 390 693  C 422 680 454 680 486 680  C 640 680 755 782 755 948  C 755 1133 614 1216 486 1216  C 378 1216 211 1165 211 926  C 211 335 787 -128 1466 -128  C 2176 -128 2720 430 2720 1085  C 2720 1707 2208 2157 1600 2227  C 2086 2328 2554 2756 2554 3329  C 2554 3820 2048 4179 1472 4179  C 890 4179 378 3829 378 3329  C 378 3110 544 3072 627 3072  C 762 3072 877 3155 877 3321  C 877 3486 762 3569 627 3569  C 602 3569 570 3569 544 3557  C 730 3959 1235 4032 1459 4032  C 1683 4032 2106 3925 2106 3320  C 2106 3143 2080 2828 1862 2550  C 1670 2304 1453 2304 1242 2284  C 1210 2284 1062 2269 1037 2269  C 992 2263 966 2257 966 2208  C 966 2163 973 2157 1101 2157  L 1414 2157  z " transform="scale(0.015625)"/>
       </defs>
       <use xlink:href="#CMR17-33" transform="scale(0.996264)"/>
      </g>
     </g>
    </g>
    <g id="ytick_5">
     <g id="line2d_10">
      <g>
       <use xlink:href="#m01261cb0e1" x="72" y="78.912" style="stroke: #000000; stroke-width: 0.8"/>
      </g>
     </g>
     <g id="text_11">
      <!-- $\mathdefault{4}$ -->
      <g transform="translate(59.14701 83.06309) scale(0.12 -0.12)">
       <use xlink:href="#CMR17-34" transform="scale(0.996264)"/>
      </g>
     </g>
    </g>
    <g id="ytick_6">
     <g id="line2d_11">
      <g>
       <use xlink:href="#m01261cb0e1" x="72" y="34.56" style="stroke: #000000; stroke-width: 0.8"/>
      </g>
     </g>
     <g id="text_12">
      <!-- $\mathdefault{5}$ -->
      <g transform="translate(59.14701 38.71109) scale(0.12 -0.12)">
       <defs>
        <path id="CMR17-35" d="M 730 3692  C 794 3666 1056 3584 1325 3584  C 1920 3584 2246 3911 2432 4100  C 2432 4157 2432 4192 2394 4192  C 2387 4192 2374 4192 2323 4163  C 2099 4058 1837 3973 1517 3973  C 1325 3973 1037 3999 723 4139  C 653 4171 640 4171 634 4171  C 602 4171 595 4164 595 4037  L 595 2203  C 595 2089 595 2057 659 2057  C 691 2057 704 2070 736 2114  C 941 2401 1222 2522 1542 2522  C 1766 2522 2246 2382 2246 1289  C 2246 1085 2246 715 2054 421  C 1894 159 1645 25 1370 25  C 947 25 518 320 403 814  C 429 807 480 795 506 795  C 589 795 749 840 749 1038  C 749 1210 627 1280 506 1280  C 358 1280 262 1190 262 1011  C 262 454 704 -128 1382 -128  C 2042 -128 2669 440 2669 1264  C 2669 2030 2170 2624 1549 2624  C 1222 2624 947 2503 730 2274  L 730 3692  z " transform="scale(0.015625)"/>
       </defs>
       <use xlink:href="#CMR17-35" transform="scale(0.996264)"/>
      </g>
     </g>
    </g>
   </g>
   <g id="line2d_12">
    <path d="M 143.26283 -1  L 147.723031 14.282173  L 160.632995 54.802849  L 173.519201 91.549695  L 186.384075 124.549025  L 199.22999 153.824235  L 212.059278 179.3959  L 224.87423 201.281849  L 237.677106 219.497244  L 250.470138 234.054628  L 263.255537 244.963983  L 276.035495 252.232761  L 288.812194 255.865914  L 301.587806 255.865914  L 314.364505 252.232761  L 327.144463 244.963983  L 339.929862 234.054628  L 352.722894 219.497244  L 365.52577 201.281849  L 378.340722 179.3959  L 391.17001 153.824235  L 404.015925 124.549025  L 416.880799 91.549695  L 429.767005 54.802849  L 442.676969 14.282173  L 447.13717 -1  " clip-path="url(#pff301276f8)" style="fill: none; stroke-dasharray: 7.4,3.2; stroke-dashoffset: 0; stroke: #000000; stroke-width: 2"/>
   </g>
   <g id="line2d_13">
    <path d="M -1 234.144  L 3.379465 234.144  L 16.732761 234.144  L 30.03005 234.143999  L 43.274869 234.143997  L 56.470599 234.143984  L 69.620474 234.143926  L 82.727601 234.143688  L 95.794967 234.142798  L 108.825453 234.13977  L 121.821841 234.130363  L 134.786829 234.103701  L 147.723031 234.034758  L 160.632995 233.872152  L 173.519201 233.522571  L 186.384075 232.838308  L 199.22999 231.621088  L 212.059278 229.658862  L 224.87423 226.805023  L 237.677106 223.087214  L 250.470138 218.802134  L 263.255537 214.533867  L 276.035495 211.049499  L 288.812194 209.082297  L 301.587806 209.082297  L 314.364505 211.049499  L 327.144463 214.533867  L 339.929862 218.802134  L 352.722894 223.087214  L 365.52577 226.805023  L 378.340722 229.658862  L 391.17001 231.621088  L 404.015925 232.838308  L 416.880799 233.522571  L 429.767005 233.872152  L 442.676969 234.034758  L 455.613171 234.103701  L 468.578159 234.130363  L 481.574547 234.13977  L 494.605033 234.142798  L 507.672399 234.143688  L 520.779526 234.143926  L 533.929401 234.143984  L 547.125131 234.143997  L 560.36995 234.143999  L 573.667239 234.144  L 577 234.144  " clip-path="url(#pff301276f8)" style="fill: none; stroke: #1f77b4; stroke-width: 2; stroke-linecap: square"/>
   </g>
   <g id="line2d_14">
    <path d="M -1 189.792  L 3.379465 189.791999  L 16.732761 189.791996  L 30.03005 189.79198  L 43.274869 189.791899  L 56.470599 189.79154  L 69.620474 189.790106  L 82.727601 189.784926  L 95.794967 189.768025  L 108.825453 189.718268  L 121.821841 189.586286  L 134.786829 189.271615  L 147.723031 188.599692  L 160.632995 187.321671  L 173.519201 185.174711  L 186.384075 182.033508  L 199.22999 178.131294  L 212.059278 174.233955  L 224.87423 171.577546  L 237.677106 171.432452  L 250.470138 174.388305  L 263.255537 179.749928  L 276.035495 185.535473  L 288.812194 189.278825  L 301.587806 189.278825  L 314.364505 185.535473  L 327.144463 179.749928  L 339.929862 174.388305  L 352.722894 171.432452  L 365.52577 171.577546  L 378.340722 174.233955  L 391.17001 178.131294  L 404.015925 182.033508  L 416.880799 185.174711  L 429.767005 187.321671  L 442.676969 188.599692  L 455.613171 189.271615  L 468.578159 189.586286  L 481.574547 189.718268  L 494.605033 189.768025  L 507.672399 189.784926  L 520.779526 189.790106  L 533.929401 189.79154  L 547.125131 189.791899  L 560.36995 189.79198  L 573.667239 189.791996  L 577 189.791997  " clip-path="url(#pff301276f8)" style="fill: none; stroke: #ff7f0e; stroke-width: 2; stroke-linecap: square"/>
   </g>
   <g id="line2d_15">
    <path d="M -1 145.439991  L 3.379465 145.439988  L 16.732761 145.439933  L 30.03005 145.439664  L 43.274869 145.438487  L 56.470599 145.433875  L 69.620474 145.417675  L 82.727601 145.366788  L 95.794967 145.22418  L 108.825453 144.869003  L 121.821841 144.087317  L 134.786829 142.580336  L 147.723031 140.071022  L 160.632995 136.550251  L 173.519201 132.593072  L 186.384075 129.494959  L 199.22999 128.891808  L 212.059278 131.771605  L 224.87423 137.381929  L 237.677106 143.028344  L 250.470138 145.439875  L 263.255537 143.105804  L 276.035495 137.757018  L 288.812194 133.41707  L 301.587806 133.41707  L 314.364505 137.757018  L 327.144463 143.105804  L 339.929862 145.439875  L 352.722894 143.028344  L 365.52577 137.381929  L 378.340722 131.771605  L 391.17001 128.891808  L 404.015925 129.494959  L 416.880799 132.593072  L 429.767005 136.550251  L 442.676969 140.071022  L 455.613171 142.580336  L 468.578159 144.087317  L 481.574547 144.869003  L 494.605033 145.22418  L 507.672399 145.366788  L 520.779526 145.417675  L 533.929401 145.433875  L 547.125131 145.438487  L 560.36995 145.439664  L 573.667239 145.439933  L 577 145.439946  " clip-path="url(#pff301276f8)" style="fill: none; stroke: #2ca02c; stroke-width: 2; stroke-linecap: square"/>
   </g>
   <g id="line2d_16">
    <path d="M -1 101.087885  L 3.379465 101.087843  L 16.732761 101.087216  L 30.03005 101.084491  L 43.274869 101.073953  L 56.470599 101.037761  L 69.620474 100.927687  L 82.727601 100.632542  L 95.794967 99.939488  L 108.825453 98.528808  L 121.821841 96.080821  L 134.786829 92.564945  L 147.723031 88.640743  L 160.632995 85.832205  L 173.519201 85.984886  L 186.384075 89.895499  L 199.22999 95.975491  L 212.059278 100.518127  L 224.87423 100.273057  L 237.677106 95.597517  L 250.470138 90.860214  L 263.255537 90.728403  L 276.035495 95.463627  L 288.812194 100.328709  L 301.587806 100.328709  L 314.364505 95.463627  L 327.144463 90.728403  L 339.929862 90.860214  L 352.722894 95.597517  L 365.52577 100.273057  L 378.340722 100.518127  L 391.17001 95.975491  L 404.015925 89.895499  L 416.880799 85.984886  L 429.767005 85.832205  L 442.676969 88.640743  L 455.613171 92.564945  L 468.578159 96.080821  L 481.574547 98.528808  L 494.605033 99.939488  L 507.672399 100.632542  L 520.779526 100.927687  L 533.929401 101.037761  L 547.125131 101.073953  L 560.36995 101.084491  L 573.667239 101.087216  L 577 101.087373  " clip-path="url(#pff301276f8)" style="fill: none; stroke: #d62728; stroke-width: 2; stroke-linecap: square"/>
   </g>
   <g id="line2d_17">
    <path d="M -1 56.73494  L 3.379465 56.734565  L 16.732761 56.729565  L 30.03005 56.710381  L 43.274869 56.64555  L 56.470599 56.453444  L 69.620474 55.957633  L 82.727601 54.854239  L 95.794967 52.770862  L 108.825453 49.526173  L 121.821841 45.592154  L 134.786829 42.440318  L 147.723031 42.134757  L 160.632995 45.813028  L 173.519201 51.928563  L 186.384075 56.35231  L 199.22999 55.542597  L 212.059278 50.492123  L 224.87423 46.690569  L 237.677106 48.587265  L 250.470138 54.137679  L 263.255537 56.706591  L 276.035495 53.158635  L 288.812194 48.089343  L 301.587806 48.089343  L 314.364505 53.158635  L 327.144463 56.706591  L 339.929862 54.137679  L 352.722894 48.587265  L 365.52577 46.690569  L 378.340722 50.492123  L 391.17001 55.542597  L 404.015925 56.35231  L 416.880799 51.928563  L 429.767005 45.813028  L 442.676969 42.134757  L 455.613171 42.440318  L 468.578159 45.592154  L 481.574547 49.526173  L 494.605033 52.770862  L 507.672399 54.854239  L 520.779526 55.957633  L 533.929401 56.453444  L 547.125131 56.64555  L 560.36995 56.710381  L 573.667239 56.729565  L 577 56.730813  " clip-path="url(#pff301276f8)" style="fill: none; stroke: #9467bd; stroke-width: 2; stroke-linecap: square"/>
   </g>
   <g id="patch_3">
    <path d="M 72 256.32  L 72 34.56  " style="fill: none; stroke: #000000; stroke-width: 0.8; stroke-linejoin: miter; stroke-linecap: square"/>
   </g>
   <g id="patch_4">
    <path d="M 518.4 256.32  L 518.4 34.56  " style="fill: none; stroke: #000000; stroke-width: 0.8; stroke-linejoin: miter; stroke-linecap: square"/>
   </g>
   <g id="patch_5">
    <path d="M 72 256.32  L 518.4 256.32  " style="fill: none; stroke: #000000; stroke-width: 0.8; stroke-linejoin: miter; stroke-linecap: square"/>
   </g>
   <g id="patch_6">
    <path d="M 72 34.56  L 518.4 34.56  " style="fill: none; stroke: #000000; stroke-width: 0.8; stroke-linejoin: miter; stroke-linecap: square"/>
   </g>
  </g>
 </g>
 <defs>
  <clipPath id="pff301276f8">
   <rect x="72" y="34.56" width="446.4" height="221.76"/>
  </clipPath>
 </defs>
</svg>