<svg xmlns:xlink="http://www.w3.org/1999/xlink" xmlns="http://www.w3.org/2000/svg" width="576pt" height="288pt" viewBox="0 0 576 288" version="1.1">
 <metadata>
  <rdf:RDF xmlns:dc="http://purl.org/dc/elements/1.1/" xmlns:cc="http://creativecommons.org/ns#" xmlns:rdf="http://www.w3.org/1999/02/22-rdf-syntax-ns#">
   <cc:Work>
    <dc:type rdf:resource="http://purl.org/dc/dcmitype/StillImage"/>
    <dc:date>2025-06-01T15:19:20.152648</dc:date>
    <dc:format>image/svg+xml</dc:format>
    <dc:creator>
     <cc:Agent>
      <dc:title>Matplotlib v3.10.3, https://matplotlib.org/</dc:title>
     </cc:Agent>
    </dc:creator>
   </cc:Work>
  </rdf:RDF>
 </metadata>
 <defs>
  <style type="text/css">*{stroke-linejoin: round; stroke-linecap: butt}</style>
 </defs>
 <g id="figure_1">
  <g id="patch_1">
   <path d="M 0 288  L 576 288  L 576 0  L 0 0  z " style="fill: #ffffff"/>
  </g>
  <g id="axes_1">
   <g id="patch_2">
    <path d="M 72 256.32  L 518.4 256.32  L 518.4 34.56  L 72 34.56  z " style="fill: #ffffff"/>
   </g>
   <g id="matplotlib.axis_1">
    <g id="xtick_1">
     <g id="line2d_1">
      <defs>
       <path id="m1b17289380" d="M 0 0  L 0 3.5  " style="stroke: #000000; stroke-width: 0.8"/>
      </defs>
      <g>
       <use xlink:href="#m1b17289380" x="72" y="256.32" style="stroke: #000000; stroke-width: 0.8"/>
      </g>
     </g>
     <g id="text_1">
      <!-- $\mathdefault{10^{-8}}$ -->
      <g transform="translate(60.736665 271.62218) scale(0.12 -0.12)">
       <defs>
        <path id="CMR17-31" d="M 1702 4058  C 1702 4192 1696 4192 1606 4192  C 1357 3916 979 3827 621 3827  C 602 3827 570 3827 563 3808  C 557 3795 557 3782 557 3648  C 755 3648 1088 3686 1344 3839  L 1344 461  C 1344 236 1331 160 781 160  L 589 160  L 589 0  C 896 0 1216 0 1523 0  C 1830 0 2150 0 2458 0  L 2458 160  L 2266 160  C 1715 160 1702 230 1702 458  L 1702 4058  z " transform="scale(0.015625)"/>
        <path id="CMR17-30" d="M 2688 2025  C 2688 2416 2682 3080 2413 3591  C 2176 4039 1798 4198 1466 4198  C 1158 4198 768 4058 525 3597  C 269 3118 243 2524 243 2025  C 243 1661 250 1106 448 619  C 723 -39 1216 -128 1466 -128  C 1760 -128 2208 -7 2470 600  C 2662 1042 2688 1559 2688 2025  z M 1466 -26  C 1056 -26 813 325 723 812  C 653 1188 653 1738 653 2096  C 653 2588 653 2997 736 3387  C 858 3929 1216 4096 1466 4096  C 1728 4096 2067 3923 2189 3400  C 2272 3036 2278 2607 2278 2096  C 2278 1680 2278 1169 2202 792  C 2067 95 1690 -26 1466 -26  z " transform="scale(0.015625)"/>
        <path id="CMSY10-0" d="M 4218 1472  C 4326 1472 4442 1472 4442 1600  C 4442 1728 4326 1728 4218 1728  L 755 1728  C 646 1728 531 1728 531 1600  C 531 1472 646 1472 755 1472  L 4218 1472  z " transform="scale(0.015625)"/>
        <path id="CMR17-38" d="M 1741 2264  C 2144 2467 2554 2773 2554 3263  C 2554 3841 1990 4179 1472 4179  C 890 4179 378 3759 378 3180  C 378 3021 416 2747 666 2505  C 730 2442 998 2251 1171 2130  C 883 1983 211 1634 211 934  C 211 279 838 -128 1459 -128  C 2144 -128 2720 362 2720 1010  C 2720 1590 2330 1857 2074 2029  L 1741 2264  z M 902 2822  C 851 2854 595 3051 595 3351  C 595 3739 998 4032 1459 4032  C 1965 4032 2336 3676 2336 3262  C 2336 2669 1670 2331 1638 2331  C 1632 2331 1626 2331 1574 2370  L 902 2822  z M 2080 1519  C 2176 1449 2483 1240 2483 851  C 2483 381 2010 25 1472 25  C 890 25 448 438 448 940  C 448 1443 838 1862 1280 2060  L 2080 1519  z " transform="scale(0.015625)"/>
       </defs>
       <use xlink:href="#CMR17-31" transform="scale(0.996264)"/>
       <use xlink:href="#CMR17-30" transform="translate(45.690477 0) scale(0.996264)"/>
       <use xlink:href="#CMSY10-0" transform="translate(91.380954 36.153639) scale(0.697382)"/>
       <use xlink:href="#CMR17-38" transform="translate(145.621947 36.153639) scale(0.697382)"/>
      </g>
     </g>
    </g>
    <g id="xtick_2">
     <g id="line2d_2">
      <g>
       <use xlink:href="#m1b17289380" x="135.771429" y="256.32" style="stroke: #000000; stroke-width: 0.8"/>
      </g>
     </g>
     <g id="text_2">
      <!-- $\mathdefault{10^{-7}}$ -->
      <g transform="translate(124.508094 271.62218) scale(0.12 -0.12)">
       <defs>
        <path id="CMR17-37" d="M 2886 3941  L 2886 4081  L 1382 4081  C 634 4081 621 4165 595 4288  L 480 4288  L 294 3094  L 410 3094  C 429 3215 474 3540 550 3661  C 589 3712 1062 3712 1171 3712  L 2579 3712  L 1869 2661  C 1395 1954 1069 999 1069 165  C 1069 89 1069 -128 1299 -128  C 1530 -128 1530 89 1530 171  L 1530 465  C 1530 1508 1709 2196 2003 2636  L 2886 3941  z " transform="scale(0.015625)"/>
       </defs>
       <use xlink:href="#CMR17-31" transform="scale(0.996264)"/>
       <use xlink:href="#CMR17-30" transform="translate(45.690477 0) scale(0.996264)"/>
       <use xlink:href="#CMSY10-0" transform="translate(91.380954 36.153639) scale(0.697382)"/>
       <use xlink:href="#CMR17-37" transform="translate(145.621947 36.153639) scale(0.697382)"/>
      </g>
     </g>
    </g>
    <g id="xtick_3">
     <g id="line2d_3">
      <g>
       <use xlink:href="#m1b17289380" x="199.542857" y="256.32" style="stroke: #000000; stroke-width: 0.8"/>
      </g>
     </g>
     <g id="text_3">
      <!-- $\mathdefault{10^{-6}}$ -->
      <g transform="translate(188.279522 271.62218) scale(0.12 -0.12)">
       <defs>
        <path id="CMR17-36" d="M 678 2176  C 678 3690 1395 4032 1811 4032  C 1946 4032 2272 4009 2400 3776  C 2298 3776 2106 3776 2106 3553  C 2106 3381 2246 3323 2336 3323  C 2394 3323 2566 3348 2566 3560  C 2566 3954 2246 4179 1805 4179  C 1043 4179 243 3390 243 1984  C 243 253 966 -128 1478 -128  C 2099 -128 2688 427 2688 1283  C 2688 2081 2170 2662 1517 2662  C 1126 2662 838 2407 678 1960  L 678 2176  z M 1478 25  C 691 25 691 1200 691 1436  C 691 1896 909 2560 1504 2560  C 1613 2560 1926 2560 2138 2120  C 2253 1870 2253 1609 2253 1289  C 2253 944 2253 690 2118 434  C 1978 171 1773 25 1478 25  z " transform="scale(0.015625)"/>
       </defs>
       <use xlink:href="#CMR17-31" transform="scale(0.996264)"/>
       <use xlink:href="#CMR17-30" transform="translate(45.690477 0) scale(0.996264)"/>
       <use xlink:href="#CMSY10-0" transform="translate(91.380954 36.153639) scale(0.697382)"/>
       <use xlink:href="#CMR17-36" transform="translate(145.621947 36.153639) scale(0.697382)"/>
      </g>
     </g>
    </g>
    <g id="xtick_4">
     <g id="line2d_4">
      <g>
       <use xlink:href="#m1b17289380" x="263.314286" y="256.32" style="stroke: #000000; stroke-width: 0.8"/>
      </g>
     </g>
     <g id="text_4">
      <!-- $\mathdefault{10^{-5}}$ -->
      <g transform="translate(252.050951 271.62218) scale(0.12 -0.12)">
       <defs>
        <path id="CMR17-35" d="M 730 3692  C 794 3666 1056 3584 1325 3584  C 1920 3584 2246 3911 2432 4100  C 2432 4157 2432 4192 2394 4192  C 2387 4192 2374 4192 2323 4163  C 2099 4058 1837 3973 1517 3973  C 1325 3973 1037 3999 723 4139  C 653 4171 640 4171 634 4171  C 602 4171 595 4164 595 4037  L 595 2203  C 595 2089 595 2057 659 2057  C 691 2057 704 2070 736 2114  C 941 2401 1222 2522 1542 2522  C 1766 2522 2246 2382 2246 1289  C 2246 1085 2246 715 2054 421  C 1894 159 1645 25 1370 25  C 947 25 518 320 403 814  C 429 807 480 795 506 795  C 589 795 749 840 749 1038  C 749 1210 627 1280 506 1280  C 358 1280 262 1190 262 1011  C 262 454 704 -128 1382 -128  C 2042 -128 2669 440 2669 1264  C 2669 2030 2170 2624 1549 2624  C 1222 2624 947 2503 730 2274  L 730 3692  z " transform="scale(0.015625)"/>
       </defs>
       <use xlink:href="#CMR17-31" transform="scale(0.996264)"/>
       <use xlink:href="#CMR17-30" transform="translate(45.690477 0) scale(0.996264)"/>
       <use xlink:href="#CMSY10-0" transform="translate(91.380954 36.153639) scale(0.697382)"/>
       <use xlink:href="#CMR17-35" transform="translate(145.621947 36.153639) scale(0.697382)"/>
      </g>
     </g>
    </g>
    <g id="xtick_5">
     <g id="line2d_5">
      <g>
       <use xlink:href="#m1b17289380" x="327.085714" y="256.32" style="stroke: #000000; stroke-width: 0.8"/>
      </g>
     </g>
     <g id="text_5">
      <!-- $\mathdefault{10^{-4}}$ -->
      <g transform="translate(315.822379 271.62218) scale(0.12 -0.12)">
       <defs>
        <path id="CMR17-34" d="M 2150 4122  C 2150 4256 2144 4256 2029 4256  L 128 1254  L 128 1088  L 1779 1088  L 1779 457  C 1779 224 1766 160 1318 160  L 1197 160  L 1197 0  C 1402 0 1747 0 1965 0  C 2182 0 2528 0 2733 0  L 2733 160  L 2611 160  C 2163 160 2150 224 2150 457  L 2150 1088  L 2803 1088  L 2803 1254  L 2150 1254  L 2150 4122  z M 1798 3703  L 1798 1254  L 256 1254  L 1798 3703  z " transform="scale(0.015625)"/>
       </defs>
       <use xlink:href="#CMR17-31" transform="scale(0.996264)"/>
       <use xlink:href="#CMR17-30" transform="translate(45.690477 0) scale(0.996264)"/>
       <use xlink:href="#CMSY10-0" transform="translate(91.380954 36.153639) scale(0.697382)"/>
       <use xlink:href="#CMR17-34" transform="translate(145.621947 36.153639) scale(0.697382)"/>
      </g>
     </g>
    </g>
    <g id="xtick_6">
     <g id="line2d_6">
      <g>
       <use xlink:href="#m1b17289380" x="390.857143" y="256.32" style="stroke: #000000; stroke-width: 0.8"/>
      </g>
     </g>
     <g id="text_6">
      <!-- $\mathdefault{10^{-3}}$ -->
      <g transform="translate(379.593808 271.62218) scale(0.12 -0.12)">
       <defs>
        <path id="CMR17-33" d="M 1414 2157  C 1984 2157 2234 1662 2234 1090  C 2234 320 1824 25 1453 25  C 1114 25 563 194 390 693  C 422 680 454 680 486 680  C 640 680 755 782 755 948  C 755 1133 614 1216 486 1216  C 378 1216 211 1165 211 926  C 211 335 787 -128 1466 -128  C 2176 -128 2720 430 2720 1085  C 2720 1707 2208 2157 1600 2227  C 2086 2328 2554 2756 2554 3329  C 2554 3820 2048 4179 1472 4179  C 890 4179 378 3829 378 3329  C 378 3110 544 3072 627 3072  C 762 3072 877 3155 877 3321  C 877 3486 762 3569 627 3569  C 602 3569 570 3569 544 3557  C 730 3959 1235 4032 1459 4032  C 1683 4032 2106 3925 2106 3320  C 2106 3143 2080 2828 1862 2550  C 1670 2304 1453 2304 1242 2284  C 1210 2284 1062 2269 1037 2269  C 992 2263 966 2257 966 2208  C 966 2163 973 2157 1101 2157  L 1414 2157  z " transform="scale(0.015625)"/>
       </defs>
       <use xlink:href="#CMR17-31" transform="scale(0.996264)"/>
       <use xlink:href="#CMR17-30" transform="translate(45.690477 0) scale(0.996264)"/>
       <use xlink:href="#CMSY10-0" transform="translate(91.380954 36.153639) scale(0.697382)"/>
       <use xlink:href="#CMR17-33" transform="translate(145.621947 36.153639) scale(0.697382)"/>
      </g>
     </g>
    </g>
    <g id="xtick_7">
     <g id="line2d_7">
      <g>
       <use xlink:href="#m1b17289380" x="454.628571" y="256.32" style="stroke: #000000; stroke-width: 0.8"/>
      </g>
     </g>
     <g id="text_7">
      <!-- $\mathdefault{10^{-2}}$ -->
      <g transform="translate(443.365236 271.62218) scale(0.12 -0.12)">
       <defs>
        <path id="CMR17-32" d="M 2669 989  L 2554 989  C 2490 536 2438 459 2413 420  C 2381 369 1920 369 1830 369  L 602 369  C 832 619 1280 1072 1824 1597  C 2214 1967 2669 2402 2669 3035  C 2669 3790 2067 4224 1395 4224  C 691 4224 262 3604 262 3030  C 262 2780 448 2748 525 2748  C 589 2748 781 2787 781 3010  C 781 3207 614 3264 525 3264  C 486 3264 448 3258 422 3245  C 544 3790 915 4058 1306 4058  C 1862 4058 2227 3617 2227 3035  C 2227 2479 1901 2000 1536 1584  L 262 146  L 262 0  L 2515 0  L 2669 989  z " transform="scale(0.015625)"/>
       </defs>
       <use xlink:href="#CMR17-31" transform="scale(0.996264)"/>
       <use xlink:href="#CMR17-30" transform="translate(45.690477 0) scale(0.996264)"/>
       <use xlink:href="#CMSY10-0" transform="translate(91.380954 36.153639) scale(0.697382)"/>
       <use xlink:href="#CMR17-32" transform="translate(145.621947 36.153639) scale(0.697382)"/>
      </g>
     </g>
    </g>
    <g id="xtick_8">
     <g id="line2d_8">
      <g>
       <use xlink:href="#m1b17289380" x="518.4" y="256.32" style="stroke: #000000; stroke-width: 0.8"/>
      </g>
     </g>
     <g id="text_8">
      <!-- $\mathdefault{10^{-1}}$ -->
      <g transform="translate(507.136665 271.62218) scale(0.12 -0.12)">
       <use xlink:href="#CMR17-31" transform="scale(0.996264)"/>
       <use xlink:href="#CMR17-30" transform="translate(45.690477 0) scale(0.996264)"/>
       <use xlink:href="#CMSY10-0" transform="translate(91.380954 36.153639) scale(0.697382)"/>
       <use xlink:href="#CMR17-31" transform="translate(145.621947 36.153639) scale(0.697382)"/>
      </g>
     </g>
    </g>
    <g id="xtick_9">
     <g id="line2d_9">
      <defs>
       <path id="m662a68f251" d="M 0 0  L 0 2  " style="stroke: #000000; stroke-width: 0.6"/>
      </defs>
      <g>
       <use xlink:href="#m662a68f251" x="91.197113" y="256.32" style="stroke: #000000; stroke-width: 0.6"/>
      </g>
     </g>
    </g>
    <g id="xtick_10">
     <g id="line2d_10">
      <g>
       <use xlink:href="#m662a68f251" x="102.426704" y="256.32" style="stroke: #000000; stroke-width: 0.6"/>
      </g>
     </g>
    </g>
    <g id="xtick_11">
     <g id="line2d_11">
      <g>
       <use xlink:href="#m662a68f251" x="110.394226" y="256.32" style="stroke: #000000; stroke-width: 0.6"/>
      </g>
     </g>
    </g>
    <g id="xtick_12">
     <g id="line2d_12">
      <g>
       <use xlink:href="#m662a68f251" x="116.574316" y="256.32" style="stroke: #000000; stroke-width: 0.6"/>
      </g>
     </g>
    </g>
    <g id="xtick_13">
     <g id="line2d_13">
      <g>
       <use xlink:href="#m662a68f251" x="121.623817" y="256.32" style="stroke: #000000; stroke-width: 0.6"/>
      </g>
     </g>
    </g>
    <g id="xtick_14">
     <g id="line2d_14">
      <g>
       <use xlink:href="#m662a68f251" x="125.893109" y="256.32" style="stroke: #000000; stroke-width: 0.6"/>
      </g>
     </g>
    </g>
    <g id="xtick_15">
     <g id="line2d_15">
      <g>
       <use xlink:href="#m662a68f251" x="129.591339" y="256.32" style="stroke: #000000; stroke-width: 0.6"/>
      </g>
     </g>
    </g>
    <g id="xtick_16">
     <g id="line2d_16">
      <g>
       <use xlink:href="#m662a68f251" x="132.853408" y="256.32" style="stroke: #000000; stroke-width: 0.6"/>
      </g>
     </g>
    </g>
    <g id="xtick_17">
     <g id="line2d_17">
      <g>
       <use xlink:href="#m662a68f251" x="154.968541" y="256.32" style="stroke: #000000; stroke-width: 0.6"/>
      </g>
     </g>
    </g>
    <g id="xtick_18">
     <g id="line2d_18">
      <g>
       <use xlink:href="#m662a68f251" x="166.198133" y="256.32" style="stroke: #000000; stroke-width: 0.6"/>
      </g>
     </g>
    </g>
    <g id="xtick_19">
     <g id="line2d_19">
      <g>
       <use xlink:href="#m662a68f251" x="174.165654" y="256.32" style="stroke: #000000; stroke-width: 0.6"/>
      </g>
     </g>
    </g>
    <g id="xtick_20">
     <g id="line2d_20">
      <g>
       <use xlink:href="#m662a68f251" x="180.345744" y="256.32" style="stroke: #000000; stroke-width: 0.6"/>
      </g>
     </g>
    </g>
    <g id="xtick_21">
     <g id="line2d_21">
      <g>
       <use xlink:href="#m662a68f251" x="185.395245" y="256.32" style="stroke: #000000; stroke-width: 0.6"/>
      </g>
     </g>
    </g>
    <g id="xtick_22">
     <g id="line2d_22">
      <g>
       <use xlink:href="#m662a68f251" x="189.664538" y="256.32" style="stroke: #000000; stroke-width: 0.6"/>
      </g>
     </g>
    </g>
    <g id="xtick_23">
     <g id="line2d_23">
      <g>
       <use xlink:href="#m662a68f251" x="193.362767" y="256.32" style="stroke: #000000; stroke-width: 0.6"/>
      </g>
     </g>
    </g>
    <g id="xtick_24">
     <g id="line2d_24">
      <g>
       <use xlink:href="#m662a68f251" x="196.624837" y="256.32" style="stroke: #000000; stroke-width: 0.6"/>
      </g>
     </g>
    </g>
    <g id="xtick_25">
     <g id="line2d_25">
      <g>
       <use xlink:href="#m662a68f251" x="218.73997" y="256.32" style="stroke: #000000; stroke-width: 0.6"/>
      </g>
     </g>
    </g>
    <g id="xtick_26">
     <g id="line2d_26">
      <g>
       <use xlink:href="#m662a68f251" x="229.969561" y="256.32" style="stroke: #000000; stroke-width: 0.6"/>
      </g>
     </g>
    </g>
    <g id="xtick_27">
     <g id="line2d_27">
      <g>
       <use xlink:href="#m662a68f251" x="237.937083" y="256.32" style="stroke: #000000; stroke-width: 0.6"/>
      </g>
     </g>
    </g>
    <g id="xtick_28">
     <g id="line2d_28">
      <g>
       <use xlink:href="#m662a68f251" x="244.117173" y="256.32" style="stroke: #000000; stroke-width: 0.6"/>
      </g>
     </g>
    </g>
    <g id="xtick_29">
     <g id="line2d_29">
      <g>
       <use xlink:href="#m662a68f251" x="249.166674" y="256.32" style="stroke: #000000; stroke-width: 0.6"/>
      </g>
     </g>
    </g>
    <g id="xtick_30">
     <g id="line2d_30">
      <g>
       <use xlink:href="#m662a68f251" x="253.435966" y="256.32" style="stroke: #000000; stroke-width: 0.6"/>
      </g>
     </g>
    </g>
    <g id="xtick_31">
     <g id="line2d_31">
      <g>
       <use xlink:href="#m662a68f251" x="257.134196" y="256.32" style="stroke: #000000; stroke-width: 0.6"/>
      </g>
     </g>
    </g>
    <g id="xtick_32">
     <g id="line2d_32">
      <g>
       <use xlink:href="#m662a68f251" x="260.396265" y="256.32" style="stroke: #000000; stroke-width: 0.6"/>
      </g>
     </g>
    </g>
    <g id="xtick_33">
     <g id="line2d_33">
      <g>
       <use xlink:href="#m662a68f251" x="282.511399" y="256.32" style="stroke: #000000; stroke-width: 0.6"/>
      </g>
     </g>
    </g>
    <g id="xtick_34">
     <g id="line2d_34">
      <g>
       <use xlink:href="#m662a68f251" x="293.74099" y="256.32" style="stroke: #000000; stroke-width: 0.6"/>
      </g>
     </g>
    </g>
    <g id="xtick_35">
     <g id="line2d_35">
      <g>
       <use xlink:href="#m662a68f251" x="301.708511" y="256.32" style="stroke: #000000; stroke-width: 0.6"/>
      </g>
     </g>
    </g>
    <g id="xtick_36">
     <g id="line2d_36">
      <g>
       <use xlink:href="#m662a68f251" x="307.888601" y="256.32" style="stroke: #000000; stroke-width: 0.6"/>
      </g>
     </g>
    </g>
    <g id="xtick_37">
     <g id="line2d_37">
      <g>
       <use xlink:href="#m662a68f251" x="312.938103" y="256.32" style="stroke: #000000; stroke-width: 0.6"/>
      </g>
     </g>
    </g>
    <g id="xtick_38">
     <g id="line2d_38">
      <g>
       <use xlink:href="#m662a68f251" x="317.207395" y="256.32" style="stroke: #000000; stroke-width: 0.6"/>
      </g>
     </g>
    </g>
    <g id="xtick_39">
     <g id="line2d_39">
      <g>
       <use xlink:href="#m662a68f251" x="320.905624" y="256.32" style="stroke: #000000; stroke-width: 0.6"/>
      </g>
     </g>
    </g>
    <g id="xtick_40">
     <g id="line2d_40">
      <g>
       <use xlink:href="#m662a68f251" x="324.167694" y="256.32" style="stroke: #000000; stroke-width: 0.6"/>
      </g>
     </g>
    </g>
    <g id="xtick_41">
     <g id="line2d_41">
      <g>
       <use xlink:href="#m662a68f251" x="346.282827" y="256.32" style="stroke: #000000; stroke-width: 0.6"/>
      </g>
     </g>
    </g>
    <g id="xtick_42">
     <g id="line2d_42">
      <g>
       <use xlink:href="#m662a68f251" x="357.512418" y="256.32" style="stroke: #000000; stroke-width: 0.6"/>
      </g>
     </g>
    </g>
    <g id="xtick_43">
     <g id="line2d_43">
      <g>
       <use xlink:href="#m662a68f251" x="365.47994" y="256.32" style="stroke: #000000; stroke-width: 0.6"/>
      </g>
     </g>
    </g>
    <g id="xtick_44">
     <g id="line2d_44">
      <g>
       <use xlink:href="#m662a68f251" x="371.66003" y="256.32" style="stroke: #000000; stroke-width: 0.6"/>
      </g>
     </g>
    </g>
    <g id="xtick_45">
     <g id="line2d_45">
      <g>
       <use xlink:href="#m662a68f251" x="376.709531" y="256.32" style="stroke: #000000; stroke-width: 0.6"/>
      </g>
     </g>
    </g>
    <g id="xtick_46">
     <g id="line2d_46">
      <g>
       <use xlink:href="#m662a68f251" x="380.978824" y="256.32" style="stroke: #000000; stroke-width: 0.6"/>
      </g>
     </g>
    </g>
    <g id="xtick_47">
     <g id="line2d_47">
      <g>
       <use xlink:href="#m662a68f251" x="384.677053" y="256.32" style="stroke: #000000; stroke-width: 0.6"/>
      </g>
     </g>
    </g>
    <g id="xtick_48">
     <g id="line2d_48">
      <g>
       <use xlink:href="#m662a68f251" x="387.939122" y="256.32" style="stroke: #000000; stroke-width: 0.6"/>
      </g>
     </g>
    </g>
    <g id="xtick_49">
     <g id="line2d_49">
      <g>
       <use xlink:href="#m662a68f251" x="410.054256" y="256.32" style="stroke: #000000; stroke-width: 0.6"/>
      </g>
     </g>
    </g>
    <g id="xtick_50">
     <g id="line2d_50">
      <g>
       <use xlink:href="#m662a68f251" x="421.283847" y="256.32" style="stroke: #000000; stroke-width: 0.6"/>
      </g>
     </g>
    </g>
    <g id="xtick_51">
     <g id="line2d_51">
      <g>
       <use xlink:href="#m662a68f251" x="429.251369" y="256.32" style="stroke: #000000; stroke-width: 0.6"/>
      </g>
     </g>
    </g>
    <g id="xtick_52">
     <g id="line2d_52">
      <g>
       <use xlink:href="#m662a68f251" x="435.431459" y="256.32" style="stroke: #000000; stroke-width: 0.6"/>
      </g>
     </g>
    </g>
    <g id="xtick_53">
     <g id="line2d_53">
      <g>
       <use xlink:href="#m662a68f251" x="440.48096" y="256.32" style="stroke: #000000; stroke-width: 0.6"/>
      </g>
     </g>
    </g>
    <g id="xtick_54">
     <g id="line2d_54">
      <g>
       <use xlink:href="#m662a68f251" x="444.750252" y="256.32" style="stroke: #000000; stroke-width: 0.6"/>
      </g>
     </g>
    </g>
    <g id="xtick_55">
     <g id="line2d_55">
      <g>
       <use xlink:href="#m662a68f251" x="448.448481" y="256.32" style="stroke: #000000; stroke-width: 0.6"/>
      </g>
     </g>
    </g>
    <g id="xtick_56">
     <g id="line2d_56">
      <g>
       <use xlink:href="#m662a68f251" x="451.710551" y="256.32" style="stroke: #000000; stroke-width: 0.6"/>
      </g>
     </g>
    </g>
    <g id="xtick_57">
     <g id="line2d_57">
      <g>
       <use xlink:href="#m662a68f251" x="473.825684" y="256.32" style="stroke: #000000; stroke-width: 0.6"/>
      </g>
     </g>
    </g>
    <g id="xtick_58">
     <g id="line2d_58">
      <g>
       <use xlink:href="#m662a68f251" x="485.055275" y="256.32" style="stroke: #000000; stroke-width: 0.6"/>
      </g>
     </g>
    </g>
    <g id="xtick_59">
     <g id="line2d_59">
      <g>
       <use xlink:href="#m662a68f251" x="493.022797" y="256.32" style="stroke: #000000; stroke-width: 0.6"/>
      </g>
     </g>
    </g>
    <g id="xtick_60">
     <g id="line2d_60">
      <g>
       <use xlink:href="#m662a68f251" x="499.202887" y="256.32" style="stroke: #000000; stroke-width: 0.6"/>
      </g>
     </g>
    </g>
    <g id="xtick_61">
     <g id="line2d_61">
      <g>
       <use xlink:href="#m662a68f251" x="504.252388" y="256.32" style="stroke: #000000; stroke-width: 0.6"/>
      </g>
     </g>
    </g>
    <g id="xtick_62">
     <g id="line2d_62">
      <g>
       <use xlink:href="#m662a68f251" x="508.521681" y="256.32" style="stroke: #000000; stroke-width: 0.6"/>
      </g>
     </g>
    </g>
    <g id="xtick_63">
     <g id="line2d_63">
      <g>
       <use xlink:href="#m662a68f251" x="512.21991" y="256.32" style="stroke: #000000; stroke-width: 0.6"/>
      </g>
     </g>
    </g>
    <g id="xtick_64">
     <g id="line2d_64">
      <g>
       <use xlink:href="#m662a68f251" x="515.481979" y="256.32" style="stroke: #000000; stroke-width: 0.6"/>
      </g>
     </g>
    </g>
    <g id="text_9">
     <!-- Step size $h$ -->
     <g transform="translate(268.198784 286.248955) scale(0.12 -0.12)">
      <defs>
       <path id="CMSS17-53" d="M 2797 4169  C 2515 4334 2208 4480 1690 4480  C 864 4480 333 3879 333 3266  C 333 3025 403 2753 653 2475  C 902 2196 1184 2121 1542 2033  C 1690 1994 1939 1924 1984 1906  C 2342 1767 2515 1444 2515 1140  C 2515 742 2202 318 1645 318  C 1453 318 890 318 358 819  L 269 318  C 794 -64 1363 -128 1651 -128  C 2438 -128 3002 488 3002 1186  C 3002 1440 2925 1763 2656 2061  C 2394 2347 2163 2410 1638 2549  C 1338 2626 1146 2677 986 2873  C 877 3013 819 3146 819 3317  C 819 3673 1126 4060 1690 4060  C 1971 4060 2336 4002 2707 3660  L 2797 4169  z " transform="scale(0.015625)"/>
       <path id="CMSS17-74" d="M 1069 2368  L 1901 2368  L 1901 2737  L 1069 2737  L 1069 3520  L 614 3520  L 614 2737  L 109 2737  L 109 2368  L 602 2368  L 602 749  C 602 384 685 -64 1107 -64  C 1427 -64 1722 25 2003 172  L 1901 548  C 1747 414 1562 337 1363 337  C 1082 337 1069 696 1069 856  L 1069 2368  z " transform="scale(0.015625)"/>
       <path id="CMSS17-65" d="M 2502 1377  C 2502 1590 2490 2003 2285 2345  C 2061 2713 1696 2816 1421 2816  C 755 2816 192 2188 192 1375  C 192 582 774 -64 1510 -64  C 1798 -64 2150 19 2470 248  C 2470 274 2458 414 2451 420  C 2451 433 2432 630 2432 656  C 2125 407 1773 325 1517 325  C 1107 325 666 667 646 1377  L 2502 1377  z M 698 1728  C 781 2084 1062 2421 1421 2421  C 1517 2421 1965 2421 2080 1728  L 698 1728  z " transform="scale(0.015625)"/>
       <path id="CMSS17-70" d="M 966 333  C 1178 129 1466 -5 1773 -5  C 2368 -5 2880 603 2880 1412  C 2880 2159 2496 2816 1946 2816  C 1626 2816 1242 2702 954 2472  L 954 2765  L 480 2765  L 480 -1216  L 966 -1216  L 966 333  z M 966 2100  C 1018 2176 1235 2415 1587 2415  C 2035 2415 2394 1960 2394 1412  C 2394 787 1958 384 1530 384  C 1402 384 1267 415 1139 523  C 966 674 966 768 966 857  L 966 2100  z " transform="scale(0.015625)"/>
       <path id="CMSS17-73" d="M 2061 2627  C 1683 2807 1389 2807 1197 2807  C 742 2807 198 2648 198 2003  C 198 1359 902 1218 1094 1179  C 1389 1122 1715 1058 1715 740  C 1715 337 1254 337 1171 337  C 915 337 563 407 243 638  L 166 210  C 531 0 883 -64 1178 -64  C 1965 -64 2163 416 2163 781  C 2163 1094 1984 1305 1862 1401  C 1651 1568 1574 1587 1050 1696  C 960 1709 646 1779 646 2066  C 646 2432 1050 2432 1139 2432  C 1555 2432 1811 2303 1984 2208  L 2061 2627  z " transform="scale(0.015625)"/>
       <path id="CMSS17-69" d="M 979 4183  L 442 4183  L 442 3648  L 979 3648  L 979 4183  z M 947 2739  L 474 2739  L 474 0  L 947 0  L 947 2739  z " transform="scale(0.015625)"/>
       <path id="CMSS17-7a" d="M 2400 2502  L 2400 2750  L 250 2750  L 250 2368  L 1069 2368  C 1146 2368 1222 2368 1299 2368  L 1747 2368  L 166 261  L 166 0  L 2419 0  L 2419 395  L 1549 395  C 1472 395 1395 395 1318 395  L 826 395  L 2400 2502  z " transform="scale(0.015625)"/>
       <path id="CMMI12-68" d="M 1798 4257  C 1805 4283 1818 4321 1818 4352  C 1818 4416 1754 4416 1741 4416  C 1734 4416 1421 4388 1389 4380  C 1280 4373 1184 4358 1069 4358  C 909 4345 864 4339 864 4224  C 864 4160 915 4160 1005 4160  C 1318 4160 1325 4103 1325 4040  C 1325 4002 1312 3951 1306 3932  L 378 248  C 352 152 352 140 352 101  C 352 -38 461 -64 525 -64  C 634 -64 717 19 749 89  L 1037 1245  C 1069 1386 1107 1520 1139 1660  C 1210 1929 1210 1935 1331 2120  C 1453 2305 1741 2689 2234 2689  C 2490 2689 2579 2497 2579 2242  C 2579 1884 2330 1188 2189 805  C 2131 651 2099 568 2099 453  C 2099 166 2298 -64 2605 -64  C 3200 -64 3424 875 3424 913  C 3424 945 3398 971 3360 971  C 3302 971 3296 952 3264 843  C 3117 332 2880 64 2624 64  C 2560 64 2458 64 2458 269  C 2458 436 2534 640 2560 710  C 2675 1018 2963 1773 2963 2145  C 2963 2528 2739 2816 2253 2816  C 1888 2816 1568 2644 1306 2312  L 1798 4257  z " transform="scale(0.015625)"/>
      </defs>
      <use xlink:href="#CMSS17-53" transform="scale(0.996264)"/>
      <use xlink:href="#CMSS17-74" transform="translate(52.048516 0) scale(0.996264)"/>
      <use xlink:href="#CMSS17-65" transform="translate(85.880083 0) scale(0.996264)"/>
      <use xlink:href="#CMSS17-70" transform="translate(127.518905 0) scale(0.996264)"/>
      <use xlink:href="#CMSS17-73" transform="translate(206.952961 0) scale(0.996264)"/>
      <use xlink:href="#CMSS17-69" transform="translate(242.866503 0) scale(0.996264)"/>
      <use xlink:href="#CMSS17-7a" transform="translate(265.047226 0) scale(0.996264)"/>
      <use xlink:href="#CMSS17-65" transform="translate(305.725098 0) scale(0.996264)"/>
      <use xlink:href="#CMMI12-68" transform="translate(378.593032 0) scale(0.996264)"/>
     </g>
    </g>
   </g>
   <g id="matplotlib.axis_2">
    <g id="ytick_1">
     <g id="line2d_65">
      <defs>
       <path id="m162913ec72" d="M 0 0  L -3.5 0  " style="stroke: #000000; stroke-width: 0.8"/>
      </defs>
      <g>
       <use xlink:href="#m162913ec72" x="72" y="220.329816" style="stroke: #000000; stroke-width: 0.8"/>
      </g>
     </g>
     <g id="text_10">
      <!-- $\mathdefault{10^{-10}}$ -->
      <g transform="translate(38.239147 224.480906) scale(0.12 -0.12)">
       <use xlink:href="#CMR17-31" transform="scale(0.996264)"/>
       <use xlink:href="#CMR17-30" transform="translate(45.690477 0) scale(0.996264)"/>
       <use xlink:href="#CMSY10-0" transform="translate(91.380954 36.153639) scale(0.697382)"/>
       <use xlink:href="#CMR17-31" transform="translate(145.621947 36.153639) scale(0.697382)"/>
       <use xlink:href="#CMR17-30" transform="translate(177.605129 36.153639) scale(0.697382)"/>
      </g>
     </g>
    </g>
    <g id="ytick_2">
     <g id="line2d_66">
      <g>
       <use xlink:href="#m162913ec72" x="72" y="175.443404" style="stroke: #000000; stroke-width: 0.8"/>
      </g>
     </g>
     <g id="text_11">
      <!-- $\mathdefault{10^{-8}}$ -->
      <g transform="translate(42.47333 179.594494) scale(0.12 -0.12)">
       <use xlink:href="#CMR17-31" transform="scale(0.996264)"/>
       <use xlink:href="#CMR17-30" transform="translate(45.690477 0) scale(0.996264)"/>
       <use xlink:href="#CMSY10-0" transform="translate(91.380954 36.153639) scale(0.697382)"/>
       <use xlink:href="#CMR17-38" transform="translate(145.621947 36.153639) scale(0.697382)"/>
      </g>
     </g>
    </g>
    <g id="ytick_3">
     <g id="line2d_67">
      <g>
       <use xlink:href="#m162913ec72" x="72" y="130.556992" style="stroke: #000000; stroke-width: 0.8"/>
      </g>
     </g>
     <g id="text_12">
      <!-- $\mathdefault{10^{-6}}$ -->
      <g transform="translate(42.47333 134.708082) scale(0.12 -0.12)">
       <use xlink:href="#CMR17-31" transform="scale(0.996264)"/>
       <use xlink:href="#CMR17-30" transform="translate(45.690477 0) scale(0.996264)"/>
       <use xlink:href="#CMSY10-0" transform="translate(91.380954 36.153639) scale(0.697382)"/>
       <use xlink:href="#CMR17-36" transform="translate(145.621947 36.153639) scale(0.697382)"/>
      </g>
     </g>
    </g>
    <g id="ytick_4">
     <g id="line2d_68">
      <g>
       <use xlink:href="#m162913ec72" x="72" y="85.67058" style="stroke: #000000; stroke-width: 0.8"/>
      </g>
     </g>
     <g id="text_13">
      <!-- $\mathdefault{10^{-4}}$ -->
      <g transform="translate(42.47333 89.82167) scale(0.12 -0.12)">
       <use xlink:href="#CMR17-31" transform="scale(0.996264)"/>
       <use xlink:href="#CMR17-30" transform="translate(45.690477 0) scale(0.996264)"/>
       <use xlink:href="#CMSY10-0" transform="translate(91.380954 36.153639) scale(0.697382)"/>
       <use xlink:href="#CMR17-34" transform="translate(145.621947 36.153639) scale(0.697382)"/>
      </g>
     </g>
    </g>
    <g id="ytick_5">
     <g id="line2d_69">
      <g>
       <use xlink:href="#m162913ec72" x="72" y="40.784168" style="stroke: #000000; stroke-width: 0.8"/>
      </g>
     </g>
     <g id="text_14">
      <!-- $\mathdefault{10^{-2}}$ -->
      <g transform="translate(42.47333 44.935258) scale(0.12 -0.12)">
       <use xlink:href="#CMR17-31" transform="scale(0.996264)"/>
       <use xlink:href="#CMR17-30" transform="translate(45.690477 0) scale(0.996264)"/>
       <use xlink:href="#CMSY10-0" transform="translate(91.380954 36.153639) scale(0.697382)"/>
       <use xlink:href="#CMR17-32" transform="translate(145.621947 36.153639) scale(0.697382)"/>
      </g>
     </g>
    </g>
    <g id="text_15">
     <!-- Error of Finite Differences -->
     <g transform="translate(31.914551 208.662571) rotate(-90) scale(0.12 -0.12)">
      <defs>
       <path id="CMSS17-45" d="M 1958 433  C 1446 433 1216 433 1101 433  L 1101 2107  L 3085 2107  L 3085 2496  L 1101 2496  L 1101 4009  L 1926 4009  C 2003 4009 2080 4009 2157 4009  L 3251 4009  L 3251 4416  L 563 4416  L 563 0  L 3334 0  L 3334 433  L 1958 433  z " transform="scale(0.015625)"/>
       <path id="CMSS17-72" d="M 954 1363  C 954 1965 1395 2368 1958 2368  L 1958 2789  C 1549 2789 1165 2585 934 2253  L 934 2758  L 480 2758  L 480 0  L 954 0  L 954 1363  z " transform="scale(0.015625)"/>
       <path id="CMSS17-6f" d="M 2829 1356  C 2829 2176 2221 2816 1504 2816  C 768 2816 173 2157 173 1356  C 173 544 787 -64 1498 -64  C 2227 -64 2829 563 2829 1356  z M 1504 337  C 1050 337 659 709 659 1408  C 659 2151 1114 2427 1498 2427  C 1914 2427 2342 2126 2342 1408  C 2342 683 1926 337 1504 337  z " transform="scale(0.015625)"/>
       <path id="CMSS17-66" d="M 1075 2368  L 1722 2368  L 1722 2737  L 1062 2737  L 1062 3559  C 1062 4014 1408 4092 1606 4092  C 1670 4092 1850 4092 2080 4009  L 2080 4429  C 1933 4461 1754 4480 1613 4480  C 1018 4480 602 3993 602 3359  L 602 2737  L 160 2737  L 160 2368  L 602 2368  L 602 0  L 1075 0  L 1075 2368  z " transform="scale(0.015625)"/>
       <path id="CMSS17-46" d="M 2918 1984  L 2918 2373  L 1101 2373  L 1101 3968  L 1882 3968  C 1958 3968 2035 3968 2112 3968  L 3168 3968  L 3168 4375  L 563 4375  L 563 -32  L 1101 -32  L 1101 1984  L 2918 1984  z " transform="scale(0.015625)"/>
       <path id="CMSS17-6e" d="M 2618 1877  C 2618 2283 2522 2816 1798 2816  C 1389 2816 1120 2606 941 2389  L 941 2758  L 474 2758  L 474 0  L 960 0  L 960 1559  C 960 1964 1114 2428 1549 2428  C 2112 2428 2131 2048 2131 1829  L 2131 0  L 2618 0  L 2618 1877  z " transform="scale(0.015625)"/>
       <path id="CMSS17-44" d="M 570 4416  L 570 0  L 2144 0  C 3194 0 4000 980 4000 2170  C 4000 3398 3194 4416 2144 4416  L 570 4416  z M 1094 357  L 1094 4059  L 2003 4059  C 2861 4059 3475 3277 3475 2170  C 3475 1107 2867 357 2003 357  L 1094 357  z " transform="scale(0.015625)"/>
       <path id="CMSS17-b" d="M 1075 2368  L 1734 2368  L 1734 2737  L 1062 2737  L 1062 3559  C 1062 4001 1395 4092 1613 4092  C 1837 4092 2022 4034 2093 4009  L 2093 4429  C 2022 4442 1830 4480 1619 4480  C 1030 4480 602 3999 602 3359  L 602 2737  L 160 2737  L 160 2368  L 602 2368  L 602 0  L 1075 0  L 1075 2368  z M 2739 2368  L 3398 2368  L 3398 2737  L 2726 2737  L 2726 3559  C 2726 4001 3059 4092 3277 4092  C 3501 4092 3686 4034 3757 4009  L 3757 4429  C 3686 4442 3494 4480 3283 4480  C 2694 4480 2266 4001 2266 3363  L 2266 0  L 2739 0  L 2739 2368  z " transform="scale(0.015625)"/>
       <path id="CMSS17-63" d="M 2464 2541  C 2464 2585 2170 2714 2093 2739  C 1882 2816 1613 2816 1542 2816  C 710 2816 211 2093 211 1363  C 211 595 768 -64 1517 -64  C 1946 -64 2253 76 2502 242  L 2464 664  C 2189 453 1869 337 1523 337  C 1024 337 698 774 698 1369  C 698 1831 909 2414 1549 2414  C 1901 2414 2099 2343 2394 2145  L 2464 2541  z " transform="scale(0.015625)"/>
      </defs>
      <use xlink:href="#CMSS17-45" transform="scale(0.996264)"/>
      <use xlink:href="#CMSS17-72" transform="translate(55.892013 0) scale(0.996264)"/>
      <use xlink:href="#CMSS17-72" transform="translate(87.801786 0) scale(0.996264)"/>
      <use xlink:href="#CMSS17-6f" transform="translate(119.711558 0) scale(0.996264)"/>
      <use xlink:href="#CMSS17-72" transform="translate(163.952728 0) scale(0.996264)"/>
      <use xlink:href="#CMSS17-6f" transform="translate(227.091613 0) scale(0.996264)"/>
      <use xlink:href="#CMSS17-66" transform="translate(273.935237 0) scale(0.996264)"/>
      <use xlink:href="#CMSS17-46" transform="translate(333.791008 0) scale(0.996264)"/>
      <use xlink:href="#CMSS17-69" transform="translate(387.080568 0) scale(0.996264)"/>
      <use xlink:href="#CMSS17-6e" transform="translate(409.261291 0) scale(0.996264)"/>
      <use xlink:href="#CMSS17-69" transform="translate(457.466234 0) scale(0.996264)"/>
      <use xlink:href="#CMSS17-74" transform="translate(479.646957 0) scale(0.996264)"/>
      <use xlink:href="#CMSS17-65" transform="translate(513.478524 0) scale(0.996264)"/>
      <use xlink:href="#CMSS17-44" transform="translate(586.346458 0) scale(0.996264)"/>
      <use xlink:href="#CMSS17-69" transform="translate(653.8893 0) scale(0.996264)"/>
      <use xlink:href="#CMSS17-b" transform="translate(676.070023 0) scale(0.996264)"/>
      <use xlink:href="#CMSS17-65" transform="translate(730.720993 0) scale(0.996264)"/>
      <use xlink:href="#CMSS17-72" transform="translate(772.359815 0) scale(0.996264)"/>
      <use xlink:href="#CMSS17-65" transform="translate(804.269588 0) scale(0.996264)"/>
      <use xlink:href="#CMSS17-6e" transform="translate(845.90841 0) scale(0.996264)"/>
      <use xlink:href="#CMSS17-63" transform="translate(894.113353 0) scale(0.996264)"/>
      <use xlink:href="#CMSS17-65" transform="translate(935.752175 0) scale(0.996264)"/>
      <use xlink:href="#CMSS17-73" transform="translate(977.390997 0) scale(0.996264)"/>
     </g>
    </g>
   </g>
   <g id="line2d_70">
    <path d="M 72 175.993843  L 81.110204 183.720913  L 90.220408 182.621455  L 99.330612 184.990869  L 108.440816 187.203295  L 117.55102 197.542906  L 126.661224 196.243143  L 135.771429 203.380326  L 144.881633 204.323057  L 153.991837 214.184214  L 163.102041 205.798323  L 172.212245 203.167566  L 181.322449 211.390536  L 190.432653 226.997089  L 199.542857 218.151105  L 208.653061 229.95216  L 217.763265 228.748904  L 226.873469 231.983566  L 235.983673 239.506651  L 245.093878 246.24  L 254.204082 228.761799  L 263.314286 223.160889  L 272.42449 216.434908  L 281.534694 211.581319  L 290.644898 205.097497  L 299.755102 198.561024  L 308.865306 192.093583  L 317.97551 185.682561  L 327.085714 179.268754  L 336.195918 172.858313  L 345.306122 166.445942  L 354.416327 160.033573  L 363.526531 153.621274  L 372.636735 147.208949  L 381.746939 140.796617  L 390.857143 134.384266  L 399.967347 127.971928  L 409.077551 121.559588  L 418.187755 115.147253  L 427.297959 108.734928  L 436.408163 102.32262  L 445.518367 95.910347  L 454.628571 89.49814  L 463.738776 83.086061  L 472.84898 76.67423  L 481.959184 70.262877  L 491.069388 63.852446  L 500.179592 57.443796  L 509.289796 51.038582  L 518.4 44.64  " clip-path="url(#p6fc133f57d)" style="fill: none; stroke: #1f77b4; stroke-width: 1.5; stroke-linecap: square"/>
    <defs>
     <path id="m26d6c31f07" d="M 0 3  C 0.795609 3 1.55874 2.683901 2.12132 2.12132  C 2.683901 1.55874 3 0.795609 3 0  C 3 -0.795609 2.683901 -1.55874 2.12132 -2.12132  C 1.55874 -2.683901 0.795609 -3 0 -3  C -0.795609 -3 -1.55874 -2.683901 -2.12132 -2.12132  C -2.683901 -1.55874 -3 -0.795609 -3 0  C -3 0.795609 -2.683901 1.55874 -2.12132 2.12132  C -1.55874 2.683901 -0.795609 3 0 3  z " style="stroke: #1f77b4"/>
    </defs>
    <g clip-path="url(#p6fc133f57d)">
     <use xlink:href="#m26d6c31f07" x="72" y="175.993843" style="fill: #1f77b4; stroke: #1f77b4"/>
     <use xlink:href="#m26d6c31f07" x="81.110204" y="183.720913" style="fill: #1f77b4; stroke: #1f77b4"/>
     <use xlink:href="#m26d6c31f07" x="90.220408" y="182.621455" style="fill: #1f77b4; stroke: #1f77b4"/>
     <use xlink:href="#m26d6c31f07" x="99.330612" y="184.990869" style="fill: #1f77b4; stroke: #1f77b4"/>
     <use xlink:href="#m26d6c31f07" x="108.440816" y="187.203295" style="fill: #1f77b4; stroke: #1f77b4"/>
     <use xlink:href="#m26d6c31f07" x="117.55102" y="197.542906" style="fill: #1f77b4; stroke: #1f77b4"/>
     <use xlink:href="#m26d6c31f07" x="126.661224" y="196.243143" style="fill: #1f77b4; stroke: #1f77b4"/>
     <use xlink:href="#m26d6c31f07" x="135.771429" y="203.380326" style="fill: #1f77b4; stroke: #1f77b4"/>
     <use xlink:href="#m26d6c31f07" x="144.881633" y="204.323057" style="fill: #1f77b4; stroke: #1f77b4"/>
     <use xlink:href="#m26d6c31f07" x="153.991837" y="214.184214" style="fill: #1f77b4; stroke: #1f77b4"/>
     <use xlink:href="#m26d6c31f07" x="163.102041" y="205.798323" style="fill: #1f77b4; stroke: #1f77b4"/>
     <use xlink:href="#m26d6c31f07" x="172.212245" y="203.167566" style="fill: #1f77b4; stroke: #1f77b4"/>
     <use xlink:href="#m26d6c31f07" x="181.322449" y="211.390536" style="fill: #1f77b4; stroke: #1f77b4"/>
     <use xlink:href="#m26d6c31f07" x="190.432653" y="226.997089" style="fill: #1f77b4; stroke: #1f77b4"/>
     <use xlink:href="#m26d6c31f07" x="199.542857" y="218.151105" style="fill: #1f77b4; stroke: #1f77b4"/>
     <use xlink:href="#m26d6c31f07" x="208.653061" y="229.95216" style="fill: #1f77b4; stroke: #1f77b4"/>
     <use xlink:href="#m26d6c31f07" x="217.763265" y="228.748904" style="fill: #1f77b4; stroke: #1f77b4"/>
     <use xlink:href="#m26d6c31f07" x="226.873469" y="231.983566" style="fill: #1f77b4; stroke: #1f77b4"/>
     <use xlink:href="#m26d6c31f07" x="235.983673" y="239.506651" style="fill: #1f77b4; stroke: #1f77b4"/>
     <use xlink:href="#m26d6c31f07" x="245.093878" y="246.24" style="fill: #1f77b4; stroke: #1f77b4"/>
     <use xlink:href="#m26d6c31f07" x="254.204082" y="228.761799" style="fill: #1f77b4; stroke: #1f77b4"/>
     <use xlink:href="#m26d6c31f07" x="263.314286" y="223.160889" style="fill: #1f77b4; stroke: #1f77b4"/>
     <use xlink:href="#m26d6c31f07" x="272.42449" y="216.434908" style="fill: #1f77b4; stroke: #1f77b4"/>
     <use xlink:href="#m26d6c31f07" x="281.534694" y="211.581319" style="fill: #1f77b4; stroke: #1f77b4"/>
     <use xlink:href="#m26d6c31f07" x="290.644898" y="205.097497" style="fill: #1f77b4; stroke: #1f77b4"/>
     <use xlink:href="#m26d6c31f07" x="299.755102" y="198.561024" style="fill: #1f77b4; stroke: #1f77b4"/>
     <use xlink:href="#m26d6c31f07" x="308.865306" y="192.093583" style="fill: #1f77b4; stroke: #1f77b4"/>
     <use xlink:href="#m26d6c31f07" x="317.97551" y="185.682561" style="fill: #1f77b4; stroke: #1f77b4"/>
     <use xlink:href="#m26d6c31f07" x="327.085714" y="179.268754" style="fill: #1f77b4; stroke: #1f77b4"/>
     <use xlink:href="#m26d6c31f07" x="336.195918" y="172.858313" style="fill: #1f77b4; stroke: #1f77b4"/>
     <use xlink:href="#m26d6c31f07" x="345.306122" y="166.445942" style="fill: #1f77b4; stroke: #1f77b4"/>
     <use xlink:href="#m26d6c31f07" x="354.416327" y="160.033573" style="fill: #1f77b4; stroke: #1f77b4"/>
     <use xlink:href="#m26d6c31f07" x="363.526531" y="153.621274" style="fill: #1f77b4; stroke: #1f77b4"/>
     <use xlink:href="#m26d6c31f07" x="372.636735" y="147.208949" style="fill: #1f77b4; stroke: #1f77b4"/>
     <use xlink:href="#m26d6c31f07" x="381.746939" y="140.796617" style="fill: #1f77b4; stroke: #1f77b4"/>
     <use xlink:href="#m26d6c31f07" x="390.857143" y="134.384266" style="fill: #1f77b4; stroke: #1f77b4"/>
     <use xlink:href="#m26d6c31f07" x="399.967347" y="127.971928" style="fill: #1f77b4; stroke: #1f77b4"/>
     <use xlink:href="#m26d6c31f07" x="409.077551" y="121.559588" style="fill: #1f77b4; stroke: #1f77b4"/>
     <use xlink:href="#m26d6c31f07" x="418.187755" y="115.147253" style="fill: #1f77b4; stroke: #1f77b4"/>
     <use xlink:href="#m26d6c31f07" x="427.297959" y="108.734928" style="fill: #1f77b4; stroke: #1f77b4"/>
     <use xlink:href="#m26d6c31f07" x="436.408163" y="102.32262" style="fill: #1f77b4; stroke: #1f77b4"/>
     <use xlink:href="#m26d6c31f07" x="445.518367" y="95.910347" style="fill: #1f77b4; stroke: #1f77b4"/>
     <use xlink:href="#m26d6c31f07" x="454.628571" y="89.49814" style="fill: #1f77b4; stroke: #1f77b4"/>
     <use xlink:href="#m26d6c31f07" x="463.738776" y="83.086061" style="fill: #1f77b4; stroke: #1f77b4"/>
     <use xlink:href="#m26d6c31f07" x="472.84898" y="76.67423" style="fill: #1f77b4; stroke: #1f77b4"/>
     <use xlink:href="#m26d6c31f07" x="481.959184" y="70.262877" style="fill: #1f77b4; stroke: #1f77b4"/>
     <use xlink:href="#m26d6c31f07" x="491.069388" y="63.852446" style="fill: #1f77b4; stroke: #1f77b4"/>
     <use xlink:href="#m26d6c31f07" x="500.179592" y="57.443796" style="fill: #1f77b4; stroke: #1f77b4"/>
     <use xlink:href="#m26d6c31f07" x="509.289796" y="51.038582" style="fill: #1f77b4; stroke: #1f77b4"/>
     <use xlink:href="#m26d6c31f07" x="518.4" y="44.64" style="fill: #1f77b4; stroke: #1f77b4"/>
    </g>
   </g>
   <g id="patch_3">
    <path d="M 72 256.32  L 72 34.56  " style="fill: none; stroke: #000000; stroke-width: 0.8; stroke-linejoin: miter; stroke-linecap: square"/>
   </g>
   <g id="patch_4">
    <path d="M 518.4 256.32  L 518.4 34.56  " style="fill: none; stroke: #000000; stroke-width: 0.8; stroke-linejoin: miter; stroke-linecap: square"/>
   </g>
   <g id="patch_5">
    <path d="M 72 256.32  L 518.4 256.32  " style="fill: none; stroke: #000000; stroke-width: 0.8; stroke-linejoin: miter; stroke-linecap: square"/>
   </g>
   <g id="patch_6">
    <path d="M 72 34.56  L 518.4 34.56  " style="fill: none; stroke: #000000; stroke-width: 0.8; stroke-linejoin: miter; stroke-linecap: square"/>
   </g>
  </g>
 </g>
 <defs>
  <clipPath id="p6fc133f57d">
   <rect x="72" y="34.56" width="446.4" height="221.76"/>
  </clipPath>
 </defs>
</svg>