<svg xmlns:xlink="http://www.w3.org/1999/xlink" xmlns="http://www.w3.org/2000/svg" width="564.48pt" height="276.48pt" viewBox="0 0 564.48 276.48" version="1.1">
 <metadata>
  <rdf:RDF xmlns:dc="http://purl.org/dc/elements/1.1/" xmlns:cc="http://creativecommons.org/ns#" xmlns:rdf="http://www.w3.org/1999/02/22-rdf-syntax-ns#">
   <cc:Work>
    <dc:type rdf:resource="http://purl.org/dc/dcmitype/StillImage"/>
    <dc:date>2025-06-11T15:26:21.196373</dc:date>
    <dc:format>image/svg+xml</dc:format>
    <dc:creator>
     <cc:Agent>
      <dc:title>Matplotlib v3.10.3, https://matplotlib.org/</dc:title>
     </cc:Agent>
    </dc:creator>
   </cc:Work>
  </rdf:RDF>
 </metadata>
 <defs>
  <style type="text/css">*{stroke-linejoin: round; stroke-linecap: butt}</style>
 </defs>
 <g id="figure_1">
  <g id="patch_1">
   <path d="M 0 276.48  L 564.48 276.48  L 564.48 0  L 0 0  z " style="fill: #ffffff"/>
  </g>
  <g id="axes_1">
   <g id="patch_2">
    <path d="M 31.758971 237.026449  L 557.28 237.026449  L 557.28 11.35109  L 31.758971 11.35109  z " style="fill: #ffffff"/>
   </g>
   <g id="matplotlib.axis_1">
    <g id="xtick_1">
     <g id="line2d_1">
      <defs>
       <path id="me0fbd18db6" d="M 0 0  L 0 3.5  " style="stroke: #000000; stroke-width: 0.8"/>
      </defs>
      <g>
       <use xlink:href="#me0fbd18db6" x="43.042127" y="237.026449" style="stroke: #000000; stroke-width: 0.8"/>
      </g>
     </g>
     <g id="text_1">
      <!-- $\mathdefault{−20}$ -->
      <g transform="translate(32.539892 252.328629) scale(0.12 -0.12)">
       <defs>
        <path id="CMSY10-0" d="M 4218 1472  C 4326 1472 4442 1472 4442 1600  C 4442 1728 4326 1728 4218 1728  L 755 1728  C 646 1728 531 1728 531 1600  C 531 1472 646 1472 755 1472  L 4218 1472  z " transform="scale(0.015625)"/>
        <path id="CMR17-32" d="M 2669 989  L 2554 989  C 2490 536 2438 459 2413 420  C 2381 369 1920 369 1830 369  L 602 369  C 832 619 1280 1072 1824 1597  C 2214 1967 2669 2402 2669 3035  C 2669 3790 2067 4224 1395 4224  C 691 4224 262 3604 262 3030  C 262 2780 448 2748 525 2748  C 589 2748 781 2787 781 3010  C 781 3207 614 3264 525 3264  C 486 3264 448 3258 422 3245  C 544 3790 915 4058 1306 4058  C 1862 4058 2227 3617 2227 3035  C 2227 2479 1901 2000 1536 1584  L 262 146  L 262 0  L 2515 0  L 2669 989  z " transform="scale(0.015625)"/>
        <path id="CMR17-30" d="M 2688 2025  C 2688 2416 2682 3080 2413 3591  C 2176 4039 1798 4198 1466 4198  C 1158 4198 768 4058 525 3597  C 269 3118 243 2524 243 2025  C 243 1661 250 1106 448 619  C 723 -39 1216 -128 1466 -128  C 1760 -128 2208 -7 2470 600  C 2662 1042 2688 1559 2688 2025  z M 1466 -26  C 1056 -26 813 325 723 812  C 653 1188 653 1738 653 2096  C 653 2588 653 2997 736 3387  C 858 3929 1216 4096 1466 4096  C 1728 4096 2067 3923 2189 3400  C 2272 3036 2278 2607 2278 2096  C 2278 1680 2278 1169 2202 792  C 2067 95 1690 -26 1466 -26  z " transform="scale(0.015625)"/>
       </defs>
       <use xlink:href="#CMSY10-0" transform="scale(0.996264)"/>
       <use xlink:href="#CMR17-32" transform="translate(77.487468 0) scale(0.996264)"/>
       <use xlink:href="#CMR17-30" transform="translate(123.177945 0) scale(0.996264)"/>
      </g>
     </g>
    </g>
    <g id="xtick_2">
     <g id="line2d_2">
      <g>
       <use xlink:href="#me0fbd18db6" x="105.911467" y="237.026449" style="stroke: #000000; stroke-width: 0.8"/>
      </g>
     </g>
     <g id="text_2">
      <!-- $\mathdefault{−15}$ -->
      <g transform="translate(95.409232 252.328629) scale(0.12 -0.12)">
       <defs>
        <path id="CMR17-31" d="M 1702 4058  C 1702 4192 1696 4192 1606 4192  C 1357 3916 979 3827 621 3827  C 602 3827 570 3827 563 3808  C 557 3795 557 3782 557 3648  C 755 3648 1088 3686 1344 3839  L 1344 461  C 1344 236 1331 160 781 160  L 589 160  L 589 0  C 896 0 1216 0 1523 0  C 1830 0 2150 0 2458 0  L 2458 160  L 2266 160  C 1715 160 1702 230 1702 458  L 1702 4058  z " transform="scale(0.015625)"/>
        <path id="CMR17-35" d="M 730 3692  C 794 3666 1056 3584 1325 3584  C 1920 3584 2246 3911 2432 4100  C 2432 4157 2432 4192 2394 4192  C 2387 4192 2374 4192 2323 4163  C 2099 4058 1837 3973 1517 3973  C 1325 3973 1037 3999 723 4139  C 653 4171 640 4171 634 4171  C 602 4171 595 4164 595 4037  L 595 2203  C 595 2089 595 2057 659 2057  C 691 2057 704 2070 736 2114  C 941 2401 1222 2522 1542 2522  C 1766 2522 2246 2382 2246 1289  C 2246 1085 2246 715 2054 421  C 1894 159 1645 25 1370 25  C 947 25 518 320 403 814  C 429 807 480 795 506 795  C 589 795 749 840 749 1038  C 749 1210 627 1280 506 1280  C 358 1280 262 1190 262 1011  C 262 454 704 -128 1382 -128  C 2042 -128 2669 440 2669 1264  C 2669 2030 2170 2624 1549 2624  C 1222 2624 947 2503 730 2274  L 730 3692  z " transform="scale(0.015625)"/>
       </defs>
       <use xlink:href="#CMSY10-0" transform="scale(0.996264)"/>
       <use xlink:href="#CMR17-31" transform="translate(77.487468 0) scale(0.996264)"/>
       <use xlink:href="#CMR17-35" transform="translate(123.177945 0) scale(0.996264)"/>
      </g>
     </g>
    </g>
    <g id="xtick_3">
     <g id="line2d_3">
      <g>
       <use xlink:href="#me0fbd18db6" x="168.780806" y="237.026449" style="stroke: #000000; stroke-width: 0.8"/>
      </g>
     </g>
     <g id="text_3">
      <!-- $\mathdefault{−10}$ -->
      <g transform="translate(158.278571 252.328629) scale(0.12 -0.12)">
       <use xlink:href="#CMSY10-0" transform="scale(0.996264)"/>
       <use xlink:href="#CMR17-31" transform="translate(77.487468 0) scale(0.996264)"/>
       <use xlink:href="#CMR17-30" transform="translate(123.177945 0) scale(0.996264)"/>
      </g>
     </g>
    </g>
    <g id="xtick_4">
     <g id="line2d_4">
      <g>
       <use xlink:href="#me0fbd18db6" x="231.650146" y="237.026449" style="stroke: #000000; stroke-width: 0.8"/>
      </g>
     </g>
     <g id="text_4">
      <!-- $\mathdefault{−5}$ -->
      <g transform="translate(224.074406 252.328629) scale(0.12 -0.12)">
       <use xlink:href="#CMSY10-0" transform="scale(0.996264)"/>
       <use xlink:href="#CMR17-35" transform="translate(77.487468 0) scale(0.996264)"/>
      </g>
     </g>
    </g>
    <g id="xtick_5">
     <g id="line2d_5">
      <g>
       <use xlink:href="#me0fbd18db6" x="294.519485" y="237.026449" style="stroke: #000000; stroke-width: 0.8"/>
      </g>
     </g>
     <g id="text_5">
      <!-- $\mathdefault{0}$ -->
      <g transform="translate(291.59299 252.328629) scale(0.12 -0.12)">
       <use xlink:href="#CMR17-30" transform="scale(0.996264)"/>
      </g>
     </g>
    </g>
    <g id="xtick_6">
     <g id="line2d_6">
      <g>
       <use xlink:href="#me0fbd18db6" x="357.388825" y="237.026449" style="stroke: #000000; stroke-width: 0.8"/>
      </g>
     </g>
     <g id="text_6">
      <!-- $\mathdefault{5}$ -->
      <g transform="translate(354.46233 252.328629) scale(0.12 -0.12)">
       <use xlink:href="#CMR17-35" transform="scale(0.996264)"/>
      </g>
     </g>
    </g>
    <g id="xtick_7">
     <g id="line2d_7">
      <g>
       <use xlink:href="#me0fbd18db6" x="420.258164" y="237.026449" style="stroke: #000000; stroke-width: 0.8"/>
      </g>
     </g>
     <g id="text_7">
      <!-- $\mathdefault{10}$ -->
      <g transform="translate(414.405174 252.328629) scale(0.12 -0.12)">
       <use xlink:href="#CMR17-31" transform="scale(0.996264)"/>
       <use xlink:href="#CMR17-30" transform="translate(45.690477 0) scale(0.996264)"/>
      </g>
     </g>
    </g>
    <g id="xtick_8">
     <g id="line2d_8">
      <g>
       <use xlink:href="#me0fbd18db6" x="483.127504" y="237.026449" style="stroke: #000000; stroke-width: 0.8"/>
      </g>
     </g>
     <g id="text_8">
      <!-- $\mathdefault{15}$ -->
      <g transform="translate(477.274514 252.328629) scale(0.12 -0.12)">
       <use xlink:href="#CMR17-31" transform="scale(0.996264)"/>
       <use xlink:href="#CMR17-35" transform="translate(45.690477 0) scale(0.996264)"/>
      </g>
     </g>
    </g>
    <g id="xtick_9">
     <g id="line2d_9">
      <g>
       <use xlink:href="#me0fbd18db6" x="545.996844" y="237.026449" style="stroke: #000000; stroke-width: 0.8"/>
      </g>
     </g>
     <g id="text_9">
      <!-- $\mathdefault{20}$ -->
      <g transform="translate(540.143853 252.328629) scale(0.12 -0.12)">
       <use xlink:href="#CMR17-32" transform="scale(0.996264)"/>
       <use xlink:href="#CMR17-30" transform="translate(45.690477 0) scale(0.996264)"/>
      </g>
     </g>
    </g>
    <g id="text_10">
     <!-- $x$ -->
     <g transform="translate(291.193442 266.955404) scale(0.12 -0.12)">
      <defs>
       <path id="CMMI12-78" d="M 3034 2606  C 2829 2567 2752 2414 2752 2293  C 2752 2139 2874 2088 2963 2088  C 3155 2088 3290 2254 3290 2427  C 3290 2695 2982 2816 2714 2816  C 2323 2816 2106 2433 2048 2312  C 1901 2816 1504 2816 1389 2816  C 736 2816 390 1980 390 1839  C 390 1814 416 1782 461 1782  C 512 1782 525 1820 538 1846  C 755 2555 1184 2689 1370 2689  C 1658 2689 1715 2420 1715 2267  C 1715 2127 1677 1980 1600 1673  L 1382 798  C 1286 415 1101 64 762 64  C 730 64 570 64 435 147  C 666 192 717 383 717 460  C 717 588 621 664 499 664  C 346 664 179 530 179 326  C 179 57 480 -64 755 -64  C 1062 -64 1280 179 1414 441  C 1517 64 1837 -64 2074 -64  C 2726 -64 3072 773 3072 913  C 3072 945 3046 971 3008 971  C 2950 971 2944 939 2925 888  C 2752 326 2381 64 2093 64  C 1869 64 1747 230 1747 492  C 1747 632 1773 734 1875 1156  L 2099 2024  C 2195 2408 2413 2689 2707 2689  C 2720 2689 2899 2689 3034 2606  z " transform="scale(0.015625)"/>
      </defs>
      <use xlink:href="#CMMI12-78" transform="scale(0.996264)"/>
     </g>
    </g>
   </g>
   <g id="matplotlib.axis_2">
    <g id="ytick_1">
     <g id="line2d_10">
      <defs>
       <path id="me5d1e70022" d="M 0 0  L -3.5 0  " style="stroke: #000000; stroke-width: 0.8"/>
      </defs>
      <g>
       <use xlink:href="#me5d1e70022" x="31.758971" y="237.026449" style="stroke: #000000; stroke-width: 0.8"/>
      </g>
     </g>
     <g id="text_11">
      <!-- $\mathdefault{0}$ -->
      <g transform="translate(18.905981 241.177539) scale(0.12 -0.12)">
       <use xlink:href="#CMR17-30" transform="scale(0.996264)"/>
      </g>
     </g>
    </g>
    <g id="ytick_2">
     <g id="line2d_11">
      <g>
       <use xlink:href="#me5d1e70022" x="31.758971" y="199.413889" style="stroke: #000000; stroke-width: 0.8"/>
      </g>
     </g>
     <g id="text_12">
      <!-- $\mathdefault{20}$ -->
      <g transform="translate(13.05299 203.564979) scale(0.12 -0.12)">
       <use xlink:href="#CMR17-32" transform="scale(0.996264)"/>
       <use xlink:href="#CMR17-30" transform="translate(45.690477 0) scale(0.996264)"/>
      </g>
     </g>
    </g>
    <g id="ytick_3">
     <g id="line2d_12">
      <g>
       <use xlink:href="#me5d1e70022" x="31.758971" y="161.801329" style="stroke: #000000; stroke-width: 0.8"/>
      </g>
     </g>
     <g id="text_13">
      <!-- $\mathdefault{40}$ -->
      <g transform="translate(13.05299 165.952419) scale(0.12 -0.12)">
       <defs>
        <path id="CMR17-34" d="M 2150 4122  C 2150 4256 2144 4256 2029 4256  L 128 1254  L 128 1088  L 1779 1088  L 1779 457  C 1779 224 1766 160 1318 160  L 1197 160  L 1197 0  C 1402 0 1747 0 1965 0  C 2182 0 2528 0 2733 0  L 2733 160  L 2611 160  C 2163 160 2150 224 2150 457  L 2150 1088  L 2803 1088  L 2803 1254  L 2150 1254  L 2150 4122  z M 1798 3703  L 1798 1254  L 256 1254  L 1798 3703  z " transform="scale(0.015625)"/>
       </defs>
       <use xlink:href="#CMR17-34" transform="scale(0.996264)"/>
       <use xlink:href="#CMR17-30" transform="translate(45.690477 0) scale(0.996264)"/>
      </g>
     </g>
    </g>
    <g id="ytick_4">
     <g id="line2d_13">
      <g>
       <use xlink:href="#me5d1e70022" x="31.758971" y="124.188769" style="stroke: #000000; stroke-width: 0.8"/>
      </g>
     </g>
     <g id="text_14">
      <!-- $\mathdefault{60}$ -->
      <g transform="translate(13.05299 128.339859) scale(0.12 -0.12)">
       <defs>
        <path id="CMR17-36" d="M 678 2176  C 678 3690 1395 4032 1811 4032  C 1946 4032 2272 4009 2400 3776  C 2298 3776 2106 3776 2106 3553  C 2106 3381 2246 3323 2336 3323  C 2394 3323 2566 3348 2566 3560  C 2566 3954 2246 4179 1805 4179  C 1043 4179 243 3390 243 1984  C 243 253 966 -128 1478 -128  C 2099 -128 2688 427 2688 1283  C 2688 2081 2170 2662 1517 2662  C 1126 2662 838 2407 678 1960  L 678 2176  z M 1478 25  C 691 25 691 1200 691 1436  C 691 1896 909 2560 1504 2560  C 1613 2560 1926 2560 2138 2120  C 2253 1870 2253 1609 2253 1289  C 2253 944 2253 690 2118 434  C 1978 171 1773 25 1478 25  z " transform="scale(0.015625)"/>
       </defs>
       <use xlink:href="#CMR17-36" transform="scale(0.996264)"/>
       <use xlink:href="#CMR17-30" transform="translate(45.690477 0) scale(0.996264)"/>
      </g>
     </g>
    </g>
    <g id="ytick_5">
     <g id="line2d_14">
      <g>
       <use xlink:href="#me5d1e70022" x="31.758971" y="86.57621" style="stroke: #000000; stroke-width: 0.8"/>
      </g>
     </g>
     <g id="text_15">
      <!-- $\mathdefault{80}$ -->
      <g transform="translate(13.05299 90.727299) scale(0.12 -0.12)">
       <defs>
        <path id="CMR17-38" d="M 1741 2264  C 2144 2467 2554 2773 2554 3263  C 2554 3841 1990 4179 1472 4179  C 890 4179 378 3759 378 3180  C 378 3021 416 2747 666 2505  C 730 2442 998 2251 1171 2130  C 883 1983 211 1634 211 934  C 211 279 838 -128 1459 -128  C 2144 -128 2720 362 2720 1010  C 2720 1590 2330 1857 2074 2029  L 1741 2264  z M 902 2822  C 851 2854 595 3051 595 3351  C 595 3739 998 4032 1459 4032  C 1965 4032 2336 3676 2336 3262  C 2336 2669 1670 2331 1638 2331  C 1632 2331 1626 2331 1574 2370  L 902 2822  z M 2080 1519  C 2176 1449 2483 1240 2483 851  C 2483 381 2010 25 1472 25  C 890 25 448 438 448 940  C 448 1443 838 1862 1280 2060  L 2080 1519  z " transform="scale(0.015625)"/>
       </defs>
       <use xlink:href="#CMR17-38" transform="scale(0.996264)"/>
       <use xlink:href="#CMR17-30" transform="translate(45.690477 0) scale(0.996264)"/>
      </g>
     </g>
    </g>
    <g id="ytick_6">
     <g id="line2d_15">
      <g>
       <use xlink:href="#me5d1e70022" x="31.758971" y="48.96365" style="stroke: #000000; stroke-width: 0.8"/>
      </g>
     </g>
     <g id="text_16">
      <!-- $\mathdefault{100}$ -->
      <g transform="translate(7.2 53.11474) scale(0.12 -0.12)">
       <use xlink:href="#CMR17-31" transform="scale(0.996264)"/>
       <use xlink:href="#CMR17-30" transform="translate(45.690477 0) scale(0.996264)"/>
       <use xlink:href="#CMR17-30" transform="translate(91.380954 0) scale(0.996264)"/>
      </g>
     </g>
    </g>
    <g id="ytick_7">
     <g id="line2d_16">
      <g>
       <use xlink:href="#me5d1e70022" x="31.758971" y="11.35109" style="stroke: #000000; stroke-width: 0.8"/>
      </g>
     </g>
     <g id="text_17">
      <!-- $\mathdefault{120}$ -->
      <g transform="translate(7.2 15.50218) scale(0.12 -0.12)">
       <use xlink:href="#CMR17-31" transform="scale(0.996264)"/>
       <use xlink:href="#CMR17-32" transform="translate(45.690477 0) scale(0.996264)"/>
       <use xlink:href="#CMR17-30" transform="translate(91.380954 0) scale(0.996264)"/>
      </g>
     </g>
    </g>
   </g>
   <g id="line2d_17">
    <path d="M 31.758971 237.026449  L 41.793696 237.026449  L 50.066447 237.026449  L 57.422185 237.026449  L 64.183613 237.026449  L 70.516983 237.026449  L 76.521985 237.026449  L 82.264286 237.026449  L 87.790004 237.026449  L 93.133089 237.026449  L 98.319445 237.026449  L 103.369403 237.026449  L 108.299291 237.026449  L 113.122476 237.026449  L 117.850078 237.026449  L 122.491473 237.026449  L 127.054663 237.026449  L 131.546548 237.026449  L 135.973134 237.026449  L 140.339689 237.026449  L 144.650872 237.026449  L 148.910827 237.026449  L 153.123265 237.026449  L 157.291524 237.026449  L 161.418626 237.026449  L 165.50732 237.026449  L 169.560114 237.026449  L 173.579307 237.026449  L 177.567016 237.026449  L 181.525197 237.026449  L 185.455663 237.026449  L 189.360099 237.026449  L 193.240077 237.026449  L 197.097069 237.026449  L 200.932456 237.026449  L 204.747537 237.026449  L 208.543537 237.026449  L 212.321617 237.026449  L 216.082875 237.026449  L 219.828358 237.026449  L 223.559062 237.026449  L 227.275938 237.026449  L 230.979898 237.026449  L 234.671818 237.026449  L 238.352538 237.026449  L 242.022869 237.026449  L 245.683597 237.026449  L 249.335479 237.026449  L 252.979254 237.026449  L 256.615638 237.026449  L 260.24533 237.026449  L 263.869013 237.026449  L 267.487357 237.026449  L 271.101016 237.026449  L 274.710638 237.026449  L 278.316858 237.026449  L 281.920306 237.026449  L 285.521603 237.026449  L 289.121368 237.026449  L 292.720215 237.026448  L 296.318756 237.026444  L 299.917603 237.026421  L 303.517367 237.026319  L 307.118665 237.025882  L 310.722112 237.02417  L 314.328333 237.017997  L 317.937954 236.997531  L 321.551614 236.935212  L 325.169957 236.761012  L 328.793641 236.314463  L 332.423333 235.266049  L 336.059717 233.015327  L 339.703491 228.606796  L 343.355374 220.751172  L 347.016101 208.068166  L 350.686433 189.623759  L 354.367153 165.681315  L 358.059072 138.359679  L 361.763033 111.74012  L 365.479909 91.0748  L 369.210613 81.180136  L 372.956096 84.643264  L 376.717354 100.737717  L 380.495434 125.660999  L 384.291434 153.994255  L 388.106515 180.619185  L 391.941902 202.16479  L 395.798894 217.457927  L 399.678872 227.068436  L 403.583308 232.441557  L 407.513773 235.120607  L 411.471955 236.312906  L 415.459664 236.78645  L 419.478857 236.954134  L 423.531651 237.006989  L 427.620344 237.021788  L 431.747447 237.025459  L 435.915706 237.026263  L 440.128143 237.026418  L 444.388098 237.026444  L 448.699281 237.026448  L 453.065837 237.026449  L 457.492423 237.026449  L 461.984308 237.026449  L 466.547498 237.026449  L 471.188893 237.026449  L 475.916494 237.026449  L 480.73968 237.026449  L 485.669568 237.026449  L 490.719526 237.026449  L 495.905881 237.026449  L 501.248967 237.026449  L 506.774685 237.026449  L 512.516985 237.026449  L 518.521988 237.026449  L 524.855357 237.026449  L 531.616786 237.026449  L 538.972524 237.026449  L 547.245275 237.026449  L 557.28 237.026449  " clip-path="url(#pff38cdc895)" style="fill: none; stroke: #1f77b4; stroke-width: 2; stroke-linecap: square"/>
   </g>
   <g id="line2d_18">
    <path d="M 31.758971 237.026449  L 41.793696 237.026449  L 50.066447 237.026449  L 57.422185 237.026449  L 64.183613 237.026449  L 70.516983 237.026449  L 76.521985 237.026449  L 82.264286 237.026449  L 87.790004 237.026449  L 93.133089 237.026449  L 98.319445 237.026449  L 103.369403 237.026449  L 108.299291 237.026449  L 113.122476 237.026449  L 117.850078 237.026449  L 122.491473 237.026449  L 127.054663 237.026449  L 131.546548 237.026449  L 135.973134 237.026449  L 140.339689 237.026448  L 144.650872 237.026445  L 148.910827 237.026419  L 153.123265 237.026266  L 157.291524 237.025474  L 161.418626 237.021852  L 165.50732 237.00724  L 169.560114 236.954996  L 173.579307 236.789076  L 177.567016 236.320028  L 181.525197 235.137809  L 185.455663 232.47859  L 189.360099 227.139519  L 193.240077 217.579367  L 197.097069 202.348852  L 200.932456 180.865064  L 204.747537 154.280207  L 208.543537 125.943036  L 212.321617 100.959301  L 216.082875 84.753321  L 219.828358 81.152457  L 223.559062 90.917892  L 227.275938 111.493405  L 230.979898 138.07732  L 234.671818 165.413682  L 238.352538 189.403817  L 242.022869 207.908159  L 245.683597 220.646829  L 249.335479 228.545389  L 252.979254 232.982526  L 256.615638 235.250107  L 260.24533 236.307386  L 263.869013 236.758142  L 267.487357 236.934145  L 271.101016 236.997168  L 274.710638 237.017883  L 278.316858 237.024138  L 281.920306 237.025874  L 285.521603 237.026317  L 289.121368 237.026421  L 292.720215 237.026443  L 296.318756 237.026448  L 299.917603 237.026449  L 303.517367 237.026449  L 307.118665 237.026449  L 310.722112 237.026449  L 314.328333 237.026449  L 317.937954 237.026449  L 321.551614 237.026449  L 325.169957 237.026449  L 328.793641 237.026449  L 332.423333 237.026449  L 336.059717 237.026449  L 339.703491 237.026449  L 343.355374 237.026449  L 347.016101 237.026449  L 350.686433 237.026449  L 354.367153 237.026449  L 358.059072 237.026449  L 361.763033 237.026449  L 365.479909 237.026449  L 369.210613 237.026449  L 372.956096 237.026449  L 376.717354 237.026449  L 380.495434 237.026449  L 384.291434 237.026449  L 388.106515 237.026449  L 391.941902 237.026449  L 395.798894 237.026449  L 399.678872 237.026449  L 403.583308 237.026449  L 407.513773 237.026449  L 411.471955 237.026449  L 415.459664 237.026449  L 419.478857 237.026449  L 423.531651 237.026449  L 427.620344 237.026449  L 431.747447 237.026449  L 435.915706 237.026449  L 440.128143 237.026449  L 444.388098 237.026449  L 448.699281 237.026449  L 453.065837 237.026449  L 457.492423 237.026449  L 461.984308 237.026449  L 466.547498 237.026449  L 471.188893 237.026449  L 475.916494 237.026449  L 480.73968 237.026449  L 485.669568 237.026449  L 490.719526 237.026449  L 495.905881 237.026449  L 501.248967 237.026449  L 506.774685 237.026449  L 512.516985 237.026449  L 518.521988 237.026449  L 524.855357 237.026449  L 531.616786 237.026449  L 538.972524 237.026449  L 547.245275 237.026449  L 557.28 237.026449  " clip-path="url(#pff38cdc895)" style="fill: none; stroke-dasharray: 7.4,3.2; stroke-dashoffset: 0; stroke: #ff7f0e; stroke-width: 2"/>
   </g>
   <g id="line2d_19">
    <path d="M 31.758971 237.026449  L 41.793696 237.026449  L 50.066447 237.026449  L 57.422185 237.026449  L 64.183613 237.026449  L 70.516983 237.026449  L 76.521985 237.026449  L 82.264286 237.026449  L 87.790004 237.026449  L 93.133089 237.026449  L 98.319445 237.026449  L 103.369403 237.026449  L 108.299291 237.026449  L 113.122476 237.026449  L 117.850078 237.026449  L 122.491473 237.026449  L 127.054663 237.026449  L 131.546548 237.026449  L 135.973134 237.026449  L 140.339689 237.026449  L 144.650872 237.026449  L 148.910827 237.026449  L 153.123265 237.026449  L 157.291524 237.026449  L 161.418626 237.026449  L 165.50732 237.026449  L 169.560114 237.026449  L 173.579307 237.026449  L 177.567016 237.026449  L 181.525197 237.026449  L 185.455663 237.026449  L 189.360099 237.026449  L 193.240077 237.026449  L 197.097069 237.026449  L 200.932456 237.026449  L 204.747537 237.026449  L 208.543537 237.026449  L 212.321617 237.026449  L 216.082875 237.026449  L 219.828358 237.026449  L 223.559062 237.026449  L 227.275938 237.026449  L 230.979898 237.026449  L 234.671818 237.026449  L 238.352538 237.026449  L 242.022869 237.026449  L 245.683597 237.026449  L 249.335479 237.026449  L 252.979254 237.026449  L 256.615638 237.026449  L 260.24533 237.026449  L 263.869013 237.026449  L 267.487357 237.026449  L 271.101016 237.026449  L 274.710638 237.026449  L 278.316858 237.026449  L 281.920306 237.026449  L 285.521603 237.026449  L 289.121368 237.026449  L 292.720215 237.026448  L 296.318756 237.026443  L 299.917603 237.02642  L 303.517367 237.02631  L 307.118665 237.025847  L 310.722112 237.024037  L 314.328333 237.017533  L 317.937954 236.996051  L 321.551614 236.930876  L 325.169957 236.749359  L 328.793641 236.285791  L 332.423333 235.201528  L 336.059717 232.882821  L 339.703491 228.359042  L 343.355374 220.330954  L 347.016101 207.424756  L 350.686433 188.741127  L 354.367153 164.609389  L 358.059072 137.231882  L 361.763033 110.758159  L 365.479909 90.455254  L 369.210613 81.078554  L 372.956096 85.091754  L 376.717354 101.629088  L 380.495434 126.790381  L 384.291434 155.135658  L 388.106515 181.5983  L 391.941902 202.896051  L 395.798894 217.93938  L 399.678872 227.349657  L 403.583308 232.587767  L 407.513773 235.188365  L 411.471955 236.340901  L 415.459664 236.796753  L 419.478857 236.957506  L 423.531651 237.00797  L 427.620344 237.02204  L 431.747447 237.025516  L 435.915706 237.026275  L 440.128143 237.02642  L 444.388098 237.026445  L 448.699281 237.026448  L 453.065837 237.026449  L 457.492423 237.026449  L 461.984308 237.026449  L 466.547498 237.026449  L 471.188893 237.026449  L 475.916494 237.026449  L 480.73968 237.026449  L 485.669568 237.026449  L 490.719526 237.026449  L 495.905881 237.026449  L 501.248967 237.026449  L 506.774685 237.026449  L 512.516985 237.026449  L 518.521988 237.026449  L 524.855357 237.026449  L 531.616786 237.026449  L 538.972524 237.026449  L 547.245275 237.026449  L 557.28 237.026449  " clip-path="url(#pff38cdc895)" style="fill: none; stroke-dasharray: 12.8,3.2,2,3.2; stroke-dashoffset: 0; stroke: #2ca02c; stroke-width: 2"/>
   </g>
   <g id="line2d_20">
    <path d="M 31.758971 31.709253  L 41.793696 47.091781  L 50.066447 59.322943  L 57.422185 69.856451  L 64.183613 79.25505  L 70.516983 87.812007  L 76.521985 95.70498  L 82.264286 103.052057  L 87.790004 109.936868  L 93.133089 116.421431  L 98.319445 122.553387  L 103.369403 128.370353  L 108.299291 133.902706  L 113.122476 139.175428  L 117.850078 144.209386  L 122.491473 149.022236  L 127.054663 153.629088  L 131.546548 158.042998  L 135.973134 162.275343  L 140.339689 166.336112  L 144.650872 170.234134  L 148.910827 173.977258  L 153.123265 177.572498  L 157.291524 181.02615  L 161.418626 184.343893  L 165.50732 187.530866  L 169.560114 190.591734  L 173.579307 193.530748  L 177.567016 196.351791  L 181.525197 199.058416  L 185.455663 201.653884  L 189.360099 204.141194  L 193.240077 206.523106  L 197.097069 208.802166  L 200.932456 210.980724  L 204.747537 213.060953  L 208.543537 215.044861  L 212.321617 216.934307  L 216.082875 218.731013  L 219.828358 220.436573  L 223.559062 222.05246  L 227.275938 223.580039  L 230.979898 225.020572  L 234.671818 226.375223  L 238.352538 227.645068  L 242.022869 228.831095  L 245.683597 229.934211  L 249.335479 230.955248  L 252.979254 231.894965  L 256.615638 232.754051  L 260.24533 233.533127  L 263.869013 234.232751  L 267.487357 234.853419  L 271.101016 235.395568  L 274.710638 235.859576  L 278.316858 236.245764  L 281.920306 236.554397  L 285.521603 236.785688  L 289.121368 236.939795  L 292.720215 237.016822  L 296.318756 237.016822  L 299.917603 236.939795  L 303.517367 236.785688  L 307.118665 236.554397  L 310.722112 236.245764  L 314.328333 235.859576  L 317.937954 235.395568  L 321.551614 234.853419  L 325.169957 234.232751  L 328.793641 233.533127  L 332.423333 232.754051  L 336.059717 231.894965  L 339.703491 230.955248  L 343.355374 229.934211  L 347.016101 228.831095  L 350.686433 227.645068  L 354.367153 226.375223  L 358.059072 225.020572  L 361.763033 223.580039  L 365.479909 222.05246  L 369.210613 220.436573  L 372.956096 218.731013  L 376.717354 216.934307  L 380.495434 215.044861  L 384.291434 213.060953  L 388.106515 210.980724  L 391.941902 208.802166  L 395.798894 206.523106  L 399.678872 204.141194  L 403.583308 201.653884  L 407.513773 199.058416  L 411.471955 196.351791  L 415.459664 193.530748  L 419.478857 190.591734  L 423.531651 187.530866  L 427.620344 184.343893  L 431.747447 181.02615  L 435.915706 177.572498  L 440.128143 173.977258  L 444.388098 170.234134  L 448.699281 166.336112  L 453.065837 162.275343  L 457.492423 158.042998  L 461.984308 153.629088  L 466.547498 149.022236  L 471.188893 144.209386  L 475.916494 139.175428  L 480.73968 133.902706  L 485.669568 128.370353  L 490.719526 122.553387  L 495.905881 116.421431  L 501.248967 109.936868  L 506.774685 103.052057  L 512.516985 95.70498  L 518.521988 87.812007  L 524.855357 79.25505  L 531.616786 69.856451  L 538.972524 59.322943  L 547.245275 47.091781  L 557.28 31.709253  " clip-path="url(#pff38cdc895)" style="fill: none; stroke-dasharray: 5.55,2.4; stroke-dashoffset: 0; stroke: #000000; stroke-width: 1.5"/>
   </g>
   <g id="patch_3">
    <path d="M 31.758971 237.026449  L 31.758971 11.35109  " style="fill: none; stroke: #000000; stroke-width: 0.8; stroke-linejoin: miter; stroke-linecap: square"/>
   </g>
   <g id="patch_4">
    <path d="M 557.28 237.026449  L 557.28 11.35109  " style="fill: none; stroke: #000000; stroke-width: 0.8; stroke-linejoin: miter; stroke-linecap: square"/>
   </g>
   <g id="patch_5">
    <path d="M 31.758971 237.026449  L 557.28 237.026449  " style="fill: none; stroke: #000000; stroke-width: 0.8; stroke-linejoin: miter; stroke-linecap: square"/>
   </g>
   <g id="patch_6">
    <path d="M 31.758971 11.35109  L 557.28 11.35109  " style="fill: none; stroke: #000000; stroke-width: 0.8; stroke-linejoin: miter; stroke-linecap: square"/>
   </g>
   <g id="legend_1">
    <g id="patch_7">
     <path d="M 237.468491 76.341683  L 351.570479 76.341683  Q 353.970479 76.341683 353.970479 73.941683  L 353.970479 19.75109  Q 353.970479 17.35109 351.570479 17.35109  L 237.468491 17.35109  Q 235.068491 17.35109 235.068491 19.75109  L 235.068491 73.941683  Q 235.068491 76.341683 237.468491 76.341683  z " style="fill: #ffffff; opacity: 0.8; stroke: #cccccc; stroke-linejoin: miter"/>
    </g>
    <g id="line2d_21">
     <path d="M 239.868491 27.425829  L 251.868491 27.425829  L 263.868491 27.425829  " style="fill: none; stroke: #1f77b4; stroke-width: 2; stroke-linecap: square"/>
    </g>
    <g id="text_18">
     <!-- $\vert \langle \psi (t_0) \vert \psi (t_0) \rangle \vert^2$ -->
     <g transform="translate(273.468491 31.625829) scale(0.12 -0.12)">
      <defs>
       <path id="CMSY10-6a" d="M 1018 4570  C 1018 4685 1018 4800 890 4800  C 762 4800 762 4685 762 4570  L 762 -1370  C 762 -1485 762 -1600 890 -1600  C 1018 -1600 1018 -1485 1018 -1370  L 1018 4570  z " transform="scale(0.015625)"/>
       <path id="CMSY10-68" d="M 2099 4557  C 2131 4627 2131 4640 2131 4672  C 2131 4742 2074 4800 2003 4800  C 1946 4800 1901 4768 1856 4653  L 736 1715  C 723 1677 704 1638 704 1600  C 704 1581 704 1568 736 1491  L 1856 -1446  C 1882 -1517 1914 -1600 2003 -1600  C 2074 -1600 2131 -1542 2131 -1472  C 2131 -1453 2131 -1440 2099 -1370  L 966 1600  L 2099 4557  z " transform="scale(0.015625)"/>
       <path id="CMMI12-20" d="M 3008 4294  C 3008 4301 3034 4384 3034 4391  C 3034 4448 2982 4448 2963 4448  C 2906 4448 2899 4416 2874 4320  L 1818 77  C 1286 141 1088 410 1088 794  C 1088 934 1088 1082 1389 1875  C 1472 2105 1504 2188 1504 2303  C 1504 2591 1299 2821 998 2821  C 410 2821 173 1894 173 1843  C 173 1817 198 1785 243 1785  C 301 1785 307 1811 333 1900  C 486 2453 742 2688 979 2688  C 1037 2688 1146 2688 1146 2483  C 1146 2457 1146 2316 1037 2035  C 691 1126 691 985 691 838  C 691 223 1203 -14 1779 -58  C 1728 -253 1683 -453 1632 -647  C 1530 -1022 1485 -1198 1485 -1223  C 1485 -1280 1536 -1280 1555 -1280  C 1568 -1280 1594 -1280 1606 -1254  C 1632 -1230 1894 -176 1920 -64  C 2157 -64 2662 -64 3238 531  C 3450 761 3642 1056 3750 1331  C 3814 1498 3968 2067 3968 2393  C 3968 2777 3776 2821 3712 2821  C 3558 2821 3418 2668 3418 2540  C 3418 2463 3462 2418 3488 2393  C 3546 2335 3718 2162 3718 1830  C 3718 1600 3590 1126 3181 666  C 2643 64 2150 64 1958 64  L 3008 4294  z " transform="scale(0.015625)"/>
       <path id="CMR17-28" d="M 1958 -1561  C 1958 -1555 1958 -1542 1939 -1523  C 1645 -1224 858 -407 858 1581  C 858 3569 1632 4379 1946 4697  C 1946 4704 1958 4717 1958 4736  C 1958 4755 1939 4768 1914 4768  C 1843 4768 1299 4296 986 3594  C 666 2887 576 2199 576 1588  C 576 1128 621 351 1005 -471  C 1312 -1135 1837 -1600 1914 -1600  C 1946 -1600 1958 -1587 1958 -1561  z " transform="scale(0.015625)"/>
       <path id="CMMI12-74" d="M 1286 2566  L 1875 2566  C 1997 2566 2061 2566 2061 2681  C 2061 2752 2022 2752 1894 2752  L 1331 2752  L 1568 3692  C 1594 3781 1594 3794 1594 3840  C 1594 3943 1510 4000 1427 4000  C 1376 4000 1229 3981 1178 3775  L 928 2752  L 326 2752  C 198 2752 141 2752 141 2630  C 141 2566 186 2566 307 2566  L 877 2566  L 454 881  C 403 658 384 594 384 511  C 384 211 595 -64 954 -64  C 1600 -64 1946 868 1946 912  C 1946 951 1920 970 1882 970  C 1869 970 1843 970 1830 944  C 1824 938 1818 931 1773 829  C 1638 511 1344 64 973 64  C 781 64 768 224 768 364  C 768 370 768 492 787 568  L 1286 2566  z " transform="scale(0.015625)"/>
       <path id="CMR17-29" d="M 1683 1581  C 1683 2040 1638 2817 1254 3639  C 947 4303 422 4768 346 4768  C 326 4768 301 4761 301 4729  C 301 4717 307 4710 314 4697  C 621 4378 1402 3568 1402 1584  C 1402 -407 627 -1217 314 -1537  C 307 -1549 301 -1556 301 -1568  C 301 -1600 326 -1600 346 -1600  C 416 -1600 960 -1128 1274 -426  C 1594 281 1683 969 1683 1581  z " transform="scale(0.015625)"/>
       <path id="CMSY10-69" d="M 1747 1491  C 1779 1568 1779 1581 1779 1600  C 1779 1619 1779 1632 1747 1709  L 627 4653  C 589 4762 550 4800 480 4800  C 410 4800 352 4742 352 4672  C 352 4653 352 4640 384 4570  L 1517 1600  L 384 -1357  C 352 -1427 352 -1440 352 -1472  C 352 -1542 410 -1600 480 -1600  C 563 -1600 589 -1536 614 -1472  L 1747 1491  z " transform="scale(0.015625)"/>
      </defs>
      <use xlink:href="#CMSY10-6a" transform="scale(0.996264)"/>
      <use xlink:href="#CMSY10-68" transform="translate(27.674085 0) scale(0.996264)"/>
      <use xlink:href="#CMMI12-20" transform="translate(66.417819 0) scale(0.996264)"/>
      <use xlink:href="#CMR17-28" transform="translate(133.411298 0) scale(0.996264)"/>
      <use xlink:href="#CMMI12-74" transform="translate(168.692066 0) scale(0.996264)"/>
      <use xlink:href="#CMR17-30" transform="translate(203.918396 -14.943915) scale(0.697382)"/>
      <use xlink:href="#CMR17-29" transform="translate(236.39971 0) scale(0.996264)"/>
      <use xlink:href="#CMSY10-6a" transform="translate(271.680478 0) scale(0.996264)"/>
      <use xlink:href="#CMMI12-20" transform="translate(299.354563 0) scale(0.996264)"/>
      <use xlink:href="#CMR17-28" transform="translate(366.348042 0) scale(0.996264)"/>
      <use xlink:href="#CMMI12-74" transform="translate(401.62881 0) scale(0.996264)"/>
      <use xlink:href="#CMR17-30" transform="translate(436.85514 -14.943915) scale(0.697382)"/>
      <use xlink:href="#CMR17-29" transform="translate(469.336454 0) scale(0.996264)"/>
      <use xlink:href="#CMSY10-69" transform="translate(504.617222 0) scale(0.996264)"/>
      <use xlink:href="#CMSY10-6a" transform="translate(543.360956 0) scale(0.996264)"/>
      <use xlink:href="#CMR17-32" transform="translate(571.035041 36.153639) scale(0.697382)"/>
     </g>
    </g>
    <g id="line2d_22">
     <path d="M 239.868491 45.88936  L 251.868491 45.88936  L 263.868491 45.88936  " style="fill: none; stroke-dasharray: 7.4,3.2; stroke-dashoffset: 0; stroke: #ff7f0e; stroke-width: 2"/>
    </g>
    <g id="text_19">
     <!-- $\vert \langle \psi (t_1) \vert \psi (t_1) \rangle \vert^2$ -->
     <g transform="translate(273.468491 50.08936) scale(0.12 -0.12)">
      <use xlink:href="#CMSY10-6a" transform="scale(0.996264)"/>
      <use xlink:href="#CMSY10-68" transform="translate(27.674085 0) scale(0.996264)"/>
      <use xlink:href="#CMMI12-20" transform="translate(66.417819 0) scale(0.996264)"/>
      <use xlink:href="#CMR17-28" transform="translate(133.411298 0) scale(0.996264)"/>
      <use xlink:href="#CMMI12-74" transform="translate(168.692066 0) scale(0.996264)"/>
      <use xlink:href="#CMR17-31" transform="translate(203.918396 -14.943915) scale(0.697382)"/>
      <use xlink:href="#CMR17-29" transform="translate(236.39971 0) scale(0.996264)"/>
      <use xlink:href="#CMSY10-6a" transform="translate(271.680478 0) scale(0.996264)"/>
      <use xlink:href="#CMMI12-20" transform="translate(299.354563 0) scale(0.996264)"/>
      <use xlink:href="#CMR17-28" transform="translate(366.348042 0) scale(0.996264)"/>
      <use xlink:href="#CMMI12-74" transform="translate(401.62881 0) scale(0.996264)"/>
      <use xlink:href="#CMR17-31" transform="translate(436.85514 -14.943915) scale(0.697382)"/>
      <use xlink:href="#CMR17-29" transform="translate(469.336454 0) scale(0.996264)"/>
      <use xlink:href="#CMSY10-69" transform="translate(504.617222 0) scale(0.996264)"/>
      <use xlink:href="#CMSY10-6a" transform="translate(543.360956 0) scale(0.996264)"/>
      <use xlink:href="#CMR17-32" transform="translate(571.035041 36.153639) scale(0.697382)"/>
     </g>
    </g>
    <g id="line2d_23">
     <path d="M 239.868491 64.352891  L 251.868491 64.352891  L 263.868491 64.352891  " style="fill: none; stroke-dasharray: 12.8,3.2,2,3.2; stroke-dashoffset: 0; stroke: #2ca02c; stroke-width: 2"/>
    </g>
    <g id="text_20">
     <!-- $\vert \langle \psi (t_2) \vert \psi (t_2) \rangle \vert^2$ -->
     <g transform="translate(273.468491 68.552891) scale(0.12 -0.12)">
      <use xlink:href="#CMSY10-6a" transform="scale(0.996264)"/>
      <use xlink:href="#CMSY10-68" transform="translate(27.674085 0) scale(0.996264)"/>
      <use xlink:href="#CMMI12-20" transform="translate(66.417819 0) scale(0.996264)"/>
      <use xlink:href="#CMR17-28" transform="translate(133.411298 0) scale(0.996264)"/>
      <use xlink:href="#CMMI12-74" transform="translate(168.692066 0) scale(0.996264)"/>
      <use xlink:href="#CMR17-32" transform="translate(203.918396 -14.943915) scale(0.697382)"/>
      <use xlink:href="#CMR17-29" transform="translate(236.39971 0) scale(0.996264)"/>
      <use xlink:href="#CMSY10-6a" transform="translate(271.680478 0) scale(0.996264)"/>
      <use xlink:href="#CMMI12-20" transform="translate(299.354563 0) scale(0.996264)"/>
      <use xlink:href="#CMR17-28" transform="translate(366.348042 0) scale(0.996264)"/>
      <use xlink:href="#CMMI12-74" transform="translate(401.62881 0) scale(0.996264)"/>
      <use xlink:href="#CMR17-32" transform="translate(436.85514 -14.943915) scale(0.697382)"/>
      <use xlink:href="#CMR17-29" transform="translate(469.336454 0) scale(0.996264)"/>
      <use xlink:href="#CMSY10-69" transform="translate(504.617222 0) scale(0.996264)"/>
      <use xlink:href="#CMSY10-6a" transform="translate(543.360956 0) scale(0.996264)"/>
      <use xlink:href="#CMR17-32" transform="translate(571.035041 36.153639) scale(0.697382)"/>
     </g>
    </g>
   </g>
  </g>
 </g>
 <defs>
  <clipPath id="pff38cdc895">
   <rect x="31.758971" y="11.35109" width="525.521029" height="225.675359"/>
  </clipPath>
 </defs>
</svg>