<svg xmlns:xlink="http://www.w3.org/1999/xlink" xmlns="http://www.w3.org/2000/svg" width="576pt" height="288pt" viewBox="0 0 576 288" version="1.1">
 <metadata>
  <rdf:RDF xmlns:dc="http://purl.org/dc/elements/1.1/" xmlns:cc="http://creativecommons.org/ns#" xmlns:rdf="http://www.w3.org/1999/02/22-rdf-syntax-ns#">
   <cc:Work>
    <dc:type rdf:resource="http://purl.org/dc/dcmitype/StillImage"/>
    <dc:date>2025-06-06T08:51:09.378077</dc:date>
    <dc:format>image/svg+xml</dc:format>
    <dc:creator>
     <cc:Agent>
      <dc:title>Matplotlib v3.10.3, https://matplotlib.org/</dc:title>
     </cc:Agent>
    </dc:creator>
   </cc:Work>
  </rdf:RDF>
 </metadata>
 <defs>
  <style type="text/css">*{stroke-linejoin: round; stroke-linecap: butt}</style>
 </defs>
 <g id="figure_1">
  <g id="patch_1">
   <path d="M 0 288  L 576 288  L 576 0  L 0 0  z " style="fill: #ffffff"/>
  </g>
  <g id="axes_1">
   <g id="patch_2">
    <path d="M 72 256.32  L 518.4 256.32  L 518.4 34.56  L 72 34.56  z " style="fill: #ffffff"/>
   </g>
   <g id="matplotlib.axis_1">
    <g id="xtick_1">
     <g id="line2d_1">
      <defs>
       <path id="mb4e852a7c2" d="M 0 0  L 0 3.5  " style="stroke: #000000; stroke-width: 0.8"/>
      </defs>
      <g>
       <use xlink:href="#mb4e852a7c2" x="72" y="256.32" style="stroke: #000000; stroke-width: 0.8"/>
      </g>
     </g>
     <g id="text_1">
      <!-- $\mathdefault{0}$ -->
      <g transform="translate(69.073505 271.62218) scale(0.12 -0.12)">
       <defs>
        <path id="CMR17-30" d="M 2688 2025  C 2688 2416 2682 3080 2413 3591  C 2176 4039 1798 4198 1466 4198  C 1158 4198 768 4058 525 3597  C 269 3118 243 2524 243 2025  C 243 1661 250 1106 448 619  C 723 -39 1216 -128 1466 -128  C 1760 -128 2208 -7 2470 600  C 2662 1042 2688 1559 2688 2025  z M 1466 -26  C 1056 -26 813 325 723 812  C 653 1188 653 1738 653 2096  C 653 2588 653 2997 736 3387  C 858 3929 1216 4096 1466 4096  C 1728 4096 2067 3923 2189 3400  C 2272 3036 2278 2607 2278 2096  C 2278 1680 2278 1169 2202 792  C 2067 95 1690 -26 1466 -26  z " transform="scale(0.015625)"/>
       </defs>
       <use xlink:href="#CMR17-30" transform="scale(0.996264)"/>
      </g>
     </g>
    </g>
    <g id="xtick_2">
     <g id="line2d_2">
      <g>
       <use xlink:href="#mb4e852a7c2" x="143.046767" y="256.32" style="stroke: #000000; stroke-width: 0.8"/>
      </g>
     </g>
     <g id="text_2">
      <!-- $\mathdefault{2}$ -->
      <g transform="translate(140.120271 271.62218) scale(0.12 -0.12)">
       <defs>
        <path id="CMR17-32" d="M 2669 989  L 2554 989  C 2490 536 2438 459 2413 420  C 2381 369 1920 369 1830 369  L 602 369  C 832 619 1280 1072 1824 1597  C 2214 1967 2669 2402 2669 3035  C 2669 3790 2067 4224 1395 4224  C 691 4224 262 3604 262 3030  C 262 2780 448 2748 525 2748  C 589 2748 781 2787 781 3010  C 781 3207 614 3264 525 3264  C 486 3264 448 3258 422 3245  C 544 3790 915 4058 1306 4058  C 1862 4058 2227 3617 2227 3035  C 2227 2479 1901 2000 1536 1584  L 262 146  L 262 0  L 2515 0  L 2669 989  z " transform="scale(0.015625)"/>
       </defs>
       <use xlink:href="#CMR17-32" transform="scale(0.996264)"/>
      </g>
     </g>
    </g>
    <g id="xtick_3">
     <g id="line2d_3">
      <g>
       <use xlink:href="#mb4e852a7c2" x="214.093533" y="256.32" style="stroke: #000000; stroke-width: 0.8"/>
      </g>
     </g>
     <g id="text_3">
      <!-- $\mathdefault{4}$ -->
      <g transform="translate(211.167038 271.62218) scale(0.12 -0.12)">
       <defs>
        <path id="CMR17-34" d="M 2150 4122  C 2150 4256 2144 4256 2029 4256  L 128 1254  L 128 1088  L 1779 1088  L 1779 457  C 1779 224 1766 160 1318 160  L 1197 160  L 1197 0  C 1402 0 1747 0 1965 0  C 2182 0 2528 0 2733 0  L 2733 160  L 2611 160  C 2163 160 2150 224 2150 457  L 2150 1088  L 2803 1088  L 2803 1254  L 2150 1254  L 2150 4122  z M 1798 3703  L 1798 1254  L 256 1254  L 1798 3703  z " transform="scale(0.015625)"/>
       </defs>
       <use xlink:href="#CMR17-34" transform="scale(0.996264)"/>
      </g>
     </g>
    </g>
    <g id="xtick_4">
     <g id="line2d_4">
      <g>
       <use xlink:href="#mb4e852a7c2" x="285.1403" y="256.32" style="stroke: #000000; stroke-width: 0.8"/>
      </g>
     </g>
     <g id="text_4">
      <!-- $\mathdefault{6}$ -->
      <g transform="translate(282.213805 271.62218) scale(0.12 -0.12)">
       <defs>
        <path id="CMR17-36" d="M 678 2176  C 678 3690 1395 4032 1811 4032  C 1946 4032 2272 4009 2400 3776  C 2298 3776 2106 3776 2106 3553  C 2106 3381 2246 3323 2336 3323  C 2394 3323 2566 3348 2566 3560  C 2566 3954 2246 4179 1805 4179  C 1043 4179 243 3390 243 1984  C 243 253 966 -128 1478 -128  C 2099 -128 2688 427 2688 1283  C 2688 2081 2170 2662 1517 2662  C 1126 2662 838 2407 678 1960  L 678 2176  z M 1478 25  C 691 25 691 1200 691 1436  C 691 1896 909 2560 1504 2560  C 1613 2560 1926 2560 2138 2120  C 2253 1870 2253 1609 2253 1289  C 2253 944 2253 690 2118 434  C 1978 171 1773 25 1478 25  z " transform="scale(0.015625)"/>
       </defs>
       <use xlink:href="#CMR17-36" transform="scale(0.996264)"/>
      </g>
     </g>
    </g>
    <g id="xtick_5">
     <g id="line2d_5">
      <g>
       <use xlink:href="#mb4e852a7c2" x="356.187066" y="256.32" style="stroke: #000000; stroke-width: 0.8"/>
      </g>
     </g>
     <g id="text_5">
      <!-- $\mathdefault{8}$ -->
      <g transform="translate(353.260571 271.62218) scale(0.12 -0.12)">
       <defs>
        <path id="CMR17-38" d="M 1741 2264  C 2144 2467 2554 2773 2554 3263  C 2554 3841 1990 4179 1472 4179  C 890 4179 378 3759 378 3180  C 378 3021 416 2747 666 2505  C 730 2442 998 2251 1171 2130  C 883 1983 211 1634 211 934  C 211 279 838 -128 1459 -128  C 2144 -128 2720 362 2720 1010  C 2720 1590 2330 1857 2074 2029  L 1741 2264  z M 902 2822  C 851 2854 595 3051 595 3351  C 595 3739 998 4032 1459 4032  C 1965 4032 2336 3676 2336 3262  C 2336 2669 1670 2331 1638 2331  C 1632 2331 1626 2331 1574 2370  L 902 2822  z M 2080 1519  C 2176 1449 2483 1240 2483 851  C 2483 381 2010 25 1472 25  C 890 25 448 438 448 940  C 448 1443 838 1862 1280 2060  L 2080 1519  z " transform="scale(0.015625)"/>
       </defs>
       <use xlink:href="#CMR17-38" transform="scale(0.996264)"/>
      </g>
     </g>
    </g>
    <g id="xtick_6">
     <g id="line2d_6">
      <g>
       <use xlink:href="#mb4e852a7c2" x="427.233833" y="256.32" style="stroke: #000000; stroke-width: 0.8"/>
      </g>
     </g>
     <g id="text_6">
      <!-- $\mathdefault{10}$ -->
      <g transform="translate(421.380843 271.62218) scale(0.12 -0.12)">
       <defs>
        <path id="CMR17-31" d="M 1702 4058  C 1702 4192 1696 4192 1606 4192  C 1357 3916 979 3827 621 3827  C 602 3827 570 3827 563 3808  C 557 3795 557 3782 557 3648  C 755 3648 1088 3686 1344 3839  L 1344 461  C 1344 236 1331 160 781 160  L 589 160  L 589 0  C 896 0 1216 0 1523 0  C 1830 0 2150 0 2458 0  L 2458 160  L 2266 160  C 1715 160 1702 230 1702 458  L 1702 4058  z " transform="scale(0.015625)"/>
       </defs>
       <use xlink:href="#CMR17-31" transform="scale(0.996264)"/>
       <use xlink:href="#CMR17-30" transform="translate(45.690477 0) scale(0.996264)"/>
      </g>
     </g>
    </g>
    <g id="xtick_7">
     <g id="line2d_7">
      <g>
       <use xlink:href="#mb4e852a7c2" x="498.2806" y="256.32" style="stroke: #000000; stroke-width: 0.8"/>
      </g>
     </g>
     <g id="text_7">
      <!-- $\mathdefault{12}$ -->
      <g transform="translate(492.427609 271.62218) scale(0.12 -0.12)">
       <use xlink:href="#CMR17-31" transform="scale(0.996264)"/>
       <use xlink:href="#CMR17-32" transform="translate(45.690477 0) scale(0.996264)"/>
      </g>
     </g>
    </g>
    <g id="text_8">
     <!-- $t$ -->
     <g transform="translate(293.08642 286.248955) scale(0.12 -0.12)">
      <defs>
       <path id="CMMI12-74" d="M 1286 2566  L 1875 2566  C 1997 2566 2061 2566 2061 2681  C 2061 2752 2022 2752 1894 2752  L 1331 2752  L 1568 3692  C 1594 3781 1594 3794 1594 3840  C 1594 3943 1510 4000 1427 4000  C 1376 4000 1229 3981 1178 3775  L 928 2752  L 326 2752  C 198 2752 141 2752 141 2630  C 141 2566 186 2566 307 2566  L 877 2566  L 454 881  C 403 658 384 594 384 511  C 384 211 595 -64 954 -64  C 1600 -64 1946 868 1946 912  C 1946 951 1920 970 1882 970  C 1869 970 1843 970 1830 944  C 1824 938 1818 931 1773 829  C 1638 511 1344 64 973 64  C 781 64 768 224 768 364  C 768 370 768 492 787 568  L 1286 2566  z " transform="scale(0.015625)"/>
      </defs>
      <use xlink:href="#CMMI12-74" transform="scale(0.996264)"/>
     </g>
    </g>
   </g>
   <g id="matplotlib.axis_2">
    <g id="ytick_1">
     <g id="line2d_8">
      <defs>
       <path id="ma231a43d80" d="M 0 0  L -3.5 0  " style="stroke: #000000; stroke-width: 0.8"/>
      </defs>
      <g>
       <use xlink:href="#ma231a43d80" x="72" y="239.290113" style="stroke: #000000; stroke-width: 0.8"/>
      </g>
     </g>
     <g id="text_9">
      <!-- $\mathdefault{−5}$ -->
      <g transform="translate(49.84852 243.441203) scale(0.12 -0.12)">
       <defs>
        <path id="CMSY10-0" d="M 4218 1472  C 4326 1472 4442 1472 4442 1600  C 4442 1728 4326 1728 4218 1728  L 755 1728  C 646 1728 531 1728 531 1600  C 531 1472 646 1472 755 1472  L 4218 1472  z " transform="scale(0.015625)"/>
        <path id="CMR17-35" d="M 730 3692  C 794 3666 1056 3584 1325 3584  C 1920 3584 2246 3911 2432 4100  C 2432 4157 2432 4192 2394 4192  C 2387 4192 2374 4192 2323 4163  C 2099 4058 1837 3973 1517 3973  C 1325 3973 1037 3999 723 4139  C 653 4171 640 4171 634 4171  C 602 4171 595 4164 595 4037  L 595 2203  C 595 2089 595 2057 659 2057  C 691 2057 704 2070 736 2114  C 941 2401 1222 2522 1542 2522  C 1766 2522 2246 2382 2246 1289  C 2246 1085 2246 715 2054 421  C 1894 159 1645 25 1370 25  C 947 25 518 320 403 814  C 429 807 480 795 506 795  C 589 795 749 840 749 1038  C 749 1210 627 1280 506 1280  C 358 1280 262 1190 262 1011  C 262 454 704 -128 1382 -128  C 2042 -128 2669 440 2669 1264  C 2669 2030 2170 2624 1549 2624  C 1222 2624 947 2503 730 2274  L 730 3692  z " transform="scale(0.015625)"/>
       </defs>
       <use xlink:href="#CMSY10-0" transform="scale(0.996264)"/>
       <use xlink:href="#CMR17-35" transform="translate(77.487468 0) scale(0.996264)"/>
      </g>
     </g>
    </g>
    <g id="ytick_2">
     <g id="line2d_9">
      <g>
       <use xlink:href="#ma231a43d80" x="72" y="190.544848" style="stroke: #000000; stroke-width: 0.8"/>
      </g>
     </g>
     <g id="text_10">
      <!-- $\mathdefault{0}$ -->
      <g transform="translate(59.14701 194.695938) scale(0.12 -0.12)">
       <use xlink:href="#CMR17-30" transform="scale(0.996264)"/>
      </g>
     </g>
    </g>
    <g id="ytick_3">
     <g id="line2d_10">
      <g>
       <use xlink:href="#ma231a43d80" x="72" y="141.799583" style="stroke: #000000; stroke-width: 0.8"/>
      </g>
     </g>
     <g id="text_11">
      <!-- $\mathdefault{5}$ -->
      <g transform="translate(59.14701 145.950673) scale(0.12 -0.12)">
       <use xlink:href="#CMR17-35" transform="scale(0.996264)"/>
      </g>
     </g>
    </g>
    <g id="ytick_4">
     <g id="line2d_11">
      <g>
       <use xlink:href="#ma231a43d80" x="72" y="93.054318" style="stroke: #000000; stroke-width: 0.8"/>
      </g>
     </g>
     <g id="text_12">
      <!-- $\mathdefault{10}$ -->
      <g transform="translate(53.294019 97.205408) scale(0.12 -0.12)">
       <use xlink:href="#CMR17-31" transform="scale(0.996264)"/>
       <use xlink:href="#CMR17-30" transform="translate(45.690477 0) scale(0.996264)"/>
      </g>
     </g>
    </g>
    <g id="ytick_5">
     <g id="line2d_12">
      <g>
       <use xlink:href="#ma231a43d80" x="72" y="44.309053" style="stroke: #000000; stroke-width: 0.8"/>
      </g>
     </g>
     <g id="text_13">
      <!-- $\mathdefault{15}$ -->
      <g transform="translate(53.294019 48.460143) scale(0.12 -0.12)">
       <use xlink:href="#CMR17-31" transform="scale(0.996264)"/>
       <use xlink:href="#CMR17-35" transform="translate(45.690477 0) scale(0.996264)"/>
      </g>
     </g>
    </g>
   </g>
   <g id="line2d_13">
    <path d="M 72 102.803371  L 76.509091 102.803385  L 81.018182 102.803392  L 85.527273 102.803402  L 90.036364 102.803411  L 94.545455 102.803424  L 99.054545 102.803437  L 103.563636 102.803451  L 108.072727 102.803454  L 112.581818 102.803455  L 117.090909 102.803455  L 121.6 102.803456  L 126.109091 102.803456  L 130.618182 102.803457  L 135.127273 102.803458  L 139.636364 102.803458  L 144.145455 102.803459  L 148.654545 102.803459  L 153.163636 102.80346  L 157.672727 102.803461  L 162.181818 102.803461  L 166.690909 102.803462  L 171.2 102.803462  L 175.709091 102.803463  L 180.218182 102.803464  L 184.727273 102.803464  L 189.236364 102.803465  L 193.745455 102.803465  L 198.254545 102.803466  L 202.763636 102.803466  L 207.272727 102.803467  L 211.781818 102.803468  L 216.290909 102.803468  L 220.8 102.803469  L 225.309091 102.803469  L 229.818182 102.80347  L 234.327273 102.803471  L 238.836364 102.803471  L 243.345455 102.803472  L 247.854545 102.803472  L 252.363636 102.803473  L 256.872727 102.803474  L 261.381818 102.803474  L 265.890909 102.803475  L 270.4 102.803475  L 274.909091 102.803476  L 279.418182 102.803477  L 283.927273 102.803477  L 288.436364 102.803478  L 292.945455 102.803478  L 297.454545 102.803479  L 301.963636 102.80348  L 306.472727 102.80348  L 310.981818 102.803481  L 315.490909 102.803481  L 320 102.803482  L 324.509091 102.803482  L 329.018182 102.803483  L 333.527273 102.803484  L 338.036364 102.803484  L 342.545455 102.803485  L 347.054545 102.803485  L 351.563636 102.803486  L 356.072727 102.803487  L 360.581818 102.803487  L 365.090909 102.803488  L 369.6 102.803488  L 374.109091 102.803489  L 378.618182 102.80349  L 383.127273 102.80349  L 387.636364 102.803491  L 392.145455 102.803491  L 396.654545 102.803492  L 401.163636 102.803493  L 405.672727 102.803493  L 410.181818 102.803494  L 414.690909 102.803494  L 419.2 102.803495  L 423.709091 102.803496  L 428.218182 102.803496  L 432.727273 102.803497  L 437.236364 102.803497  L 441.745455 102.803498  L 446.254545 102.803498  L 450.763636 102.803499  L 455.272727 102.8035  L 459.781818 102.8035  L 464.290909 102.803501  L 468.8 102.803501  L 473.309091 102.803502  L 477.818182 102.803503  L 482.327273 102.803503  L 486.836364 102.803504  L 491.345455 102.803504  L 495.854545 102.803505  L 500.363636 102.803506  L 504.872727 102.803506  L 509.381818 102.803507  L 513.890909 102.803507  L 518.4 102.803508  " clip-path="url(#pf5f8a52df4)" style="fill: none; stroke: #1f77b4; stroke-width: 2; stroke-linecap: square"/>
   </g>
   <g id="line2d_14">
    <path d="M 72 132.05053  L 76.509091 132.521133  L 81.018182 133.925358  L 85.527273 136.240614  L 90.036364 139.429646  L 94.545455 143.441141  L 99.054545 148.210551  L 103.563636 153.661136  L 108.072727 159.705189  L 112.581818 166.245464  L 117.090909 173.176725  L 121.6 180.387446  L 126.109091 187.761602  L 130.618182 195.180543  L 135.127273 202.524893  L 139.636364 209.676479  L 144.145455 216.520231  L 148.654545 222.946029  L 153.163636 228.850479  L 157.672727 234.138578  L 162.181818 238.725237  L 166.690909 242.536656  L 171.2 245.511507  L 175.709091 247.601923  L 180.218182 248.77427  L 184.727273 249.009684  L 189.236364 248.304377  L 193.745455 246.669697  L 198.254545 244.131948  L 202.763636 240.731962  L 207.272727 236.524446  L 211.781818 231.577102  L 216.290909 225.969533  L 220.8 219.791968  L 225.309091 213.143806  L 229.818182 206.132018  L 234.327273 198.869427  L 238.836364 191.47289  L 243.345455 184.061421  L 247.854545 176.754273  L 252.363636 169.66902  L 256.872727 162.919667  L 261.381818 156.614814  L 265.890909 150.855907  L 270.4 145.735611  L 274.909091 141.336312  L 279.418182 137.728797  L 283.927273 134.971111  L 288.436364 133.107628  L 292.945455 132.168332  L 297.454545 132.168335  L 301.963636 133.107639  L 306.472727 134.971128  L 310.981818 137.72882  L 315.490909 141.336341  L 320 145.735646  L 324.509091 150.855947  L 329.018182 156.614857  L 333.527273 162.919714  L 338.036364 169.669069  L 342.545455 176.754324  L 347.054545 184.061473  L 351.563636 191.472942  L 356.072727 198.869477  L 360.581818 206.132066  L 365.090909 213.143851  L 369.6 219.79201  L 374.109091 225.96957  L 378.618182 231.577134  L 383.127273 236.524472  L 387.636364 240.731981  L 392.145455 244.131961  L 396.654545 246.669703  L 401.163636 248.304376  L 405.672727 249.009676  L 410.181818 248.774256  L 414.690909 247.601902  L 419.2 245.511479  L 423.709091 242.536622  L 428.218182 238.725198  L 432.727273 234.138534  L 437.236364 228.850432  L 441.745455 222.945979  L 446.254545 216.520179  L 450.763636 209.676426  L 455.272727 202.524839  L 459.781818 195.18049  L 464.290909 187.761552  L 468.8 180.387397  L 473.309091 173.17668  L 477.818182 166.245424  L 482.327273 159.705154  L 486.836364 153.661107  L 491.345455 148.210533  L 495.854545 143.441133  L 500.363636 139.429651  L 504.872727 136.240631  L 509.381818 133.925386  L 513.890909 132.521169  L 518.4 132.050576  " clip-path="url(#pf5f8a52df4)" style="fill: none; stroke: #ff7f0e; stroke-width: 2; stroke-linecap: square"/>
   </g>
   <g id="patch_3">
    <path d="M 72 256.32  L 72 34.56  " style="fill: none; stroke: #000000; stroke-width: 0.8; stroke-linejoin: miter; stroke-linecap: square"/>
   </g>
   <g id="patch_4">
    <path d="M 518.4 256.32  L 518.4 34.56  " style="fill: none; stroke: #000000; stroke-width: 0.8; stroke-linejoin: miter; stroke-linecap: square"/>
   </g>
   <g id="patch_5">
    <path d="M 72 256.32  L 518.4 256.32  " style="fill: none; stroke: #000000; stroke-width: 0.8; stroke-linejoin: miter; stroke-linecap: square"/>
   </g>
   <g id="patch_6">
    <path d="M 72 34.56  L 518.4 34.56  " style="fill: none; stroke: #000000; stroke-width: 0.8; stroke-linejoin: miter; stroke-linecap: square"/>
   </g>
   <g id="legend_1">
    <g id="patch_7">
     <path d="M 431.331816 83.334995  L 510 83.334995  Q 512.4 83.334995 512.4 80.934995  L 512.4 42.96  Q 512.4 40.56 510 40.56  L 431.331816 40.56  Q 428.931816 40.56 428.931816 42.96  L 428.931816 80.934995  Q 428.931816 83.334995 431.331816 83.334995  z " style="fill: #ffffff; opacity: 0.8; stroke: #cccccc; stroke-linejoin: miter"/>
    </g>
    <g id="line2d_15">
     <path d="M 433.731816 52.484173  L 445.731816 52.484173  L 457.731816 52.484173  " style="fill: none; stroke: #1f77b4; stroke-width: 2; stroke-linecap: square"/>
    </g>
    <g id="text_14">
     <!-- $\langle \hat{H} \rangle$ -->
     <g transform="translate(467.331816 56.684173) scale(0.12 -0.12)">
      <defs>
       <path id="CMSY10-68" d="M 2099 4557  C 2131 4627 2131 4640 2131 4672  C 2131 4742 2074 4800 2003 4800  C 1946 4800 1901 4768 1856 4653  L 736 1715  C 723 1677 704 1638 704 1600  C 704 1581 704 1568 736 1491  L 1856 -1446  C 1882 -1517 1914 -1600 2003 -1600  C 2074 -1600 2131 -1542 2131 -1472  C 2131 -1453 2131 -1440 2099 -1370  L 966 1600  L 2099 4557  z " transform="scale(0.015625)"/>
       <path id="CMR17-5e" d="M 1466 4421  L 678 3555  L 755 3478  L 1466 4166  L 2176 3478  L 2253 3555  L 1466 4421  z " transform="scale(0.015625)"/>
       <path id="CMMI12-48" d="M 4787 3887  C 4845 4103 4858 4167 5312 4167  C 5427 4167 5491 4167 5491 4282  C 5491 4352 5434 4352 5395 4352  C 5280 4352 5146 4352 5024 4352  L 4269 4352  C 4147 4352 4013 4352 3891 4352  C 3846 4352 3770 4352 3770 4231  C 3770 4167 3814 4167 3936 4167  C 4320 4167 4320 4116 4320 4046  C 4320 4034 4320 3995 4294 3900  L 3904 2361  L 1971 2361  L 2355 3887  C 2413 4103 2426 4167 2880 4167  C 2995 4167 3059 4167 3059 4282  C 3059 4352 3002 4352 2963 4352  C 2848 4352 2714 4352 2592 4352  L 1837 4352  C 1715 4352 1581 4352 1459 4352  C 1414 4352 1338 4352 1338 4231  C 1338 4167 1382 4167 1504 4167  C 1888 4167 1888 4116 1888 4046  C 1888 4034 1888 3995 1862 3899  L 998 472  C 941 249 928 185 486 185  C 339 185 294 185 294 64  C 294 0 365 0 384 0  C 499 0 634 0 755 0  L 1510 0  C 1632 0 1766 0 1888 0  C 1939 0 2010 0 2010 121  C 2010 185 1952 185 1856 185  C 1466 185 1466 236 1466 300  C 1466 307 1466 351 1478 402  L 1920 2176  L 3859 2176  C 3750 1753 3424 416 3411 376  C 3341 185 3238 185 2861 185  C 2784 185 2726 185 2726 64  C 2726 0 2797 0 2816 0  C 2931 0 3066 0 3187 0  L 3942 0  C 4064 0 4198 0 4320 0  C 4371 0 4442 0 4442 121  C 4442 185 4384 185 4288 185  C 3898 185 3898 236 3898 300  C 3898 307 3898 351 3910 402  L 4787 3887  z " transform="scale(0.015625)"/>
       <path id="CMSY10-69" d="M 1747 1491  C 1779 1568 1779 1581 1779 1600  C 1779 1619 1779 1632 1747 1709  L 627 4653  C 589 4762 550 4800 480 4800  C 410 4800 352 4742 352 4672  C 352 4653 352 4640 384 4570  L 1517 1600  L 384 -1357  C 352 -1427 352 -1440 352 -1472  C 352 -1542 410 -1600 480 -1600  C 563 -1600 589 -1536 614 -1472  L 1747 1491  z " transform="scale(0.015625)"/>
      </defs>
      <use xlink:href="#CMSY10-68" transform="scale(0.996264)"/>
      <use xlink:href="#CMR17-5e" transform="translate(65.578817 25.189733) scale(0.996264)"/>
      <use xlink:href="#CMMI12-48" transform="translate(38.743734 0) scale(0.996264)"/>
      <use xlink:href="#CMSY10-69" transform="translate(127.265506 0) scale(0.996264)"/>
     </g>
    </g>
    <g id="line2d_16">
     <path d="M 433.731816 71.346203  L 445.731816 71.346203  L 457.731816 71.346203  " style="fill: none; stroke: #ff7f0e; stroke-width: 2; stroke-linecap: square"/>
    </g>
    <g id="text_15">
     <!-- $\langle \hat{a} + \hat{a}^\dagger \rangle$ -->
     <g transform="translate(467.331816 75.546203) scale(0.12 -0.12)">
      <defs>
       <path id="CMMI12-61" d="M 1926 760  C 1894 651 1894 639 1805 517  C 1664 338 1382 64 1082 64  C 819 64 672 300 672 677  C 672 1028 870 1743 992 2012  C 1210 2459 1510 2689 1760 2689  C 2182 2689 2266 2165 2266 2114  C 2266 2108 2246 2024 2240 2012  L 1926 760  z M 2336 2395  C 2266 2561 2093 2816 1760 2816  C 1037 2816 256 1884 256 939  C 256 307 627 -64 1062 -64  C 1414 -64 1715 211 1894 422  C 1958 45 2259 -64 2451 -64  C 2643 -64 2797 51 2912 281  C 3014 498 3104 888 3104 913  C 3104 945 3078 971 3040 971  C 2982 971 2976 939 2950 843  C 2854 466 2733 64 2470 64  C 2285 64 2272 230 2272 358  C 2272 505 2291 575 2349 824  C 2394 984 2426 1124 2477 1309  C 2714 2267 2771 2497 2771 2535  C 2771 2625 2701 2695 2605 2695  C 2400 2695 2349 2472 2336 2395  z " transform="scale(0.015625)"/>
       <path id="CMR17-2b" d="M 2413 1472  L 4109 1472  C 4198 1472 4307 1472 4307 1580  C 4307 1695 4205 1695 4109 1695  L 2413 1695  L 2413 3386  C 2413 3475 2413 3584 2304 3584  C 2189 3584 2189 3482 2189 3386  L 2189 1695  L 493 1695  C 403 1695 294 1695 294 1587  C 294 1472 397 1472 493 1472  L 2189 1472  L 2189 -218  C 2189 -307 2189 -416 2298 -416  C 2413 -416 2413 -314 2413 -218  L 2413 1472  z " transform="scale(0.015625)"/>
       <path id="CMSY10-79" d="M 1485 2720  C 1574 2707 1632 2707 1779 2664  C 1914 2628 2112 2579 2246 2579  C 2451 2579 2483 2732 2483 2790  C 2483 2880 2432 3008 2246 3008  C 2195 3008 2074 2995 1869 2936  C 1645 2877 1581 2870 1485 2857  C 1485 2966 1491 3139 1555 3522  C 1587 3758 1632 4046 1632 4275  C 1632 4333 1632 4544 1421 4544  C 1203 4544 1203 4339 1203 4275  C 1203 4052 1261 3663 1286 3490  C 1344 3113 1350 2979 1350 2857  C 1261 2870 1203 2870 1056 2916  C 922 2955 723 3008 589 3008  C 384 3008 352 2854 352 2796  C 352 2707 403 2579 589 2579  C 640 2579 762 2591 966 2646  C 1190 2702 1254 2708 1350 2720  C 1344 2586 1338 2515 1274 2181  C 1203 1809 1203 1732 1203 1425  C 1203 412 1280 -672 1331 -1229  C 1338 -1319 1344 -1357 1414 -1357  C 1491 -1357 1491 -1325 1504 -1242  C 1536 -947 1562 -563 1574 -255  C 1581 -139 1632 720 1632 1425  C 1632 1739 1632 1809 1562 2175  C 1498 2509 1491 2592 1485 2720  z " transform="scale(0.015625)"/>
      </defs>
      <use xlink:href="#CMSY10-68" transform="scale(0.996264)"/>
      <use xlink:href="#CMR17-5e" transform="translate(41.502432 0.006461) scale(0.996264)"/>
      <use xlink:href="#CMMI12-61" transform="translate(38.743734 0) scale(0.996264)"/>
      <use xlink:href="#CMR17-2b" transform="translate(112.090798 0) scale(0.996264)"/>
      <use xlink:href="#CMR17-5e" transform="translate(208.703492 0.006461) scale(0.996264)"/>
      <use xlink:href="#CMMI12-61" transform="translate(205.944794 0) scale(0.996264)"/>
      <use xlink:href="#CMSY10-79" transform="translate(257.152651 36.153639) scale(0.697382)"/>
      <use xlink:href="#CMSY10-69" transform="translate(288.645606 0) scale(0.996264)"/>
     </g>
    </g>
   </g>
  </g>
 </g>
 <defs>
  <clipPath id="pf5f8a52df4">
   <rect x="72" y="34.56" width="446.4" height="221.76"/>
  </clipPath>
 </defs>
</svg>