<svg xmlns:xlink="http://www.w3.org/1999/xlink" xmlns="http://www.w3.org/2000/svg" width="576pt" height="288pt" viewBox="0 0 576 288" version="1.1">
 <metadata>
  <rdf:RDF xmlns:dc="http://purl.org/dc/elements/1.1/" xmlns:cc="http://creativecommons.org/ns#" xmlns:rdf="http://www.w3.org/1999/02/22-rdf-syntax-ns#">
   <cc:Work>
    <dc:type rdf:resource="http://purl.org/dc/dcmitype/StillImage"/>
    <dc:date>2025-06-06T08:51:13.574032</dc:date>
    <dc:format>image/svg+xml</dc:format>
    <dc:creator>
     <cc:Agent>
      <dc:title>Matplotlib v3.10.3, https://matplotlib.org/</dc:title>
     </cc:Agent>
    </dc:creator>
   </cc:Work>
  </rdf:RDF>
 </metadata>
 <defs>
  <style type="text/css">*{stroke-linejoin: round; stroke-linecap: butt}</style>
 </defs>
 <g id="figure_1">
  <g id="patch_1">
   <path d="M 0 288  L 576 288  L 576 0  L 0 0  z " style="fill: #ffffff"/>
  </g>
  <g id="axes_1">
   <g id="patch_2">
    <path d="M 72 256.32  L 518.4 256.32  L 518.4 34.56  L 72 34.56  z " style="fill: #ffffff"/>
   </g>
   <g id="matplotlib.axis_1">
    <g id="xtick_1">
     <g id="line2d_1">
      <defs>
       <path id="m22a609a9e1" d="M 0 0  L 0 3.5  " style="stroke: #000000; stroke-width: 0.8"/>
      </defs>
      <g>
       <use xlink:href="#m22a609a9e1" x="81.584395" y="256.32" style="stroke: #000000; stroke-width: 0.8"/>
      </g>
     </g>
     <g id="text_1">
      <!-- $\mathdefault{−20}$ -->
      <g transform="translate(71.08216 271.62218) scale(0.12 -0.12)">
       <defs>
        <path id="CMSY10-0" d="M 4218 1472  C 4326 1472 4442 1472 4442 1600  C 4442 1728 4326 1728 4218 1728  L 755 1728  C 646 1728 531 1728 531 1600  C 531 1472 646 1472 755 1472  L 4218 1472  z " transform="scale(0.015625)"/>
        <path id="CMR17-32" d="M 2669 989  L 2554 989  C 2490 536 2438 459 2413 420  C 2381 369 1920 369 1830 369  L 602 369  C 832 619 1280 1072 1824 1597  C 2214 1967 2669 2402 2669 3035  C 2669 3790 2067 4224 1395 4224  C 691 4224 262 3604 262 3030  C 262 2780 448 2748 525 2748  C 589 2748 781 2787 781 3010  C 781 3207 614 3264 525 3264  C 486 3264 448 3258 422 3245  C 544 3790 915 4058 1306 4058  C 1862 4058 2227 3617 2227 3035  C 2227 2479 1901 2000 1536 1584  L 262 146  L 262 0  L 2515 0  L 2669 989  z " transform="scale(0.015625)"/>
        <path id="CMR17-30" d="M 2688 2025  C 2688 2416 2682 3080 2413 3591  C 2176 4039 1798 4198 1466 4198  C 1158 4198 768 4058 525 3597  C 269 3118 243 2524 243 2025  C 243 1661 250 1106 448 619  C 723 -39 1216 -128 1466 -128  C 1760 -128 2208 -7 2470 600  C 2662 1042 2688 1559 2688 2025  z M 1466 -26  C 1056 -26 813 325 723 812  C 653 1188 653 1738 653 2096  C 653 2588 653 2997 736 3387  C 858 3929 1216 4096 1466 4096  C 1728 4096 2067 3923 2189 3400  C 2272 3036 2278 2607 2278 2096  C 2278 1680 2278 1169 2202 792  C 2067 95 1690 -26 1466 -26  z " transform="scale(0.015625)"/>
       </defs>
       <use xlink:href="#CMSY10-0" transform="scale(0.996264)"/>
       <use xlink:href="#CMR17-32" transform="translate(77.487468 0) scale(0.996264)"/>
       <use xlink:href="#CMR17-30" transform="translate(123.177945 0) scale(0.996264)"/>
      </g>
     </g>
    </g>
    <g id="xtick_2">
     <g id="line2d_2">
      <g>
       <use xlink:href="#m22a609a9e1" x="134.988296" y="256.32" style="stroke: #000000; stroke-width: 0.8"/>
      </g>
     </g>
     <g id="text_2">
      <!-- $\mathdefault{−15}$ -->
      <g transform="translate(124.486061 271.62218) scale(0.12 -0.12)">
       <defs>
        <path id="CMR17-31" d="M 1702 4058  C 1702 4192 1696 4192 1606 4192  C 1357 3916 979 3827 621 3827  C 602 3827 570 3827 563 3808  C 557 3795 557 3782 557 3648  C 755 3648 1088 3686 1344 3839  L 1344 461  C 1344 236 1331 160 781 160  L 589 160  L 589 0  C 896 0 1216 0 1523 0  C 1830 0 2150 0 2458 0  L 2458 160  L 2266 160  C 1715 160 1702 230 1702 458  L 1702 4058  z " transform="scale(0.015625)"/>
        <path id="CMR17-35" d="M 730 3692  C 794 3666 1056 3584 1325 3584  C 1920 3584 2246 3911 2432 4100  C 2432 4157 2432 4192 2394 4192  C 2387 4192 2374 4192 2323 4163  C 2099 4058 1837 3973 1517 3973  C 1325 3973 1037 3999 723 4139  C 653 4171 640 4171 634 4171  C 602 4171 595 4164 595 4037  L 595 2203  C 595 2089 595 2057 659 2057  C 691 2057 704 2070 736 2114  C 941 2401 1222 2522 1542 2522  C 1766 2522 2246 2382 2246 1289  C 2246 1085 2246 715 2054 421  C 1894 159 1645 25 1370 25  C 947 25 518 320 403 814  C 429 807 480 795 506 795  C 589 795 749 840 749 1038  C 749 1210 627 1280 506 1280  C 358 1280 262 1190 262 1011  C 262 454 704 -128 1382 -128  C 2042 -128 2669 440 2669 1264  C 2669 2030 2170 2624 1549 2624  C 1222 2624 947 2503 730 2274  L 730 3692  z " transform="scale(0.015625)"/>
       </defs>
       <use xlink:href="#CMSY10-0" transform="scale(0.996264)"/>
       <use xlink:href="#CMR17-31" transform="translate(77.487468 0) scale(0.996264)"/>
       <use xlink:href="#CMR17-35" transform="translate(123.177945 0) scale(0.996264)"/>
      </g>
     </g>
    </g>
    <g id="xtick_3">
     <g id="line2d_3">
      <g>
       <use xlink:href="#m22a609a9e1" x="188.392197" y="256.32" style="stroke: #000000; stroke-width: 0.8"/>
      </g>
     </g>
     <g id="text_3">
      <!-- $\mathdefault{−10}$ -->
      <g transform="translate(177.889962 271.62218) scale(0.12 -0.12)">
       <use xlink:href="#CMSY10-0" transform="scale(0.996264)"/>
       <use xlink:href="#CMR17-31" transform="translate(77.487468 0) scale(0.996264)"/>
       <use xlink:href="#CMR17-30" transform="translate(123.177945 0) scale(0.996264)"/>
      </g>
     </g>
    </g>
    <g id="xtick_4">
     <g id="line2d_4">
      <g>
       <use xlink:href="#m22a609a9e1" x="241.796099" y="256.32" style="stroke: #000000; stroke-width: 0.8"/>
      </g>
     </g>
     <g id="text_4">
      <!-- $\mathdefault{−5}$ -->
      <g transform="translate(234.220359 271.62218) scale(0.12 -0.12)">
       <use xlink:href="#CMSY10-0" transform="scale(0.996264)"/>
       <use xlink:href="#CMR17-35" transform="translate(77.487468 0) scale(0.996264)"/>
      </g>
     </g>
    </g>
    <g id="xtick_5">
     <g id="line2d_5">
      <g>
       <use xlink:href="#m22a609a9e1" x="295.2" y="256.32" style="stroke: #000000; stroke-width: 0.8"/>
      </g>
     </g>
     <g id="text_5">
      <!-- $\mathdefault{0}$ -->
      <g transform="translate(292.273505 271.62218) scale(0.12 -0.12)">
       <use xlink:href="#CMR17-30" transform="scale(0.996264)"/>
      </g>
     </g>
    </g>
    <g id="xtick_6">
     <g id="line2d_6">
      <g>
       <use xlink:href="#m22a609a9e1" x="348.603901" y="256.32" style="stroke: #000000; stroke-width: 0.8"/>
      </g>
     </g>
     <g id="text_6">
      <!-- $\mathdefault{5}$ -->
      <g transform="translate(345.677406 271.62218) scale(0.12 -0.12)">
       <use xlink:href="#CMR17-35" transform="scale(0.996264)"/>
      </g>
     </g>
    </g>
    <g id="xtick_7">
     <g id="line2d_7">
      <g>
       <use xlink:href="#m22a609a9e1" x="402.007803" y="256.32" style="stroke: #000000; stroke-width: 0.8"/>
      </g>
     </g>
     <g id="text_7">
      <!-- $\mathdefault{10}$ -->
      <g transform="translate(396.154812 271.62218) scale(0.12 -0.12)">
       <use xlink:href="#CMR17-31" transform="scale(0.996264)"/>
       <use xlink:href="#CMR17-30" transform="translate(45.690477 0) scale(0.996264)"/>
      </g>
     </g>
    </g>
    <g id="xtick_8">
     <g id="line2d_8">
      <g>
       <use xlink:href="#m22a609a9e1" x="455.411704" y="256.32" style="stroke: #000000; stroke-width: 0.8"/>
      </g>
     </g>
     <g id="text_8">
      <!-- $\mathdefault{15}$ -->
      <g transform="translate(449.558714 271.62218) scale(0.12 -0.12)">
       <use xlink:href="#CMR17-31" transform="scale(0.996264)"/>
       <use xlink:href="#CMR17-35" transform="translate(45.690477 0) scale(0.996264)"/>
      </g>
     </g>
    </g>
    <g id="xtick_9">
     <g id="line2d_9">
      <g>
       <use xlink:href="#m22a609a9e1" x="508.815605" y="256.32" style="stroke: #000000; stroke-width: 0.8"/>
      </g>
     </g>
     <g id="text_9">
      <!-- $\mathdefault{20}$ -->
      <g transform="translate(502.962615 271.62218) scale(0.12 -0.12)">
       <use xlink:href="#CMR17-32" transform="scale(0.996264)"/>
       <use xlink:href="#CMR17-30" transform="translate(45.690477 0) scale(0.996264)"/>
      </g>
     </g>
    </g>
    <g id="text_10">
     <!-- $x$ -->
     <g transform="translate(291.873956 286.248955) scale(0.12 -0.12)">
      <defs>
       <path id="CMMI12-78" d="M 3034 2606  C 2829 2567 2752 2414 2752 2293  C 2752 2139 2874 2088 2963 2088  C 3155 2088 3290 2254 3290 2427  C 3290 2695 2982 2816 2714 2816  C 2323 2816 2106 2433 2048 2312  C 1901 2816 1504 2816 1389 2816  C 736 2816 390 1980 390 1839  C 390 1814 416 1782 461 1782  C 512 1782 525 1820 538 1846  C 755 2555 1184 2689 1370 2689  C 1658 2689 1715 2420 1715 2267  C 1715 2127 1677 1980 1600 1673  L 1382 798  C 1286 415 1101 64 762 64  C 730 64 570 64 435 147  C 666 192 717 383 717 460  C 717 588 621 664 499 664  C 346 664 179 530 179 326  C 179 57 480 -64 755 -64  C 1062 -64 1280 179 1414 441  C 1517 64 1837 -64 2074 -64  C 2726 -64 3072 773 3072 913  C 3072 945 3046 971 3008 971  C 2950 971 2944 939 2925 888  C 2752 326 2381 64 2093 64  C 1869 64 1747 230 1747 492  C 1747 632 1773 734 1875 1156  L 2099 2024  C 2195 2408 2413 2689 2707 2689  C 2720 2689 2899 2689 3034 2606  z " transform="scale(0.015625)"/>
      </defs>
      <use xlink:href="#CMMI12-78" transform="scale(0.996264)"/>
     </g>
    </g>
   </g>
   <g id="matplotlib.axis_2">
    <g id="ytick_1">
     <g id="line2d_10">
      <defs>
       <path id="mbc626996f2" d="M 0 0  L -3.5 0  " style="stroke: #000000; stroke-width: 0.8"/>
      </defs>
      <g>
       <use xlink:href="#mbc626996f2" x="72" y="256.32" style="stroke: #000000; stroke-width: 0.8"/>
      </g>
     </g>
     <g id="text_11">
      <!-- $\mathdefault{0}$ -->
      <g transform="translate(59.14701 260.47109) scale(0.12 -0.12)">
       <use xlink:href="#CMR17-30" transform="scale(0.996264)"/>
      </g>
     </g>
    </g>
    <g id="ytick_2">
     <g id="line2d_11">
      <g>
       <use xlink:href="#mbc626996f2" x="72" y="219.36" style="stroke: #000000; stroke-width: 0.8"/>
      </g>
     </g>
     <g id="text_12">
      <!-- $\mathdefault{20}$ -->
      <g transform="translate(53.294019 223.51109) scale(0.12 -0.12)">
       <use xlink:href="#CMR17-32" transform="scale(0.996264)"/>
       <use xlink:href="#CMR17-30" transform="translate(45.690477 0) scale(0.996264)"/>
      </g>
     </g>
    </g>
    <g id="ytick_3">
     <g id="line2d_12">
      <g>
       <use xlink:href="#mbc626996f2" x="72" y="182.4" style="stroke: #000000; stroke-width: 0.8"/>
      </g>
     </g>
     <g id="text_13">
      <!-- $\mathdefault{40}$ -->
      <g transform="translate(53.294019 186.55109) scale(0.12 -0.12)">
       <defs>
        <path id="CMR17-34" d="M 2150 4122  C 2150 4256 2144 4256 2029 4256  L 128 1254  L 128 1088  L 1779 1088  L 1779 457  C 1779 224 1766 160 1318 160  L 1197 160  L 1197 0  C 1402 0 1747 0 1965 0  C 2182 0 2528 0 2733 0  L 2733 160  L 2611 160  C 2163 160 2150 224 2150 457  L 2150 1088  L 2803 1088  L 2803 1254  L 2150 1254  L 2150 4122  z M 1798 3703  L 1798 1254  L 256 1254  L 1798 3703  z " transform="scale(0.015625)"/>
       </defs>
       <use xlink:href="#CMR17-34" transform="scale(0.996264)"/>
       <use xlink:href="#CMR17-30" transform="translate(45.690477 0) scale(0.996264)"/>
      </g>
     </g>
    </g>
    <g id="ytick_4">
     <g id="line2d_13">
      <g>
       <use xlink:href="#mbc626996f2" x="72" y="145.44" style="stroke: #000000; stroke-width: 0.8"/>
      </g>
     </g>
     <g id="text_14">
      <!-- $\mathdefault{60}$ -->
      <g transform="translate(53.294019 149.59109) scale(0.12 -0.12)">
       <defs>
        <path id="CMR17-36" d="M 678 2176  C 678 3690 1395 4032 1811 4032  C 1946 4032 2272 4009 2400 3776  C 2298 3776 2106 3776 2106 3553  C 2106 3381 2246 3323 2336 3323  C 2394 3323 2566 3348 2566 3560  C 2566 3954 2246 4179 1805 4179  C 1043 4179 243 3390 243 1984  C 243 253 966 -128 1478 -128  C 2099 -128 2688 427 2688 1283  C 2688 2081 2170 2662 1517 2662  C 1126 2662 838 2407 678 1960  L 678 2176  z M 1478 25  C 691 25 691 1200 691 1436  C 691 1896 909 2560 1504 2560  C 1613 2560 1926 2560 2138 2120  C 2253 1870 2253 1609 2253 1289  C 2253 944 2253 690 2118 434  C 1978 171 1773 25 1478 25  z " transform="scale(0.015625)"/>
       </defs>
       <use xlink:href="#CMR17-36" transform="scale(0.996264)"/>
       <use xlink:href="#CMR17-30" transform="translate(45.690477 0) scale(0.996264)"/>
      </g>
     </g>
    </g>
    <g id="ytick_5">
     <g id="line2d_14">
      <g>
       <use xlink:href="#mbc626996f2" x="72" y="108.48" style="stroke: #000000; stroke-width: 0.8"/>
      </g>
     </g>
     <g id="text_15">
      <!-- $\mathdefault{80}$ -->
      <g transform="translate(53.294019 112.63109) scale(0.12 -0.12)">
       <defs>
        <path id="CMR17-38" d="M 1741 2264  C 2144 2467 2554 2773 2554 3263  C 2554 3841 1990 4179 1472 4179  C 890 4179 378 3759 378 3180  C 378 3021 416 2747 666 2505  C 730 2442 998 2251 1171 2130  C 883 1983 211 1634 211 934  C 211 279 838 -128 1459 -128  C 2144 -128 2720 362 2720 1010  C 2720 1590 2330 1857 2074 2029  L 1741 2264  z M 902 2822  C 851 2854 595 3051 595 3351  C 595 3739 998 4032 1459 4032  C 1965 4032 2336 3676 2336 3262  C 2336 2669 1670 2331 1638 2331  C 1632 2331 1626 2331 1574 2370  L 902 2822  z M 2080 1519  C 2176 1449 2483 1240 2483 851  C 2483 381 2010 25 1472 25  C 890 25 448 438 448 940  C 448 1443 838 1862 1280 2060  L 2080 1519  z " transform="scale(0.015625)"/>
       </defs>
       <use xlink:href="#CMR17-38" transform="scale(0.996264)"/>
       <use xlink:href="#CMR17-30" transform="translate(45.690477 0) scale(0.996264)"/>
      </g>
     </g>
    </g>
    <g id="ytick_6">
     <g id="line2d_15">
      <g>
       <use xlink:href="#mbc626996f2" x="72" y="71.52" style="stroke: #000000; stroke-width: 0.8"/>
      </g>
     </g>
     <g id="text_16">
      <!-- $\mathdefault{100}$ -->
      <g transform="translate(47.441029 75.67109) scale(0.12 -0.12)">
       <use xlink:href="#CMR17-31" transform="scale(0.996264)"/>
       <use xlink:href="#CMR17-30" transform="translate(45.690477 0) scale(0.996264)"/>
       <use xlink:href="#CMR17-30" transform="translate(91.380954 0) scale(0.996264)"/>
      </g>
     </g>
    </g>
    <g id="ytick_7">
     <g id="line2d_16">
      <g>
       <use xlink:href="#mbc626996f2" x="72" y="34.56" style="stroke: #000000; stroke-width: 0.8"/>
      </g>
     </g>
     <g id="text_17">
      <!-- $\mathdefault{120}$ -->
      <g transform="translate(47.441029 38.71109) scale(0.12 -0.12)">
       <use xlink:href="#CMR17-31" transform="scale(0.996264)"/>
       <use xlink:href="#CMR17-32" transform="translate(45.690477 0) scale(0.996264)"/>
       <use xlink:href="#CMR17-30" transform="translate(91.380954 0) scale(0.996264)"/>
      </g>
     </g>
    </g>
   </g>
   <g id="line2d_17">
    <path d="M 72 256.32  L 80.523924 256.32  L 87.551152 256.32  L 93.79943 256.32  L 99.542876 256.32  L 104.92271 256.32  L 110.023616 256.32  L 114.901371 256.32  L 119.595152 256.32  L 124.133797 256.32  L 128.539309 256.32  L 132.828958 256.32  L 137.016616 256.32  L 141.113636 256.32  L 145.129462 256.32  L 149.072061 256.32  L 152.948229 256.32  L 156.763828 256.32  L 160.523959 256.32  L 164.233098 256.32  L 167.895201 256.32  L 171.513789 256.32  L 175.092013 256.32  L 178.63271 256.32  L 182.138447 256.32  L 185.611559 256.32  L 189.054174 256.32  L 192.468249 256.32  L 195.855579 256.32  L 199.217827 256.32  L 202.556533 256.32  L 205.873127 256.32  L 209.168946 256.32  L 212.44524 256.32  L 215.703181 256.32  L 218.943874 256.32  L 222.168359 256.32  L 225.377621 256.32  L 228.572594 256.32  L 231.754167 256.32  L 234.923186 256.32  L 238.08046 256.32  L 241.226762 256.32  L 244.362836 256.32  L 247.489397 256.32  L 250.607133 256.32  L 253.716711 256.32  L 256.818776 256.32  L 259.913954 256.32  L 263.002854 256.32  L 266.086069 256.32  L 269.16418 256.32  L 272.237756 256.32  L 275.307353 256.32  L 278.373519 256.32  L 281.436797 256.32  L 284.497719 256.32  L 287.556815 256.32  L 290.614609 256.32  L 293.671623 256.319999  L 296.728377 256.319995  L 299.785391 256.319973  L 302.843185 256.319872  L 305.902281 256.319443  L 308.963203 256.317761  L 312.026481 256.311694  L 315.092647 256.291584  L 318.162244 256.230346  L 321.23582 256.059169  L 324.313931 255.620367  L 327.397146 254.590142  L 330.486046 252.378469  L 333.581224 248.046424  L 336.683289 240.327092  L 339.792867 227.86413  L 342.910603 209.739724  L 346.037164 186.21267  L 349.173238 159.365052  L 352.31954 133.207329  L 355.476814 112.900542  L 358.645833 103.177545  L 361.827406 106.580591  L 365.022379 122.395813  L 368.231641 146.886687  L 371.456126 174.728375  L 374.696819 200.891375  L 377.95476 222.063174  L 381.231054 237.090983  L 384.526873 246.534754  L 387.843467 251.814654  L 391.182173 254.447224  L 394.544421 255.618837  L 397.931751 256.084165  L 401.345826 256.248939  L 404.788441 256.300878  L 408.261553 256.31542  L 411.76729 256.319027  L 415.307987 256.319818  L 418.886211 256.31997  L 422.504799 256.319996  L 426.166902 256.319999  L 429.876041 256.32  L 433.636172 256.32  L 437.451771 256.32  L 441.327939 256.32  L 445.270538 256.32  L 449.286364 256.32  L 453.383384 256.32  L 457.571042 256.32  L 461.860691 256.32  L 466.266203 256.32  L 470.804848 256.32  L 475.498629 256.32  L 480.376384 256.32  L 485.47729 256.32  L 490.857124 256.32  L 496.60057 256.32  L 502.848848 256.32  L 509.876076 256.32  L 518.4 256.32  " clip-path="url(#paecd03acf0)" style="fill: none; stroke: #1f77b4; stroke-width: 2; stroke-linecap: square"/>
   </g>
   <g id="line2d_18">
    <path d="M 72 256.32  L 80.523924 256.32  L 87.551152 256.32  L 93.79943 256.32  L 99.542876 256.32  L 104.92271 256.32  L 110.023616 256.32  L 114.901371 256.32  L 119.595152 256.32  L 124.133797 256.32  L 128.539309 256.32  L 132.828958 256.32  L 137.016616 256.32  L 141.113636 256.32  L 145.129462 256.32  L 149.072061 256.32  L 152.948229 256.32  L 156.763828 256.32  L 160.523959 256.32  L 164.233098 256.319999  L 167.895201 256.319996  L 171.513789 256.31997  L 175.092013 256.319821  L 178.63271 256.319042  L 182.138447 256.315483  L 185.611559 256.301125  L 189.054174 256.249787  L 192.468249 256.086745  L 195.855579 255.625836  L 199.217827 254.464127  L 202.556533 251.851044  L 205.873127 246.604603  L 209.168946 237.210316  L 212.44524 222.244043  L 215.703181 201.132988  L 218.943874 175.009366  L 222.168359 147.163831  L 225.377621 122.613552  L 228.572594 106.688738  L 231.754167 103.150347  L 234.923186 112.746357  L 238.08046 132.964894  L 241.226762 159.08759  L 244.362836 185.94968  L 247.489397 209.523598  L 250.607133 227.706898  L 253.716711 240.224559  L 256.818776 247.986082  L 259.913954 252.346238  L 263.002854 254.574477  L 266.086069 255.613413  L 269.16418 256.056348  L 272.237756 256.229297  L 275.307353 256.291227  L 278.373519 256.311582  L 281.436797 256.317729  L 284.497719 256.319435  L 287.556815 256.31987  L 290.614609 256.319973  L 293.671623 256.319995  L 296.728377 256.319999  L 299.785391 256.32  L 302.843185 256.32  L 305.902281 256.32  L 308.963203 256.32  L 312.026481 256.32  L 315.092647 256.32  L 318.162244 256.32  L 321.23582 256.32  L 324.313931 256.32  L 327.397146 256.32  L 330.486046 256.32  L 333.581224 256.32  L 336.683289 256.32  L 339.792867 256.32  L 342.910603 256.32  L 346.037164 256.32  L 349.173238 256.32  L 352.31954 256.32  L 355.476814 256.32  L 358.645833 256.32  L 361.827406 256.32  L 365.022379 256.32  L 368.231641 256.32  L 371.456126 256.32  L 374.696819 256.32  L 377.95476 256.32  L 381.231054 256.32  L 384.526873 256.32  L 387.843467 256.32  L 391.182173 256.32  L 394.544421 256.32  L 397.931751 256.32  L 401.345826 256.32  L 404.788441 256.32  L 408.261553 256.32  L 411.76729 256.32  L 415.307987 256.32  L 418.886211 256.32  L 422.504799 256.32  L 426.166902 256.32  L 429.876041 256.32  L 433.636172 256.32  L 437.451771 256.32  L 441.327939 256.32  L 445.270538 256.32  L 449.286364 256.32  L 453.383384 256.32  L 457.571042 256.32  L 461.860691 256.32  L 466.266203 256.32  L 470.804848 256.32  L 475.498629 256.32  L 480.376384 256.32  L 485.47729 256.32  L 490.857124 256.32  L 496.60057 256.32  L 502.848848 256.32  L 509.876076 256.32  L 518.4 256.32  " clip-path="url(#paecd03acf0)" style="fill: none; stroke-dasharray: 7.4,3.2; stroke-dashoffset: 0; stroke: #ff7f0e; stroke-width: 2"/>
   </g>
   <g id="line2d_19">
    <path d="M 72 256.32  L 80.523924 256.32  L 87.551152 256.32  L 93.79943 256.32  L 99.542876 256.32  L 104.92271 256.32  L 110.023616 256.32  L 114.901371 256.32  L 119.595152 256.32  L 124.133797 256.32  L 128.539309 256.32  L 132.828958 256.32  L 137.016616 256.32  L 141.113636 256.32  L 145.129462 256.32  L 149.072061 256.32  L 152.948229 256.32  L 156.763828 256.32  L 160.523959 256.32  L 164.233098 256.32  L 167.895201 256.32  L 171.513789 256.32  L 175.092013 256.32  L 178.63271 256.32  L 182.138447 256.32  L 185.611559 256.32  L 189.054174 256.32  L 192.468249 256.32  L 195.855579 256.32  L 199.217827 256.32  L 202.556533 256.32  L 205.873127 256.32  L 209.168946 256.32  L 212.44524 256.32  L 215.703181 256.32  L 218.943874 256.32  L 222.168359 256.32  L 225.377621 256.32  L 228.572594 256.32  L 231.754167 256.32  L 234.923186 256.32  L 238.08046 256.32  L 241.226762 256.32  L 244.362836 256.32  L 247.489397 256.32  L 250.607133 256.32  L 253.716711 256.32  L 256.818776 256.32  L 259.913954 256.32  L 263.002854 256.32  L 266.086069 256.32  L 269.16418 256.32  L 272.237756 256.32  L 275.307353 256.32  L 278.373519 256.32  L 281.436797 256.32  L 284.497719 256.32  L 287.556815 256.32  L 290.614609 256.32  L 293.671623 256.319999  L 296.728377 256.319994  L 299.785391 256.319971  L 302.843185 256.319864  L 305.902281 256.319409  L 308.963203 256.31763  L 312.026481 256.311239  L 315.092647 256.29013  L 318.162244 256.226085  L 321.23582 256.047718  L 324.313931 255.592193  L 327.397146 254.526741  L 330.486046 252.248262  L 333.581224 247.802969  L 336.683289 239.914164  L 339.792867 227.231882  L 342.910603 208.872405  L 346.037164 185.159341  L 349.173238 158.256821  L 352.31954 132.242405  L 355.476814 112.291745  L 358.645833 103.077726  L 361.827406 107.021299  L 365.022379 123.271718  L 368.231641 147.996475  L 371.456126 175.849975  L 374.696819 201.853503  L 377.95476 222.781749  L 381.231054 237.564083  L 384.526873 246.811096  L 387.843467 251.958327  L 391.182173 254.513806  L 394.544421 255.646346  L 397.931751 256.094289  L 401.345826 256.252254  L 404.788441 256.301842  L 408.261553 256.315668  L 411.76729 256.319083  L 415.307987 256.319829  L 418.886211 256.319972  L 422.504799 256.319996  L 426.166902 256.319999  L 429.876041 256.32  L 433.636172 256.32  L 437.451771 256.32  L 441.327939 256.32  L 445.270538 256.32  L 449.286364 256.32  L 453.383384 256.32  L 457.571042 256.32  L 461.860691 256.32  L 466.266203 256.32  L 470.804848 256.32  L 475.498629 256.32  L 480.376384 256.32  L 485.47729 256.32  L 490.857124 256.32  L 496.60057 256.32  L 502.848848 256.32  L 509.876076 256.32  L 518.4 256.32  " clip-path="url(#paecd03acf0)" style="fill: none; stroke-dasharray: 12.8,3.2,2,3.2; stroke-dashoffset: 0; stroke: #2ca02c; stroke-width: 2"/>
   </g>
   <g id="line2d_20">
    <path d="M 72 54.564959  L 80.523924 69.680607  L 87.551152 81.699564  L 93.79943 92.050321  L 99.542876 101.285859  L 104.92271 109.694357  L 110.023616 117.45039  L 114.901371 124.67  L 119.595152 131.435362  L 124.133797 137.807421  L 128.539309 143.83299  L 132.828958 149.549035  L 137.016616 154.985404  L 141.113636 160.166647  L 145.129462 165.113269  L 149.072061 169.842618  L 152.948229 174.369544  L 156.763828 178.706874  L 160.523959 182.86579  L 164.233098 186.856106  L 167.895201 190.6865  L 171.513789 194.364683  L 175.092013 197.897546  L 178.63271 201.29128  L 182.138447 204.551461  L 185.611559 207.683141  L 189.054174 210.690905  L 192.468249 213.578929  L 195.855579 216.351028  L 199.217827 219.010694  L 202.556533 221.561133  L 205.873127 224.005289  L 209.168946 226.345876  L 212.44524 228.585395  L 215.703181 230.726156  L 218.943874 232.770294  L 222.168359 234.719782  L 225.377621 236.576447  L 228.572594 238.341982  L 231.754167 240.01795  L 234.923186 241.605802  L 238.08046 243.106879  L 241.226762 244.522419  L 244.362836 245.853568  L 247.489397 247.101382  L 250.607133 248.266831  L 253.716711 249.350809  L 256.818776 250.354132  L 259.913954 251.277545  L 263.002854 252.121726  L 266.086069 252.887285  L 269.16418 253.574771  L 272.237756 254.184672  L 275.307353 254.717415  L 278.373519 255.173372  L 281.436797 255.552859  L 284.497719 255.856138  L 287.556815 256.083416  L 290.614609 256.234849  L 293.671623 256.31054  L 296.728377 256.31054  L 299.785391 256.234849  L 302.843185 256.083416  L 305.902281 255.856138  L 308.963203 255.552859  L 312.026481 255.173372  L 315.092647 254.717415  L 318.162244 254.184672  L 321.23582 253.574771  L 324.313931 252.887285  L 327.397146 252.121726  L 330.486046 251.277545  L 333.581224 250.354132  L 336.683289 249.350809  L 339.792867 248.266831  L 342.910603 247.101382  L 346.037164 245.853568  L 349.173238 244.522419  L 352.31954 243.106879  L 355.476814 241.605802  L 358.645833 240.01795  L 361.827406 238.341982  L 365.022379 236.576447  L 368.231641 234.719782  L 371.456126 232.770294  L 374.696819 230.726156  L 377.95476 228.585395  L 381.231054 226.345876  L 384.526873 224.005289  L 387.843467 221.561133  L 391.182173 219.010694  L 394.544421 216.351028  L 397.931751 213.578929  L 401.345826 210.690905  L 404.788441 207.683141  L 408.261553 204.551461  L 411.76729 201.29128  L 415.307987 197.897546  L 418.886211 194.364683  L 422.504799 190.6865  L 426.166902 186.856106  L 429.876041 182.86579  L 433.636172 178.706874  L 437.451771 174.369544  L 441.327939 169.842618  L 445.270538 165.113269  L 449.286364 160.166647  L 453.383384 154.985404  L 457.571042 149.549035  L 461.860691 143.83299  L 466.266203 137.807421  L 470.804848 131.435362  L 475.498629 124.67  L 480.376384 117.45039  L 485.47729 109.694357  L 490.857124 101.285859  L 496.60057 92.050321  L 502.848848 81.699564  L 509.876076 69.680607  L 518.4 54.564959  " clip-path="url(#paecd03acf0)" style="fill: none; stroke-dasharray: 5.55,2.4; stroke-dashoffset: 0; stroke: #000000; stroke-width: 1.5"/>
   </g>
   <g id="patch_3">
    <path d="M 72 256.32  L 72 34.56  " style="fill: none; stroke: #000000; stroke-width: 0.8; stroke-linejoin: miter; stroke-linecap: square"/>
   </g>
   <g id="patch_4">
    <path d="M 518.4 256.32  L 518.4 34.56  " style="fill: none; stroke: #000000; stroke-width: 0.8; stroke-linejoin: miter; stroke-linecap: square"/>
   </g>
   <g id="patch_5">
    <path d="M 72 256.32  L 518.4 256.32  " style="fill: none; stroke: #000000; stroke-width: 0.8; stroke-linejoin: miter; stroke-linecap: square"/>
   </g>
   <g id="patch_6">
    <path d="M 72 34.56  L 518.4 34.56  " style="fill: none; stroke: #000000; stroke-width: 0.8; stroke-linejoin: miter; stroke-linecap: square"/>
   </g>
   <g id="legend_1">
    <g id="patch_7">
     <path d="M 238.149006 99.550593  L 352.250994 99.550593  Q 354.650994 99.550593 354.650994 97.150593  L 354.650994 42.96  Q 354.650994 40.56 352.250994 40.56  L 238.149006 40.56  Q 235.749006 40.56 235.749006 42.96  L 235.749006 97.150593  Q 235.749006 99.550593 238.149006 99.550593  z " style="fill: #ffffff; opacity: 0.8; stroke: #cccccc; stroke-linejoin: miter"/>
    </g>
    <g id="line2d_21">
     <path d="M 240.549006 50.634739  L 252.549006 50.634739  L 264.549006 50.634739  " style="fill: none; stroke: #1f77b4; stroke-width: 2; stroke-linecap: square"/>
    </g>
    <g id="text_18">
     <!-- $\vert \langle \psi (t_0) \vert \psi (t_0) \rangle \vert^2$ -->
     <g transform="translate(274.149006 54.834739) scale(0.12 -0.12)">
      <defs>
       <path id="CMSY10-6a" d="M 1018 4570  C 1018 4685 1018 4800 890 4800  C 762 4800 762 4685 762 4570  L 762 -1370  C 762 -1485 762 -1600 890 -1600  C 1018 -1600 1018 -1485 1018 -1370  L 1018 4570  z " transform="scale(0.015625)"/>
       <path id="CMSY10-68" d="M 2099 4557  C 2131 4627 2131 4640 2131 4672  C 2131 4742 2074 4800 2003 4800  C 1946 4800 1901 4768 1856 4653  L 736 1715  C 723 1677 704 1638 704 1600  C 704 1581 704 1568 736 1491  L 1856 -1446  C 1882 -1517 1914 -1600 2003 -1600  C 2074 -1600 2131 -1542 2131 -1472  C 2131 -1453 2131 -1440 2099 -1370  L 966 1600  L 2099 4557  z " transform="scale(0.015625)"/>
       <path id="CMMI12-20" d="M 3008 4294  C 3008 4301 3034 4384 3034 4391  C 3034 4448 2982 4448 2963 4448  C 2906 4448 2899 4416 2874 4320  L 1818 77  C 1286 141 1088 410 1088 794  C 1088 934 1088 1082 1389 1875  C 1472 2105 1504 2188 1504 2303  C 1504 2591 1299 2821 998 2821  C 410 2821 173 1894 173 1843  C 173 1817 198 1785 243 1785  C 301 1785 307 1811 333 1900  C 486 2453 742 2688 979 2688  C 1037 2688 1146 2688 1146 2483  C 1146 2457 1146 2316 1037 2035  C 691 1126 691 985 691 838  C 691 223 1203 -14 1779 -58  C 1728 -253 1683 -453 1632 -647  C 1530 -1022 1485 -1198 1485 -1223  C 1485 -1280 1536 -1280 1555 -1280  C 1568 -1280 1594 -1280 1606 -1254  C 1632 -1230 1894 -176 1920 -64  C 2157 -64 2662 -64 3238 531  C 3450 761 3642 1056 3750 1331  C 3814 1498 3968 2067 3968 2393  C 3968 2777 3776 2821 3712 2821  C 3558 2821 3418 2668 3418 2540  C 3418 2463 3462 2418 3488 2393  C 3546 2335 3718 2162 3718 1830  C 3718 1600 3590 1126 3181 666  C 2643 64 2150 64 1958 64  L 3008 4294  z " transform="scale(0.015625)"/>
       <path id="CMR17-28" d="M 1958 -1561  C 1958 -1555 1958 -1542 1939 -1523  C 1645 -1224 858 -407 858 1581  C 858 3569 1632 4379 1946 4697  C 1946 4704 1958 4717 1958 4736  C 1958 4755 1939 4768 1914 4768  C 1843 4768 1299 4296 986 3594  C 666 2887 576 2199 576 1588  C 576 1128 621 351 1005 -471  C 1312 -1135 1837 -1600 1914 -1600  C 1946 -1600 1958 -1587 1958 -1561  z " transform="scale(0.015625)"/>
       <path id="CMMI12-74" d="M 1286 2566  L 1875 2566  C 1997 2566 2061 2566 2061 2681  C 2061 2752 2022 2752 1894 2752  L 1331 2752  L 1568 3692  C 1594 3781 1594 3794 1594 3840  C 1594 3943 1510 4000 1427 4000  C 1376 4000 1229 3981 1178 3775  L 928 2752  L 326 2752  C 198 2752 141 2752 141 2630  C 141 2566 186 2566 307 2566  L 877 2566  L 454 881  C 403 658 384 594 384 511  C 384 211 595 -64 954 -64  C 1600 -64 1946 868 1946 912  C 1946 951 1920 970 1882 970  C 1869 970 1843 970 1830 944  C 1824 938 1818 931 1773 829  C 1638 511 1344 64 973 64  C 781 64 768 224 768 364  C 768 370 768 492 787 568  L 1286 2566  z " transform="scale(0.015625)"/>
       <path id="CMR17-29" d="M 1683 1581  C 1683 2040 1638 2817 1254 3639  C 947 4303 422 4768 346 4768  C 326 4768 301 4761 301 4729  C 301 4717 307 4710 314 4697  C 621 4378 1402 3568 1402 1584  C 1402 -407 627 -1217 314 -1537  C 307 -1549 301 -1556 301 -1568  C 301 -1600 326 -1600 346 -1600  C 416 -1600 960 -1128 1274 -426  C 1594 281 1683 969 1683 1581  z " transform="scale(0.015625)"/>
       <path id="CMSY10-69" d="M 1747 1491  C 1779 1568 1779 1581 1779 1600  C 1779 1619 1779 1632 1747 1709  L 627 4653  C 589 4762 550 4800 480 4800  C 410 4800 352 4742 352 4672  C 352 4653 352 4640 384 4570  L 1517 1600  L 384 -1357  C 352 -1427 352 -1440 352 -1472  C 352 -1542 410 -1600 480 -1600  C 563 -1600 589 -1536 614 -1472  L 1747 1491  z " transform="scale(0.015625)"/>
      </defs>
      <use xlink:href="#CMSY10-6a" transform="scale(0.996264)"/>
      <use xlink:href="#CMSY10-68" transform="translate(27.674085 0) scale(0.996264)"/>
      <use xlink:href="#CMMI12-20" transform="translate(66.417819 0) scale(0.996264)"/>
      <use xlink:href="#CMR17-28" transform="translate(133.411298 0) scale(0.996264)"/>
      <use xlink:href="#CMMI12-74" transform="translate(168.692066 0) scale(0.996264)"/>
      <use xlink:href="#CMR17-30" transform="translate(203.918396 -14.943915) scale(0.697382)"/>
      <use xlink:href="#CMR17-29" transform="translate(236.39971 0) scale(0.996264)"/>
      <use xlink:href="#CMSY10-6a" transform="translate(271.680478 0) scale(0.996264)"/>
      <use xlink:href="#CMMI12-20" transform="translate(299.354563 0) scale(0.996264)"/>
      <use xlink:href="#CMR17-28" transform="translate(366.348042 0) scale(0.996264)"/>
      <use xlink:href="#CMMI12-74" transform="translate(401.62881 0) scale(0.996264)"/>
      <use xlink:href="#CMR17-30" transform="translate(436.85514 -14.943915) scale(0.697382)"/>
      <use xlink:href="#CMR17-29" transform="translate(469.336454 0) scale(0.996264)"/>
      <use xlink:href="#CMSY10-69" transform="translate(504.617222 0) scale(0.996264)"/>
      <use xlink:href="#CMSY10-6a" transform="translate(543.360956 0) scale(0.996264)"/>
      <use xlink:href="#CMR17-32" transform="translate(571.035041 36.153639) scale(0.697382)"/>
     </g>
    </g>
    <g id="line2d_22">
     <path d="M 240.549006 69.09827  L 252.549006 69.09827  L 264.549006 69.09827  " style="fill: none; stroke-dasharray: 7.4,3.2; stroke-dashoffset: 0; stroke: #ff7f0e; stroke-width: 2"/>
    </g>
    <g id="text_19">
     <!-- $\vert \langle \psi (t_1) \vert \psi (t_1) \rangle \vert^2$ -->
     <g transform="translate(274.149006 73.29827) scale(0.12 -0.12)">
      <use xlink:href="#CMSY10-6a" transform="scale(0.996264)"/>
      <use xlink:href="#CMSY10-68" transform="translate(27.674085 0) scale(0.996264)"/>
      <use xlink:href="#CMMI12-20" transform="translate(66.417819 0) scale(0.996264)"/>
      <use xlink:href="#CMR17-28" transform="translate(133.411298 0) scale(0.996264)"/>
      <use xlink:href="#CMMI12-74" transform="translate(168.692066 0) scale(0.996264)"/>
      <use xlink:href="#CMR17-31" transform="translate(203.918396 -14.943915) scale(0.697382)"/>
      <use xlink:href="#CMR17-29" transform="translate(236.39971 0) scale(0.996264)"/>
      <use xlink:href="#CMSY10-6a" transform="translate(271.680478 0) scale(0.996264)"/>
      <use xlink:href="#CMMI12-20" transform="translate(299.354563 0) scale(0.996264)"/>
      <use xlink:href="#CMR17-28" transform="translate(366.348042 0) scale(0.996264)"/>
      <use xlink:href="#CMMI12-74" transform="translate(401.62881 0) scale(0.996264)"/>
      <use xlink:href="#CMR17-31" transform="translate(436.85514 -14.943915) scale(0.697382)"/>
      <use xlink:href="#CMR17-29" transform="translate(469.336454 0) scale(0.996264)"/>
      <use xlink:href="#CMSY10-69" transform="translate(504.617222 0) scale(0.996264)"/>
      <use xlink:href="#CMSY10-6a" transform="translate(543.360956 0) scale(0.996264)"/>
      <use xlink:href="#CMR17-32" transform="translate(571.035041 36.153639) scale(0.697382)"/>
     </g>
    </g>
    <g id="line2d_23">
     <path d="M 240.549006 87.561801  L 252.549006 87.561801  L 264.549006 87.561801  " style="fill: none; stroke-dasharray: 12.8,3.2,2,3.2; stroke-dashoffset: 0; stroke: #2ca02c; stroke-width: 2"/>
    </g>
    <g id="text_20">
     <!-- $\vert \langle \psi (t_2) \vert \psi (t_2) \rangle \vert^2$ -->
     <g transform="translate(274.149006 91.761801) scale(0.12 -0.12)">
      <use xlink:href="#CMSY10-6a" transform="scale(0.996264)"/>
      <use xlink:href="#CMSY10-68" transform="translate(27.674085 0) scale(0.996264)"/>
      <use xlink:href="#CMMI12-20" transform="translate(66.417819 0) scale(0.996264)"/>
      <use xlink:href="#CMR17-28" transform="translate(133.411298 0) scale(0.996264)"/>
      <use xlink:href="#CMMI12-74" transform="translate(168.692066 0) scale(0.996264)"/>
      <use xlink:href="#CMR17-32" transform="translate(203.918396 -14.943915) scale(0.697382)"/>
      <use xlink:href="#CMR17-29" transform="translate(236.39971 0) scale(0.996264)"/>
      <use xlink:href="#CMSY10-6a" transform="translate(271.680478 0) scale(0.996264)"/>
      <use xlink:href="#CMMI12-20" transform="translate(299.354563 0) scale(0.996264)"/>
      <use xlink:href="#CMR17-28" transform="translate(366.348042 0) scale(0.996264)"/>
      <use xlink:href="#CMMI12-74" transform="translate(401.62881 0) scale(0.996264)"/>
      <use xlink:href="#CMR17-32" transform="translate(436.85514 -14.943915) scale(0.697382)"/>
      <use xlink:href="#CMR17-29" transform="translate(469.336454 0) scale(0.996264)"/>
      <use xlink:href="#CMSY10-69" transform="translate(504.617222 0) scale(0.996264)"/>
      <use xlink:href="#CMSY10-6a" transform="translate(543.360956 0) scale(0.996264)"/>
      <use xlink:href="#CMR17-32" transform="translate(571.035041 36.153639) scale(0.697382)"/>
     </g>
    </g>
   </g>
  </g>
 </g>
 <defs>
  <clipPath id="paecd03acf0">
   <rect x="72" y="34.56" width="446.4" height="221.76"/>
  </clipPath>
 </defs>
</svg>