<svg xmlns:xlink="http://www.w3.org/1999/xlink" xmlns="http://www.w3.org/2000/svg" width="564.48pt" height="276.48pt" viewBox="0 0 564.48 276.48" version="1.1">
 <metadata>
  <rdf:RDF xmlns:dc="http://purl.org/dc/elements/1.1/" xmlns:cc="http://creativecommons.org/ns#" xmlns:rdf="http://www.w3.org/1999/02/22-rdf-syntax-ns#">
   <cc:Work>
    <dc:type rdf:resource="http://purl.org/dc/dcmitype/StillImage"/>
    <dc:date>2025-06-07T14:15:05.047068</dc:date>
    <dc:format>image/svg+xml</dc:format>
    <dc:creator>
     <cc:Agent>
      <dc:title>Matplotlib v3.10.3, https://matplotlib.org/</dc:title>
     </cc:Agent>
    </dc:creator>
   </cc:Work>
  </rdf:RDF>
 </metadata>
 <defs>
  <style type="text/css">*{stroke-linejoin: round; stroke-linecap: butt}</style>
 </defs>
 <g id="figure_1">
  <g id="patch_1">
   <path d="M 0 276.48  L 564.48 276.48  L 564.48 0  L 0 0  z " style="fill: #ffffff"/>
  </g>
  <g id="axes_1">
   <g id="patch_2">
    <path d="M 29.35148 237.026449  L 557.28 237.026449  L 557.28 7.2  L 29.35148 7.2  z " style="fill: #ffffff"/>
   </g>
   <g id="matplotlib.axis_1">
    <g id="xtick_1">
     <g id="line2d_1">
      <defs>
       <path id="m38b5997ff5" d="M 0 0  L 0 3.5  " style="stroke: #000000; stroke-width: 0.8"/>
      </defs>
      <g>
       <use xlink:href="#m38b5997ff5" x="29.35148" y="237.026449" style="stroke: #000000; stroke-width: 0.8"/>
      </g>
     </g>
     <g id="text_1">
      <!-- $\mathdefault{0}$ -->
      <g transform="translate(26.424985 252.328629) scale(0.12 -0.12)">
       <defs>
        <path id="CMR17-30" d="M 2688 2025  C 2688 2416 2682 3080 2413 3591  C 2176 4039 1798 4198 1466 4198  C 1158 4198 768 4058 525 3597  C 269 3118 243 2524 243 2025  C 243 1661 250 1106 448 619  C 723 -39 1216 -128 1466 -128  C 1760 -128 2208 -7 2470 600  C 2662 1042 2688 1559 2688 2025  z M 1466 -26  C 1056 -26 813 325 723 812  C 653 1188 653 1738 653 2096  C 653 2588 653 2997 736 3387  C 858 3929 1216 4096 1466 4096  C 1728 4096 2067 3923 2189 3400  C 2272 3036 2278 2607 2278 2096  C 2278 1680 2278 1169 2202 792  C 2067 95 1690 -26 1466 -26  z " transform="scale(0.015625)"/>
       </defs>
       <use xlink:href="#CMR17-30" transform="scale(0.996264)"/>
      </g>
     </g>
    </g>
    <g id="xtick_2">
     <g id="line2d_2">
      <g>
       <use xlink:href="#m38b5997ff5" x="113.373913" y="237.026449" style="stroke: #000000; stroke-width: 0.8"/>
      </g>
     </g>
     <g id="text_2">
      <!-- $\mathdefault{2}$ -->
      <g transform="translate(110.447418 252.328629) scale(0.12 -0.12)">
       <defs>
        <path id="CMR17-32" d="M 2669 989  L 2554 989  C 2490 536 2438 459 2413 420  C 2381 369 1920 369 1830 369  L 602 369  C 832 619 1280 1072 1824 1597  C 2214 1967 2669 2402 2669 3035  C 2669 3790 2067 4224 1395 4224  C 691 4224 262 3604 262 3030  C 262 2780 448 2748 525 2748  C 589 2748 781 2787 781 3010  C 781 3207 614 3264 525 3264  C 486 3264 448 3258 422 3245  C 544 3790 915 4058 1306 4058  C 1862 4058 2227 3617 2227 3035  C 2227 2479 1901 2000 1536 1584  L 262 146  L 262 0  L 2515 0  L 2669 989  z " transform="scale(0.015625)"/>
       </defs>
       <use xlink:href="#CMR17-32" transform="scale(0.996264)"/>
      </g>
     </g>
    </g>
    <g id="xtick_3">
     <g id="line2d_3">
      <g>
       <use xlink:href="#m38b5997ff5" x="197.396347" y="237.026449" style="stroke: #000000; stroke-width: 0.8"/>
      </g>
     </g>
     <g id="text_3">
      <!-- $\mathdefault{4}$ -->
      <g transform="translate(194.469852 252.328629) scale(0.12 -0.12)">
       <defs>
        <path id="CMR17-34" d="M 2150 4122  C 2150 4256 2144 4256 2029 4256  L 128 1254  L 128 1088  L 1779 1088  L 1779 457  C 1779 224 1766 160 1318 160  L 1197 160  L 1197 0  C 1402 0 1747 0 1965 0  C 2182 0 2528 0 2733 0  L 2733 160  L 2611 160  C 2163 160 2150 224 2150 457  L 2150 1088  L 2803 1088  L 2803 1254  L 2150 1254  L 2150 4122  z M 1798 3703  L 1798 1254  L 256 1254  L 1798 3703  z " transform="scale(0.015625)"/>
       </defs>
       <use xlink:href="#CMR17-34" transform="scale(0.996264)"/>
      </g>
     </g>
    </g>
    <g id="xtick_4">
     <g id="line2d_4">
      <g>
       <use xlink:href="#m38b5997ff5" x="281.418781" y="237.026449" style="stroke: #000000; stroke-width: 0.8"/>
      </g>
     </g>
     <g id="text_4">
      <!-- $\mathdefault{6}$ -->
      <g transform="translate(278.492285 252.328629) scale(0.12 -0.12)">
       <defs>
        <path id="CMR17-36" d="M 678 2176  C 678 3690 1395 4032 1811 4032  C 1946 4032 2272 4009 2400 3776  C 2298 3776 2106 3776 2106 3553  C 2106 3381 2246 3323 2336 3323  C 2394 3323 2566 3348 2566 3560  C 2566 3954 2246 4179 1805 4179  C 1043 4179 243 3390 243 1984  C 243 253 966 -128 1478 -128  C 2099 -128 2688 427 2688 1283  C 2688 2081 2170 2662 1517 2662  C 1126 2662 838 2407 678 1960  L 678 2176  z M 1478 25  C 691 25 691 1200 691 1436  C 691 1896 909 2560 1504 2560  C 1613 2560 1926 2560 2138 2120  C 2253 1870 2253 1609 2253 1289  C 2253 944 2253 690 2118 434  C 1978 171 1773 25 1478 25  z " transform="scale(0.015625)"/>
       </defs>
       <use xlink:href="#CMR17-36" transform="scale(0.996264)"/>
      </g>
     </g>
    </g>
    <g id="xtick_5">
     <g id="line2d_5">
      <g>
       <use xlink:href="#m38b5997ff5" x="365.441214" y="237.026449" style="stroke: #000000; stroke-width: 0.8"/>
      </g>
     </g>
     <g id="text_5">
      <!-- $\mathdefault{8}$ -->
      <g transform="translate(362.514719 252.328629) scale(0.12 -0.12)">
       <defs>
        <path id="CMR17-38" d="M 1741 2264  C 2144 2467 2554 2773 2554 3263  C 2554 3841 1990 4179 1472 4179  C 890 4179 378 3759 378 3180  C 378 3021 416 2747 666 2505  C 730 2442 998 2251 1171 2130  C 883 1983 211 1634 211 934  C 211 279 838 -128 1459 -128  C 2144 -128 2720 362 2720 1010  C 2720 1590 2330 1857 2074 2029  L 1741 2264  z M 902 2822  C 851 2854 595 3051 595 3351  C 595 3739 998 4032 1459 4032  C 1965 4032 2336 3676 2336 3262  C 2336 2669 1670 2331 1638 2331  C 1632 2331 1626 2331 1574 2370  L 902 2822  z M 2080 1519  C 2176 1449 2483 1240 2483 851  C 2483 381 2010 25 1472 25  C 890 25 448 438 448 940  C 448 1443 838 1862 1280 2060  L 2080 1519  z " transform="scale(0.015625)"/>
       </defs>
       <use xlink:href="#CMR17-38" transform="scale(0.996264)"/>
      </g>
     </g>
    </g>
    <g id="xtick_6">
     <g id="line2d_6">
      <g>
       <use xlink:href="#m38b5997ff5" x="449.463648" y="237.026449" style="stroke: #000000; stroke-width: 0.8"/>
      </g>
     </g>
     <g id="text_6">
      <!-- $\mathdefault{10}$ -->
      <g transform="translate(443.610657 252.328629) scale(0.12 -0.12)">
       <defs>
        <path id="CMR17-31" d="M 1702 4058  C 1702 4192 1696 4192 1606 4192  C 1357 3916 979 3827 621 3827  C 602 3827 570 3827 563 3808  C 557 3795 557 3782 557 3648  C 755 3648 1088 3686 1344 3839  L 1344 461  C 1344 236 1331 160 781 160  L 589 160  L 589 0  C 896 0 1216 0 1523 0  C 1830 0 2150 0 2458 0  L 2458 160  L 2266 160  C 1715 160 1702 230 1702 458  L 1702 4058  z " transform="scale(0.015625)"/>
       </defs>
       <use xlink:href="#CMR17-31" transform="scale(0.996264)"/>
       <use xlink:href="#CMR17-30" transform="translate(45.690477 0) scale(0.996264)"/>
      </g>
     </g>
    </g>
    <g id="xtick_7">
     <g id="line2d_7">
      <g>
       <use xlink:href="#m38b5997ff5" x="533.486081" y="237.026449" style="stroke: #000000; stroke-width: 0.8"/>
      </g>
     </g>
     <g id="text_7">
      <!-- $\mathdefault{12}$ -->
      <g transform="translate(527.633091 252.328629) scale(0.12 -0.12)">
       <use xlink:href="#CMR17-31" transform="scale(0.996264)"/>
       <use xlink:href="#CMR17-32" transform="translate(45.690477 0) scale(0.996264)"/>
      </g>
     </g>
    </g>
    <g id="text_8">
     <!-- $t$ -->
     <g transform="translate(291.20216 266.955404) scale(0.12 -0.12)">
      <defs>
       <path id="CMMI12-74" d="M 1286 2566  L 1875 2566  C 1997 2566 2061 2566 2061 2681  C 2061 2752 2022 2752 1894 2752  L 1331 2752  L 1568 3692  C 1594 3781 1594 3794 1594 3840  C 1594 3943 1510 4000 1427 4000  C 1376 4000 1229 3981 1178 3775  L 928 2752  L 326 2752  C 198 2752 141 2752 141 2630  C 141 2566 186 2566 307 2566  L 877 2566  L 454 881  C 403 658 384 594 384 511  C 384 211 595 -64 954 -64  C 1600 -64 1946 868 1946 912  C 1946 951 1920 970 1882 970  C 1869 970 1843 970 1830 944  C 1824 938 1818 931 1773 829  C 1638 511 1344 64 973 64  C 781 64 768 224 768 364  C 768 370 768 492 787 568  L 1286 2566  z " transform="scale(0.015625)"/>
      </defs>
      <use xlink:href="#CMMI12-74" transform="scale(0.996264)"/>
     </g>
    </g>
   </g>
   <g id="matplotlib.axis_2">
    <g id="ytick_1">
     <g id="line2d_8">
      <defs>
       <path id="md56bff8362" d="M 0 0  L -3.5 0  " style="stroke: #000000; stroke-width: 0.8"/>
      </defs>
      <g>
       <use xlink:href="#md56bff8362" x="29.35148" y="219.377105" style="stroke: #000000; stroke-width: 0.8"/>
      </g>
     </g>
     <g id="text_9">
      <!-- $\mathdefault{−5}$ -->
      <g transform="translate(7.2 223.528195) scale(0.12 -0.12)">
       <defs>
        <path id="CMSY10-0" d="M 4218 1472  C 4326 1472 4442 1472 4442 1600  C 4442 1728 4326 1728 4218 1728  L 755 1728  C 646 1728 531 1728 531 1600  C 531 1472 646 1472 755 1472  L 4218 1472  z " transform="scale(0.015625)"/>
        <path id="CMR17-35" d="M 730 3692  C 794 3666 1056 3584 1325 3584  C 1920 3584 2246 3911 2432 4100  C 2432 4157 2432 4192 2394 4192  C 2387 4192 2374 4192 2323 4163  C 2099 4058 1837 3973 1517 3973  C 1325 3973 1037 3999 723 4139  C 653 4171 640 4171 634 4171  C 602 4171 595 4164 595 4037  L 595 2203  C 595 2089 595 2057 659 2057  C 691 2057 704 2070 736 2114  C 941 2401 1222 2522 1542 2522  C 1766 2522 2246 2382 2246 1289  C 2246 1085 2246 715 2054 421  C 1894 159 1645 25 1370 25  C 947 25 518 320 403 814  C 429 807 480 795 506 795  C 589 795 749 840 749 1038  C 749 1210 627 1280 506 1280  C 358 1280 262 1190 262 1011  C 262 454 704 -128 1382 -128  C 2042 -128 2669 440 2669 1264  C 2669 2030 2170 2624 1549 2624  C 1222 2624 947 2503 730 2274  L 730 3692  z " transform="scale(0.015625)"/>
       </defs>
       <use xlink:href="#CMSY10-0" transform="scale(0.996264)"/>
       <use xlink:href="#CMR17-35" transform="translate(77.487468 0) scale(0.996264)"/>
      </g>
     </g>
    </g>
    <g id="ytick_2">
     <g id="line2d_9">
      <g>
       <use xlink:href="#md56bff8362" x="29.35148" y="168.858747" style="stroke: #000000; stroke-width: 0.8"/>
      </g>
     </g>
     <g id="text_10">
      <!-- $\mathdefault{0}$ -->
      <g transform="translate(16.498489 173.009836) scale(0.12 -0.12)">
       <use xlink:href="#CMR17-30" transform="scale(0.996264)"/>
      </g>
     </g>
    </g>
    <g id="ytick_3">
     <g id="line2d_10">
      <g>
       <use xlink:href="#md56bff8362" x="29.35148" y="118.340388" style="stroke: #000000; stroke-width: 0.8"/>
      </g>
     </g>
     <g id="text_11">
      <!-- $\mathdefault{5}$ -->
      <g transform="translate(16.498489 122.491478) scale(0.12 -0.12)">
       <use xlink:href="#CMR17-35" transform="scale(0.996264)"/>
      </g>
     </g>
    </g>
    <g id="ytick_4">
     <g id="line2d_11">
      <g>
       <use xlink:href="#md56bff8362" x="29.35148" y="67.82203" style="stroke: #000000; stroke-width: 0.8"/>
      </g>
     </g>
     <g id="text_12">
      <!-- $\mathdefault{10}$ -->
      <g transform="translate(10.645499 71.97312) scale(0.12 -0.12)">
       <use xlink:href="#CMR17-31" transform="scale(0.996264)"/>
       <use xlink:href="#CMR17-30" transform="translate(45.690477 0) scale(0.996264)"/>
      </g>
     </g>
    </g>
    <g id="ytick_5">
     <g id="line2d_12">
      <g>
       <use xlink:href="#md56bff8362" x="29.35148" y="17.303672" style="stroke: #000000; stroke-width: 0.8"/>
      </g>
     </g>
     <g id="text_13">
      <!-- $\mathdefault{15}$ -->
      <g transform="translate(10.645499 21.454762) scale(0.12 -0.12)">
       <use xlink:href="#CMR17-31" transform="scale(0.996264)"/>
       <use xlink:href="#CMR17-35" transform="translate(45.690477 0) scale(0.996264)"/>
      </g>
     </g>
    </g>
   </g>
   <g id="line2d_13">
    <path d="M 29.35148 77.925702  L 34.684091 77.925716  L 40.016702 77.925724  L 45.349314 77.925734  L 50.681925 77.925743  L 56.014536 77.925756  L 61.347148 77.92577  L 66.679759 77.925785  L 72.01237 77.925788  L 77.344982 77.925788  L 82.677593 77.925789  L 88.010204 77.92579  L 93.342815 77.92579  L 98.675427 77.925791  L 104.008038 77.925791  L 109.340649 77.925792  L 114.673261 77.925793  L 120.005872 77.925793  L 125.338483 77.925794  L 130.671095 77.925795  L 136.003706 77.925795  L 141.336317 77.925796  L 146.668929 77.925796  L 152.00154 77.925797  L 157.334151 77.925798  L 162.666763 77.925798  L 167.999374 77.925799  L 173.331985 77.925799  L 178.664597 77.9258  L 183.997208 77.925801  L 189.329819 77.925801  L 194.66243 77.925802  L 199.995042 77.925803  L 205.327653 77.925803  L 210.660264 77.925804  L 215.992876 77.925804  L 221.325487 77.925805  L 226.658098 77.925806  L 231.99071 77.925806  L 237.323321 77.925807  L 242.655932 77.925807  L 247.988544 77.925808  L 253.321155 77.925809  L 258.653766 77.925809  L 263.986378 77.92581  L 269.318989 77.925811  L 274.6516 77.925811  L 279.984212 77.925812  L 285.316823 77.925812  L 290.649434 77.925813  L 295.982045 77.925814  L 301.314657 77.925814  L 306.647268 77.925815  L 311.979879 77.925815  L 317.312491 77.925816  L 322.645102 77.925817  L 327.977713 77.925817  L 333.310325 77.925818  L 338.642936 77.925818  L 343.975547 77.925819  L 349.308159 77.92582  L 354.64077 77.92582  L 359.973381 77.925821  L 365.305993 77.925822  L 370.638604 77.925822  L 375.971215 77.925823  L 381.303827 77.925823  L 386.636438 77.925824  L 391.969049 77.925825  L 397.301661 77.925825  L 402.634272 77.925826  L 407.966883 77.925826  L 413.299494 77.925827  L 418.632106 77.925828  L 423.964717 77.925828  L 429.297328 77.925829  L 434.62994 77.92583  L 439.962551 77.92583  L 445.295162 77.925831  L 450.627774 77.925831  L 455.960385 77.925832  L 461.292996 77.925833  L 466.625608 77.925833  L 471.958219 77.925834  L 477.29083 77.925834  L 482.623442 77.925835  L 487.956053 77.925836  L 493.288664 77.925836  L 498.621276 77.925837  L 503.953887 77.925838  L 509.286498 77.925838  L 514.619109 77.925839  L 519.951721 77.925839  L 525.284332 77.92584  L 530.616943 77.925841  L 535.949555 77.925841  L 541.282166 77.925842  L 546.614777 77.925842  L 551.947389 77.925843  L 557.28 77.925844  " clip-path="url(#pc09d15f0b6)" style="fill: none; stroke: #1f77b4; stroke-width: 2; stroke-linecap: square"/>
   </g>
   <g id="line2d_14">
    <path d="M 29.35148 108.236717  L 34.684091 108.724437  L 40.016702 110.179741  L 45.349314 112.579214  L 50.681925 115.884246  L 56.014536 120.041657  L 61.347148 124.984554  L 66.679759 130.633401  L 72.01237 136.897306  L 77.344982 143.675481  L 82.677593 150.858864  L 88.010204 158.331872  L 93.342815 165.974262  L 98.675427 173.663063  L 104.008038 181.274562  L 109.340649 188.686285  L 114.673261 195.778976  L 120.005872 202.43851  L 125.338483 208.557733  L 130.671095 214.038185  L 136.003706 218.791682  L 141.336317 222.74174  L 146.668929 225.8248  L 152.00154 227.991255  L 157.334151 229.206246  L 162.666763 229.450223  L 167.999374 228.71926  L 173.331985 227.02512  L 178.664597 224.39506  L 183.997208 220.871401  L 189.329819 216.510838  L 194.66243 211.383536  L 199.995042 205.571994  L 205.327653 199.169722  L 210.660264 192.279735  L 215.992876 185.012895  L 221.325487 177.48613  L 226.658098 169.820546  L 231.99071 162.139487  L 237.323321 154.566544  L 242.655932 147.223567  L 247.988544 140.228709  L 253.321155 133.694518  L 258.653766 127.726133  L 263.986378 122.419588  L 269.318989 117.860266  L 274.6516 114.121528  L 279.984212 111.263533  L 285.316823 109.332267  L 290.649434 108.358804  L 295.982045 108.358807  L 301.314657 109.332278  L 306.647268 111.263551  L 311.979879 114.121553  L 317.312491 117.860296  L 322.645102 122.419624  L 327.977713 127.726175  L 333.310325 133.694564  L 338.642936 140.228757  L 343.975547 147.223618  L 349.308159 154.566597  L 354.64077 162.139541  L 359.973381 169.8206  L 365.305993 177.486182  L 370.638604 185.012945  L 375.971215 192.279782  L 381.303827 199.169765  L 386.636438 205.572032  L 391.969049 211.383569  L 397.301661 216.510865  L 402.634272 220.871421  L 407.966883 224.395074  L 413.299494 227.025126  L 418.632106 228.719259  L 423.964717 229.450214  L 429.297328 229.20623  L 434.62994 227.991233  L 439.962551 225.824771  L 445.295162 222.741705  L 450.627774 218.791642  L 455.960385 214.03814  L 461.292996 208.557684  L 466.625608 202.438458  L 471.958219 195.778922  L 477.29083 188.68623  L 482.623442 181.274506  L 487.956053 173.663009  L 493.288664 165.974209  L 498.621276 158.331822  L 503.953887 150.858818  L 509.286498 143.675439  L 514.619109 136.897269  L 519.951721 130.633371  L 525.284332 124.984534  L 530.616943 120.04165  L 535.949555 115.884251  L 541.282166 112.579231  L 546.614777 110.17977  L 551.947389 108.724475  L 557.28 108.236764  " clip-path="url(#pc09d15f0b6)" style="fill: none; stroke: #ff7f0e; stroke-width: 2; stroke-linecap: square"/>
   </g>
   <g id="patch_3">
    <path d="M 29.35148 237.026449  L 29.35148 7.2  " style="fill: none; stroke: #000000; stroke-width: 0.8; stroke-linejoin: miter; stroke-linecap: square"/>
   </g>
   <g id="patch_4">
    <path d="M 557.28 237.026449  L 557.28 7.2  " style="fill: none; stroke: #000000; stroke-width: 0.8; stroke-linejoin: miter; stroke-linecap: square"/>
   </g>
   <g id="patch_5">
    <path d="M 29.35148 237.026449  L 557.28 237.026449  " style="fill: none; stroke: #000000; stroke-width: 0.8; stroke-linejoin: miter; stroke-linecap: square"/>
   </g>
   <g id="patch_6">
    <path d="M 29.35148 7.2  L 557.28 7.2  " style="fill: none; stroke: #000000; stroke-width: 0.8; stroke-linejoin: miter; stroke-linecap: square"/>
   </g>
   <g id="legend_1">
    <g id="patch_7">
     <path d="M 470.211816 55.974995  L 548.88 55.974995  Q 551.28 55.974995 551.28 53.574995  L 551.28 15.6  Q 551.28 13.2 548.88 13.2  L 470.211816 13.2  Q 467.811816 13.2 467.811816 15.6  L 467.811816 53.574995  Q 467.811816 55.974995 470.211816 55.974995  z " style="fill: #ffffff; opacity: 0.8; stroke: #cccccc; stroke-linejoin: miter"/>
    </g>
    <g id="line2d_15">
     <path d="M 472.611816 25.124173  L 484.611816 25.124173  L 496.611816 25.124173  " style="fill: none; stroke: #1f77b4; stroke-width: 2; stroke-linecap: square"/>
    </g>
    <g id="text_14">
     <!-- $\langle \hat{H} \rangle$ -->
     <g transform="translate(506.211816 29.324173) scale(0.12 -0.12)">
      <defs>
       <path id="CMSY10-68" d="M 2099 4557  C 2131 4627 2131 4640 2131 4672  C 2131 4742 2074 4800 2003 4800  C 1946 4800 1901 4768 1856 4653  L 736 1715  C 723 1677 704 1638 704 1600  C 704 1581 704 1568 736 1491  L 1856 -1446  C 1882 -1517 1914 -1600 2003 -1600  C 2074 -1600 2131 -1542 2131 -1472  C 2131 -1453 2131 -1440 2099 -1370  L 966 1600  L 2099 4557  z " transform="scale(0.015625)"/>
       <path id="CMR17-5e" d="M 1466 4421  L 678 3555  L 755 3478  L 1466 4166  L 2176 3478  L 2253 3555  L 1466 4421  z " transform="scale(0.015625)"/>
       <path id="CMMI12-48" d="M 4787 3887  C 4845 4103 4858 4167 5312 4167  C 5427 4167 5491 4167 5491 4282  C 5491 4352 5434 4352 5395 4352  C 5280 4352 5146 4352 5024 4352  L 4269 4352  C 4147 4352 4013 4352 3891 4352  C 3846 4352 3770 4352 3770 4231  C 3770 4167 3814 4167 3936 4167  C 4320 4167 4320 4116 4320 4046  C 4320 4034 4320 3995 4294 3900  L 3904 2361  L 1971 2361  L 2355 3887  C 2413 4103 2426 4167 2880 4167  C 2995 4167 3059 4167 3059 4282  C 3059 4352 3002 4352 2963 4352  C 2848 4352 2714 4352 2592 4352  L 1837 4352  C 1715 4352 1581 4352 1459 4352  C 1414 4352 1338 4352 1338 4231  C 1338 4167 1382 4167 1504 4167  C 1888 4167 1888 4116 1888 4046  C 1888 4034 1888 3995 1862 3899  L 998 472  C 941 249 928 185 486 185  C 339 185 294 185 294 64  C 294 0 365 0 384 0  C 499 0 634 0 755 0  L 1510 0  C 1632 0 1766 0 1888 0  C 1939 0 2010 0 2010 121  C 2010 185 1952 185 1856 185  C 1466 185 1466 236 1466 300  C 1466 307 1466 351 1478 402  L 1920 2176  L 3859 2176  C 3750 1753 3424 416 3411 376  C 3341 185 3238 185 2861 185  C 2784 185 2726 185 2726 64  C 2726 0 2797 0 2816 0  C 2931 0 3066 0 3187 0  L 3942 0  C 4064 0 4198 0 4320 0  C 4371 0 4442 0 4442 121  C 4442 185 4384 185 4288 185  C 3898 185 3898 236 3898 300  C 3898 307 3898 351 3910 402  L 4787 3887  z " transform="scale(0.015625)"/>
       <path id="CMSY10-69" d="M 1747 1491  C 1779 1568 1779 1581 1779 1600  C 1779 1619 1779 1632 1747 1709  L 627 4653  C 589 4762 550 4800 480 4800  C 410 4800 352 4742 352 4672  C 352 4653 352 4640 384 4570  L 1517 1600  L 384 -1357  C 352 -1427 352 -1440 352 -1472  C 352 -1542 410 -1600 480 -1600  C 563 -1600 589 -1536 614 -1472  L 1747 1491  z " transform="scale(0.015625)"/>
      </defs>
      <use xlink:href="#CMSY10-68" transform="scale(0.996264)"/>
      <use xlink:href="#CMR17-5e" transform="translate(65.578817 25.189733) scale(0.996264)"/>
      <use xlink:href="#CMMI12-48" transform="translate(38.743734 0) scale(0.996264)"/>
      <use xlink:href="#CMSY10-69" transform="translate(127.265506 0) scale(0.996264)"/>
     </g>
    </g>
    <g id="line2d_16">
     <path d="M 472.611816 43.986203  L 484.611816 43.986203  L 496.611816 43.986203  " style="fill: none; stroke: #ff7f0e; stroke-width: 2; stroke-linecap: square"/>
    </g>
    <g id="text_15">
     <!-- $\langle \hat{a} + \hat{a}^\dagger \rangle$ -->
     <g transform="translate(506.211816 48.186203) scale(0.12 -0.12)">
      <defs>
       <path id="CMMI12-61" d="M 1926 760  C 1894 651 1894 639 1805 517  C 1664 338 1382 64 1082 64  C 819 64 672 300 672 677  C 672 1028 870 1743 992 2012  C 1210 2459 1510 2689 1760 2689  C 2182 2689 2266 2165 2266 2114  C 2266 2108 2246 2024 2240 2012  L 1926 760  z M 2336 2395  C 2266 2561 2093 2816 1760 2816  C 1037 2816 256 1884 256 939  C 256 307 627 -64 1062 -64  C 1414 -64 1715 211 1894 422  C 1958 45 2259 -64 2451 -64  C 2643 -64 2797 51 2912 281  C 3014 498 3104 888 3104 913  C 3104 945 3078 971 3040 971  C 2982 971 2976 939 2950 843  C 2854 466 2733 64 2470 64  C 2285 64 2272 230 2272 358  C 2272 505 2291 575 2349 824  C 2394 984 2426 1124 2477 1309  C 2714 2267 2771 2497 2771 2535  C 2771 2625 2701 2695 2605 2695  C 2400 2695 2349 2472 2336 2395  z " transform="scale(0.015625)"/>
       <path id="CMR17-2b" d="M 2413 1472  L 4109 1472  C 4198 1472 4307 1472 4307 1580  C 4307 1695 4205 1695 4109 1695  L 2413 1695  L 2413 3386  C 2413 3475 2413 3584 2304 3584  C 2189 3584 2189 3482 2189 3386  L 2189 1695  L 493 1695  C 403 1695 294 1695 294 1587  C 294 1472 397 1472 493 1472  L 2189 1472  L 2189 -218  C 2189 -307 2189 -416 2298 -416  C 2413 -416 2413 -314 2413 -218  L 2413 1472  z " transform="scale(0.015625)"/>
       <path id="CMSY10-79" d="M 1485 2720  C 1574 2707 1632 2707 1779 2664  C 1914 2628 2112 2579 2246 2579  C 2451 2579 2483 2732 2483 2790  C 2483 2880 2432 3008 2246 3008  C 2195 3008 2074 2995 1869 2936  C 1645 2877 1581 2870 1485 2857  C 1485 2966 1491 3139 1555 3522  C 1587 3758 1632 4046 1632 4275  C 1632 4333 1632 4544 1421 4544  C 1203 4544 1203 4339 1203 4275  C 1203 4052 1261 3663 1286 3490  C 1344 3113 1350 2979 1350 2857  C 1261 2870 1203 2870 1056 2916  C 922 2955 723 3008 589 3008  C 384 3008 352 2854 352 2796  C 352 2707 403 2579 589 2579  C 640 2579 762 2591 966 2646  C 1190 2702 1254 2708 1350 2720  C 1344 2586 1338 2515 1274 2181  C 1203 1809 1203 1732 1203 1425  C 1203 412 1280 -672 1331 -1229  C 1338 -1319 1344 -1357 1414 -1357  C 1491 -1357 1491 -1325 1504 -1242  C 1536 -947 1562 -563 1574 -255  C 1581 -139 1632 720 1632 1425  C 1632 1739 1632 1809 1562 2175  C 1498 2509 1491 2592 1485 2720  z " transform="scale(0.015625)"/>
      </defs>
      <use xlink:href="#CMSY10-68" transform="scale(0.996264)"/>
      <use xlink:href="#CMR17-5e" transform="translate(41.502432 0.006461) scale(0.996264)"/>
      <use xlink:href="#CMMI12-61" transform="translate(38.743734 0) scale(0.996264)"/>
      <use xlink:href="#CMR17-2b" transform="translate(112.090798 0) scale(0.996264)"/>
      <use xlink:href="#CMR17-5e" transform="translate(208.703492 0.006461) scale(0.996264)"/>
      <use xlink:href="#CMMI12-61" transform="translate(205.944794 0) scale(0.996264)"/>
      <use xlink:href="#CMSY10-79" transform="translate(257.152651 36.153639) scale(0.697382)"/>
      <use xlink:href="#CMSY10-69" transform="translate(288.645606 0) scale(0.996264)"/>
     </g>
    </g>
   </g>
  </g>
 </g>
 <defs>
  <clipPath id="pc09d15f0b6">
   <rect x="29.35148" y="7.2" width="527.92852" height="229.826449"/>
  </clipPath>
 </defs>
</svg>