<svg xmlns:xlink="http://www.w3.org/1999/xlink" xmlns="http://www.w3.org/2000/svg" width="564.48pt" height="276.48pt" viewBox="0 0 564.48 276.48" version="1.1">
 <metadata>
  <rdf:RDF xmlns:dc="http://purl.org/dc/elements/1.1/" xmlns:cc="http://creativecommons.org/ns#" xmlns:rdf="http://www.w3.org/1999/02/22-rdf-syntax-ns#">
   <cc:Work>
    <dc:type rdf:resource="http://purl.org/dc/dcmitype/StillImage"/>
    <dc:date>2025-06-17T10:19:59.095673</dc:date>
    <dc:format>image/svg+xml</dc:format>
    <dc:creator>
     <cc:Agent>
      <dc:title>Matplotlib v3.10.3, https://matplotlib.org/</dc:title>
     </cc:Agent>
    </dc:creator>
   </cc:Work>
  </rdf:RDF>
 </metadata>
 <defs>
  <style type="text/css">*{stroke-linejoin: round; stroke-linecap: butt}</style>
 </defs>
 <g id="figure_1">
  <g id="patch_1">
   <path d="M 0 276.48  L 564.48 276.48  L 564.48 0  L 0 0  z " style="fill: #ffffff"/>
  </g>
  <g id="axes_1">
   <g id="patch_2">
    <path d="M 45.11281 235.698056  L 549.801179 235.698056  L 549.801179 7.2  L 45.11281 7.2  z " style="fill: #ffffff"/>
   </g>
   <g id="matplotlib.axis_1">
    <g id="xtick_1">
     <g id="line2d_1">
      <defs>
       <path id="m4338d128a7" d="M 0 0  L 0 3.5  " style="stroke: #000000; stroke-width: 0.8"/>
      </defs>
      <g>
       <use xlink:href="#m4338d128a7" x="45.11281" y="235.698056" style="stroke: #000000; stroke-width: 0.8"/>
      </g>
     </g>
     <g id="text_1">
      <!-- $\mathdefault{4.4}$ -->
      <g transform="translate(37.633989 251.000236) scale(0.12 -0.12)">
       <defs>
        <path id="CMR17-34" d="M 2150 4122  C 2150 4256 2144 4256 2029 4256  L 128 1254  L 128 1088  L 1779 1088  L 1779 457  C 1779 224 1766 160 1318 160  L 1197 160  L 1197 0  C 1402 0 1747 0 1965 0  C 2182 0 2528 0 2733 0  L 2733 160  L 2611 160  C 2163 160 2150 224 2150 457  L 2150 1088  L 2803 1088  L 2803 1254  L 2150 1254  L 2150 4122  z M 1798 3703  L 1798 1254  L 256 1254  L 1798 3703  z " transform="scale(0.015625)"/>
        <path id="CMMI12-3a" d="M 1178 307  C 1178 492 1024 619 870 619  C 685 619 557 466 557 313  C 557 128 710 0 864 0  C 1050 0 1178 153 1178 307  z " transform="scale(0.015625)"/>
       </defs>
       <use xlink:href="#CMR17-34" transform="scale(0.996264)"/>
       <use xlink:href="#CMMI12-3a" transform="translate(45.690477 0) scale(0.996264)"/>
       <use xlink:href="#CMR17-34" transform="translate(72.787654 0) scale(0.996264)"/>
      </g>
     </g>
    </g>
    <g id="xtick_2">
     <g id="line2d_2">
      <g>
       <use xlink:href="#m4338d128a7" x="129.227538" y="235.698056" style="stroke: #000000; stroke-width: 0.8"/>
      </g>
     </g>
     <g id="text_2">
      <!-- $\mathdefault{4.6}$ -->
      <g transform="translate(121.748717 251.000236) scale(0.12 -0.12)">
       <defs>
        <path id="CMR17-36" d="M 678 2176  C 678 3690 1395 4032 1811 4032  C 1946 4032 2272 4009 2400 3776  C 2298 3776 2106 3776 2106 3553  C 2106 3381 2246 3323 2336 3323  C 2394 3323 2566 3348 2566 3560  C 2566 3954 2246 4179 1805 4179  C 1043 4179 243 3390 243 1984  C 243 253 966 -128 1478 -128  C 2099 -128 2688 427 2688 1283  C 2688 2081 2170 2662 1517 2662  C 1126 2662 838 2407 678 1960  L 678 2176  z M 1478 25  C 691 25 691 1200 691 1436  C 691 1896 909 2560 1504 2560  C 1613 2560 1926 2560 2138 2120  C 2253 1870 2253 1609 2253 1289  C 2253 944 2253 690 2118 434  C 1978 171 1773 25 1478 25  z " transform="scale(0.015625)"/>
       </defs>
       <use xlink:href="#CMR17-34" transform="scale(0.996264)"/>
       <use xlink:href="#CMMI12-3a" transform="translate(45.690477 0) scale(0.996264)"/>
       <use xlink:href="#CMR17-36" transform="translate(72.787654 0) scale(0.996264)"/>
      </g>
     </g>
    </g>
    <g id="xtick_3">
     <g id="line2d_3">
      <g>
       <use xlink:href="#m4338d128a7" x="213.342266" y="235.698056" style="stroke: #000000; stroke-width: 0.8"/>
      </g>
     </g>
     <g id="text_3">
      <!-- $\mathdefault{4.8}$ -->
      <g transform="translate(205.863445 251.000236) scale(0.12 -0.12)">
       <defs>
        <path id="CMR17-38" d="M 1741 2264  C 2144 2467 2554 2773 2554 3263  C 2554 3841 1990 4179 1472 4179  C 890 4179 378 3759 378 3180  C 378 3021 416 2747 666 2505  C 730 2442 998 2251 1171 2130  C 883 1983 211 1634 211 934  C 211 279 838 -128 1459 -128  C 2144 -128 2720 362 2720 1010  C 2720 1590 2330 1857 2074 2029  L 1741 2264  z M 902 2822  C 851 2854 595 3051 595 3351  C 595 3739 998 4032 1459 4032  C 1965 4032 2336 3676 2336 3262  C 2336 2669 1670 2331 1638 2331  C 1632 2331 1626 2331 1574 2370  L 902 2822  z M 2080 1519  C 2176 1449 2483 1240 2483 851  C 2483 381 2010 25 1472 25  C 890 25 448 438 448 940  C 448 1443 838 1862 1280 2060  L 2080 1519  z " transform="scale(0.015625)"/>
       </defs>
       <use xlink:href="#CMR17-34" transform="scale(0.996264)"/>
       <use xlink:href="#CMMI12-3a" transform="translate(45.690477 0) scale(0.996264)"/>
       <use xlink:href="#CMR17-38" transform="translate(72.787654 0) scale(0.996264)"/>
      </g>
     </g>
    </g>
    <g id="xtick_4">
     <g id="line2d_4">
      <g>
       <use xlink:href="#m4338d128a7" x="297.456994" y="235.698056" style="stroke: #000000; stroke-width: 0.8"/>
      </g>
     </g>
     <g id="text_4">
      <!-- $\mathdefault{5.0}$ -->
      <g transform="translate(289.978174 251.000236) scale(0.12 -0.12)">
       <defs>
        <path id="CMR17-35" d="M 730 3692  C 794 3666 1056 3584 1325 3584  C 1920 3584 2246 3911 2432 4100  C 2432 4157 2432 4192 2394 4192  C 2387 4192 2374 4192 2323 4163  C 2099 4058 1837 3973 1517 3973  C 1325 3973 1037 3999 723 4139  C 653 4171 640 4171 634 4171  C 602 4171 595 4164 595 4037  L 595 2203  C 595 2089 595 2057 659 2057  C 691 2057 704 2070 736 2114  C 941 2401 1222 2522 1542 2522  C 1766 2522 2246 2382 2246 1289  C 2246 1085 2246 715 2054 421  C 1894 159 1645 25 1370 25  C 947 25 518 320 403 814  C 429 807 480 795 506 795  C 589 795 749 840 749 1038  C 749 1210 627 1280 506 1280  C 358 1280 262 1190 262 1011  C 262 454 704 -128 1382 -128  C 2042 -128 2669 440 2669 1264  C 2669 2030 2170 2624 1549 2624  C 1222 2624 947 2503 730 2274  L 730 3692  z " transform="scale(0.015625)"/>
        <path id="CMR17-30" d="M 2688 2025  C 2688 2416 2682 3080 2413 3591  C 2176 4039 1798 4198 1466 4198  C 1158 4198 768 4058 525 3597  C 269 3118 243 2524 243 2025  C 243 1661 250 1106 448 619  C 723 -39 1216 -128 1466 -128  C 1760 -128 2208 -7 2470 600  C 2662 1042 2688 1559 2688 2025  z M 1466 -26  C 1056 -26 813 325 723 812  C 653 1188 653 1738 653 2096  C 653 2588 653 2997 736 3387  C 858 3929 1216 4096 1466 4096  C 1728 4096 2067 3923 2189 3400  C 2272 3036 2278 2607 2278 2096  C 2278 1680 2278 1169 2202 792  C 2067 95 1690 -26 1466 -26  z " transform="scale(0.015625)"/>
       </defs>
       <use xlink:href="#CMR17-35" transform="scale(0.996264)"/>
       <use xlink:href="#CMMI12-3a" transform="translate(45.690477 0) scale(0.996264)"/>
       <use xlink:href="#CMR17-30" transform="translate(72.787654 0) scale(0.996264)"/>
      </g>
     </g>
    </g>
    <g id="xtick_5">
     <g id="line2d_5">
      <g>
       <use xlink:href="#m4338d128a7" x="381.571723" y="235.698056" style="stroke: #000000; stroke-width: 0.8"/>
      </g>
     </g>
     <g id="text_5">
      <!-- $\mathdefault{5.2}$ -->
      <g transform="translate(374.092902 251.000236) scale(0.12 -0.12)">
       <defs>
        <path id="CMR17-32" d="M 2669 989  L 2554 989  C 2490 536 2438 459 2413 420  C 2381 369 1920 369 1830 369  L 602 369  C 832 619 1280 1072 1824 1597  C 2214 1967 2669 2402 2669 3035  C 2669 3790 2067 4224 1395 4224  C 691 4224 262 3604 262 3030  C 262 2780 448 2748 525 2748  C 589 2748 781 2787 781 3010  C 781 3207 614 3264 525 3264  C 486 3264 448 3258 422 3245  C 544 3790 915 4058 1306 4058  C 1862 4058 2227 3617 2227 3035  C 2227 2479 1901 2000 1536 1584  L 262 146  L 262 0  L 2515 0  L 2669 989  z " transform="scale(0.015625)"/>
       </defs>
       <use xlink:href="#CMR17-35" transform="scale(0.996264)"/>
       <use xlink:href="#CMMI12-3a" transform="translate(45.690477 0) scale(0.996264)"/>
       <use xlink:href="#CMR17-32" transform="translate(72.787654 0) scale(0.996264)"/>
      </g>
     </g>
    </g>
    <g id="xtick_6">
     <g id="line2d_6">
      <g>
       <use xlink:href="#m4338d128a7" x="465.686451" y="235.698056" style="stroke: #000000; stroke-width: 0.8"/>
      </g>
     </g>
     <g id="text_6">
      <!-- $\mathdefault{5.4}$ -->
      <g transform="translate(458.20763 251.000236) scale(0.12 -0.12)">
       <use xlink:href="#CMR17-35" transform="scale(0.996264)"/>
       <use xlink:href="#CMMI12-3a" transform="translate(45.690477 0) scale(0.996264)"/>
       <use xlink:href="#CMR17-34" transform="translate(72.787654 0) scale(0.996264)"/>
      </g>
     </g>
    </g>
    <g id="xtick_7">
     <g id="line2d_7">
      <g>
       <use xlink:href="#m4338d128a7" x="549.801179" y="235.698056" style="stroke: #000000; stroke-width: 0.8"/>
      </g>
     </g>
     <g id="text_7">
      <!-- $\mathdefault{5.6}$ -->
      <g transform="translate(542.322358 251.000236) scale(0.12 -0.12)">
       <use xlink:href="#CMR17-35" transform="scale(0.996264)"/>
       <use xlink:href="#CMMI12-3a" transform="translate(45.690477 0) scale(0.996264)"/>
       <use xlink:href="#CMR17-36" transform="translate(72.787654 0) scale(0.996264)"/>
      </g>
     </g>
    </g>
    <g id="text_8">
     <!-- Frequency (MHz) -->
     <g transform="translate(254.593942 266.291208) scale(0.12 -0.12)">
      <defs>
       <path id="CMSS17-46" d="M 2918 1984  L 2918 2373  L 1101 2373  L 1101 3968  L 1882 3968  C 1958 3968 2035 3968 2112 3968  L 3168 3968  L 3168 4375  L 563 4375  L 563 -32  L 1101 -32  L 1101 1984  L 2918 1984  z " transform="scale(0.015625)"/>
       <path id="CMSS17-72" d="M 954 1363  C 954 1965 1395 2368 1958 2368  L 1958 2789  C 1549 2789 1165 2585 934 2253  L 934 2758  L 480 2758  L 480 0  L 954 0  L 954 1363  z " transform="scale(0.015625)"/>
       <path id="CMSS17-65" d="M 2502 1377  C 2502 1590 2490 2003 2285 2345  C 2061 2713 1696 2816 1421 2816  C 755 2816 192 2188 192 1375  C 192 582 774 -64 1510 -64  C 1798 -64 2150 19 2470 248  C 2470 274 2458 414 2451 420  C 2451 433 2432 630 2432 656  C 2125 407 1773 325 1517 325  C 1107 325 666 667 646 1377  L 2502 1377  z M 698 1728  C 781 2084 1062 2421 1421 2421  C 1517 2421 1965 2421 2080 1728  L 698 1728  z " transform="scale(0.015625)"/>
       <path id="CMSS17-71" d="M 2611 2816  L 2138 2816  L 2138 2428  C 2112 2460 1818 2816 1318 2816  C 736 2816 211 2228 211 1399  C 211 633 653 -5 1229 -5  C 1498 -5 1837 91 2125 365  L 2125 -1216  L 2611 -1216  L 2611 2816  z M 2138 914  C 2138 832 2138 718 1939 554  C 1888 510 1747 384 1504 384  C 1050 384 698 850 698 1399  C 698 2011 1126 2415 1562 2415  C 1926 2415 2138 2061 2138 1797  L 2138 914  z " transform="scale(0.015625)"/>
       <path id="CMSS17-75" d="M 2618 2739  L 2131 2739  L 2131 972  C 2131 498 1786 306 1421 306  C 998 306 960 447 960 709  L 960 2739  L 474 2739  L 474 678  C 474 179 646 -64 1088 -64  C 1306 -64 1798 -13 2144 306  L 2144 0  L 2618 0  L 2618 2739  z " transform="scale(0.015625)"/>
       <path id="CMSS17-6e" d="M 2618 1877  C 2618 2283 2522 2816 1798 2816  C 1389 2816 1120 2606 941 2389  L 941 2758  L 474 2758  L 474 0  L 960 0  L 960 1559  C 960 1964 1114 2428 1549 2428  C 2112 2428 2131 2048 2131 1829  L 2131 0  L 2618 0  L 2618 1877  z " transform="scale(0.015625)"/>
       <path id="CMSS17-63" d="M 2464 2541  C 2464 2585 2170 2714 2093 2739  C 1882 2816 1613 2816 1542 2816  C 710 2816 211 2093 211 1363  C 211 595 768 -64 1517 -64  C 1946 -64 2253 76 2502 242  L 2464 664  C 2189 453 1869 337 1523 337  C 1024 337 698 774 698 1369  C 698 1831 909 2414 1549 2414  C 1901 2414 2099 2343 2394 2145  L 2464 2541  z " transform="scale(0.015625)"/>
       <path id="CMSS17-79" d="M 2675 2752  L 2176 2752  C 1632 1294 1446 702 1434 383  L 1427 383  C 1408 696 1126 1460 902 2007  L 602 2752  L 83 2752  L 1216 13  C 1146 -178 1043 -465 1011 -529  C 870 -885 774 -885 672 -885  C 646 -885 442 -885 211 -809  L 250 -1229  C 410 -1261 570 -1280 685 -1280  C 845 -1280 1165 -1280 1459 -497  L 2675 2752  z " transform="scale(0.015625)"/>
       <path id="CMSS17-28" d="M 1613 4768  C 1267 4417 474 3601 474 1588  C 474 -433 1267 -1243 1613 -1600  L 2003 -1600  C 1216 -784 960 357 960 1581  C 960 2798 1203 3946 2003 4768  L 1613 4768  z " transform="scale(0.015625)"/>
       <path id="CMSS17-4d" d="M 3194 2371  L 2886 1473  C 2835 1307 2662 791 2624 587  L 2618 587  C 2598 715 2560 849 2458 1174  C 2400 1365 2336 1562 2272 1741  L 1325 4416  L 576 4416  L 576 0  L 1075 0  L 1075 3900  L 1082 3900  C 1082 3894 1139 3613 1530 2499  L 2374 96  L 2848 96  L 3610 2231  C 3661 2378 3821 2843 3891 3066  C 3955 3257 4115 3728 4154 3913  L 4160 3913  L 4160 0  L 4666 0  L 4666 4416  L 3923 4416  L 3194 2371  z " transform="scale(0.015625)"/>
       <path id="CMSS17-48" d="M 3674 4416  L 3136 4416  L 3136 2501  L 1101 2501  L 1101 4416  L 563 4416  L 563 0  L 1101 0  L 1101 2112  L 3136 2112  L 3136 0  L 3674 0  L 3674 4416  z " transform="scale(0.015625)"/>
       <path id="CMSS17-7a" d="M 2400 2502  L 2400 2750  L 250 2750  L 250 2368  L 1069 2368  C 1146 2368 1222 2368 1299 2368  L 1747 2368  L 166 261  L 166 0  L 2419 0  L 2419 395  L 1549 395  C 1472 395 1395 395 1318 395  L 826 395  L 2400 2502  z " transform="scale(0.015625)"/>
       <path id="CMSS17-29" d="M 723 -1600  C 1069 -1249 1862 -433 1862 1581  C 1862 3601 1069 4411 723 4768  L 333 4768  C 1120 3952 1376 2811 1376 1588  C 1376 370 1133 -778 333 -1600  L 723 -1600  z " transform="scale(0.015625)"/>
      </defs>
      <use xlink:href="#CMSS17-46" transform="scale(0.996264)"/>
      <use xlink:href="#CMSS17-72" transform="translate(50.687105 0) scale(0.996264)"/>
      <use xlink:href="#CMSS17-65" transform="translate(82.596878 0) scale(0.996264)"/>
      <use xlink:href="#CMSS17-71" transform="translate(124.2357 0) scale(0.996264)"/>
      <use xlink:href="#CMSS17-75" transform="translate(172.440643 0) scale(0.996264)"/>
      <use xlink:href="#CMSS17-65" transform="translate(220.645586 0) scale(0.996264)"/>
      <use xlink:href="#CMSS17-6e" transform="translate(262.284408 0) scale(0.996264)"/>
      <use xlink:href="#CMSS17-63" transform="translate(310.489351 0) scale(0.996264)"/>
      <use xlink:href="#CMSS17-79" transform="translate(352.128174 0) scale(0.996264)"/>
      <use xlink:href="#CMSS17-28" transform="translate(426.357428 0) scale(0.996264)"/>
      <use xlink:href="#CMSS17-4d" transform="translate(462.791342 0) scale(0.996264)"/>
      <use xlink:href="#CMSS17-48" transform="translate(544.467372 0) scale(0.996264)"/>
      <use xlink:href="#CMSS17-7a" transform="translate(610.528891 0) scale(0.996264)"/>
      <use xlink:href="#CMSS17-29" transform="translate(651.206763 0) scale(0.996264)"/>
     </g>
    </g>
   </g>
   <g id="matplotlib.axis_2">
    <g id="ytick_1">
     <g id="line2d_8">
      <defs>
       <path id="mbf3f33df3d" d="M 0 0  L -3.5 0  " style="stroke: #000000; stroke-width: 0.8"/>
      </defs>
      <g>
       <use xlink:href="#mbf3f33df3d" x="45.11281" y="225.46003" style="stroke: #000000; stroke-width: 0.8"/>
      </g>
     </g>
     <g id="text_9">
      <!-- $\mathdefault{0.0}$ -->
      <g transform="translate(23.155168 229.61112) scale(0.12 -0.12)">
       <use xlink:href="#CMR17-30" transform="scale(0.996264)"/>
       <use xlink:href="#CMMI12-3a" transform="translate(45.690477 0) scale(0.996264)"/>
       <use xlink:href="#CMR17-30" transform="translate(72.787654 0) scale(0.996264)"/>
      </g>
     </g>
    </g>
    <g id="ytick_2">
     <g id="line2d_9">
      <g>
       <use xlink:href="#mbf3f33df3d" x="45.11281" y="191.773302" style="stroke: #000000; stroke-width: 0.8"/>
      </g>
     </g>
     <g id="text_10">
      <!-- $\mathdefault{0.2}$ -->
      <g transform="translate(23.155168 195.924391) scale(0.12 -0.12)">
       <use xlink:href="#CMR17-30" transform="scale(0.996264)"/>
       <use xlink:href="#CMMI12-3a" transform="translate(45.690477 0) scale(0.996264)"/>
       <use xlink:href="#CMR17-32" transform="translate(72.787654 0) scale(0.996264)"/>
      </g>
     </g>
    </g>
    <g id="ytick_3">
     <g id="line2d_10">
      <g>
       <use xlink:href="#mbf3f33df3d" x="45.11281" y="158.086573" style="stroke: #000000; stroke-width: 0.8"/>
      </g>
     </g>
     <g id="text_11">
      <!-- $\mathdefault{0.4}$ -->
      <g transform="translate(23.155168 162.237663) scale(0.12 -0.12)">
       <use xlink:href="#CMR17-30" transform="scale(0.996264)"/>
       <use xlink:href="#CMMI12-3a" transform="translate(45.690477 0) scale(0.996264)"/>
       <use xlink:href="#CMR17-34" transform="translate(72.787654 0) scale(0.996264)"/>
      </g>
     </g>
    </g>
    <g id="ytick_4">
     <g id="line2d_11">
      <g>
       <use xlink:href="#mbf3f33df3d" x="45.11281" y="124.399845" style="stroke: #000000; stroke-width: 0.8"/>
      </g>
     </g>
     <g id="text_12">
      <!-- $\mathdefault{0.6}$ -->
      <g transform="translate(23.155168 128.550934) scale(0.12 -0.12)">
       <use xlink:href="#CMR17-30" transform="scale(0.996264)"/>
       <use xlink:href="#CMMI12-3a" transform="translate(45.690477 0) scale(0.996264)"/>
       <use xlink:href="#CMR17-36" transform="translate(72.787654 0) scale(0.996264)"/>
      </g>
     </g>
    </g>
    <g id="ytick_5">
     <g id="line2d_12">
      <g>
       <use xlink:href="#mbf3f33df3d" x="45.11281" y="90.713116" style="stroke: #000000; stroke-width: 0.8"/>
      </g>
     </g>
     <g id="text_13">
      <!-- $\mathdefault{0.8}$ -->
      <g transform="translate(23.155168 94.864206) scale(0.12 -0.12)">
       <use xlink:href="#CMR17-30" transform="scale(0.996264)"/>
       <use xlink:href="#CMMI12-3a" transform="translate(45.690477 0) scale(0.996264)"/>
       <use xlink:href="#CMR17-38" transform="translate(72.787654 0) scale(0.996264)"/>
      </g>
     </g>
    </g>
    <g id="ytick_6">
     <g id="line2d_13">
      <g>
       <use xlink:href="#mbf3f33df3d" x="45.11281" y="57.026388" style="stroke: #000000; stroke-width: 0.8"/>
      </g>
     </g>
     <g id="text_14">
      <!-- $\mathdefault{1.0}$ -->
      <g transform="translate(23.155168 61.177477) scale(0.12 -0.12)">
       <defs>
        <path id="CMR17-31" d="M 1702 4058  C 1702 4192 1696 4192 1606 4192  C 1357 3916 979 3827 621 3827  C 602 3827 570 3827 563 3808  C 557 3795 557 3782 557 3648  C 755 3648 1088 3686 1344 3839  L 1344 461  C 1344 236 1331 160 781 160  L 589 160  L 589 0  C 896 0 1216 0 1523 0  C 1830 0 2150 0 2458 0  L 2458 160  L 2266 160  C 1715 160 1702 230 1702 458  L 1702 4058  z " transform="scale(0.015625)"/>
       </defs>
       <use xlink:href="#CMR17-31" transform="scale(0.996264)"/>
       <use xlink:href="#CMMI12-3a" transform="translate(45.690477 0) scale(0.996264)"/>
       <use xlink:href="#CMR17-30" transform="translate(72.787654 0) scale(0.996264)"/>
      </g>
     </g>
    </g>
    <g id="ytick_7">
     <g id="line2d_14">
      <g>
       <use xlink:href="#mbf3f33df3d" x="45.11281" y="23.339659" style="stroke: #000000; stroke-width: 0.8"/>
      </g>
     </g>
     <g id="text_15">
      <!-- $\mathdefault{1.2}$ -->
      <g transform="translate(23.155168 27.490749) scale(0.12 -0.12)">
       <use xlink:href="#CMR17-31" transform="scale(0.996264)"/>
       <use xlink:href="#CMMI12-3a" transform="translate(45.690477 0) scale(0.996264)"/>
       <use xlink:href="#CMR17-32" transform="translate(72.787654 0) scale(0.996264)"/>
      </g>
     </g>
    </g>
    <g id="text_16">
     <!-- $S(\omega)$ (arb. units) -->
     <g transform="translate(16.166376 163.908762) rotate(-90) scale(0.12 -0.12)">
      <defs>
       <path id="CMMI12-53" d="M 4064 4423  C 4064 4480 4019 4480 4006 4480  C 3981 4480 3974 4474 3898 4378  C 3859 4333 3597 4001 3590 3995  C 3379 4410 2957 4480 2688 4480  C 1875 4480 1139 3743 1139 3025  C 1139 2549 1427 2269 1741 2161  C 1811 2135 2189 2033 2381 1989  C 2707 1900 2790 1875 2925 1735  C 2950 1703 3078 1557 3078 1258  C 3078 667 2528 57 1888 57  C 1363 57 781 280 781 991  C 781 1112 806 1265 826 1328  C 826 1348 832 1378 832 1391  C 832 1417 819 1449 768 1449  C 710 1449 704 1436 678 1328  L 352 24  C 352 18 326 -64 326 -71  C 326 -128 378 -128 390 -128  C 416 -128 422 -122 499 -26  L 794 356  C 947 126 1280 -128 1875 -128  C 2701 -128 3456 666 3456 1460  C 3456 1728 3392 1963 3149 2197  C 3014 2331 2899 2363 2310 2516  C 1882 2630 1824 2649 1709 2751  C 1600 2858 1517 3011 1517 3227  C 1517 3761 2061 4308 2669 4308  C 3296 4308 3590 3926 3590 3323  C 3590 3158 3558 2986 3558 2961  C 3558 2903 3610 2903 3629 2903  C 3686 2903 3693 2922 3718 3024  L 4064 4423  z " transform="scale(0.015625)"/>
       <path id="CMR17-28" d="M 1958 -1561  C 1958 -1555 1958 -1542 1939 -1523  C 1645 -1224 858 -407 858 1581  C 858 3569 1632 4379 1946 4697  C 1946 4704 1958 4717 1958 4736  C 1958 4755 1939 4768 1914 4768  C 1843 4768 1299 4296 986 3594  C 666 2887 576 2199 576 1588  C 576 1128 621 351 1005 -471  C 1312 -1135 1837 -1600 1914 -1600  C 1946 -1600 1958 -1587 1958 -1561  z " transform="scale(0.015625)"/>
       <path id="CMMI12-21" d="M 3802 2395  C 3802 2580 3750 2816 3526 2816  C 3398 2816 3251 2657 3251 2529  C 3251 2472 3277 2434 3328 2376  C 3424 2268 3546 2096 3546 1797  C 3546 1567 3405 1204 3302 1007  C 3123 656 2829 357 2496 357  C 2093 357 1939 615 1869 975  C 1939 1143 2086 1560 2086 1728  C 2086 1798 2061 1856 1978 1856  C 1933 1856 1882 1831 1850 1779  C 1760 1638 1677 1129 1683 994  C 1562 756 1216 357 806 357  C 378 357 262 733 262 1096  C 262 1758 678 2338 794 2497  C 858 2593 902 2657 902 2669  C 902 2714 877 2784 819 2784  C 717 2784 685 2701 634 2625  C 307 2121 77 1414 77 803  C 77 408 224 -64 704 -64  C 1235 -64 1568 391 1702 634  C 1754 275 1946 -64 2413 -64  C 2899 -64 3206 363 3437 879  C 3603 1249 3802 2045 3802 2395  z " transform="scale(0.015625)"/>
       <path id="CMR17-29" d="M 1683 1581  C 1683 2040 1638 2817 1254 3639  C 947 4303 422 4768 346 4768  C 326 4768 301 4761 301 4729  C 301 4717 307 4710 314 4697  C 621 4378 1402 3568 1402 1584  C 1402 -407 627 -1217 314 -1537  C 307 -1549 301 -1556 301 -1568  C 301 -1600 326 -1600 346 -1600  C 416 -1600 960 -1128 1274 -426  C 1594 281 1683 969 1683 1581  z " transform="scale(0.015625)"/>
       <path id="CMSS17-61" d="M 2406 1791  C 2406 2392 1978 2808 1402 2808  C 1120 2808 813 2757 461 2553  L 499 2135  C 659 2248 934 2432 1395 2432  C 1722 2432 1920 2180 1920 1782  L 1920 1536  C 896 1536 256 1238 256 726  C 256 461 416 -64 947 -64  C 1043 -64 1562 -64 1933 217  L 1933 -19  L 2406 -19  L 2406 1791  z M 1920 816  C 1920 701 1920 548 1728 434  C 1562 325 1350 325 1261 325  C 941 325 723 511 723 744  C 723 1211 1722 1211 1920 1211  L 1920 816  z " transform="scale(0.015625)"/>
       <path id="CMSS17-62" d="M 954 4416  L 480 4416  L 480 -13  L 966 -13  L 966 274  C 1210 38 1504 -64 1766 -64  C 2381 -64 2880 549 2880 1352  C 2880 2086 2496 2756 1926 2756  C 1523 2756 1165 2591 954 2419  L 954 4416  z M 966 2046  C 1107 2222 1306 2368 1587 2368  C 1965 2368 2394 2097 2394 1352  C 2394 558 1882 325 1530 325  C 1402 325 1267 356 1139 464  C 966 615 966 709 966 797  L 966 2046  z " transform="scale(0.015625)"/>
       <path id="CMSS17-2e" d="M 1088 510  L 576 510  L 576 0  L 1088 0  L 1088 510  z " transform="scale(0.015625)"/>
       <path id="CMSS17-69" d="M 979 4183  L 442 4183  L 442 3648  L 979 3648  L 979 4183  z M 947 2739  L 474 2739  L 474 0  L 947 0  L 947 2739  z " transform="scale(0.015625)"/>
       <path id="CMSS17-74" d="M 1069 2368  L 1901 2368  L 1901 2737  L 1069 2737  L 1069 3520  L 614 3520  L 614 2737  L 109 2737  L 109 2368  L 602 2368  L 602 749  C 602 384 685 -64 1107 -64  C 1427 -64 1722 25 2003 172  L 1901 548  C 1747 414 1562 337 1363 337  C 1082 337 1069 696 1069 856  L 1069 2368  z " transform="scale(0.015625)"/>
       <path id="CMSS17-73" d="M 2061 2627  C 1683 2807 1389 2807 1197 2807  C 742 2807 198 2648 198 2003  C 198 1359 902 1218 1094 1179  C 1389 1122 1715 1058 1715 740  C 1715 337 1254 337 1171 337  C 915 337 563 407 243 638  L 166 210  C 531 0 883 -64 1178 -64  C 1965 -64 2163 416 2163 781  C 2163 1094 1984 1305 1862 1401  C 1651 1568 1574 1587 1050 1696  C 960 1709 646 1779 646 2066  C 646 2432 1050 2432 1139 2432  C 1555 2432 1811 2303 1984 2208  L 2061 2627  z " transform="scale(0.015625)"/>
      </defs>
      <use xlink:href="#CMMI12-53" transform="scale(0.996264)"/>
      <use xlink:href="#CMR17-28" transform="translate(65.794439 0) scale(0.996264)"/>
      <use xlink:href="#CMMI12-21" transform="translate(101.075207 0) scale(0.996264)"/>
      <use xlink:href="#CMR17-29" transform="translate(165.393553 0) scale(0.996264)"/>
      <use xlink:href="#CMSS17-28" transform="translate(231.903433 0) scale(0.996264)"/>
      <use xlink:href="#CMSS17-61" transform="translate(268.337348 0) scale(0.996264)"/>
      <use xlink:href="#CMSS17-72" transform="translate(310.656814 0) scale(0.996264)"/>
      <use xlink:href="#CMSS17-62" transform="translate(342.566587 0) scale(0.996264)"/>
      <use xlink:href="#CMSS17-2e" transform="translate(390.77153 0) scale(0.996264)"/>
      <use xlink:href="#CMSS17-75" transform="translate(458.434542 0) scale(0.996264)"/>
      <use xlink:href="#CMSS17-6e" transform="translate(506.639485 0) scale(0.996264)"/>
      <use xlink:href="#CMSS17-69" transform="translate(554.844428 0) scale(0.996264)"/>
      <use xlink:href="#CMSS17-74" transform="translate(577.025151 0) scale(0.996264)"/>
      <use xlink:href="#CMSS17-73" transform="translate(610.856718 0) scale(0.996264)"/>
      <use xlink:href="#CMSS17-29" transform="translate(646.77026 0) scale(0.996264)"/>
     </g>
    </g>
   </g>
   <g id="line2d_15">
    <path d="M 45.11281 225.311781  L 130.490522 225.095743  L 167.369652 224.802938  L 187.072201 224.443579  L 200.712427 223.974342  L 210.311105 223.447767  L 216.878621 222.869098  L 221.930557 222.201919  L 225.972105 221.433843  L 229.003267 220.640181  L 231.529235 219.762729  L 233.550009 218.856729  L 235.570783 217.692997  L 237.086364 216.586363  L 238.601944 215.203886  L 240.117525 213.443747  L 241.127912 211.987834  L 242.138299 210.233281  L 243.148686 208.092354  L 244.159074 205.443367  L 245.169461 202.114327  L 246.179848 197.857289  L 247.190235 192.307702  L 248.200622 184.920009  L 249.211009 174.86869  L 250.221396 160.912483  L 251.231784 141.280116  L 252.242171 113.894986  L 253.252558 78.059942  L 254.262945 39.748606  L 254.768138 25.118689  L 255.273332 17.586275  L 255.778526 19.202355  L 256.283719 29.801505  L 257.294106 67.666762  L 258.304493 108.418043  L 259.314881 140.612868  L 260.325268 163.420453  L 261.335655 179.155734  L 262.346042 190.084499  L 263.356429 197.817874  L 264.366816 203.410652  L 265.377203 207.542564  L 266.38759 210.655441  L 267.397978 213.041697  L 268.408365 214.899043  L 269.418752 216.364183  L 270.429139 217.53379  L 271.94472 218.881931  L 273.4603 219.883642  L 275.481075 220.866684  L 278.007042 221.762357  L 281.543397 222.725469  L 285.584946 223.601789  L 289.121301 224.153665  L 292.657656 224.492388  L 296.699204 224.647334  L 300.740753 224.577707  L 304.782301 224.271478  L 308.318656 223.781569  L 311.855011 223.08117  L 315.89656 222.061187  L 318.927721 221.06861  L 320.948495 220.16079  L 322.464076 219.248  L 323.979657 218.03041  L 324.990044 216.981049  L 326.000431 215.673843  L 327.010818 214.026803  L 328.021205 211.925293  L 329.031592 209.205374  L 330.041979 205.627265  L 331.052366 200.832441  L 332.062754 194.273907  L 333.073141 185.104981  L 334.083528 172.016065  L 335.093915 153.062012  L 336.104302 125.779115  L 337.114689 88.749508  L 338.63027 29.801505  L 339.135463 19.202355  L 339.640657 17.586275  L 340.145851 25.118689  L 340.651044 39.748606  L 342.671818 113.894986  L 343.682205 141.280116  L 344.692593 160.912483  L 345.70298 174.86869  L 346.713367 184.920009  L 347.723754 192.307702  L 348.734141 197.857289  L 349.744528 202.114327  L 350.754915 205.443367  L 351.765303 208.092354  L 352.77569 210.233281  L 353.786077 211.987834  L 355.301657 214.080535  L 356.817238 215.700818  L 358.332819 216.981922  L 359.8484 218.013299  L 361.869174 219.104059  L 363.889948 219.958008  L 366.415916 220.789379  L 369.447077 221.545349  L 372.983432 222.201919  L 377.530174 222.813047  L 383.592497 223.373876  L 391.1704 223.835242  L 402.789852 224.295074  L 416.935272 224.642795  L 438.658595 224.922104  L 475.032532 225.142884  L 543.233663 225.303281  L 549.801179 225.311781  L 549.801179 225.311781  " clip-path="url(#p1fad07bd02)" style="fill: none; stroke: #1f77b4; stroke-width: 1.5; stroke-linecap: square"/>
   </g>
   <g id="patch_3">
    <path d="M 45.11281 235.698056  L 45.11281 7.2  " style="fill: none; stroke: #000000; stroke-width: 0.8; stroke-linejoin: miter; stroke-linecap: square"/>
   </g>
   <g id="patch_4">
    <path d="M 549.801179 235.698056  L 549.801179 7.2  " style="fill: none; stroke: #000000; stroke-width: 0.8; stroke-linejoin: miter; stroke-linecap: square"/>
   </g>
   <g id="patch_5">
    <path d="M 45.11281 235.698056  L 549.801179 235.698056  " style="fill: none; stroke: #000000; stroke-width: 0.8; stroke-linejoin: miter; stroke-linecap: square"/>
   </g>
   <g id="patch_6">
    <path d="M 45.11281 7.2  L 549.801179 7.2  " style="fill: none; stroke: #000000; stroke-width: 0.8; stroke-linejoin: miter; stroke-linecap: square"/>
   </g>
  </g>
 </g>
 <defs>
  <clipPath id="p1fad07bd02">
   <rect x="45.11281" y="7.2" width="504.688369" height="228.498056"/>
  </clipPath>
 </defs>
</svg>